<?xml version="1.0" encoding="utf-8"?>
<!-- Generator: Adobe Illustrator 25.4.1, SVG Export Plug-In . SVG Version: 6.00 Build 0)  -->
<svg version="1.1" id="Layer_1" xmlns="http://www.w3.org/2000/svg" xmlns:xlink="http://www.w3.org/1999/xlink" x="0px" y="0px"
	 viewBox="0 0 512 512" style="enable-background:new 0 0 512 512;" xml:space="preserve">
<style type="text/css">
	.st0{fill:#730A0A;}
	.st1{fill:#FFFFFF;}
</style>
<g>
	<path class="st0" d="M256,509.5c-67.7,0-131.4-26.4-179.3-74.2S2.5,323.7,2.5,256c0-67.7,26.4-131.4,74.2-179.3S188.3,2.5,256,2.5
		c67.7,0,131.4,26.4,179.3,74.2s74.2,111.5,74.2,179.3c0,67.7-26.4,131.4-74.2,179.3S323.7,509.5,256,509.5z"/>
	<path class="st1" d="M256,5c33.9,0,66.8,6.6,97.7,19.7c29.9,12.6,56.7,30.7,79.8,53.8c23.1,23.1,41.2,49.9,53.8,79.8
		c13.1,30.9,19.7,63.8,19.7,97.7s-6.6,66.8-19.7,97.7c-12.6,29.9-30.7,56.7-53.8,79.8c-23.1,23.1-49.9,41.2-79.8,53.8
		C322.8,500.4,289.9,507,256,507s-66.8-6.6-97.7-19.7c-29.9-12.6-56.7-30.7-79.8-53.8c-23.1-23.1-41.2-49.9-53.8-79.8
		C11.6,322.8,5,289.9,5,256s6.6-66.8,19.7-97.7c12.6-29.9,30.7-56.7,53.8-79.8c23.1-23.1,49.9-41.2,79.8-53.8
		C189.2,11.6,222.1,5,256,5 M256,0C114.6,0,0,114.6,0,256s114.6,256,256,256s256-114.6,256-256S397.4,0,256,0L256,0z"/>
</g>
<path class="st1" d="M378.5,338.5v-13.2c0-1.9-1.5-3.4-3.4-3.4l0,0h-3.2v-13.1c0-1.9-1.5-3.4-3.4-3.4c0,0,0,0,0,0h-0.8v-10.6
	c0-1.9-1.5-3.4-3.4-3.4c0,0,0,0,0,0h-5.9v-85.5h5.9c1.9,0,3.4-1.5,3.4-3.4v-10.7h4.3c1.9,0,3.4-1.5,3.4-3.4v-19.7
	c0-1.9-1.5-3.4-3.4-3.4h-11l-102.7-56.9c-1-0.6-2.3-0.6-3.3,0l-104.1,56.9h-11c-1.9,0-3.4,1.5-3.4,3.4l0,0v19.7
	c0,1.9,1.5,3.4,3.4,3.4h0h4.4v10.7c0,1.9,1.5,3.4,3.4,3.4l0,0h5.9v85.5h-5.9c-1.9,0-3.4,1.5-3.4,3.4v10.6h-0.1
	c-1.9,0-3.4,1.5-3.4,3.4c0,0,0,0,0,0v13.1h-3.9c-1.9,0-3.4,1.5-3.4,3.4c0,0,0,0,0,0v16.6c0,2.1,1.7,3.8,3.8,3.8c0,0,0,0,0,0h237.6
	c2.1,0,3.8-1.7,3.8-3.8c0,0,0,0,0,0V338.5z M360.9,298.2v7.2h-34.9v-7.3L360.9,298.2L360.9,298.2z M259.4,260.5v-37.7h28.2v82.5
	h-28.2v-37.6c2-1.8,2.1-5,0.3-6.9C259.6,260.7,259.5,260.6,259.4,260.5z M220.9,216h-37.5v-10.2h5.9c1.9,0,3.4-1.5,3.4-3.4v-10.7
	h37.9c12.5,13.9,33.9,15,47.9,2.5c0.9-0.8,1.7-1.6,2.5-2.5h37.9v10.7c0,1.9,1.5,3.4,3.4,3.4h6V216H220.9L220.9,216z M252.6,267.7
	v37.6h-28.2v-82.5h28.2v37.7c-2,1.8-2.1,5-0.3,6.9C252.4,267.5,252.5,267.6,252.6,267.7L252.6,267.7z M189.4,291.3h-6v-68.5h34v82.5
	h-24.7v-10.6C192.8,292.8,191.3,291.3,189.4,291.3L189.4,291.3z M228.5,168.7c0-15.2,12.3-27.5,27.4-27.5
	c15.2,0,27.5,12.3,27.5,27.4c0,15.2-12.3,27.5-27.4,27.5c0,0,0,0,0,0C240.8,196.1,228.5,183.8,228.5,168.7L228.5,168.7z
	 M294.4,222.8h34.1v68.5h-5.9c-1.9,0-3.4,1.5-3.4,3.4v10.6h-24.7L294.4,222.8z M335.3,291.3v-85.5h4.7v85.5L335.3,291.3z
	 M346.8,291.3v-85.5h4.7v85.5L346.8,291.3z M360.9,199h-34.9v-7.3h34.9L360.9,199L360.9,199z M368.6,172.1V185H286
	c2.2-4,3.5-8.4,3.9-12.9L368.6,172.1L368.6,172.1z M256.7,115.2l90.3,50.1h-57.1c-1.8-18.7-18.4-32.5-37.1-30.8
	c-16.3,1.5-29.2,14.4-30.8,30.8h-56.9L256.7,115.2z M143.4,185v-12.9h78.7c0.4,4.5,1.8,8.9,3.9,12.9L143.4,185L143.4,185z
	 M151.1,199v-7.3h34.9v7.3H151.1L151.1,199z M176.7,205.8v85.5H172v-85.5L176.7,205.8z M165.2,205.8v85.5h-4.7v-85.5L165.2,205.8z
	 M151.1,298.1H186v7.2h-34.9V298.1z M147.6,312.2h217.5v9.7H147.6V312.2z M140.2,328.7h231.5v9.7H140.2V328.7z"/>
<path class="st1" d="M256.3,179.8c-3,0-5-1.6-5.5-4.2h-7.1c0.4,4.8,3.7,8.3,9.5,9.2v4h6v-4c5.5-0.8,9.2-3.9,9.2-9.6
	c0-5.3-2.8-8.3-10.2-10.4c-5.4-1.5-6.5-2.5-6.5-4.7c0-1.6,0.9-3.4,4.1-3.4c3.8,0,4.5,2.2,4.8,3.6h7.1c-0.4-3.9-2.6-7.7-8.8-8.7v-3.2
	h-5.9v3.3c-4.7,0.9-8.5,4-8.5,9.1c0,4.7,2.5,7.8,10.9,10.2c4.6,1.3,5.9,2.5,5.9,5C261.2,178.1,260,179.8,256.3,179.8z"/>
<path class="st1" d="M256,436.8c-99.5,0-180.1-80.6-180.1-180.1S156.5,76.6,256,76.6c99.5,0,180.1,80.6,180.1,180.1
	c0,47.8-19,93.6-52.7,127.3C349.6,417.9,303.7,436.9,256,436.8z M256,81.3c-96.8,0-175.4,78.4-175.4,175.3
	C80.5,353.5,159,432,255.8,432c96.8,0,175.4-78.4,175.4-175.3c0-46.5-18.4-91.1-51.3-124C347.1,99.7,302.5,81.2,256,81.3L256,81.3z"
	/>
<path class="st1" d="M90.9,105.2l7.2,4.7l-0.4,0.6c-1.5-0.6-3.1-1-4.7-1.1c-1.4,0-2.7,0.3-3.9,0.9c-1.3,0.7-2.5,1.7-3.4,2.9
	l-0.4,0.5c-1.3,1.6-1.9,2.9-1.8,4s0.8,2.3,2.2,3.4l6.1,4.9l1.4-1.8c1.5-1.8,2.3-3.3,2.4-4.6c0.1-1.3-0.5-2.7-1.7-4.2l0.4-0.5
	l9.5,7.8l-0.4,0.5c-1.2-0.7-2.5-1.2-3.8-1.5c-1-0.2-2,0-2.8,0.5c-1.1,0.7-2.1,1.6-2.9,2.7l-1.4,1.7l7.6,6.2c0.8,0.7,1.6,1.2,2.5,1.7
	c0.6,0.3,1.3,0.3,2,0.2c1.5-0.3,2.8-1.1,3.9-2.2l0.6,0.4L99.2,145l-0.6-0.4c0.8-1.2,1.1-2.6,0.8-4c-0.2-0.9-1.2-2.1-2.9-3.5L83,126
	c-0.8-0.7-1.6-1.3-2.5-1.7c-0.6-0.3-1.2-0.4-1.8-0.4c-1.3,0.1-2.5,0.7-3.4,1.6l-0.6-0.4L90.9,105.2z M100.3,141.7l4.3-5.2l-1.1,0.3
	c-0.4,0.1-0.9,0.2-1.4,0.2c-0.4-0.1-0.7-0.2-0.9-0.5l-0.4-0.3l-0.2-0.2l-0.3-0.2l-16.7-13.6l-0.3-0.2l-0.2-0.2l-0.4-0.3
	c-0.3-0.2-0.5-0.5-0.7-0.9c-0.1-0.4-0.1-0.9-0.1-1.3l0.1-1.6l-4.8,5.9l1.6-0.4c0.4-0.1,0.9-0.2,1.3-0.2c0.4,0.1,0.7,0.3,1,0.5
	c0.2,0.1,0.4,0.3,0.6,0.5L82,124l16.7,13.6l0.3,0.3l0.6,0.5c0.3,0.2,0.5,0.5,0.7,0.8c0.1,0.4,0.1,0.9,0.1,1.4L100.3,141.7z
	 M90.5,107.1l-2.1,2.6c0.7-0.4,1.5-0.7,2.3-0.9c0.8-0.2,1.7-0.2,2.5-0.1L90.5,107.1z M96.2,118.9c0.1,0.4,0.1,0.9,0,1.3
	c-0.1,0.5-0.2,1.1-0.4,1.6c0.8-0.5,1.8-0.9,2.7-1L96.2,118.9z"/>
<path class="st1" d="M114.3,83.1l6.4,5.7l-0.5,0.5c-1.9-1.3-4.2-2-6.6-1.9c-2.2,0.2-4.2,1.2-5.8,2.8l-1,0.9
	c-1.5,1.4-2.3,2.6-2.4,3.8s0.5,2.4,1.7,3.7l5.3,5.8l2.3-2.1c1.7-1.6,2.7-3,3-4.2c0.3-1.3-0.1-2.7-1-4.4l0.5-0.5l7.9,8.6l-0.5,0.5
	c-1-0.8-2.1-1.4-3.3-1.8c-0.9-0.2-1.9-0.2-2.8,0.2c-1.2,0.5-2.2,1.3-3.2,2.2L112,105l6.8,7.4c0.8,0.9,1.7,1.7,2.7,2.3
	c0.7,0.4,1.5,0.5,2.3,0.2c1-0.4,1.8-0.9,2.5-1.7l1.6-1.4c1.6-1.5,2.6-3.4,3.1-5.5c0.6-2.8,0.7-5.7,0.4-8.6l0-0.3l0.6-0.6l4.4,8.8
	l-20.2,18.4l-0.5-0.5c0.9-1.1,1.4-2.4,1.4-3.9c-0.1-0.9-0.8-2.2-2.4-3.8L103,103c-0.7-0.8-1.4-1.5-2.3-2.1c-0.5-0.4-1.1-0.6-1.7-0.6
	c-1.3-0.1-2.6,0.3-3.6,1.1l-0.5-0.5L114.3,83.1z M117.8,121l5-4.6l-1.1,0.1c-0.5,0.1-0.9,0.1-1.4,0c-0.3-0.1-0.6-0.3-0.9-0.6
	c-0.2-0.2-0.3-0.3-0.3-0.4c-0.1-0.1-0.1-0.1-0.2-0.2l-0.3-0.3L104,99.2l-0.3-0.3c-0.1-0.1-0.1-0.1-0.2-0.2l-0.3-0.4
	c-0.3-0.3-0.5-0.6-0.5-1c0-0.4,0-0.9,0.1-1.3l0.3-1.6l-5.6,5.1l1.6-0.2c0.5-0.1,0.9-0.1,1.4,0c0.3,0.1,0.6,0.3,0.9,0.6
	c0.2,0.2,0.4,0.4,0.5,0.5l0.3,0.3l14.6,15.9l0.3,0.3c0.2,0.2,0.3,0.4,0.5,0.6c0.3,0.3,0.5,0.6,0.6,0.9c0,0.5,0,0.9-0.1,1.4
	L117.8,121z M113.6,84.9l-2.5,2.2c0.7-0.3,1.5-0.5,2.3-0.6c0.9,0,1.7,0,2.6,0.2L113.6,84.9z M117.7,97.3c0,0.4-0.1,0.9-0.2,1.3
	c-0.2,0.5-0.4,1-0.7,1.5c0.9-0.4,1.9-0.6,2.9-0.6L117.7,97.3z M134.2,106l-1.9-4c0,0.8,0,1.6-0.1,2.4c-0.1,0.8-0.2,1.5-0.4,2.3
	c-0.2,0.8-0.4,1.5-0.7,2.3L134.2,106z"/>
<path class="st1" d="M138.2,103.8l-0.3-0.6c1.1-0.9,1.8-2.2,2-3.6c0.1-0.9-0.5-2.3-1.7-4.2l-9.5-14.6c-0.5-0.8-1.1-1.6-1.8-2.4
	c-0.5-0.5-1-0.8-1.6-1c-1.3-0.3-2.6-0.1-3.8,0.5l-0.4-0.6l0.8-0.4l2.4-1.3c0.8-0.4,1.6-0.9,2.4-1.5c1.5-1,3.1-2.1,4.8-3.4
	c1.6-1.2,2.7-2,3.5-2.6c1.9-1.3,4-2.2,6.2-2.7c2-0.4,4.1-0.5,6.1-0.1c2,0.4,3.9,1.2,5.6,2.4c3.6,2.6,6.1,6.5,7,10.9
	c0.4,2.1,0.3,4.2-0.2,6.2c-0.5,2.1-1.5,4-2.8,5.7c-1.5,1.9-3.3,3.5-5.3,4.8c-0.8,0.5-2.1,1.3-4,2.3c-1.3,0.7-2.6,1.4-3.7,2.2
	c-0.8,0.5-1.7,1.2-2.7,1.9l-2.5,1.9C138.5,103.5,138.3,103.7,138.2,103.8z M140.3,101c0.9-0.8,1.9-1.5,2.9-2.1
	c0.9-0.6,1.8-1.1,2.7-1.6h-1.1c-0.4,0-0.9-0.1-1.3-0.2c-0.3-0.2-0.6-0.5-0.8-0.8c-0.2-0.2-0.3-0.4-0.4-0.6l-0.2-0.3l-11.7-18.1
	l-0.2-0.3c-0.1-0.2-0.3-0.4-0.4-0.7c-0.2-0.3-0.3-0.6-0.4-1c0-0.5,0.2-0.9,0.3-1.3l0.5-1.4c-1.1,0.8-2,1.5-2.8,2.1
	c-0.8,0.5-1.8,1.1-3,1.7l-0.4,0.2l1.5,0.1c0.4,0,0.9,0.1,1.3,0.2c0.3,0.2,0.6,0.5,0.8,0.8l0.2,0.3l0.2,0.3l0.2,0.3l11.7,18.1
	l0.2,0.3c0.1,0.1,0.1,0.2,0.2,0.3l0.2,0.4c0.2,0.3,0.4,0.6,0.4,1c0,0.5-0.2,0.9-0.4,1.3L140.3,101z M132.5,76.7l9.7,15
	c0.7,1.3,1.7,2.4,2.8,3.3c0.7,0.5,1.6,0.8,2.5,0.7c1-0.1,2-0.4,2.8-1c1.4-0.9,2.6-2.1,3.5-3.6c0.9-1.5,1.4-3.1,1.6-4.8
	c0.2-1.8,0-3.7-0.5-5.4c-0.6-2-1.4-3.8-2.5-5.5c-1.4-2.2-3.2-4.1-5.4-5.5c-1.9-1.3-4.2-2-6.5-2c-2.2-0.1-4.4,0.6-6.2,1.8
	c-1.5,1-2.4,2-2.7,3.2C131.2,73.9,131.6,75.2,132.5,76.7z M153.4,92.6c1.2-1.2,2.1-2.5,2.9-3.9c0.7-1.4,1.2-2.9,1.4-4.4
	c0.6-3.7-0.3-7.5-2.4-10.6c-1.2-1.9-2.8-3.5-4.7-4.8c-1.8-1.2-3.9-2-6-2.2c-2.2-0.3-4.4-0.1-6.5,0.6c0.9-0.1,1.8-0.2,2.7-0.1
	c0.9,0,1.7,0.1,2.5,0.3c0.8,0.2,1.5,0.4,2.2,0.7c3.1,1.4,5.7,3.7,7.4,6.6c1.1,1.6,1.9,3.3,2.5,5.1c0.6,1.6,0.8,3.4,0.8,5.1
	c0,1.3-0.3,2.6-0.7,3.8C155.1,90.3,154.3,91.5,153.4,92.6z"/>
<path class="st1" d="M179.2,45.8l4.2,7.5l-0.7,0.3c-1.4-1.8-3.4-3.2-5.6-3.9c-2.1-0.5-4.4-0.3-6.4,0.7l-1.2,0.5
	c-1.8,0.8-3,1.7-3.5,2.8c-0.5,1-0.3,2.4,0.4,4.1l3.1,7.2l2.8-1.2c2.1-0.9,3.5-1.9,4.2-3c0.7-1.1,0.8-2.6,0.4-4.5l0.6-0.3l4.6,10.7
	l-0.6,0.3c-0.7-1.1-1.5-2-2.5-2.8c-0.8-0.5-1.7-0.8-2.7-0.7c-1.3,0.1-2.5,0.5-3.7,1l-2.9,1.2l3.9,9.2c0.4,1.1,1,2.1,1.8,3
	c0.5,0.6,1.3,0.9,2,1c1-0.1,2-0.3,3-0.8l1.9-0.8c2-0.9,3.6-2.3,4.7-4.1c1.5-2.5,2.6-5.1,3.3-7.9V65l0.7-0.3l1.2,9.7l-25,10.8
	l-0.3-0.7c1.2-0.7,2.2-1.8,2.6-3.2c0.2-0.9-0.1-2.4-0.9-4.4l-6.9-16c-0.4-0.9-0.9-1.9-1.4-2.7c-0.4-0.5-0.9-0.9-1.4-1.2
	c-1.2-0.5-2.5-0.6-3.8-0.2l-0.3-0.7L179.2,45.8z M170,82.8l6.2-2.7l-1.1-0.3c-0.5-0.1-0.9-0.2-1.3-0.5c-0.3-0.2-0.5-0.5-0.6-0.9
	l-0.2-0.4c0-0.1-0.1-0.2-0.1-0.2l-0.2-0.4l-8.5-19.8l-0.2-0.4c0-0.1-0.1-0.2-0.1-0.3s-0.1-0.2-0.2-0.4c-0.2-0.3-0.2-0.7-0.2-1.1
	c0.1-0.4,0.3-0.8,0.6-1.2l0.8-1.4l-7,3l1.6,0.4c0.5,0.1,0.9,0.2,1.3,0.4c0.3,0.2,0.5,0.5,0.6,0.9c0.1,0.2,0.2,0.5,0.3,0.7l0.2,0.4
	l8.5,19.8l0.1,0.4c0.1,0.2,0.2,0.5,0.3,0.7c0.2,0.3,0.2,0.7,0.2,1c-0.1,0.4-0.3,0.9-0.6,1.2L170,82.8z M177.9,47.3l-3.1,1.3
	c0.8,0,1.6,0,2.4,0.2c0.8,0.3,1.6,0.6,2.4,1.1L177.9,47.3z M177.7,60.3c-0.2,0.4-0.4,0.8-0.6,1.2c-0.3,0.4-0.7,0.8-1.1,1.2
	c1-0.1,2,0,2.9,0.4L177.7,60.3z M190.6,73.9l-0.5-4.5c-0.3,0.8-0.6,1.5-0.9,2.2c-0.3,0.7-0.7,1.4-1.1,2c-0.4,0.7-0.9,1.3-1.4,1.9
	L190.6,73.9z"/>
<path class="st1" d="M200.7,54.8l2.2,9.2c0.2,1,0.5,1.9,0.9,2.8c0.3,0.6,0.8,1.1,1.3,1.5c1.2,0.7,2.6,1,3.9,0.8l0.2,0.7l-14.3,3.4
	l-0.2-0.7c1.3-0.5,2.4-1.4,3.1-2.7c0.4-0.9,0.3-2.4-0.2-4.5l-4.1-17c-0.2-1-0.5-2-0.9-2.9c-0.3-0.6-0.7-1-1.2-1.4
	c-1.1-0.7-2.4-0.9-3.7-0.8l-0.2-0.7c0.2,0,0.4-0.1,0.6-0.1l2-0.4c0.8-0.1,1.7-0.3,2.8-0.6c1.7-0.4,3.2-0.8,4.5-1.3l3.1-1
	c1-0.3,1.9-0.6,2.9-0.8c1.6-0.4,3.2-0.6,4.9-0.6c1.3,0,2.7,0.2,3.9,0.7c1.1,0.4,2,1.1,2.8,1.9c0.8,0.9,1.3,2,1.6,3.1
	c0.5,1.8,0.2,3.7-0.9,5.2c-1.1,1.5-3,2.6-5.7,3.5c1.7,0.2,3.4,0.8,4.9,1.7c2,1.3,3.9,2.9,5.5,4.6c1.7,1.8,3.6,3.4,5.6,4.9
	c1.2,0.8,2.6,1.4,4.1,1.6l0.2,0.6c-1.4,0.3-2.8,0.5-4.3,0.6c-1.3,0-2.6-0.2-3.8-0.6c-1.7-0.6-3.4-1.5-4.8-2.6
	c-1.7-1.3-3.2-2.7-4.5-4.4l-1.8-2.2c-0.6-0.8-1.3-1.5-2.1-2.2c-0.5-0.4-1.2-0.7-1.8-0.7c-0.8,0-1.7,0.1-2.5,0.3L200.7,54.8z
	 M197.8,71.3l6.6-1.6l-1-0.4c-0.4-0.2-0.8-0.4-1.2-0.7c-0.2-0.3-0.4-0.6-0.5-1c-0.1-0.2-0.1-0.4-0.1-0.5c0-0.1-0.1-0.2-0.1-0.3
	l-0.1-0.4l-5-21l-0.1-0.4c0-0.1,0-0.2-0.1-0.3s0-0.3-0.1-0.5c-0.1-0.3-0.1-0.7,0-1c0.2-0.4,0.4-0.7,0.6-1l0.1-0.1l1-1.3l-0.8,0.2
	c-1.3,0.4-2.6,0.8-3.6,1c-0.7,0.2-1.6,0.4-2.8,0.6l1.4,0.6c0.4,0.1,0.8,0.3,1.2,0.6c0.2,0.3,0.4,0.6,0.5,1c0.1,0.2,0.1,0.5,0.2,0.7
	l0.1,0.4l5,21l0.1,0.4c0.1,0.2,0.1,0.5,0.2,0.8c0.1,0.3,0.1,0.7,0,1.1c-0.2,0.4-0.5,0.8-0.8,1.1L197.8,71.3z M200.4,53.9l4-1
	c2.3-0.6,3.9-1.2,4.8-2c0.8-0.7,1.4-1.6,1.6-2.7c0.3-1.2,0.3-2.4,0-3.6c-0.3-1.2-0.9-2.4-1.8-3.3c-0.8-0.9-1.9-1.5-3.2-1.8
	c-1.3-0.3-2.6-0.3-3.9,0c-2.1,0.5-3.3,1.5-3.7,2.9c-0.2,1.2-0.1,2.4,0.2,3.6L200.4,53.9z M209.2,51.9c0.9-0.4,1.7-1,2.5-1.6
	c0.7-0.5,1.2-1.2,1.7-1.9c0.4-0.7,0.7-1.4,0.8-2.1c0.1-0.7,0.1-1.5-0.1-2.3c-0.4-1.6-1.4-3-2.8-3.8c-1.5-1-3.4-1.4-5.2-1.2
	c0.9,0.2,1.8,0.6,2.6,1.1c0.7,0.5,1.4,1.1,1.9,1.9c0.5,0.8,0.9,1.6,1.1,2.5c0.4,1.4,0.4,2.9,0,4.2C211.2,50,210.4,51.1,209.2,51.9z
	 M227.4,65.4c-0.8-0.2-1.5-0.4-2.2-0.7c-0.7-0.3-1.4-0.7-2.1-1.1c-0.8-0.5-1.6-1.1-2.4-1.7c-0.6-0.5-1.6-1.5-3-2.9
	c-1.1-1.2-2.3-2.2-3.5-3.3c-0.9-0.7-1.9-1.3-2.9-1.8c-0.9-0.4-1.9-0.7-2.9-0.9c0.7,0.4,1.3,0.9,1.9,1.5c0.3,0.3,0.8,0.9,1.6,1.8
	l0.7,0.8c0.2,0.3,0.5,0.5,0.7,0.8c1.9,2.4,4.2,4.4,6.9,5.9C222.4,64.9,224.9,65.5,227.4,65.4L227.4,65.4z"/>
<path class="st1" d="M249.4,52.3l-11.9,0.6l-1.1,3c-0.5,1.2-0.7,2.4-0.7,3.6c0,0.7,0.2,1.4,0.7,2c0.4,0.6,1,1.1,1.7,1.3
	c0.9,0.4,1.9,0.7,2.9,0.8l0,0.7l-12,0.7l0-0.7c1.4-0.6,2.7-1.5,3.6-2.8c1.3-1.8,2.3-3.8,3-6l8.9-23.6h0.6l12.4,24.3
	c0,0,0.1,0.1,0.1,0.1c0,0.1,0.1,0.1,0.1,0.2c0,0.1,0.1,0.2,0.1,0.2l1.1,2c0.5,0.9,1.2,1.8,2,2.4c0.8,0.6,1.7,0.9,2.7,1.1l0,0.7
	L249,63.9v-0.7c0.9-0.1,1.8-0.3,2.7-0.6c1-0.3,1.6-1.2,1.6-2.3c-0.2-0.9-0.4-1.7-0.9-2.5L249.4,52.3z M236.4,63.5
	c-0.5-0.5-0.9-1-1.2-1.6c-0.2-0.5-0.4-1-0.4-1.6c0-0.2,0-0.4,0-0.6c-0.3,0.8-0.8,1.6-1.3,2.3c-0.5,0.7-1.1,1.3-1.8,1.8L236.4,63.5z
	 M248.9,51.3l-6.2-12.2l-4.8,12.8L248.9,51.3z M243.1,38.1l10,19.5l0.3,0.5c0.4,0.7,0.7,1.4,0.8,2.2c0,0.9-0.4,1.7-1,2.3l6.1-0.3
	c-0.7-0.6-1.4-1.3-1.9-2.1c-0.7-1.1-1.4-2.2-2-3.4L244.2,35L243.1,38.1z"/>
<path class="st1" d="M282.2,33.7l-0.1,0.7c-1.5,0-3,0.5-4.2,1.5c-0.4,0.4-0.8,1-0.9,1.6c-0.3,0.9-0.4,1.8-0.5,2.7l-1.8,17.5
	c-0.1,0.9-0.1,1.8-0.1,2.7c0,0.6,0.2,1.2,0.5,1.7c0.6,0.9,1.9,1.5,3.8,1.7l0.5,0.1c1,0.1,2.1,0.1,3.1-0.2c1.1-0.2,2.2-0.7,3.2-1.2
	c1.2-0.7,2.3-1.4,3.4-2.3c1.3-1.1,2.5-2.2,3.6-3.4l0.7,0.1l-3.8,9.2l-25.4-2.7l0.1-0.7c1.4,0,2.8-0.5,3.8-1.5
	c0.7-0.7,1.1-2.1,1.3-4.3l1.8-17.3c0.1-1,0.2-2,0.1-3.1c-0.1-0.6-0.3-1.2-0.7-1.7c-0.8-1-1.9-1.7-3.2-2l0.1-0.7L282.2,33.7z
	 M267.5,62.7l6.7,0.7l-0.8-0.8c-0.3-0.3-0.6-0.6-0.9-1c-0.1-0.3-0.2-0.7-0.1-1.1c0-0.2,0-0.3,0-0.5c0-0.1,0-0.2,0-0.3v-0.4l2.2-21.5
	l0-0.4c0-0.1,0-0.2,0-0.3c0-0.1,0-0.3,0.1-0.5c0-0.4,0.1-0.7,0.3-1c0.3-0.3,0.7-0.6,1.1-0.8l1.4-0.8l-7.5-0.8l1.2,1.1
	c0.4,0.3,0.7,0.6,0.9,1c0.1,0.3,0.2,0.7,0.1,1.1c0,0.3,0,0.5-0.1,0.8v0.4L270,59.2l0,0.4c0,0.2-0.1,0.5-0.1,0.8c0,0.4-0.1,0.7-0.3,1
	c-0.3,0.3-0.7,0.6-1.1,0.8L267.5,62.7z M288.1,64.8l1.7-4.1c-1.7,1.6-3.6,2.9-5.8,3.7L288.1,64.8z"/>
<path class="st1" d="M306.4,69.7l0.2-0.7c1.4,0.3,2.8,0.1,4-0.7c0.8-0.5,1.5-1.8,2.2-3.9l5.7-16.5c0.4-0.9,0.6-1.9,0.7-2.9
	c0.1-0.6,0-1.3-0.3-1.9c-0.5-1.2-1.5-2.1-2.6-2.7l0.2-0.7l0.3,0.1l2.6,1.1c0.9,0.4,1.8,0.7,2.7,1c0.8,0.3,1.7,0.5,2.7,0.8
	c1.1,0.3,1.9,0.5,2.4,0.6l2.3,0.5c0.8,0.2,1.7,0.4,2.5,0.7c1.4,0.5,2.7,1.1,3.9,1.9c1,0.7,1.9,1.6,2.6,2.6c0.6,0.9,1,1.9,1.2,3
	c0.1,1.1,0,2.2-0.3,3.3c-0.5,1.6-1.6,3-3.2,3.8c-1.7,0.8-3.7,1.2-5.6,0.9c1.5,0.7,2.9,1.7,4.1,2.9c1,1.1,1.7,2.5,2,3.9
	c0.3,1.5,0.2,3-0.3,4.4c-0.4,1.1-1,2.2-1.8,3c-0.8,0.8-1.8,1.5-2.9,1.8c-1.2,0.4-2.6,0.6-3.9,0.5c-1.5-0.1-3-0.4-4.4-0.9
	c-0.8-0.3-1.9-0.7-3.4-1.4c-2.2-0.9-3.6-1.6-4.4-1.9c-1.3-0.5-2.5-1-3.6-1.3c-0.9-0.3-1.8-0.6-2.9-0.9l-2.3-0.6L306.4,69.7z
	 M309.9,69.6c1,0.2,2,0.5,3,0.8c0.9,0.3,1.8,0.7,2.7,1.1l0.5,0.2l-0.6-0.9c-0.3-0.4-0.5-0.8-0.6-1.2c-0.1-0.4,0-0.7,0.1-1.1l0.3-0.7
	c0-0.1,0.1-0.2,0.1-0.3c0,0,0-0.1,0-0.1l7-20.4c0,0,0-0.1,0.1-0.1c0,0,0-0.1,0.1-0.2l0.2-0.7c0.1-0.3,0.2-0.5,0.3-0.7
	c0.1-0.2,0.3-0.3,0.5-0.4c0.3-0.2,0.7-0.3,1-0.4l1.5-0.5l-0.8-0.2c-1.2-0.3-2.2-0.6-3-0.9c-1.1-0.4-2.1-0.8-3.1-1.3l0.9,1.3
	c0.3,0.4,0.5,0.8,0.7,1.2c0.1,0.4,0,0.7-0.1,1l-0.2,0.7l-0.1,0.4l-7,20.4l-0.1,0.4l-0.3,0.7c-0.1,0.3-0.3,0.7-0.5,0.9
	c-0.4,0.2-0.8,0.4-1.3,0.6L309.9,69.6z M320.8,57.6l-3.2,9.2c-0.7,1.9-0.7,3.4-0.1,4.5c0.6,1.1,1.9,2,4,2.7c2.4,0.8,4.4,0.8,6.1-0.2
	c1.7-0.9,3-2.5,3.6-4.4c0.3-0.8,0.4-1.6,0.5-2.5c0-0.8-0.1-1.5-0.3-2.3c-0.2-0.7-0.6-1.4-1-2c-0.4-0.6-1-1.2-1.7-1.7
	c-1.3-0.9-2.8-1.6-4.3-2.1L320.8,57.6z M321.1,56.8l3.5,1.2c2.1,0.7,3.8,0.9,5.2,0.4c1-0.3,1.9-0.9,2.6-1.6c1.6-1.7,2.4-4.1,2.1-6.5
	c-0.2-1.2-0.7-2.3-1.4-3.2c-0.8-0.9-1.8-1.6-2.9-2c-0.8-0.3-1.7-0.4-2.6-0.3c-0.8,0.1-1.5,0.4-2.1,1c-0.7,0.9-1.3,1.9-1.6,3
	L321.1,56.8z M325.3,75.3c1.3,0.3,2.7,0.3,4,0c1.2-0.2,2.3-0.8,3.2-1.5c0.9-0.8,1.6-1.7,1.9-2.9c0.6-1.6,0.5-3.4-0.1-4.9
	c-0.8-1.8-2-3.3-3.6-4.5c1.9,2.3,2.4,5.4,1.4,8.2C330.9,73.1,328.6,75,325.3,75.3L325.3,75.3z M329.7,59.2c1.7,0.1,3.4-0.2,5-1
	c1.3-0.8,2.3-2,2.8-3.5c0.5-1.4,0.5-3-0.1-4.4c-0.8-1.6-2-2.9-3.5-3.8c1.7,2.1,2.2,5,1.3,7.6C334.3,56.7,332.2,58.7,329.7,59.2
	L329.7,59.2z"/>
<path class="st1" d="M357.5,78.5L347,72.9l-2.5,2c-1,0.7-1.9,1.7-2.5,2.7c-0.4,0.6-0.5,1.3-0.5,2.1c0.1,0.7,0.3,1.4,0.7,2
	c0.6,0.8,1.3,1.5,2,2.1l-0.3,0.6l-10.5-5.7l0.3-0.6c1.5,0.3,3.1,0.1,4.5-0.5c2-0.9,3.9-2.1,5.6-3.5l20-15.5l0.5,0.3l-2.1,27.2
	c0,0,0,0.1,0,0.1c0,0.1,0,0.2,0,0.2c0,0.1,0,0.2,0,0.3l-0.1,2.4c-0.1,1.1,0.1,2.1,0.5,3.2c0.4,0.9,1,1.7,1.8,2.4l-0.3,0.6l-12.9-7
	l0.3-0.6c0.8,0.4,1.7,0.7,2.6,0.9c1,0.2,2-0.2,2.5-1.1c0.3-0.8,0.5-1.7,0.5-2.5L357.5,78.5z M340.5,81.2c-0.1-0.7-0.2-1.3-0.2-2
	c0.1-0.6,0.2-1.1,0.5-1.6c0.1-0.2,0.2-0.4,0.3-0.5c-0.7,0.5-1.5,0.9-2.3,1.3c-0.8,0.3-1.6,0.5-2.5,0.6L340.5,81.2z M357.5,77.4
	l1.1-13.7l-10.8,8.4L357.5,77.4z M359.5,63.1L357.8,85v0.6c0,0.8-0.1,1.6-0.4,2.4c-0.5,0.7-1.2,1.2-2,1.4l5.4,2.9
	c-0.3-0.9-0.5-1.9-0.5-2.8c0-1.3,0-2.6,0.1-3.9l1.9-24.3L359.5,63.1z"/>
<path class="st1" d="M388.6,116.1l-0.5-0.4l-2.7-36.9l-9.7,12.1c-0.9,1.1-1.7,2.2-2.4,3.4c-0.5,0.8-0.8,1.8-0.9,2.7
	c-0.2,2.1,0.5,4.2,1.9,5.7l-0.4,0.6l-9.4-7.6l0.5-0.6c2,0.7,4.2,0.4,6-0.8c0.7-0.4,1.3-0.9,1.9-1.5c0.6-0.6,1.3-1.4,2.2-2.4
	l10.4-12.8c-0.1-1.3-0.3-2.5-0.6-3.7c-0.2-0.8-0.6-1.5-1-2.2l0.4-0.6l7,5.6c-0.1,0.7-0.2,1.4-0.2,2.1c0,0.2,0,0.5,0,0.7
	c0,0.4,0,0.6,0,0.8v0.6l2,28.5l10-12.3c0.9-1,1.6-2.2,2-3.5c0.3-1,0.3-2.1,0-3.1c-0.4-1.2-1.1-2.2-1.9-3.1l0.4-0.6l8.6,6.9l-0.4,0.6
	c-1.2-0.7-2.6-0.8-3.9-0.4c-1.1,0.4-2.4,1.7-4,3.6L388.6,116.1z M370.7,99.2c-0.1-0.7-0.1-1.5,0-2.2c0.1-0.7,0.3-1.4,0.5-2
	c-1.2,0.8-2.7,1.2-4.2,1.3L370.7,99.2z M388.8,114.4l2.3-2.8L388.8,80c-0.1-1.3-0.1-2.6,0.1-3.9l-3.7-3c0.5,1.4,0.8,2.9,0.8,4.4
	L388.8,114.4z M405.4,89.4c0.3,0.6,0.5,1.3,0.6,1.9c0,0.7,0,1.4-0.2,2c0.5-0.3,1-0.6,1.5-0.8c0.5-0.2,1-0.3,1.5-0.4L405.4,89.4z"/>
<path class="st1" d="M414.9,118.7l-5.8-0.6l-4.5,3.8c-0.8,0.6-1.5,1.3-2.1,2.1c-0.4,0.5-0.6,1.2-0.7,1.8c-0.1,1.4,0.3,2.7,1.1,3.8
	l-0.5,0.5L393,119l0.5-0.5c1,1,2.4,1.5,3.8,1.5c0.9,0,2.3-0.8,3.9-2.2l13.3-11.3c0.8-0.6,1.5-1.4,2.2-2.2c0.4-0.5,0.6-1.1,0.7-1.7
	c0.1-1.3-0.2-2.6-1-3.7l0.5-0.5l9.3,11l-0.5,0.5c-1-1-2.4-1.5-3.8-1.5c-0.6,0-1.2,0.2-1.7,0.5c-0.8,0.5-1.6,1-2.3,1.7l-7.9,6.7
	l12.6,1.2c1.2,0.2,2.4,0.2,3.5,0.1c0.7-0.1,1.4-0.3,2-0.8c0.6-0.5,1-1.3,1-2.1c0-0.9-0.3-1.8-0.9-2.5l0.6-0.5l8.3,9.7l-0.5,0.4
	c-2.3-1.5-5.7-2.5-10.3-3l-3.1-0.3l-0.7-0.1l-2.2-0.2l-4.7,16.5c0,0.1-0.1,0.3-0.1,0.4c0,0.1-0.1,0.2-0.1,0.4l-0.7,3
	c-0.2,1-0.2,2,0,3c0.2,0.9,0.6,1.7,1.2,2.4l-0.5,0.5l-9.7-11.4l0.6-0.5c0.5,0.7,1.2,1.2,2,1.6c0.6,0.2,1.2,0,1.6-0.4
	c0.3-0.3,0.6-0.6,0.8-1c0.3-0.6,0.5-1.3,0.7-2L414.9,118.7z M396,120.7l4.4,5.1l-0.1-1.1c-0.1-0.5,0-0.9,0-1.4
	c0.1-0.3,0.4-0.6,0.7-0.8l0.4-0.3c0.1-0.1,0.1-0.1,0.2-0.2l0.3-0.3l16.4-14l0.3-0.3l0.2-0.2c0.1-0.1,0.2-0.2,0.4-0.3
	c0.3-0.3,0.6-0.4,1-0.5c0.4,0,0.9,0,1.3,0.2l1.6,0.4l-4.9-5.8l0.1,1.6c0.1,0.4,0.1,0.9,0,1.4c-0.1,0.3-0.4,0.6-0.7,0.9
	c-0.2,0.2-0.4,0.3-0.6,0.5l-0.3,0.3l-16.5,14l-0.3,0.3c-0.2,0.2-0.4,0.3-0.6,0.5c-0.3,0.3-0.6,0.4-0.9,0.5c-0.5,0-0.9,0-1.4-0.1
	L396,120.7z M415.8,118.7l-3.6,12.7c-0.4,1.3-0.7,2.2-0.9,2.7c-0.2,0.4-0.4,0.8-0.7,1.1c-0.5,0.4-1.2,0.6-1.9,0.4l4.3,5.1
	c-0.1-0.9-0.1-1.8,0.1-2.7l0.4-2.2l0.3-1.1l4.5-15.8L415.8,118.7z M428.3,118.6c1.8,0.2,3.7,0.5,5.5,0.9l-3.7-4.3
	c0.1,1.1-0.3,2.2-1.1,3C428.8,118.3,428.6,118.4,428.3,118.6z"/>
<path class="st1" d="M142.3,419.4c0.7-1.1,1.6-2,2.6-2.7c3.2-2.2,7.4-2.3,10.7-0.2c1.4,0.9,2.6,2.2,3.4,3.7c0.8,1.5,1.1,3.2,1.1,4.9
	c-0.2,4.4-3.3,8.1-7.5,9c-1.2,0.3-2.5,0.3-3.7,0.1c-1.3-0.2-2.5-0.7-3.5-1.4c-2.9-1.8-4.7-5.1-4.5-8.6
	C140.9,422.5,141.4,420.9,142.3,419.4z M142.6,429.4c-0.4-0.9-0.5-1.9-0.6-2.8c0-1,0.2-2,0.5-3c0.4-1.1,0.9-2.2,1.6-3.2
	c0.8-1.4,2-2.6,3.3-3.6c1.2-0.8,2.6-1.3,4.1-1.4c-1.2-0.1-2.3,0-3.4,0.3c-1.1,0.3-2.1,0.8-3,1.4c-0.9,0.7-1.7,1.5-2.3,2.5
	c-0.6,1-1,2-1.3,3.2c-0.2,1.1-0.2,2.2-0.1,3.3C141.6,427.3,142,428.4,142.6,429.4L142.6,429.4z M145.2,421.2c-0.7,1-1.2,2.2-1.6,3.3
	c-0.3,1-0.5,2.1-0.5,3.2c0,0.9,0.3,1.8,0.7,2.6c0.4,0.8,1.1,1.5,1.8,1.9c1.3,0.8,2.9,1,4.4,0.6c1.1-0.3,2.1-0.9,3-1.6
	c1.1-0.9,2-2,2.8-3.3c0.7-1.1,1.2-2.2,1.6-3.4c0.3-1,0.5-2,0.5-3.1c0-0.9-0.3-1.8-0.7-2.6c-0.9-1.6-2.5-2.6-4.4-2.8
	c-0.9,0-1.8,0.1-2.6,0.5c-1,0.4-1.9,1-2.6,1.7C146.7,419.2,145.9,420.2,145.2,421.2z M148.8,433.4c3.5,0.3,6.9-1.4,8.6-4.4
	c0.6-1,1.1-2,1.3-3.1c0.3-1.1,0.3-2.1,0.2-3.2c-0.1-1-0.4-2-0.9-2.9c0.7,2.5,0.1,5.3-1.8,8.4c-0.6,0.9-1.2,1.7-1.9,2.4
	c-0.6,0.7-1.3,1.2-2,1.7c-0.3,0.2-0.6,0.4-1,0.5c-0.4,0.1-0.7,0.3-1.1,0.3C149.8,433.2,149.3,433.3,148.8,433.4L148.8,433.4z"/>
<path class="st1" d="M176.5,428.6l-1.8,4.7l-0.4-0.2c0.2-0.9,0.2-1.9,0.1-2.8c-0.1-0.8-0.5-1.5-1-2.2c-0.6-0.7-1.3-1.2-2.1-1.6
	l-0.3-0.2c-0.7-0.5-1.6-0.7-2.5-0.6c-0.8,0.3-1.4,0.9-1.7,1.7l-2.1,4.1l1.2,0.6c0.9,0.5,1.9,0.8,2.9,0.8c0.9-0.2,1.7-0.7,2.2-1.5
	l0.4,0.2l-3.3,6.4l-0.4-0.2c0.3-0.8,0.4-1.6,0.4-2.4c0-0.6-0.2-1.1-0.6-1.6c-0.5-0.5-1.2-1-1.9-1.3l-1.2-0.6l-2.6,5.1
	c-0.3,0.5-0.5,1.1-0.7,1.6c-0.1,0.4,0,0.8,0.1,1.2c0.4,0.8,1,1.5,1.7,2l-0.2,0.4l-7.9-4.1l0.2-0.4c0.8,0.3,1.6,0.3,2.4,0
	c0.7-0.5,1.3-1.2,1.6-2l4.7-9c0.3-0.5,0.5-1.1,0.7-1.6c0.1-0.3,0.1-0.7,0-1.1c-0.2-0.7-0.7-1.4-1.3-1.8l0.2-0.4L176.5,428.6z
	 M156.8,438.3l3.5,1.8l-0.3-0.6c-0.1-0.2-0.2-0.5-0.3-0.8c0-0.2,0.1-0.4,0.2-0.6c0-0.1,0.1-0.2,0.1-0.3l0.1-0.1l0.1-0.2l5.8-11.2
	l0.1-0.2c0,0,0-0.1,0.1-0.1c0.1-0.1,0.1-0.2,0.1-0.3c0.1-0.2,0.2-0.4,0.4-0.5c0.2-0.1,0.5-0.2,0.7-0.2l0.9-0.1l-3.9-2l0.4,0.9
	c0.1,0.2,0.2,0.5,0.3,0.7c0,0.2-0.1,0.4-0.2,0.6c-0.1,0.1-0.1,0.3-0.2,0.4l-0.1,0.2l-5.8,11.3l-0.1,0.2c-0.1,0.1-0.1,0.3-0.2,0.4
	c-0.1,0.2-0.2,0.4-0.4,0.5c-0.2,0.1-0.5,0.2-0.8,0.2L156.8,438.3z M169.4,433.3c-0.2,0.1-0.5,0.1-0.7,0.1c-0.3,0-0.6,0-1-0.1
	c0.4,0.4,0.7,0.9,0.9,1.5L169.4,433.3z M175.4,428.6l-1.7-0.9c0.3,0.4,0.6,0.8,0.8,1.2c0.2,0.5,0.3,0.9,0.4,1.4L175.4,428.6z"/>
<path class="st1" d="M208.7,443.5v8.7L208,452c-0.4-2.7-1.3-5.4-2.8-7.7c-1.4-1.8-3.3-3.2-5.5-3.8c-1.7-0.5-3.5-0.7-5.2-0.5
	c-1.8,0.2-3.5,0.9-5.1,1.8c-3,1.9-5.3,4.9-6.2,8.4c-0.9,2.7-1.2,5.6-0.8,8.4c0.3,2.5,1.3,5,2.9,7c1.5,1.9,3.6,3.4,5.9,4.1
	c1.4,0.5,2.8,0.6,4.2,0.5c1.1-0.1,2.2-0.5,3.1-1.2c0.9-1,1.6-2.2,1.9-3.6l0.2-0.8c0.3-1,0.6-2,0.6-3c0-0.7-0.1-1.4-0.4-2
	c-0.8-1.3-2-2.2-3.5-2.7l0.2-0.7l13.6,4.3l-0.2,0.7c-1.2-0.1-2.3,0.2-3.2,1c-0.6,0.6-1.3,1.9-2,4l-1.3,4l0.7,2.5
	c-0.2-0.1-0.4-0.2-0.7-0.2c-1.1-0.4-2.2-0.6-3.3-0.8c-1.5-0.2-2.9-0.2-4.4-0.2c-1.5,0-2.9-0.1-4.4-0.2c-1.2-0.2-2.5-0.5-3.7-0.9
	c-4.8-1.5-8.1-4.1-10-7.6c-2-4-2.4-8.6-1.1-12.9c0.7-2.1,1.8-4.1,3.2-5.8c1.4-1.7,3.2-3,5.2-4c4.1-2,8.8-2.3,13.2-0.9
	c1.5,0.5,3,1.1,4.5,1.9c0.3,0.1,0.6,0.3,0.9,0.4l1.9,1c0.4,0.2,0.8,0.4,1.3,0.6c0.1,0,0.2,0.1,0.3,0.1c0.1,0,0.3,0.1,0.5,0.1
	C208.5,443.5,208.6,443.5,208.7,443.5z M186.8,469.1c-1.2-0.9-2.4-1.9-3.4-3.1c-0.9-1-1.6-2.2-2.1-3.4c-0.8-1.8-1.2-3.8-1.3-5.8
	c-0.1-2.1,0.2-4.2,0.9-6.1c0.6-1.7,1.3-3.4,2.4-4.9c0.9-1.4,2.1-2.7,3.5-3.8c1.8-1.3,3.9-2.3,6-2.9c-2.3,0.3-4.5,1-6.5,2
	c-1.9,0.9-3.5,2.2-4.8,3.8c-3,3.6-4.3,8.4-3.6,13c0.4,2.4,1.4,4.7,3,6.6C182.3,466.5,184.4,468.1,186.8,469.1z M200.7,458.3l1,1.4
	c0.3,0.4,0.5,0.8,0.7,1.2c0.1,0.4,0,0.7-0.1,1.1c0,0.1-0.1,0.3-0.1,0.4c0,0.1-0.1,0.2-0.1,0.3l-0.1,0.4l-1.1,3.3
	c-0.3,0.9-0.7,1.8-1.3,2.6c-0.6,0.7-1.3,1.2-2.1,1.6c1.5-0.1,3.1-0.1,4.6,0.2l2.2-7l0.1-0.4c0.1-0.2,0.2-0.5,0.3-0.7
	c0.1-0.4,0.3-0.7,0.6-1c0.4-0.3,0.8-0.4,1.2-0.5l1.6-0.6L200.7,458.3z"/>
<path class="st1" d="M231.3,467.2l-11.8-1.6l-1.7,2.8c-0.7,1-1.2,2.2-1.4,3.4c-0.1,0.7,0,1.5,0.3,2.1c0.3,0.7,0.8,1.3,1.4,1.7
	c0.8,0.6,1.7,1,2.7,1.3l-0.1,0.7l-11.9-1.6l0.1-0.7c1.5-0.3,2.9-1,4.1-2c1.6-1.6,2.9-3.3,4-5.2l13.3-21.5l0.6,0.1l7.6,26.2
	c0,0,0,0.1,0.1,0.1c0,0.1,0,0.2,0.1,0.2l0.1,0.3l0.7,2.2c0.3,1,0.8,2,1.5,2.8c0.7,0.7,1.5,1.3,2.5,1.6l-0.1,0.7l-14.6-2l0.1-0.7
	c0.9,0.1,1.8,0.1,2.7-0.1c1-0.1,1.8-0.9,1.9-1.9c0-0.9-0.1-1.7-0.4-2.6L231.3,467.2z M216.4,475.8c-0.4-0.6-0.7-1.2-0.9-1.8
	c-0.1-0.5-0.2-1.1-0.1-1.7c0-0.3,0.1-0.5,0.1-0.6c-0.5,0.7-1.1,1.4-1.7,2c-0.6,0.6-1.3,1.1-2.1,1.5L216.4,475.8z M231,466.2
	l-3.8-13.2l-7.1,11.7L231,466.2z M227.9,452.1l6.1,21.1l0.2,0.5c0.3,0.8,0.4,1.6,0.4,2.4c-0.2,0.8-0.7,1.6-1.4,2l6,0.8
	c-0.6-0.7-1.1-1.6-1.5-2.5c-0.5-1.2-0.9-2.5-1.3-3.7l-6.8-23.4L227.9,452.1z"/>
<path class="st1" d="M246.4,480.3v-0.7c1.4-0.1,2.7-0.8,3.7-1.9c0.6-0.7,0.9-2.2,0.9-4.4l0.3-17.4c0-1,0-2-0.2-3
	c-0.1-0.6-0.4-1.2-0.8-1.6c-0.9-0.9-2.1-1.6-3.4-1.7v-0.7l14.4,0.2v0.7c-1.4,0.1-2.7,0.8-3.7,1.9c-0.3,0.5-0.6,1-0.7,1.6
	c-0.2,0.9-0.3,1.9-0.3,2.8l-0.3,17.4c0,1,0,2,0.2,3c0.1,0.6,0.4,1.2,0.8,1.7c0.9,0.9,2.1,1.6,3.4,1.7v0.7L246.4,480.3z M249.7,479.1
	l6.7,0.1l-0.9-0.7c-0.4-0.3-0.7-0.6-1-0.9c-0.2-0.3-0.2-0.7-0.2-1c0-0.2,0-0.3,0-0.5c0-0.1,0-0.2,0-0.3v-0.4l0.3-21.6v-0.4
	c0-0.1,0-0.2,0-0.3s0-0.3,0-0.5c0-0.4,0.1-0.7,0.2-1c0.3-0.4,0.6-0.7,1-0.9l1.3-0.9l-7.6-0.1l1.3,1c0.4,0.2,0.7,0.6,1,0.9
	c0.2,0.3,0.2,0.7,0.2,1.1c0,0.3,0,0.5,0,0.8v0.4l-0.4,21.6v0.4c0,0.2,0,0.5,0,0.8c0,0.4-0.1,0.7-0.2,1c-0.3,0.4-0.6,0.7-1,0.9
	L249.7,479.1z"/>
<path class="st1" d="M283.7,467.1l-11.8,1.3l-1,3.1c-0.4,1.2-0.6,2.4-0.5,3.7c0.1,0.7,0.3,1.4,0.8,2c0.5,0.6,1.1,1,1.8,1.2
	c0.9,0.3,1.9,0.5,2.9,0.6l0.1,0.7L264,481l-0.1-0.7c1.4-0.6,2.6-1.7,3.4-3c1.2-1.9,2.1-3.9,2.7-6.1l7.6-24l0.6-0.1l13.7,23.6
	c0,0,0.1,0,0.1,0.1c0,0.1,0.1,0.1,0.1,0.2c0,0.1,0.1,0.1,0.2,0.2l1.2,2c0.5,0.9,1.3,1.7,2.2,2.4c0.8,0.5,1.8,0.8,2.8,0.9l0.1,0.7
	l-14.6,1.6l-0.1-0.7c0.9-0.1,1.8-0.4,2.6-0.7c1-0.4,1.6-1.3,1.4-2.4c-0.2-0.8-0.5-1.6-1-2.4L283.7,467.1z M271.3,479
	c-0.5-0.5-0.9-1-1.3-1.6c-0.3-0.5-0.4-1-0.5-1.6c0-0.3,0-0.5,0-0.6c-0.3,0.8-0.7,1.6-1.2,2.4c-0.5,0.7-1,1.3-1.7,1.9L271.3,479z
	 M283.1,466.2l-6.9-11.8l-4.1,13.1L283.1,466.2z M276.6,453.3l11,18.9l0.3,0.5c0.5,0.7,0.8,1.4,1,2.2c0,0.9-0.3,1.7-0.9,2.3l6.1-0.7
	c-0.8-0.6-1.5-1.3-2-2c-0.8-1.1-1.5-2.2-2.1-3.3l-12.2-21.1L276.6,453.3z"/>
<path class="st1" d="M318.3,472.5l-0.2-0.7c1.3-0.6,2.3-1.7,2.7-3c0.3-0.9,0.1-2.4-0.7-4.4l-6-16.3c-0.3-0.9-0.7-1.9-1.2-2.7
	c-0.3-0.5-0.8-1-1.4-1.3c-1.2-0.6-2.5-0.7-3.8-0.4l-0.3-0.7l0.9-0.3l2.6-0.8c0.8-0.3,1.7-0.6,2.7-0.9c1.7-0.6,3.5-1.4,5.4-2.3
	c1.8-0.8,3.2-1.4,4-1.7c2.1-0.8,4.4-1.2,6.7-1.2c2.1,0,4.1,0.4,6,1.3c1.9,0.8,3.6,2,4.9,3.6c2.9,3.4,4.5,7.7,4.4,12.1
	c-0.1,2.1-0.6,4.1-1.6,6c-1,1.9-2.4,3.6-4,4.9c-1.9,1.5-4,2.7-6.3,3.5c-0.9,0.3-2.4,0.8-4.4,1.3c-1.4,0.4-2.8,0.8-4.1,1.3
	c-0.9,0.3-1.9,0.8-3,1.2l-2.9,1.3L318.3,472.5z M321,470.3c1.2-0.6,2.3-1.1,3.3-1.5c1-0.4,2-0.7,3-0.9l-1.1-0.3
	c-0.4-0.1-0.8-0.3-1.2-0.5c-0.3-0.2-0.5-0.6-0.6-0.9c-0.1-0.2-0.2-0.5-0.3-0.7l-0.1-0.4l-7.4-20.3l-0.1-0.4
	c-0.1-0.2-0.2-0.5-0.2-0.7c-0.1-0.3-0.2-0.7-0.1-1.1c0.1-0.4,0.3-0.8,0.6-1.2l0.8-1.3c-1.2,0.6-2.3,1-3.2,1.4c-0.9,0.3-2,0.7-3.3,1
	l-0.4,0.1l1.5,0.4c0.4,0.1,0.9,0.2,1.2,0.5c0.3,0.2,0.5,0.6,0.6,0.9c0.1,0.1,0.1,0.3,0.1,0.4c0,0.1,0.1,0.2,0.1,0.3l0.1,0.4
	l7.4,20.3l0.1,0.4c0,0.1,0.1,0.2,0.1,0.3c0,0.1,0.1,0.3,0.1,0.4c0.1,0.3,0.2,0.7,0.2,1.1c-0.1,0.4-0.4,0.8-0.6,1.2L321,470.3z
	 M318.8,444.8l6.1,16.8c0.4,1.4,1.1,2.7,2,3.9c0.6,0.7,1.4,1.1,2.3,1.2c1,0.1,2,0,3-0.4c1.6-0.6,3-1.5,4.2-2.7
	c1.2-1.2,2.1-2.7,2.6-4.3c0.6-1.7,0.8-3.6,0.7-5.4c-0.1-2-0.5-4-1.2-5.9c-0.9-2.5-2.2-4.7-4.1-6.6c-1.6-1.7-3.6-2.9-5.9-3.4
	c-2.1-0.6-4.4-0.4-6.5,0.3c-1.7,0.6-2.8,1.5-3.3,2.5C318.1,441.9,318.2,443.2,318.8,444.8z M335.6,465.1c1.4-0.9,2.6-2,3.7-3.2
	c1-1.2,1.8-2.6,2.4-4c1.4-3.5,1.4-7.4,0.1-10.9c-0.8-2.1-2-4.1-3.5-5.7c-1.5-1.6-3.3-2.8-5.4-3.5c-2.1-0.8-4.3-1-6.5-0.8
	c0.9,0.1,1.8,0.2,2.7,0.5c0.8,0.2,1.6,0.5,2.4,0.9c0.7,0.4,1.4,0.8,2,1.2c2.7,2.1,4.7,4.9,5.8,8.1c0.7,1.8,1.1,3.7,1.3,5.6
	c0.2,1.7,0,3.5-0.4,5.2c-0.3,1.3-0.8,2.5-1.6,3.6C337.7,463.1,336.7,464.1,335.6,465.1L335.6,465.1z"/>
<path class="st1" d="M362.5,418.1l6.5,5.9l-0.6,0.3c-2.3-1.6-4.9-2.6-7.6-3.1c-2.3-0.2-4.6,0.3-6.5,1.5c-1.5,0.9-2.9,2.1-3.9,3.6
	c-1,1.5-1.7,3.2-2.1,5c-0.6,3.5,0.1,7.2,2,10.2c1.4,2.5,3.3,4.7,5.7,6.3c2.1,1.5,4.5,2.4,7.1,2.6c2.4,0.2,4.9-0.3,7-1.6
	c1.2-0.7,2.3-1.6,3.2-2.8c0.7-0.9,1.2-2,1.2-3.1c-0.1-1.4-0.6-2.7-1.4-3.8l-0.4-0.7c-0.5-0.9-1.1-1.7-1.8-2.5
	c-0.5-0.5-1.1-0.8-1.8-1c-1.5-0.3-3,0-4.4,0.7l-0.4-0.6l12.3-7.1l0.4,0.6c-0.9,0.8-1.4,1.9-1.4,3c0,0.9,0.5,2.3,1.6,4.1l2.1,3.6
	l2.3,1.1c-0.2,0.1-0.4,0.2-0.7,0.3c-1,0.6-1.9,1.2-2.8,2c-1.1,1-2.1,2-3.1,3.1c-1,1.1-2,2.1-3.2,3.1c-1,0.8-2,1.5-3.1,2.1
	c-4.3,2.5-8.4,3.3-12.3,2.3c-4.3-1.2-8-4-10.2-7.9c-1.1-1.9-1.8-4.1-2.1-6.3c-0.2-2.2-0.1-4.4,0.5-6.5c1.3-4.4,4.2-8.1,8.1-10.4
	c1.4-0.8,2.9-1.5,4.4-2c0.3-0.1,0.6-0.2,0.9-0.4l2.1-0.7c0.4-0.1,0.9-0.3,1.3-0.5l0.3-0.2c0.1-0.1,0.3-0.2,0.4-0.3
	C362.4,418.3,362.4,418.2,362.5,418.1z M366.7,451.6c-1.5,0.3-3,0.5-4.6,0.5c-1.3,0-2.7-0.3-3.9-0.7c-1.9-0.6-3.7-1.6-5.2-2.9
	c-1.6-1.3-2.9-3-3.9-4.8c-0.9-1.6-1.6-3.3-2-5c-0.4-1.7-0.6-3.4-0.4-5.1c0.3-2.2,0.9-4.4,1.9-6.4c-1.3,1.9-2.3,3.9-2.9,6.1
	c-0.6,2-0.7,4.1-0.4,6.2c0.7,4.6,3.3,8.8,7.2,11.4c2.1,1.3,4.5,2.1,6.9,2.3C361.9,453.1,364.4,452.6,366.7,451.6L366.7,451.6z
	 M368.1,434l1.7,0.2c0.5,0,0.9,0.1,1.3,0.3c0.3,0.2,0.5,0.5,0.7,0.8l0.2,0.4c0.1,0.1,0.1,0.2,0.2,0.3l0.2,0.3l1.7,3
	c0.5,0.8,0.9,1.7,1.1,2.7c0.1,0.9,0,1.8-0.3,2.7c0.9-1.2,2-2.3,3.2-3.2l-3.7-6.4l-0.2-0.3c-0.1-0.2-0.2-0.4-0.4-0.7
	c-0.2-0.3-0.3-0.7-0.3-1.1c0.1-0.4,0.2-0.9,0.4-1.3l0.7-1.6L368.1,434z"/>
<path class="st1" d="M223.8,362.8l0.8,7.2H224c-0.4-1.3-1-2.5-1.8-3.7c-0.7-0.9-1.6-1.6-2.6-2.1c-1.2-0.5-2.4-0.7-3.7-0.7h-0.5
	c-1.7,0-2.9,0.3-3.6,0.9c-0.7,0.6-1,1.7-1,3.3v6.5h1.9c1.9,0,3.3-0.3,4.2-0.9c1-0.8,1.7-2,1.8-3.3h0.6v10.2h-0.6
	c-0.2-1.1-0.5-2.3-1-3.3c-0.4-0.7-1-1.3-1.8-1.6c-1-0.3-2.1-0.5-3.2-0.5h-1.9v8.2c0,0.8,0,1.7,0.2,2.5c0.2,0.5,0.5,1,0.9,1.4
	c1,0.8,2.2,1.3,3.4,1.4v0.6h-12.8v-0.6c1.2-0.1,2.3-0.7,3-1.6c0.5-0.6,0.7-1.8,0.7-3.7v-14.5c0-0.9,0-1.7-0.2-2.5
	c-0.1-0.5-0.4-1-0.7-1.3c-0.8-0.8-1.8-1.3-2.8-1.4v-0.6L223.8,362.8z M205.1,388.1h5.6l-0.7-0.6c-0.3-0.2-0.6-0.5-0.8-0.8
	c-0.1-0.3-0.2-0.6-0.2-0.9c0-0.2,0-0.3,0-0.4c0-0.1,0-0.1,0-0.2v-18.6c0-0.1,0-0.1,0-0.2c0-0.1,0-0.2,0-0.4c0-0.3,0-0.6,0.2-0.9
	c0.2-0.3,0.5-0.5,0.8-0.7l1.1-0.8h-6.3l1.1,0.8c0.3,0.2,0.6,0.5,0.8,0.8c0.1,0.3,0.2,0.6,0.2,0.9c0,0.2,0,0.4,0,0.6v18.6
	c0,0.2,0,0.4,0,0.6c0,0.3,0,0.6-0.2,0.9c-0.2,0.3-0.5,0.6-0.8,0.8L205.1,388.1z M217.7,373.4c-0.3,0.3-0.5,0.5-0.8,0.7
	c-0.4,0.2-0.8,0.4-1.2,0.6c0.8,0.2,1.5,0.7,2.1,1.3V373.4z M222.3,363.5h-2.8c1.3,0.5,2.4,1.4,3.2,2.6L222.3,363.5z"/>
<path class="st1" d="M225.8,389v-0.6c1.2-0.1,2.2-0.7,3-1.6c0.5-0.6,0.7-1.9,0.7-3.7v-14.5c0-0.8,0-1.7-0.2-2.5
	c-0.1-0.5-0.4-1-0.7-1.4c-0.7-0.8-1.7-1.3-2.8-1.4v-0.6h0.3l2.3,0.2c0.8,0.1,1.6,0.1,2.4,0.1c0.7,0,1.5,0,2.4-0.1
	c0.9-0.1,1.6-0.1,2.1-0.2l1.9-0.2c0.7-0.1,1.4-0.1,2.2-0.1c1.2,0,2.4,0.1,3.6,0.5c1,0.3,1.9,0.7,2.7,1.3c0.7,0.5,1.3,1.2,1.7,2.1
	c0.4,0.8,0.6,1.7,0.6,2.7c0,1.4-0.5,2.8-1.4,3.8c-1.1,1.1-2.6,1.9-4.2,2.2c1.4,0.1,2.8,0.5,4,1.2c1.1,0.6,2,1.5,2.7,2.6
	c0.6,1.1,1,2.3,0.9,3.6c0,1-0.2,2-0.6,2.9c-0.4,0.9-1.1,1.6-1.8,2.2c-0.9,0.7-1.9,1.2-2.9,1.4c-1.2,0.3-2.5,0.5-3.8,0.5
	c-0.7,0-1.7-0.1-3.1-0.2c-2-0.1-3.3-0.2-4-0.3c-1.2-0.1-2.2-0.1-3.2-0.1c-0.8,0-1.6,0-2.5,0.1l-2,0.1L225.8,389z M228.5,388
	c0.8-0.1,1.7-0.2,2.5-0.2c0.6,0,1.4,0,2.4,0.1l0.5,0l-0.7-0.5c-0.3-0.2-0.6-0.5-0.8-0.8c-0.1-0.3-0.2-0.6-0.2-0.9v-0.6
	c0-0.1,0-0.2,0-0.2c0,0,0-0.1,0-0.1v-18c0,0,0-0.1,0-0.1c0-0.1,0-0.1,0-0.2v-0.6c0-0.2,0-0.4,0.1-0.6c0.1-0.2,0.1-0.3,0.3-0.4
	c0.2-0.2,0.4-0.4,0.7-0.6l1-0.8l-0.7,0.1c-1,0.1-1.9,0.1-2.6,0.1c-0.9,0-1.9-0.1-2.8-0.2l1,0.8c0.3,0.2,0.6,0.5,0.8,0.8
	c0.1,0.3,0.2,0.6,0.2,0.9v19.9c0,0.3,0,0.6-0.2,0.9c-0.2,0.3-0.5,0.6-0.8,0.8L228.5,388z M233.9,374.9h3.2c1.5,0.1,3-0.3,4.2-1.1
	c0.7-0.5,1.2-1.2,1.6-2c0.4-0.8,0.6-1.7,0.6-2.6c0-1-0.2-2.1-0.7-3c-0.5-0.9-1.1-1.6-2-2.1c-0.9-0.5-1.8-0.8-2.8-0.8
	c-0.7,0-1.5,0.1-2.2,0.5c-0.6,0.3-1.1,0.8-1.4,1.3c-0.4,0.9-0.5,1.8-0.4,2.8L233.9,374.9z M233.9,375.6v8.1c0,1.7,0.4,2.8,1.1,3.5
	c0.8,0.7,2.1,1,3.9,1c1.8,0.1,3.5-0.5,4.8-1.8c1.1-1.2,1.7-2.8,1.6-4.4c0-0.7-0.1-1.4-0.3-2.1c-0.2-0.6-0.5-1.2-0.8-1.7
	c-0.4-0.5-0.8-1-1.3-1.4c-0.5-0.4-1.1-0.7-1.7-0.9c-1.3-0.3-2.6-0.5-3.9-0.4L233.9,375.6z M241.3,374.5c1.4-0.4,2.7-1.1,3.6-2.1
	c0.8-1,1.3-2.2,1.3-3.5c0-1.3-0.4-2.5-1.3-3.5c-1-1-2.4-1.7-3.8-2c1.9,1.2,3.1,3.4,3.1,5.6C244.3,371.2,243.2,373.3,241.3,374.5z
	 M242.2,388.3c1.1-0.2,2.2-0.5,3.2-1.1c0.9-0.5,1.6-1.2,2.1-2.1c0.5-0.8,0.7-1.8,0.7-2.8c0-1.4-0.5-2.8-1.4-3.9
	c-1.1-1.2-2.5-2.1-4-2.6c2.1,1.3,3.4,3.6,3.3,6.1C246.1,385.1,244.8,387.2,242.2,388.3z"/>
<path class="st1" d="M274.5,363.1l2.2,7h-0.6c-1-2.1-2.4-3.9-4.2-5.4c-1.5-1.1-3.4-1.7-5.3-1.7c-1.5,0-2.9,0.3-4.3,0.9
	c-1.4,0.6-2.6,1.6-3.6,2.7c-1.9,2.3-2.9,5.2-2.8,8.2c0,2.4,0.5,4.7,1.5,6.9c0.9,1.9,2.3,3.6,4,4.8c1.7,1.2,3.7,1.8,5.7,1.7
	c1.2,0,2.4-0.2,3.5-0.6c0.9-0.3,1.6-0.9,2.2-1.7c0.5-1,0.7-2.2,0.6-3.3V382c0-0.9-0.1-1.7-0.2-2.5c-0.1-0.5-0.4-1-0.9-1.4
	c-1-0.8-2.2-1.3-3.4-1.3v-0.6h11.8v0.6c-1,0.2-1.8,0.8-2.3,1.6c-0.5,1.2-0.6,2.4-0.5,3.7v3.5l1.2,1.8h-0.6c-1,0-1.9,0.1-2.8,0.3
	c-1.2,0.2-2.4,0.6-3.5,0.9c-1.2,0.4-2.3,0.7-3.6,0.9c-1,0.2-2.1,0.2-3.2,0.2c-4.2,0-7.5-1.2-9.8-3.5c-1.3-1.3-2.3-2.9-3-4.6
	c-0.7-1.7-1.1-3.5-1.1-5.4c0-1.9,0.4-3.7,1.1-5.4c0.7-1.7,1.8-3.2,3.1-4.5c2.7-2.6,6.4-4.1,10.2-4.1c1.3,0,2.7,0.1,4,0.4
	c0.2,0,0.5,0.1,0.8,0.1l1.8,0.3c0.4,0.1,0.8,0.1,1.1,0.1h0.3h0.4C274.3,363.1,274.4,363.1,274.5,363.1z M263.6,389
	c-1.2-0.4-2.4-0.9-3.5-1.6c-0.9-0.6-1.8-1.3-2.6-2.2c-1.1-1.3-2-2.7-2.5-4.3c-0.6-1.6-0.9-3.4-0.9-5.1c0-1.5,0.2-3,0.6-4.5
	c0.4-1.4,1-2.7,1.8-3.9c1.1-1.5,2.5-2.8,4.1-3.8c-1.7,0.8-3.3,1.9-4.7,3.2c-1.2,1.2-2.2,2.7-2.9,4.3c-1.4,3.6-1.3,7.7,0.5,11.2
	c0.9,1.8,2.3,3.4,4.1,4.5C259.4,388,261.5,388.8,263.6,389L263.6,389z M272,376.9l1.1,0.8c0.3,0.2,0.6,0.5,0.8,0.8
	c0.1,0.3,0.2,0.6,0.2,0.9c0,0.1,0,0.2,0,0.3s0,0.2,0,0.3v3.3c0,0.8-0.1,1.6-0.3,2.4c-0.3,0.7-0.8,1.3-1.3,1.8c1.2-0.5,2.4-0.8,3.7-1
	V380c0-0.2,0-0.4,0-0.6c0-0.3,0.1-0.6,0.2-0.9c0.2-0.3,0.5-0.5,0.8-0.7l1.1-0.8L272,376.9z"/>
<path class="st1" d="M281.8,389l0.1-0.6c1.2-0.1,2.3-0.7,3-1.6c0.5-0.6,0.7-1.8,0.7-3.7v-14.5c0-0.8,0-1.7-0.2-2.5
	c-0.1-0.5-0.4-1-0.7-1.4c-0.8-0.8-1.8-1.3-2.8-1.4v-0.6h0.7l2.3,0.1c0.7,0,1.5,0.1,2.4,0.1c1.5,0,3.1-0.1,4.9-0.2
	c1.6-0.1,2.8-0.2,3.6-0.2c1.9,0,3.8,0.3,5.6,1c1.6,0.6,3.1,1.5,4.3,2.7c1.2,1.2,2.2,2.6,2.8,4.2c1.4,3.5,1.4,7.3,0,10.8
	c-0.7,1.6-1.7,3.1-2.9,4.2c-1.3,1.2-2.9,2.1-4.6,2.7c-1.9,0.6-3.9,1-5.9,0.9c-0.8,0-2.1-0.1-3.8-0.2c-1.2-0.1-2.4-0.2-3.6-0.2
	c-0.8,0-1.7,0-2.7,0.1l-2.6,0.2L281.8,389z M284.6,388.1c1-0.1,2-0.2,3-0.2c0.9,0,1.7,0,2.6,0.1l-0.8-0.5c-0.3-0.2-0.6-0.4-0.8-0.7
	c-0.2-0.3-0.2-0.6-0.2-0.9c0-0.2,0-0.4,0-0.6v-18.6c0-0.2,0-0.4,0-0.6c0-0.3,0-0.6,0.2-0.9c0.2-0.3,0.5-0.6,0.8-0.8l1-0.7
	c-1.1,0.1-2.1,0.2-2.9,0.2s-1.7,0-2.9-0.1h-0.3l1,0.7c0.3,0.2,0.6,0.4,0.8,0.7c0.1,0.3,0.2,0.6,0.2,0.9c0,0.1,0,0.2,0,0.3
	s0,0.2,0,0.3v18.6c0,0.1,0,0.2,0,0.3s0,0.2,0,0.4c0,0.3,0,0.6-0.2,0.9c-0.2,0.3-0.5,0.6-0.8,0.8L284.6,388.1z M290.2,367.5l0,14.9
	c-0.1,1.2,0.1,2.4,0.4,3.6c0.3,0.7,0.8,1.2,1.4,1.6c0.7,0.4,1.6,0.6,2.4,0.6c1.4,0,2.8-0.3,4.1-0.9c1.3-0.6,2.4-1.5,3.3-2.6
	c1-1.2,1.7-2.6,2.1-4c0.5-1.6,0.7-3.3,0.7-5c0-2.2-0.4-4.3-1.3-6.3c-0.8-1.8-2-3.3-3.6-4.4c-1.5-1-3.3-1.6-5.2-1.6
	c-1.2-0.1-2.4,0.3-3.3,1C290.4,365.2,290,366.3,290.2,367.5L290.2,367.5z M297.5,388.1c1.3-0.3,2.6-0.8,3.8-1.4
	c1.1-0.7,2.1-1.5,3-2.5c2.1-2.3,3.2-5.4,3.2-8.5c0-1.9-0.4-3.7-1.1-5.5c-0.7-1.6-1.8-3.1-3.2-4.3c-1.4-1.2-3.1-2-4.8-2.5
	c0.7,0.3,1.3,0.7,2,1.1c0.6,0.4,1.1,0.9,1.6,1.4c0.4,0.5,0.9,1,1.2,1.5c1.5,2.4,2.3,5.2,2.2,8c0,1.6-0.2,3.2-0.6,4.7
	c-0.4,1.4-1,2.7-1.8,3.9c-0.6,0.9-1.4,1.7-2.3,2.4C299.8,387.3,298.7,387.8,297.5,388.1L297.5,388.1z"/>
</svg>
