<?xml version="1.0" encoding="utf-8"?>
<!-- Generator: Adobe Illustrator 25.4.1, SVG Export Plug-In . SVG Version: 6.00 Build 0)  -->
<svg version="1.1" id="Layer_1" xmlns="http://www.w3.org/2000/svg" xmlns:xlink="http://www.w3.org/1999/xlink" x="0px" y="0px"
	 viewBox="0 0 200.9 164.7" style="enable-background:new 0 0 200.9 164.7;" xml:space="preserve">
<style type="text/css">
	.st0{fill:none;}
	.st1{fill:none;stroke:#FFFFFF;stroke-miterlimit:10;}
	.st2{fill:none;stroke:#FFFFFF;stroke-miterlimit:10;stroke-dasharray:0.8,2.4,0.8,2.4;}
	.st3{fill:none;stroke:#FFFFFF;stroke-miterlimit:10;stroke-dasharray:0.8,2.4,0.8,2.4,0.8,2.4;}
	.st4{fill:none;stroke:#FFFFFF;stroke-miterlimit:10;stroke-dasharray:0.82,2.47,0.82,2.47;}
	.st5{fill:none;stroke:#FFFFFF;stroke-miterlimit:10;stroke-dasharray:0.82,2.47,0.82,2.47,0.82,2.47;}
	.st6{fill:none;stroke:#FFFFFF;stroke-width:0.5;stroke-miterlimit:10;}
	.st7{fill:none;stroke:#FFFFFF;stroke-width:0.5;stroke-miterlimit:10;stroke-dasharray:0.84,2.53,0.84,2.53;}
	.st8{fill:none;stroke:#FFFFFF;stroke-miterlimit:10;stroke-dasharray:0.84,2.53,0.84,2.53,0.84,2.53;}
	.st9{fill:none;stroke:#FFFFFF;stroke-miterlimit:10;stroke-dasharray:0.84,2.53,0.84,2.53;}
	.st10{fill:#FFFFFF;}
</style>
<path class="st0" d="M92.8,115L92.8,115L92.8,115"/>
<path class="st0" d="M92.8,115l-0.1-0.1"/>
<path class="st1" d="M143.2,64.3c6.7,3.8,11.3,7.8,13.4,10.6c7.7,10.2,8.5,27.3-12.1,39.5c-18.5,10.9-43.7,5.9-51.7,0.7"/>
<path class="st1" d="M105.8,64.1c15,2.1,27.9,7,34.7,15.9c18.3,23.8-23.8,42.8-47.7,35"/>
<path class="st1" d="M29.9,71.7l0.4-0.1"/>
<path class="st2" d="M32.6,70.8c1.6-0.5,3.2-1,5-1.5"/>
<path class="st3" d="M38.7,68.9c16.5-4.3,33.6-6.3,50.7-6.1c4.9,0.1,9.9,0.4,14.8,1"/>
<path class="st1" d="M105.3,64.1l0.4,0.1"/>
<path class="st1" d="M92.7,114.9c0,0,38.2-1.9,30.1-24.4c-5.5-15.1-32.1-19.1-59.5-16"/>
<path class="st1" d="M63.2,74.6h-0.4"/>
<path class="st4" d="M60.4,74.9c-1.8,0.2-3.5,0.5-5.3,0.8"/>
<path class="st5" d="M53.9,75.9c-2.9,0.5-5.8,1-8.6,1.7C26.5,81.8,9.4,89.1,1.1,98.1"/>
<path class="st1" d="M0.3,99L0,99.3"/>
<path class="st6" d="M84.6,54.1L85,54"/>
<path class="st7" d="M87.5,53.6c1.8-0.3,3.7-0.5,5.4-0.6"/>
<path class="st8" d="M94.2,52.9c11.3-0.7,22.6,0.8,33.3,4.4c4.9,1.6,9.6,3.7,14.2,6.2"/>
<path class="st1" d="M142.8,64.1l0.4,0.2"/>
<path class="st0" d="M106.8,99.8L106.8,99.8l0.1,0.1"/>
<path class="st0" d="M106.8,99.8l0.1,0.1"/>
<path class="st1" d="M56.4,150.5c-6.7-3.8-11.3-7.8-13.4-10.6c-7.7-10.2-8.5-27.3,12.1-39.5c18.5-10.9,43.7-5.9,51.7-0.7"/>
<path class="st1" d="M93.8,150.7c-15-2.1-27.9-7-34.7-15.9c-18.3-23.8,23.9-42.8,47.7-35"/>
<path class="st1" d="M169.7,143.1l-0.4,0.1"/>
<path class="st2" d="M167,144c-1.6,0.5-3.3,1-5,1.5"/>
<path class="st3" d="M160.9,145.8c-16.5,4.3-33.6,6.3-50.7,6.1c-4.9-0.1-9.9-0.4-14.8-1"/>
<path class="st1" d="M94.2,150.7l-0.4-0.1"/>
<path class="st1" d="M106.9,99.8c0,0-38.2,1.9-30.1,24.4c5.4,15.1,32,19.1,59.5,16"/>
<path class="st1" d="M136.3,140.2h0.4"/>
<path class="st4" d="M139.2,139.9c1.8-0.2,3.5-0.5,5.3-0.8"/>
<path class="st5" d="M145.7,138.9c2.9-0.5,5.8-1.1,8.6-1.7c18.8-4.2,35.8-11.5,44.2-20.5"/>
<path class="st1" d="M199.3,115.8l0.3-0.3"/>
<path class="st1" d="M115,160.7l-0.4,0.1"/>
<path class="st9" d="M112.1,161.2c-1.8,0.3-3.7,0.5-5.4,0.6"/>
<path class="st8" d="M105.4,161.8c-11.3,0.7-22.6-0.8-33.3-4.4c-4.9-1.6-9.6-3.7-14.2-6.1"/>
<path class="st1" d="M56.8,150.7l-0.4-0.2"/>
<path class="st10" d="M40.9,5.8l11.8,20.5c0.3,0.7,0.8,1.2,1.4,1.6c0.4,0.2,0.8,0.3,1.3,0.3l0.1,0.7c-0.5,0-1,0.1-1.7,0.2l-2,0.3
	l-2.5,0.4c-0.8,0.1-1.4,0.3-1.9,0.4l-0.1-0.7c0.8-0.1,1.6-0.4,2.2-1c0.3-0.4,0.1-1.2-0.6-2.3L39.8,9.9l0.5-0.5l-3.6,16.6
	c-0.3,1-0.4,2-0.2,3c0.1,0.6,0.4,1.1,1,1.4c0.7,0.2,1.5,0.3,2.3,0.1l0.1,0.7c-0.7,0-1.3,0.1-2,0.2l-2,0.3l-1.5,0.2
	c-0.4,0.1-0.8,0.2-1.1,0.3l-0.1-0.7c0.5-0.2,1-0.6,1.3-1c0.5-0.7,0.9-1.5,1-2.4l4.9-22.2h0.3L40.9,5.8z M47.4,19.8l0.1,0.7
	l-10.3,1.6l0.2-0.8L47.4,19.8z"/>
<path class="st10" d="M56.2,3.9l1.9-0.1c0.8,0,1.6-0.1,2.3-0.1c1.1-0.1,2.1-0.2,3.1-0.3l2.1-0.2c1.9-0.3,3.9,0.1,5.6,1.1
	c1.3,0.9,2.1,2.3,2.2,3.8c0.1,0.8-0.1,1.6-0.3,2.4c-0.3,0.9-0.8,1.6-1.5,2.3c-0.9,0.8-1.9,1.4-3,1.8v0.1c1.5,0,3,0.4,4.4,1
	c1,0.5,1.8,1.2,2.4,2.1c0.5,0.8,0.8,1.7,0.8,2.7c0.2,1.9-0.5,3.7-1.8,5c-1.6,1.5-3.8,2.3-6,2.4c-0.5,0-1.3,0.1-2.3,0.1
	s-2.3,0.1-3.7,0.2L60,28.3c-0.8,0.1-1.4,0.1-1.9,0.2l0-0.7c0.6-0.1,1.2-0.2,1.8-0.4c0.4-0.2,0.7-0.5,0.8-0.9
	c0.1-0.6,0.1-1.3,0.1-1.9L59.3,7.3c0-0.6-0.1-1.3-0.3-1.9c-0.2-0.4-0.5-0.7-0.9-0.8c-0.6-0.1-1.2-0.2-1.8-0.1L56.2,3.9z M64.9,3.9
	c-0.8,0-1.5,0.2-2,0.8c-0.3,0.8-0.4,1.6-0.3,2.4l1.3,17.3c0,0.8,0.2,1.6,0.7,2.3c0.6,0.4,1.4,0.5,2.2,0.4c2.3-0.2,3.9-0.8,4.8-2
	c1-1.3,1.4-3,1.2-4.6c0-1.5-0.7-3-1.8-4c-1-0.9-2.7-1.3-4.9-1.1l-3.6,0.3V15l3-0.2c1.1,0,2.2-0.4,3.1-1c0.7-0.6,1.2-1.4,1.3-2.2
	c0.2-0.9,0.3-1.9,0.2-2.8c0-1.4-0.5-2.8-1.4-3.8C67.7,4,66.3,3.7,64.9,3.9L64.9,3.9z"/>
<path class="st10" d="M93.4,1.7c2,0,4.1,0.5,5.8,1.5c1.7,1,3,2.5,3.9,4.3c1,2.2,1.4,4.5,1.3,6.8c0,2.4-0.5,4.7-1.5,6.9
	c-0.9,1.9-2.3,3.4-4,4.6c-1.7,1.1-3.7,1.7-5.8,1.6c-2,0-4.1-0.5-5.8-1.5c-1.7-1-3-2.6-3.8-4.4c-1-2.1-1.4-4.5-1.3-6.8
	c0-2.4,0.5-4.7,1.5-6.9c0.9-1.9,2.3-3.4,4-4.6C89.4,2.2,91.4,1.6,93.4,1.7z M93.3,2.3c-1.5,0-2.9,0.5-4,1.5
	c-1.2,1.2-2.1,2.7-2.6,4.3c-0.7,2.1-1,4.2-1,6.4c-0.1,2.2,0.3,4.4,1,6.5c0.5,1.6,1.5,3.1,2.8,4.2c1.1,1,2.5,1.5,3.9,1.5
	c1.5,0,2.9-0.5,4-1.5c1.2-1.2,2.1-2.7,2.6-4.3c0.7-2.1,1-4.2,1-6.4c0.1-2.2-0.3-4.4-1-6.5c-0.5-1.6-1.5-3.1-2.8-4.2
	C96.2,2.8,94.8,2.3,93.3,2.3z"/>
<path class="st10" d="M133.1,4.6L133,5.3c-0.6-0.1-1.2,0-1.8,0.2c-0.4,0.2-0.8,0.5-0.9,0.9c-0.2,0.6-0.4,1.3-0.4,2l-1,10.5
	c-0.1,1.4-0.3,2.8-0.7,4.2c-0.3,1.1-0.8,2.1-1.4,3c-0.7,0.9-1.7,1.7-2.8,2.1c-1.2,0.5-2.6,0.7-3.9,0.5c-1.1-0.1-2.1-0.3-3.2-0.7
	c-1-0.4-1.8-1-2.5-1.7c-0.6-0.7-1-1.4-1.4-2.2c-0.3-0.9-0.5-1.8-0.5-2.7c0-1.3,0-2.7,0.2-4l1-10.9c0.1-0.6,0.1-1.3,0-1.9
	c-0.1-0.4-0.4-0.7-0.7-0.9c-0.6-0.2-1.2-0.4-1.8-0.4l0.1-0.7l1.9,0.2c0.8,0.1,1.6,0.2,2.5,0.3s1.6,0.1,2.4,0.2l2,0.1L120,4
	c-0.6-0.1-1.2,0-1.8,0.1c-0.4,0.1-0.7,0.4-0.9,0.8c-0.2,0.6-0.4,1.2-0.4,1.9l-1.1,11.5c-0.1,1.5-0.2,2.9-0.1,4.4
	c0,1.2,0.5,2.4,1.2,3.4c0.9,1,2.2,1.5,3.5,1.5c1.4,0.2,2.9-0.1,4.2-0.8c1.1-0.7,1.9-1.8,2.3-3c0.5-1.5,0.9-3,1-4.6l1-10.9
	c0.1-0.7,0.1-1.3-0.1-2c-0.1-0.5-0.5-0.9-0.9-1.1c-0.6-0.3-1.2-0.5-1.8-0.5l0.1-0.7c0.4,0.1,1,0.1,1.7,0.2c0.6,0.1,1.3,0.2,1.9,0.2
	s1.2,0.1,1.8,0.1S132.7,4.6,133.1,4.6z"/>
<path class="st10" d="M158.4,8.8c-0.2,0.9-0.4,1.7-0.6,2.5s-0.3,1.4-0.4,1.9s-0.2,1.1-0.2,1.6S157,15.6,157,16l-0.8-0.1
	c0.1-1.3,0.1-2.6,0-3.9c-0.1-0.9-0.5-1.7-1.1-2.3c-0.9-0.7-2-1.1-3.1-1.2l-1.9-0.3l-3.4,19.6c-0.2,0.7-0.2,1.4-0.1,2.1
	c0.1,0.5,0.4,0.9,0.9,1.1c0.7,0.3,1.4,0.6,2.1,0.7l-0.1,0.7c-0.6-0.2-1.4-0.3-2.3-0.5l-2.8-0.5l-2.9-0.5c-0.9-0.1-1.6-0.2-2.2-0.3
	l0.1-0.7c0.7,0.1,1.5,0.1,2.3,0.1c0.5-0.1,0.9-0.3,1.2-0.8c0.3-0.6,0.5-1.3,0.6-2l3.4-19.6L145,7.3c-1.1-0.3-2.2-0.2-3.3,0.1
	c-0.8,0.3-1.5,1-1.8,1.8c-0.5,1.2-1,2.4-1.3,3.7l-0.8-0.1c0.1-0.4,0.2-0.8,0.3-1.3c0.1-0.5,0.2-1,0.3-1.6s0.2-1.1,0.3-1.9
	s0.2-1.7,0.2-2.6L142,6c1.1,0.2,2.3,0.4,3.4,0.6l3.1,0.5l3.1,0.5c1.1,0.2,2.3,0.4,3.4,0.6L158.4,8.8z"/>
</svg>
