<?xml version="1.0" encoding="utf-8"?>
<!-- Generator: Adobe Illustrator 25.4.1, SVG Export Plug-In . SVG Version: 6.00 Build 0)  -->
<svg version="1.1" id="Layer_1" xmlns="http://www.w3.org/2000/svg" xmlns:xlink="http://www.w3.org/1999/xlink" x="0px" y="0px"
	 viewBox="0 0 200.7 200.7" style="enable-background:new 0 0 200.7 200.7;" xml:space="preserve">
<style type="text/css">
	.st0{fill:#081E42;stroke:#FFFFFF;stroke-width:0.837;stroke-miterlimit:10;}
	.st1{fill:#FFFFFF;}
	.st2{enable-background:new    ;}
	.st3{fill:none;stroke:#FFFFFF;stroke-width:0.8492;stroke-miterlimit:10;}
	.st4{fill:none;stroke:#FFFFFF;stroke-width:0.8922;stroke-miterlimit:10;}
</style>
<circle class="st0" cx="100.3" cy="113" r="86.2"/>
<g>
	<g>
		<g>
			<path class="st1" d="M71.1,68.6c0.8,0,1.5,0.1,2,0.4c0.6,0.3,1,0.5,1.2,0.7c0.7,0.5,1,0.2,1.2-1.1h0.7c0,0.6-0.1,1.2-0.1,2
				c0,0.8,0,1.8,0,3.1h-0.7c-0.1-0.7-0.3-1.4-0.6-2.1c-0.3-0.7-0.7-1.3-1.3-1.7c-0.6-0.4-1.3-0.7-2.2-0.7c-0.7,0-1.3,0.2-1.7,0.6
				c-0.5,0.4-0.7,1-0.7,1.7c0,0.6,0.2,1.1,0.5,1.5s0.8,0.8,1.4,1.2c0.6,0.4,1.2,0.8,1.9,1.2c1.1,0.7,2.1,1.5,2.9,2.2
				c0.8,0.8,1.2,1.7,1.2,3c0,0.9-0.2,1.7-0.7,2.3s-1.1,1.1-1.9,1.4c-0.8,0.3-1.6,0.5-2.5,0.5c-0.4,0-0.8,0-1.2-0.1
				c-0.4-0.1-0.8-0.2-1.1-0.3c-0.2-0.1-0.4-0.2-0.6-0.4c-0.2-0.1-0.4-0.3-0.6-0.4c-0.2-0.2-0.4-0.2-0.5,0c-0.2,0.2-0.3,0.5-0.4,1
				h-0.7c0-0.6,0.1-1.4,0.1-2.3c0-0.9,0-2.1,0-3.6h0.7c0.1,1.1,0.3,2.1,0.6,2.9c0.3,0.8,0.7,1.5,1.2,1.9c0.6,0.5,1.3,0.7,2.3,0.7
				c0.6,0,1.2-0.2,1.8-0.6c0.6-0.4,0.9-1.1,0.9-2.2c0-0.9-0.3-1.6-0.9-2.1c-0.6-0.6-1.4-1.1-2.4-1.7c-0.7-0.5-1.4-0.9-2-1.4
				c-0.6-0.5-1.1-1-1.5-1.5c-0.4-0.6-0.6-1.3-0.6-2.1c0-0.9,0.2-1.6,0.6-2.2c0.4-0.6,0.9-1,1.6-1.2S70.4,68.6,71.1,68.6z"/>
			<path class="st1" d="M86.3,68.6c1.3,0,2.4,0.3,3.4,0.8c1,0.6,1.8,1.4,2.4,2.6c0.6,1.2,0.9,2.7,0.9,4.6s-0.3,3.4-0.9,4.6
				c-0.6,1.2-1.4,2-2.4,2.6s-2.1,0.8-3.4,0.8c-1.2,0-2.4-0.3-3.4-0.8s-1.8-1.4-2.4-2.6c-0.6-1.2-0.9-2.7-0.9-4.6s0.3-3.4,0.9-4.6
				c0.6-1.2,1.4-2.1,2.4-2.6C84,68.9,85.1,68.6,86.3,68.6z M86.3,69.2c-1.1,0-2,0.6-2.8,1.7c-0.7,1.2-1.1,3.1-1.1,5.7
				c0,2.6,0.4,4.5,1.1,5.7c0.7,1.2,1.6,1.7,2.8,1.7c1.1,0,2-0.6,2.8-1.7s1.1-3.1,1.1-5.7c0-2.6-0.4-4.5-1.1-5.7
				C88.4,69.8,87.5,69.2,86.3,69.2z"/>
			<path class="st1" d="M105.1,68.6c0.7,0,1.3,0.1,1.8,0.3s0.9,0.5,1.3,0.8c0.4,0.4,0.6,0.9,0.8,1.5s0.2,1.4,0.2,2.3v7.9
				c0,0.8,0.2,1.4,0.5,1.7c0.3,0.3,0.9,0.4,1.7,0.4v0.6c-0.3,0-0.8,0-1.5-0.1c-0.7,0-1.4,0-2,0c-0.7,0-1.3,0-1.9,0
				c-0.6,0-1.1,0.1-1.4,0.1v-0.6c0.7,0,1.2-0.1,1.5-0.4c0.3-0.3,0.4-0.9,0.4-1.7V73c0-0.6,0-1.2-0.1-1.7c-0.1-0.5-0.3-0.9-0.6-1.2
				c-0.3-0.3-0.8-0.5-1.5-0.5c-0.8,0-1.5,0.2-2.1,0.7c-0.6,0.5-1.1,1.1-1.4,1.9c-0.3,0.8-0.5,1.7-0.5,2.7v6.6c0,0.8,0.1,1.4,0.4,1.7
				c0.3,0.3,0.8,0.4,1.5,0.4v0.6c-0.3,0-0.8,0-1.4-0.1c-0.6,0-1.3,0-1.9,0c-0.7,0-1.3,0-2,0c-0.7,0-1.2,0.1-1.5,0.1v-0.6
				c0.8,0,1.4-0.1,1.7-0.4c0.3-0.3,0.5-0.9,0.5-1.7v-9.3c0-0.9-0.2-1.5-0.5-2c-0.3-0.4-0.9-0.6-1.8-0.6V69c0.6,0.1,1.2,0.1,1.8,0.1
				c0.6,0,1.1,0,1.6-0.1c0.5-0.1,1-0.2,1.4-0.3v3.5c0.5-1.3,1.2-2.2,2.1-2.8C103.2,68.9,104.1,68.6,105.1,68.6z M114,68.6
				c0.7,0,1.3,0.1,1.8,0.3s0.9,0.5,1.3,0.8c0.4,0.4,0.6,0.9,0.8,1.5s0.2,1.4,0.2,2.3v7.9c0,0.8,0.2,1.4,0.5,1.7
				c0.3,0.3,0.9,0.4,1.7,0.4v0.6c-0.3,0-0.8,0-1.5-0.1c-0.7,0-1.4,0-2,0c-0.7,0-1.3,0-1.9,0c-0.6,0-1.1,0.1-1.4,0.1v-0.6
				c0.7,0,1.2-0.1,1.5-0.4c0.3-0.3,0.4-0.9,0.4-1.7V73c0-0.6,0-1.2-0.1-1.7c-0.1-0.5-0.3-0.9-0.6-1.2c-0.3-0.3-0.8-0.5-1.5-0.5
				c-1.1,0-2.1,0.5-2.9,1.5c-0.8,1-1.1,2.3-1.1,3.8l-0.1-2.8c0.5-1.4,1.3-2.3,2.2-2.8C112.1,68.9,113,68.6,114,68.6z"/>
			<path class="st1" d="M128.8,68.6c1.7,0,3.1,0.5,4.1,1.6c1,1.1,1.5,2.7,1.5,4.9h-10.5l0-0.6h7.6c0-1,0-1.9-0.2-2.7
				c-0.2-0.8-0.5-1.5-0.9-2c-0.4-0.5-1-0.7-1.6-0.7c-0.9,0-1.7,0.5-2.4,1.4c-0.7,0.9-1.1,2.3-1.3,4.3l0.1,0.1c0,0.3-0.1,0.6-0.1,1
				s0,0.7,0,1.1c0,1.3,0.2,2.5,0.7,3.5c0.4,1,1,1.7,1.7,2.2c0.7,0.5,1.4,0.8,2.2,0.8c0.9,0,1.7-0.2,2.5-0.7c0.8-0.4,1.4-1.2,1.9-2.3
				l0.6,0.2c-0.2,0.7-0.6,1.3-1.1,1.9c-0.5,0.6-1.1,1.1-1.9,1.5c-0.8,0.4-1.6,0.6-2.6,0.6c-1.4,0-2.6-0.3-3.7-1s-1.8-1.6-2.3-2.7
				c-0.5-1.2-0.8-2.5-0.8-4c0-1.7,0.3-3.2,0.8-4.5c0.6-1.3,1.3-2.2,2.3-2.9C126.3,69,127.4,68.6,128.8,68.6z"/>
		</g>
	</g>
</g>
<g>
	<g class="st2">
		<path class="st1" d="M57,100.3c1.4,0,2.5,0.2,3.4,0.6c0.9,0.4,1.7,0.9,2.4,1.4c0.4,0.3,0.7,0.4,1,0.1s0.4-0.8,0.5-1.7H65
			c0,0.8-0.1,1.7-0.1,2.8c0,1.1,0,2.6,0,4.4h-0.7c-0.1-0.9-0.3-1.6-0.4-2.2c-0.1-0.5-0.3-1-0.5-1.4c-0.2-0.4-0.4-0.8-0.7-1.1
			c-0.7-0.9-1.5-1.5-2.5-1.9c-1-0.4-2-0.6-3.1-0.6c-1,0-2,0.3-2.8,0.8c-0.8,0.5-1.5,1.3-2.1,2.2c-0.6,1-1.1,2.1-1.4,3.5
			c-0.3,1.4-0.5,2.9-0.5,4.6c0,1.8,0.2,3.3,0.5,4.7c0.4,1.4,0.9,2.5,1.5,3.4c0.6,0.9,1.4,1.6,2.3,2.1c0.9,0.5,1.8,0.7,2.8,0.7
			c0.9,0,1.9-0.2,3-0.6c1-0.4,1.8-1,2.4-1.8c0.5-0.6,0.8-1.3,1-2c0.2-0.7,0.3-1.7,0.5-3h0.7c0,1.9,0,3.5,0,4.6c0,1.2,0.1,2.2,0.1,3
			h-0.7c-0.1-0.9-0.2-1.5-0.4-1.7c-0.2-0.2-0.5-0.2-1,0.1c-0.8,0.5-1.6,1-2.5,1.4c-0.9,0.4-2,0.6-3.4,0.6c-2,0-3.8-0.5-5.3-1.4
			c-1.5-0.9-2.7-2.2-3.5-3.9c-0.8-1.7-1.2-3.8-1.2-6.2c0-2.4,0.4-4.4,1.3-6.2s2-3.1,3.6-4.1C53.4,100.8,55.1,100.3,57,100.3z"/>
		<path class="st1" d="M78.8,100.3c2,0,3.8,0.5,5.3,1.4s2.7,2.2,3.5,3.9c0.8,1.7,1.2,3.8,1.2,6.2c0,2.4-0.4,4.4-1.3,6.2
			c-0.9,1.8-2,3.1-3.6,4.1c-1.5,1-3.3,1.5-5.2,1.5c-2,0-3.8-0.5-5.3-1.4c-1.5-0.9-2.7-2.2-3.5-3.9c-0.8-1.7-1.2-3.8-1.2-6.2
			c0-2.4,0.4-4.4,1.3-6.2s2-3.1,3.6-4.1C75.1,100.8,76.8,100.3,78.8,100.3z M78.7,100.9c-1.4,0-2.6,0.5-3.6,1.4
			c-1,0.9-1.8,2.3-2.4,3.9c-0.6,1.7-0.8,3.6-0.8,5.8c0,2.2,0.3,4.2,0.9,5.8c0.6,1.7,1.5,2.9,2.5,3.8c1.1,0.9,2.2,1.3,3.5,1.3
			c1.4,0,2.6-0.5,3.6-1.4c1-0.9,1.8-2.3,2.4-3.9c0.6-1.7,0.8-3.6,0.8-5.8c0-2.3-0.3-4.2-0.9-5.8c-0.6-1.6-1.5-2.9-2.5-3.8
			C81.1,101.3,80,100.9,78.7,100.9z"/>
		<path class="st1" d="M100.4,100.8c3.8,0,6.6,0.9,8.4,2.8s2.7,4.6,2.7,8.1c0,2.3-0.4,4.3-1.3,6c-0.9,1.7-2.2,3-3.9,4
			c-1.7,0.9-3.8,1.4-6.2,1.4c-0.5,0-1.1,0-2.1,0c-0.9,0-1.7,0-2.4,0c-0.7,0-1.5,0-2.2,0c-0.7,0-1.3,0-1.7,0.1v-0.6
			c0.7,0,1.3-0.1,1.6-0.3c0.4-0.1,0.6-0.4,0.7-0.8s0.2-0.9,0.2-1.7v-15.7c0-0.8-0.1-1.4-0.2-1.7s-0.4-0.6-0.7-0.8
			c-0.4-0.1-0.9-0.2-1.6-0.2v-0.6c0.4,0,1,0,1.7,0.1s1.4,0,2.1,0c0.7,0,1.6,0,2.5-0.1C99.1,100.8,99.8,100.8,100.4,100.8z
			 M99.6,101.3c-1,0-1.6,0.2-1.9,0.5c-0.3,0.4-0.4,1.1-0.4,2.2v15.8c0,1.1,0.2,1.8,0.5,2.2c0.3,0.4,0.9,0.5,1.9,0.5
			c2.3,0,4.1-0.4,5.3-1.2c1.3-0.8,2.1-2,2.7-3.6c0.5-1.6,0.8-3.5,0.8-5.8c0-3.5-0.6-6.2-1.9-7.9C105.2,102.2,102.9,101.3,99.6,101.3
			z"/>
		<path class="st1" d="M130.4,100.8c-0.1,0.7-0.1,1.5-0.2,2.1c0,0.7,0,1.2,0,1.6c0,0.4,0,0.7,0,1.1c0,0.3,0,0.6,0.1,0.9h-0.7
			c-0.1-1.2-0.3-2.2-0.5-3c-0.2-0.7-0.6-1.2-1.2-1.5c-0.6-0.3-1.4-0.5-2.5-0.5h-2.6c-0.7,0-1.3,0.1-1.6,0.2
			c-0.4,0.1-0.6,0.4-0.7,0.7c-0.1,0.4-0.2,0.9-0.2,1.7v15.7c0,0.8,0.1,1.3,0.2,1.7c0.1,0.4,0.4,0.6,0.7,0.7c0.4,0.1,0.9,0.2,1.6,0.2
			h2.3c1.3,0,2.3-0.2,3-0.5c0.7-0.4,1.2-0.9,1.5-1.8c0.3-0.8,0.5-1.9,0.7-3.3h0.7c-0.1,0.6-0.1,1.3-0.1,2.3c0,0.4,0,1,0,1.7
			c0,0.7,0.1,1.5,0.2,2.3c-1.1,0-2.3-0.1-3.6-0.1c-1.3,0-2.5,0-3.6,0c-0.6,0-1.5,0-2.5,0c-1,0-2.2,0-3.3,0c-1.2,0-2.3,0-3.3,0.1
			v-0.6c0.7,0,1.3-0.1,1.6-0.3c0.4-0.1,0.6-0.4,0.7-0.8s0.2-0.9,0.2-1.7v-15.7c0-0.8-0.1-1.4-0.2-1.7s-0.4-0.6-0.7-0.8
			c-0.4-0.1-0.9-0.2-1.6-0.2v-0.6c1,0,2.1,0,3.3,0.1c1.2,0,2.3,0,3.3,0c1,0,1.9,0,2.5,0c1,0,2.1,0,3.3,0S129.4,100.8,130.4,100.8z
			 M125,111.6v0.6h-5.8v-0.6H125z M125.9,107.4c-0.1,1.2-0.1,2.1-0.1,2.7c0,0.6,0,1.2,0,1.7c0,0.5,0,1.1,0,1.7s0.1,1.5,0.2,2.7h-0.7
			c-0.1-0.7-0.2-1.3-0.3-2c-0.1-0.6-0.4-1.2-0.8-1.6c-0.4-0.4-1-0.6-2-0.6v-0.6c0.9,0,1.6-0.2,1.9-0.7s0.6-1.1,0.7-1.7
			s0.2-1.2,0.3-1.7H125.9z"/>
		<path class="st1" d="M142.5,100.8c3.8,0,6.6,0.9,8.4,2.8c1.8,1.9,2.7,4.6,2.7,8.1c0,2.3-0.4,4.3-1.3,6c-0.9,1.7-2.2,3-3.9,4
			c-1.7,0.9-3.8,1.4-6.2,1.4c-0.5,0-1.1,0-2.1,0c-0.9,0-1.7,0-2.4,0c-0.7,0-1.5,0-2.2,0c-0.7,0-1.3,0-1.7,0.1v-0.6
			c0.7,0,1.3-0.1,1.6-0.3c0.4-0.1,0.6-0.4,0.7-0.8s0.2-0.9,0.2-1.7v-15.7c0-0.8-0.1-1.4-0.2-1.7s-0.4-0.6-0.7-0.8
			c-0.4-0.1-0.9-0.2-1.6-0.2v-0.6c0.4,0,1,0,1.7,0.1s1.4,0,2.1,0c0.7,0,1.6,0,2.5-0.1C141.1,100.8,141.9,100.8,142.5,100.8z
			 M141.7,101.3c-1,0-1.6,0.2-1.9,0.5c-0.3,0.4-0.4,1.1-0.4,2.2v15.8c0,1.1,0.2,1.8,0.5,2.2c0.3,0.4,0.9,0.5,1.9,0.5
			c2.3,0,4.1-0.4,5.3-1.2c1.3-0.8,2.1-2,2.7-3.6c0.5-1.6,0.8-3.5,0.8-5.8c0-3.5-0.6-6.2-1.9-7.9C147.2,102.2,145,101.3,141.7,101.3z
			"/>
		<path class="st1" d="M70.7,139.7v0.7c-0.5,0-1,0-1.4,0.1c-0.4,0.1-0.7,0.3-0.8,0.6c-0.1,0.4,0,1,0.3,1.9l3.3,9.4l-0.2,0l4.6-12.8
			l0.6,0.3l-5.8,16.3c-0.1,0-0.2,0-0.3,0c-0.1,0-0.2,0-0.3,0l-5.2-14c-0.3-0.8-0.7-1.3-1-1.5c-0.3-0.2-0.6-0.3-0.8-0.3v-0.7
			c0.4,0.1,0.9,0.1,1.3,0.1c0.5,0,0.9,0,1.5,0c0.7,0,1.3,0,2.1-0.1C69.4,139.8,70.1,139.8,70.7,139.7z M88,139.7v0.6
			c-0.4,0-0.8,0.2-1.1,0.5c-0.3,0.3-0.7,0.9-0.9,1.7l-4.6,13.6c-0.1,0-0.2,0-0.3,0c-0.1,0-0.2,0-0.3,0l-5.1-12.9l0.7-3.6
			c0.1,0,0.2,0,0.4,0s0.2,0,0.4,0l4.9,13l-0.3,0.2l3.1-9.5c0.4-1.1,0.4-1.8,0.1-2.2c-0.3-0.4-1-0.7-2.1-0.8v-0.6c0.4,0,0.7,0,1,0
			c0.3,0,0.5,0,0.8,0s0.6,0,0.9,0c0.5,0,0.9,0,1.3,0S87.7,139.7,88,139.7z"/>
		<path class="st1" d="M96.8,139.3c1.3,0,2.6,0.3,3.6,0.9s1.9,1.5,2.6,2.8c0.6,1.3,1,2.9,1,4.9s-0.3,3.7-1,4.9
			c-0.6,1.3-1.5,2.2-2.6,2.8c-1.1,0.6-2.3,0.9-3.6,0.9c-1.3,0-2.5-0.3-3.6-0.9c-1.1-0.6-1.9-1.5-2.6-2.8c-0.6-1.3-1-2.9-1-4.9
			s0.3-3.7,1-4.9c0.6-1.3,1.5-2.2,2.6-2.8C94.3,139.6,95.5,139.3,96.8,139.3z M96.8,139.9c-1.2,0-2.2,0.6-3,1.9
			c-0.8,1.2-1.2,3.3-1.2,6.1c0,2.8,0.4,4.8,1.2,6.1s1.8,1.8,3,1.8s2.2-0.6,3-1.8c0.8-1.2,1.2-3.3,1.2-6.1c0-2.8-0.4-4.9-1.2-6.1
			C99,140.5,98,139.9,96.8,139.9z"/>
		<path class="st1" d="M116.2,139.3c0.6,0,1.1,0.1,1.5,0.3c0.4,0.2,0.8,0.5,1,0.9s0.4,0.8,0.4,1.2c0,0.5-0.2,1-0.5,1.4
			c-0.3,0.4-0.8,0.6-1.3,0.6c-0.4,0-0.8-0.1-1.2-0.4s-0.5-0.7-0.5-1.2c0-0.4,0.1-0.7,0.3-1c0.2-0.3,0.5-0.5,0.7-0.7
			c-0.1-0.2-0.4-0.3-0.7-0.3c-0.9,0-1.7,0.3-2.3,1s-1.2,1.5-1.5,2.4c-0.4,0.9-0.6,1.8-0.6,2.6v6.7c0,1,0.3,1.7,0.9,2.1
			c0.6,0.3,1.4,0.5,2.4,0.5v0.7c-0.5,0-1.2,0-2.1-0.1c-0.9,0-1.8,0-2.8,0c-0.7,0-1.4,0-2.1,0s-1.2,0.1-1.6,0.1v-0.7
			c0.9,0,1.5-0.2,1.8-0.5c0.4-0.3,0.6-0.9,0.6-1.8v-9.9c0-0.9-0.2-1.6-0.5-2.1s-1-0.7-1.9-0.7v-0.7c0.7,0.1,1.3,0.1,2,0.1
			c0.6,0,1.2,0,1.8-0.1c0.6-0.1,1.1-0.2,1.5-0.3v3.9c0.2-0.6,0.6-1.2,1-1.8s1-1.1,1.6-1.6C114.8,139.5,115.5,139.3,116.2,139.3z"/>
		<path class="st1" d="M125.4,131.2v21.8c0,0.9,0.2,1.5,0.5,1.8c0.3,0.3,0.9,0.5,1.6,0.5v0.7c-0.3,0-0.8,0-1.5-0.1s-1.3,0-2,0
			c-0.7,0-1.4,0-2.2,0c-0.7,0-1.3,0.1-1.6,0.1v-0.7c0.9,0,1.5-0.2,1.8-0.5c0.4-0.3,0.6-0.9,0.6-1.8v-18c0-0.9-0.2-1.6-0.5-2.1
			c-0.3-0.5-1-0.7-1.9-0.7v-0.7c0.7,0.1,1.3,0.1,2,0.1c0.6,0,1.2,0,1.8-0.1C124.4,131.5,124.9,131.4,125.4,131.2z M135.4,139.7v0.6
			c-0.5,0-1,0.2-1.5,0.4s-0.9,0.6-1.4,1.1l-4.5,4.7l0.4-0.9l5.9,8.1c0.4,0.5,0.7,0.9,1,1.1c0.3,0.3,0.7,0.4,1.2,0.5v0.7
			c-0.2,0-0.6,0-1.1-0.1c-0.5,0-1,0-1.5,0c-0.7,0-1.3,0-2,0s-1.2,0.1-1.5,0.1v-0.7c0.4,0,0.7-0.1,0.9-0.3c0.2-0.2,0.1-0.5-0.1-0.8
			l-3.6-5.3c-0.4-0.6-0.8-0.9-1.1-1.1c-0.3-0.2-0.8-0.3-1.4-0.3v-0.6c0.7-0.1,1.2-0.2,1.6-0.4c0.4-0.2,0.8-0.5,1.2-0.9l2.3-2.4
			c0.7-0.7,1-1.2,1-1.7c0-0.4-0.2-0.7-0.6-0.9s-1-0.3-1.7-0.3v-0.6c0.5,0,1.2,0,1.8,0.1c0.7,0,1.3,0,1.7,0c0.4,0,0.7,0,1,0
			c0.3,0,0.7,0,0.9,0S135.2,139.7,135.4,139.7z"/>
	</g>
</g>
<path class="st3" d="M183.8,87.5c1.1,6.3,1.1,11.2,1.1,13.7c-1.2,38-36.2,87-87.5,87.5c-36.9,0.4-67.9-24.8-80.5-53.3"/>
<path class="st4" d="M58.9,188.5c-18.1-16.7-29.4-40.7-29.4-67.3c0-50.8,41.1-91.9,91.9-91.9"/>
<g>
	<g>
		<path class="st1" d="M17.5,37.7c0.8-0.9,1.6-1.5,2.4-1.9c0.8-0.3,1.6-0.6,2.3-0.7c0.5-0.1,0.7-0.3,0.6-0.6c0-0.3-0.3-0.7-0.9-1.3
			l0.4-0.5c0.5,0.5,1.1,1.1,1.8,1.7c0.7,0.7,1.7,1.5,2.9,2.6l-0.4,0.5c-0.7-0.4-1.2-0.8-1.7-1c-0.4-0.2-0.8-0.4-1.2-0.5
			s-0.7-0.2-1.2-0.2c-0.9-0.1-1.8,0.1-2.7,0.5c-0.8,0.4-1.6,1-2.2,1.7c-0.6,0.7-1,1.4-1.1,2.3c-0.1,0.8-0.1,1.7,0.2,2.7
			c0.3,1,0.8,1.9,1.5,2.9c0.7,1,1.6,2,2.7,3c1.2,1,2.3,1.8,3.4,2.4c1.1,0.6,2.1,0.9,3.1,1c1,0.1,1.9,0,2.7-0.3
			c0.8-0.3,1.5-0.8,2.1-1.4c0.5-0.6,1-1.4,1.3-2.3c0.4-0.9,0.4-1.8,0.2-2.7c-0.1-0.7-0.4-1.3-0.7-1.8c-0.4-0.5-0.9-1.2-1.7-2.1
			l0.4-0.5c1.3,1.1,2.3,2,3,2.7s1.4,1.2,2,1.7l-0.4,0.5c-0.6-0.5-1.1-0.7-1.4-0.7c-0.3,0-0.4,0.2-0.5,0.7c-0.1,0.8-0.3,1.6-0.5,2.5
			c-0.2,0.8-0.8,1.7-1.5,2.6c-1.2,1.3-2.5,2.2-3.9,2.7c-1.5,0.5-3,0.5-4.6,0c-1.6-0.4-3.2-1.4-4.8-2.8c-1.5-1.4-2.6-2.8-3.3-4.4
			c-0.7-1.6-0.9-3.2-0.6-4.7C15.7,40.4,16.4,39,17.5,37.7z"/>
		<path class="st1" d="M32.2,24.6l0.3,0.4c-0.5,0.4-0.8,0.7-1,1c-0.2,0.3-0.2,0.6-0.1,0.9s0.4,0.8,0.8,1.3L40.7,39
			c0.4,0.5,0.8,0.9,1,1.1c0.3,0.2,0.6,0.2,0.9,0.1c0.3-0.1,0.7-0.4,1.2-0.8l1.6-1.2c0.9-0.7,1.5-1.4,1.8-2s0.3-1.3,0-2.1
			s-0.7-1.7-1.4-2.8l0.5-0.4c0.3,0.5,0.8,1.1,1.3,1.8c0.2,0.3,0.5,0.7,1,1.2c0.4,0.5,0.9,1,1.4,1.5c-0.8,0.5-1.6,1.2-2.5,1.9
			c-0.9,0.7-1.8,1.4-2.5,1.9c-0.4,0.3-1,0.8-1.7,1.4c-0.7,0.6-1.5,1.2-2.3,1.8c-0.8,0.6-1.6,1.3-2.2,1.8l-0.3-0.4
			c0.5-0.4,0.8-0.8,1-1.1c0.2-0.3,0.2-0.6,0.1-0.9c-0.1-0.3-0.4-0.8-0.8-1.3l-8.4-10.8c-0.4-0.5-0.8-0.9-1.1-1.1
			c-0.3-0.2-0.6-0.2-0.9-0.1c-0.3,0.1-0.7,0.3-1.2,0.7l-0.3-0.4c0.3-0.2,0.7-0.5,1.2-0.9c0.5-0.4,1-0.8,1.6-1.2
			c0.5-0.4,1-0.8,1.5-1.2C31.5,25.2,31.9,24.8,32.2,24.6z"/>
		<path class="st1" d="M47.4,14.5l0.3,0.5c-0.5,0.3-0.9,0.6-1.1,0.9c-0.2,0.3-0.3,0.6-0.2,0.9s0.3,0.8,0.6,1.4L53.8,30
			c0.3,0.6,0.6,1,0.9,1.2s0.6,0.3,0.9,0.2c0.3-0.1,0.8-0.2,1.3-0.5l0.3,0.5c-0.4,0.2-0.9,0.4-1.4,0.7c-0.6,0.3-1.1,0.6-1.7,1
			c-0.6,0.4-1.2,0.7-1.7,1c-0.5,0.3-1,0.6-1.3,0.8l-0.3-0.5c0.5-0.3,0.9-0.7,1.1-0.9c0.2-0.3,0.3-0.6,0.2-0.9
			c-0.1-0.3-0.3-0.8-0.6-1.4l-6.9-11.8c-0.3-0.6-0.6-1-0.9-1.2c-0.3-0.2-0.6-0.3-0.9-0.2c-0.3,0.1-0.8,0.2-1.3,0.5l-0.3-0.5
			c0.3-0.2,0.8-0.4,1.3-0.7c0.5-0.3,1.1-0.6,1.8-1c0.6-0.3,1.1-0.7,1.6-1C46.5,15,47,14.8,47.4,14.5z"/>
		<path class="st1" d="M59.5,8.5c1.1-0.5,2.1-0.7,3-0.6c0.9,0,1.7,0.2,2.4,0.4c0.4,0.1,0.7,0,0.8-0.2c0.1-0.3,0-0.8-0.2-1.5l0.6-0.2
			c0.2,0.6,0.5,1.4,0.9,2.3c0.3,0.9,0.8,2.1,1.4,3.6l-0.6,0.2c-0.4-0.7-0.8-1.2-1-1.6c-0.3-0.4-0.6-0.7-0.8-1
			c-0.3-0.2-0.6-0.5-0.9-0.7c-0.8-0.5-1.7-0.7-2.6-0.7c-0.9,0-1.8,0.2-2.7,0.5c-0.8,0.3-1.5,0.9-2,1.5s-0.8,1.5-1,2.5
			c-0.2,1-0.2,2.1,0,3.3c0.2,1.2,0.6,2.5,1.1,3.9c0.6,1.4,1.2,2.6,2,3.6c0.7,1,1.5,1.8,2.3,2.3c0.8,0.5,1.7,0.9,2.5,1
			c0.9,0.1,1.7,0,2.5-0.3c0.8-0.3,1.5-0.8,2.2-1.4c0.7-0.6,1.2-1.4,1.4-2.3c0.2-0.6,0.2-1.3,0.1-1.9c-0.1-0.6-0.3-1.5-0.6-2.6
			l0.6-0.2c0.6,1.6,1.1,2.8,1.5,3.7c0.4,0.9,0.7,1.7,1,2.4l-0.6,0.2c-0.4-0.7-0.7-1.1-0.9-1.2c-0.2-0.1-0.5,0-0.8,0.4
			c-0.5,0.7-1,1.4-1.5,2s-1.4,1.2-2.5,1.6c-1.6,0.7-3.2,0.9-4.7,0.6c-1.5-0.2-2.9-0.9-4.1-2c-1.2-1.1-2.2-2.6-3-4.6
			c-0.8-1.9-1.1-3.7-1-5.4c0.1-1.7,0.6-3.2,1.5-4.5C56.7,10.1,57.9,9.1,59.5,8.5z"/>
		<path class="st1" d="M78.7,3.2l0.1,0.5c-0.6,0.1-1.1,0.3-1.4,0.5C77.2,4.4,77,4.7,76.9,5c0,0.3,0,0.8,0.1,1.5L79.6,20
			c0.1,0.7,0.3,1.1,0.4,1.4c0.2,0.3,0.4,0.5,0.8,0.5c0.3,0,0.8,0,1.4,0l0.1,0.5c-0.4,0-0.9,0.1-1.6,0.2c-0.6,0.1-1.3,0.2-1.9,0.3
			c-0.7,0.1-1.4,0.3-2,0.4c-0.6,0.1-1.1,0.2-1.5,0.4l-0.1-0.5c0.6-0.2,1.1-0.3,1.4-0.5c0.3-0.2,0.5-0.4,0.5-0.8c0-0.3,0-0.8-0.1-1.5
			L74.5,7c-0.1-0.7-0.3-1.2-0.4-1.4c-0.2-0.3-0.4-0.5-0.8-0.5C73,5,72.5,5,71.9,5.1l-0.1-0.5c0.4-0.1,0.9-0.1,1.5-0.2
			c0.6-0.1,1.3-0.2,2-0.3c0.6-0.1,1.3-0.2,1.9-0.4C77.8,3.5,78.3,3.3,78.7,3.2z M87.3,1.6l0.1,0.5c-0.5,0.2-1.1,0.5-1.5,0.9
			c-0.5,0.4-0.9,1-1.3,1.7l-4,7.7L81,11l8.3,7.9c0.4,0.4,0.8,0.7,1.2,0.9c0.4,0.2,0.9,0.3,1.5,0.3l0.1,0.5c-0.4,0-1,0.1-1.6,0.2
			c-0.6,0.1-1.2,0.2-1.6,0.3c-0.3,0.1-0.7,0.1-1.1,0.2c-0.4,0.1-1,0.2-1.7,0.4l-0.1-0.5c0.6-0.2,1-0.3,1.1-0.5s0-0.5-0.4-0.9
			l-5.1-5.2c-0.5-0.5-0.9-0.9-1.2-1.1c-0.3-0.2-0.7-0.4-1-0.4s-0.7,0-1.2,0.1l-0.1-0.5c0.8-0.2,1.4-0.4,1.8-0.8
			c0.5-0.4,0.8-0.8,1.1-1.3l2-3.8c0.5-0.9,0.7-1.6,0.9-2.2s0-1-0.3-1.2C83.3,3.1,82.8,3,82,3.2l-0.1-0.5c0.5-0.1,1.1-0.2,1.6-0.3
			c0.5-0.1,1.1-0.2,1.5-0.3C86,1.9,86.8,1.8,87.3,1.6z"/>
		<path class="st1" d="M115.4,1.9c-0.1,0.7-0.2,1.4-0.3,2C115,4.5,115,5,115,5.4c0,0.4,0,0.9-0.1,1.2s0,0.7,0,1l-0.6,0
			c0-1.3-0.2-2.3-0.3-3.1c-0.2-0.8-0.5-1.3-1.1-1.7c-0.5-0.4-1.4-0.6-2.5-0.7l-1.5-0.1l-1,15.7c0,0.7,0,1.3,0.1,1.7
			c0.1,0.4,0.4,0.6,0.8,0.8c0.4,0.2,1,0.3,1.7,0.4l0,0.6c-0.5-0.1-1.1-0.1-1.8-0.2c-0.7-0.1-1.5-0.1-2.2-0.2
			c-0.8-0.1-1.6-0.1-2.3-0.1c-0.7,0-1.3-0.1-1.8,0l0-0.6c0.8,0,1.4,0,1.8-0.1c0.4-0.1,0.7-0.3,0.9-0.7c0.2-0.4,0.3-0.9,0.3-1.6
			l1-15.7l-1.5-0.1c-1.1-0.1-2,0-2.6,0.3c-0.6,0.3-1,0.8-1.3,1.5c-0.3,0.7-0.5,1.7-0.7,3l-0.6,0c0.1-0.3,0.1-0.6,0.1-1
			c0-0.4,0.1-0.8,0.1-1.2c0-0.3,0-0.9,0.1-1.5c0-0.7,0-1.3,0-2c0.8,0.1,1.6,0.1,2.5,0.2c0.9,0.1,1.8,0.1,2.7,0.2
			c0.9,0.1,1.8,0.1,2.5,0.2c0.8,0,1.6,0.1,2.5,0.2s1.8,0.1,2.7,0.2C113.8,1.8,114.6,1.8,115.4,1.9z"/>
		<path class="st1" d="M129.2,4.5c1.7,0.5,3.1,1.2,4.1,2.3c1.1,1.1,1.8,2.5,2.1,4.1c0.3,1.6,0.2,3.5-0.3,5.5c-0.5,2-1.4,3.6-2.5,4.9
			c-1.1,1.3-2.4,2.2-3.9,2.7c-1.5,0.5-3.1,0.5-4.7,0.1c-1.7-0.5-3.1-1.2-4.1-2.3c-1.1-1.1-1.8-2.5-2.1-4.1c-0.3-1.6-0.2-3.5,0.3-5.5
			c0.5-2,1.4-3.6,2.5-4.9c1.1-1.3,2.4-2.2,3.9-2.7S127.5,4.1,129.2,4.5z M128.9,5c-1.2-0.3-2.3-0.2-3.3,0.4s-2,1.5-2.9,2.8
			c-0.8,1.3-1.5,2.8-2,4.7c-0.5,1.9-0.7,3.6-0.5,5.1s0.6,2.8,1.3,3.8s1.6,1.6,2.7,1.9c1.2,0.3,2.3,0.2,3.3-0.4s2-1.5,2.9-2.8
			c0.8-1.3,1.5-2.8,2-4.7c0.5-1.9,0.7-3.6,0.5-5.1s-0.6-2.8-1.3-3.8C130.9,5.9,130,5.3,128.9,5z"/>
		<path class="st1" d="M155,15.2c0.8,0.5,1.4,0.9,1.7,1.3c0.3,0.4,0.6,0.8,0.8,1.2c0.1,0.2,0.2,0.4,0.3,0.5c0.1,0.1,0.2,0.2,0.3,0.3
			c0.3,0.1,0.6-0.1,1.1-0.8l0.6,0.3c-0.2,0.3-0.4,0.6-0.6,0.9s-0.5,0.8-0.9,1.5c-0.4,0.6-0.8,1.4-1.4,2.4l-0.6-0.3
			c0.4-0.8,0.6-1.6,0.8-2.5c0.1-0.9,0-1.7-0.3-2.4c-0.3-0.8-0.9-1.4-1.8-1.9c-0.8-0.5-1.7-0.6-2.5-0.4c-0.8,0.2-1.5,0.7-2,1.5
			c-0.4,0.7-0.6,1.4-0.5,2.1s0.3,1.4,0.7,2.2c0.4,0.7,0.8,1.5,1.3,2.4c0.5,1,1,1.9,1.4,2.8c0.4,0.9,0.6,1.7,0.6,2.5
			s-0.2,1.7-0.7,2.5c-0.6,1-1.3,1.7-2.1,2.1c-0.8,0.4-1.8,0.6-2.7,0.5c-1-0.1-1.9-0.4-2.8-0.9c-0.8-0.5-1.5-1-1.9-1.4
			c-0.4-0.5-0.7-0.9-0.9-1.3c-0.2-0.4-0.4-0.7-0.6-0.8c-0.3-0.1-0.6,0.1-1.1,0.8l-0.6-0.3c0.2-0.3,0.5-0.7,0.7-1.2
			c0.3-0.5,0.6-1,1-1.8c0.4-0.7,1-1.7,1.6-2.8l0.6,0.3c-0.5,1-0.8,2-1,3s-0.1,1.9,0.2,2.8s1,1.6,2,2.2c0.8,0.4,1.6,0.6,2.6,0.5
			c0.9-0.1,1.7-0.8,2.4-1.9c0.6-1,0.7-2,0.4-3c-0.3-1-0.9-2.2-1.6-3.5c-0.5-0.9-0.9-1.8-1.3-2.6c-0.4-0.9-0.6-1.7-0.6-2.6
			s0.2-1.7,0.7-2.6c0.5-0.9,1.2-1.6,2-2c0.8-0.4,1.6-0.5,2.4-0.4C153.4,14.5,154.3,14.7,155,15.2z"/>
		<path class="st1" d="M175.4,30.1c-0.5,0.5-0.9,0.9-1.3,1.4s-0.7,0.8-0.9,1c-0.2,0.3-0.4,0.5-0.6,0.8c-0.2,0.2-0.3,0.5-0.4,0.6
			l-0.5-0.4c0.6-0.9,1-1.7,1.3-2.3c0.2-0.6,0.3-1.2,0.1-1.7s-0.7-1.1-1.5-1.7l-1.8-1.4c-0.5-0.4-0.9-0.7-1.2-0.8
			c-0.3-0.1-0.6-0.1-0.9,0.1c-0.3,0.2-0.6,0.5-1.1,1.1l-8.7,10.6c-0.4,0.5-0.7,0.9-0.8,1.3c-0.1,0.3-0.1,0.6,0.1,0.9
			c0.2,0.3,0.5,0.6,1,1l1.6,1.3c0.9,0.7,1.7,1.2,2.3,1.3c0.7,0.1,1.3,0,2-0.4c0.7-0.4,1.4-1,2.3-1.9l0.5,0.4
			c-0.4,0.4-0.8,0.8-1.3,1.5c-0.2,0.3-0.5,0.7-0.9,1.2c-0.4,0.5-0.8,1.1-1.2,1.7c-0.7-0.6-1.5-1.3-2.4-2.1c-0.9-0.8-1.7-1.4-2.4-2
			c-0.4-0.3-1-0.8-1.7-1.4s-1.5-1.2-2.3-1.8c-0.8-0.6-1.6-1.2-2.3-1.8l0.3-0.4c0.5,0.4,0.9,0.6,1.2,0.7c0.3,0.1,0.6,0.1,0.9-0.1
			s0.7-0.5,1.1-1.1l8.7-10.6c0.4-0.5,0.7-1,0.8-1.3c0.1-0.3,0.1-0.6-0.1-0.9c-0.2-0.3-0.5-0.6-1-1.1l0.3-0.4
			c0.7,0.6,1.4,1.2,2.2,1.9c0.8,0.7,1.5,1.3,2.2,1.9c0.7,0.6,1.3,1,1.7,1.4c0.7,0.5,1.4,1.1,2.2,1.8S174.7,29.6,175.4,30.1z
			 M165.7,34.4l-0.3,0.4l-3.9-3.2l0.3-0.4L165.7,34.4z M168.6,32.1c-0.7,0.8-1.3,1.4-1.6,1.8c-0.3,0.4-0.7,0.8-0.9,1.2
			s-0.6,0.8-0.9,1.2c-0.3,0.4-0.8,1.1-1.4,2l-0.5-0.4c0.3-0.5,0.6-1,0.9-1.5c0.3-0.5,0.4-1,0.4-1.5c0-0.5-0.4-1-1-1.5l0.3-0.4
			c0.6,0.5,1.2,0.7,1.7,0.6c0.5-0.1,1-0.4,1.4-0.8c0.4-0.4,0.8-0.7,1.2-1L168.6,32.1z"/>
		<path class="st1" d="M188.5,44.4c-0.5,0.4-1,0.7-1.5,1.1c-0.5,0.4-0.8,0.7-1.1,0.9c-0.3,0.2-0.5,0.4-0.7,0.6s-0.4,0.4-0.5,0.5
			l-0.4-0.5c0.7-0.8,1.3-1.5,1.6-2c0.3-0.6,0.5-1.1,0.3-1.7c-0.1-0.5-0.5-1.2-1.1-1.9l-1.5-1.7c-0.4-0.5-0.8-0.8-1-1
			c-0.3-0.2-0.6-0.2-0.9-0.1c-0.3,0.1-0.7,0.4-1.2,0.9l-10.4,9c-0.5,0.4-0.8,0.8-1,1.1c-0.2,0.3-0.2,0.6-0.1,0.9
			c0.1,0.3,0.4,0.7,0.8,1.2l1.3,1.5c0.8,0.9,1.5,1.4,2.1,1.7c0.6,0.2,1.3,0.2,2,0s1.6-0.7,2.6-1.4l0.4,0.5c-0.4,0.3-0.9,0.7-1.6,1.2
			c-0.3,0.2-0.6,0.6-1.1,1c-0.5,0.4-1,0.9-1.4,1.4c-0.6-0.7-1.3-1.6-2-2.4c-0.8-0.9-1.4-1.7-2.1-2.4c-0.4-0.4-0.8-1-1.4-1.7
			c-0.6-0.7-1.2-1.4-1.9-2.2c-0.7-0.8-1.3-1.5-2-2.1l0.4-0.4c0.4,0.4,0.8,0.8,1.1,0.9c0.3,0.2,0.6,0.2,0.9,0.1
			c0.3-0.1,0.7-0.4,1.2-0.9l10.4-9c0.5-0.4,0.9-0.8,1-1.1c0.2-0.3,0.2-0.6,0.1-0.9c-0.1-0.3-0.4-0.7-0.8-1.2l0.4-0.4
			c0.6,0.7,1.2,1.4,1.9,2.2c0.7,0.8,1.3,1.5,1.9,2.2s1.1,1.2,1.4,1.7c0.6,0.6,1.2,1.4,1.9,2.2C187.3,43.1,187.9,43.8,188.5,44.4z
			 M178.2,47l-0.4,0.4l-3.3-3.8l0.4-0.4L178.2,47z M181.5,45.2c-0.8,0.6-1.5,1.1-1.9,1.5c-0.4,0.4-0.8,0.7-1.1,1
			c-0.3,0.3-0.7,0.6-1.1,1c-0.4,0.4-1,0.9-1.7,1.7l-0.4-0.5c0.4-0.4,0.8-0.9,1.1-1.3c0.4-0.4,0.6-0.9,0.6-1.4c0-0.5-0.2-1-0.7-1.7
			l0.4-0.4c0.5,0.6,1.1,0.9,1.6,0.9c0.5,0,1-0.2,1.5-0.5s0.9-0.6,1.3-0.8L181.5,45.2z"/>
	</g>
</g>
</svg>
