<?xml version="1.0" encoding="utf-8"?>
<!-- Generator: Adobe Illustrator 25.4.1, SVG Export Plug-In . SVG Version: 6.00 Build 0)  -->
<svg version="1.1" id="Layer_1" xmlns="http://www.w3.org/2000/svg" xmlns:xlink="http://www.w3.org/1999/xlink" x="0px" y="0px"
	 viewBox="0 0 200 200" style="enable-background:new 0 0 200 200;" xml:space="preserve">
<style type="text/css">
	.st0{fill:#FFFFFF;}
	.st1{fill:none;stroke:#FFFFFF;stroke-width:0.87;stroke-linecap:round;stroke-miterlimit:10;}
	.st2{fill:none;stroke:#FFFFFF;stroke-width:0.17;stroke-miterlimit:10;}
	.st3{fill:none;stroke:#FFFFFF;stroke-width:0.16;stroke-miterlimit:10;}
	.st4{fill:none;stroke:#FFFFFF;stroke-width:0.13;stroke-miterlimit:10;}
	.st5{fill:none;stroke:#FFFFFF;stroke-miterlimit:10;stroke-dasharray:3,3;}
</style>
<g id="_67DYpN">
	
		<image style="overflow:visible;enable-background:new    ;" width="564" height="809" id="_67DYpN-2" xlink:href="D4EC1F96B5662CB6.png"  transform="matrix(3.9331 4.5839 -4.5839 3.9331 2822.6499 -644.62)">
	</image>
</g>
<g>
	<g>
		<circle class="st0" cx="40.1" cy="94.5" r="2.6"/>
		<circle class="st0" cx="65.1" cy="30.3" r="3.7"/>
		<path class="st0" d="M89.2,57.8c-3.1,0.5-5.2,3.3-4.8,6.4C84,61.1,81.1,59,78,59.4c0,0,0,0,0,0c3.1-0.5,5.2-3.3,4.8-6.4
			c0,0,0,0,0,0C83.2,56.1,86.1,58.2,89.2,57.8z"/>
		<circle class="st0" cx="121.4" cy="48.4" r="3.1"/>
		<line class="st1" x1="123.5" y1="45.4" x2="119.3" y2="51.4"/>
		<circle class="st0" cx="188.1" cy="96.6" r="1.3"/>
		<line class="st2" x1="192" y1="101.4" x2="184" y2="91.7"/>
		<line class="st2" x1="183.2" y1="100.6" x2="192.9" y2="92.6"/>
		<line class="st2" x1="188.7" y1="102.5" x2="187.4" y2="90.6"/>
		<line class="st2" x1="182.1" y1="97.2" x2="194" y2="95.9"/>
		<line class="st2" x1="184.3" y1="101.2" x2="191.8" y2="91.9"/>
		<line class="st2" x1="183.4" y1="92.8" x2="192.7" y2="100.3"/>
		<line class="st3" x1="190.8" y1="101.7" x2="185.2" y2="91.4"/>
		<line class="st3" x1="182.9" y1="99.3" x2="193.1" y2="93.8"/>
		<line class="st3" x1="186.4" y1="102.2" x2="189.7" y2="91"/>
		<line class="st3" x1="182.4" y1="94.9" x2="193.6" y2="98.2"/>
		<line class="st2" x1="187.4" y1="102.8" x2="188.6" y2="90.3"/>
		<line class="st2" x1="181.8" y1="96" x2="194.2" y2="97.2"/>
		<line class="st4" x1="185.9" y1="100.5" x2="190.1" y2="92.6"/>
		<line class="st4" x1="184.1" y1="94.5" x2="192" y2="98.7"/>
		<line class="st4" x1="183.7" y1="97.9" x2="192.3" y2="95.2"/>
		<line class="st4" x1="186.7" y1="92.3" x2="189.3" y2="100.8"/>
		<path class="st0" d="M21.2,58c-4.3,0.6-7.2,4.6-6.6,8.9c-0.6-4.3-4.6-7.2-8.8-6.6c0,0,0,0,0,0c4.3-0.6,7.2-4.6,6.6-8.9
			C13,55.7,16.9,58.7,21.2,58C21.2,58,21.2,58,21.2,58z"/>
		<circle class="st0" cx="160.5" cy="66.5" r="2.6"/>
		<line class="st5" x1="155.9" y1="64.2" x2="125.1" y2="51"/>
		<line class="st5" x1="163.9" y1="69.1" x2="181" y2="92.3"/>
		<line class="st5" x1="117.3" y1="49" x2="86.7" y2="56"/>
		<line class="st5" x1="81.4" y1="55.9" x2="67.5" y2="35.1"/>
		<line class="st5" x1="60.3" y1="31.8" x2="19.6" y2="54.1"/>
		<line class="st5" x1="38.3" y1="90.6" x2="19.2" y2="64.3"/>
		<line class="st5" x1="80.4" y1="61.2" x2="43.6" y2="91.6"/>
	</g>
	<g>
		<path class="st0" d="M59.9,152.4l0.1,0.6c-0.4,0.1-0.7,0.2-1,0.4c-0.2,0.2-0.2,0.5-0.2,0.8c0.1,0.4,0.3,0.9,0.5,1.2l6.9,12.1
			l-0.6,0.8l1.4-13l0.5,0.6L66,171.5h-0.1h-0.1h-0.1h-0.1l-9.2-16c-0.2-0.5-0.7-1-1.2-1.2c-0.3-0.1-0.7-0.2-1.1-0.2l-0.1-0.6
			l1.4-0.2c0.5-0.1,1.1-0.2,1.6-0.3s1.2-0.2,1.7-0.4L59.9,152.4z M79.1,148.6l0.1,0.6c-0.4,0.2-0.7,0.5-1,0.9
			c-0.4,0.6-0.6,1.3-0.7,2l-1.9,17.6h-0.1h-0.1h-0.1h-0.1l-9.3-16c-0.2-0.5-0.6-0.9-1.1-1.2c-0.3-0.1-0.6-0.2-0.9-0.2l-0.1-0.5
			l1.2-0.2c0.5-0.1,1-0.2,1.4-0.3c0.7-0.1,1.4-0.3,2-0.4l1.5-0.4l0.1,0.6c-0.4,0.1-0.9,0.2-1.3,0.4c-0.3,0.1-0.5,0.4-0.4,0.7
			c0.1,0.5,0.3,1,0.6,1.5l6.6,11.9l-0.3,0.4l1.4-12.1c0.1-0.8,0.1-1.6,0-2.4c-0.1-0.5-0.4-0.9-0.8-1.1c-0.6-0.1-1.2-0.1-1.8,0
			l-0.1-0.6l1.6-0.3L77,149l1.2-0.3L79.1,148.6z"/>
		<path class="st0" d="M89.2,153.2c1.1-0.1,2.2,0.1,3.2,0.6c1,0.5,1.9,1.3,2.4,2.3c0.7,1.3,1.1,2.8,1.1,4.3c0.1,1.5-0.1,3-0.6,4.4
			c-0.4,1.1-1.2,2-2.1,2.6c-1,0.6-2,0.9-3.2,1c-1.1,0.1-2.2-0.1-3.2-0.6c-1-0.5-1.9-1.3-2.4-2.3c-0.7-1.3-1.1-2.8-1.1-4.3
			c-0.1-1.5,0.1-3,0.6-4.4c0.4-1.1,1.2-2,2.2-2.6C87,153.6,88,153.2,89.2,153.2z M89.2,153.7c-1.1,0.1-2.1,0.8-2.5,1.8
			c-0.7,1.7-1,3.6-0.7,5.4c0.1,2.5,0.6,4.3,1.3,5.3c0.8,1.4,2.6,1.9,4,1.1c0.6-0.3,1-0.8,1.3-1.4c0.6-1.1,0.9-2.9,0.7-5.4
			s-0.6-4.3-1.3-5.3C91.3,154.3,90.3,153.7,89.2,153.7L89.2,153.7z"/>
		<path class="st0" d="M109.3,153.3c0.5,0,0.9,0.1,1.3,0.4c0.3,0.2,0.6,0.5,0.8,0.9c0.2,0.3,0.3,0.7,0.3,1.1c0,0.4-0.2,0.9-0.5,1.2
			c-0.3,0.3-0.7,0.5-1.2,0.5c-0.4,0-0.7-0.2-1-0.4c-0.3-0.3-0.4-0.7-0.4-1.1c0-0.3,0.1-0.6,0.3-0.9c0.2-0.2,0.4-0.4,0.7-0.6
			c-0.1-0.2-0.3-0.3-0.6-0.3c-0.8,0-1.5,0.2-2.1,0.8c-0.6,0.6-1.1,1.2-1.5,2c-0.3,0.7-0.6,1.5-0.6,2.3l-0.3,5.9
			c-0.1,0.7,0.1,1.4,0.7,1.9c0.6,0.4,1.4,0.6,2.1,0.6v0.6l-1.8-0.2c-0.8-0.1-1.6-0.1-2.5-0.2c-0.6,0-1.3,0-1.9-0.1h-1.5v-0.6
			c0.6,0.1,1.2,0,1.7-0.3c0.4-0.4,0.6-1,0.6-1.6l0.5-8.8c0.1-0.7,0-1.3-0.4-1.9c-0.4-0.5-1-0.7-1.6-0.7v-0.6
			c0.6,0.1,1.2,0.1,1.7,0.2c0.5,0,1,0,1.6,0c0.5,0,0.9-0.1,1.4-0.2l-0.2,3.5c0.3-0.6,0.6-1.1,1-1.6c0.4-0.5,0.9-1,1.5-1.3
			C108.1,153.5,108.7,153.3,109.3,153.3z"/>
		<path class="st0" d="M121,147.4l-3,19.1c-0.1,0.5-0.1,1.1,0.2,1.6c0.3,0.4,0.8,0.6,1.3,0.6l-0.1,0.6l-1.3-0.3
			c-0.6-0.1-1.2-0.2-1.8-0.3c-0.6-0.1-1.3-0.2-1.9-0.3l-1.4-0.1l0.1-0.6c0.6,0.1,1.2,0.1,1.7-0.2c0.5-0.4,0.7-0.9,0.7-1.5l2.5-15.8
			c0.1-0.6,0.1-1.3-0.2-1.9c-0.4-0.5-0.9-0.8-1.6-0.8l0.1-0.6c0.6,0.1,1.2,0.3,1.7,0.3c0.5,0.1,1,0.1,1.6,0.2
			C120.1,147.5,120.5,147.5,121,147.4z M128.6,156.2l-0.1,0.6c-0.5,0-0.9,0-1.4,0.2c-0.5,0.2-0.9,0.4-1.3,0.7l-4.5,3.5l0.5-0.7
			l4,7.9c0.2,0.4,0.5,0.8,0.7,1.1c0.3,0.3,0.6,0.5,1,0.6l-0.1,0.6l-0.9-0.2l-1.3-0.2c-0.6-0.1-1.2-0.2-1.8-0.2l-1.3-0.1l0.1-0.6
			c0.3,0.1,0.6,0,0.8-0.2c0.2-0.2,0.2-0.4,0-0.7l-2.4-5.2c-0.2-0.4-0.5-0.8-0.8-1.1c-0.4-0.2-0.8-0.4-1.2-0.4l0.1-0.6
			c0.5,0,1,0,1.5-0.2c0.4-0.1,0.8-0.3,1.2-0.6l2.4-1.8c0.7-0.5,1.1-1,1.1-1.3c0.1-0.4-0.1-0.7-0.4-0.9c-0.4-0.2-0.9-0.4-1.4-0.5
			l0.1-0.6l1.6,0.3c0.6,0.1,1.1,0.2,1.5,0.3l0.9,0.1l0.8,0.1L128.6,156.2z"/>
		<path class="st0" d="M138.6,158.3c0.6,0.2,1.2,0.4,1.7,0.9c0.3,0.3,0.7,0.6,0.9,0.9c0.5,0.6,0.9,0.4,1.3-0.7l0.6,0.2
			c-0.1,0.5-0.3,1.1-0.6,1.8c-0.2,0.7-0.5,1.6-0.8,2.8l-0.6-0.2c0.1-0.7,0.1-1.4,0-2.1c-0.1-0.7-0.3-1.3-0.7-1.9
			c-0.4-0.6-1.1-1-1.8-1.1c-0.6-0.2-1.2-0.2-1.7,0.1c-0.6,0.3-1,0.8-1.1,1.4c-0.1,0.5-0.1,1,0.1,1.5c0.3,0.5,0.6,1,1,1.4l1.4,1.6
			c0.8,0.8,1.5,1.8,2.1,2.7c0.5,0.9,0.7,2,0.3,3c-0.2,0.8-0.6,1.4-1.2,1.9c-0.6,0.4-1.3,0.7-2,0.8c-0.8,0.1-1.6,0-2.4-0.2
			c-0.4-0.1-0.7-0.2-1.1-0.4c-0.3-0.2-0.6-0.3-0.9-0.6c-0.1-0.1-0.3-0.3-0.5-0.5s-0.3-0.4-0.4-0.6c-0.1-0.2-0.3-0.2-0.5-0.1
			c0,0,0,0,0,0c-0.3,0.2-0.5,0.5-0.6,0.8l-0.6-0.2c0.2-0.6,0.4-1.3,0.7-2.1c0.2-0.8,0.6-1.9,0.9-3.3l0.6,0.2
			c-0.1,0.9-0.2,1.9-0.2,2.8c0,0.7,0.2,1.5,0.6,2.1c0.5,0.6,1.2,1.1,1.9,1.2c0.6,0.1,1.2,0.1,1.8-0.1c0.7-0.3,1.2-1,1.4-1.8
			c0.2-0.7,0.1-1.5-0.3-2.2c-0.5-0.8-1.1-1.5-1.8-2.2c-0.5-0.6-1-1.2-1.5-1.7c-0.4-0.5-0.8-1.1-1-1.8c-0.7-1.8,0.3-3.8,2.1-4.4
			c0.3-0.1,0.5-0.2,0.8-0.2C137.2,158.1,137.9,158.1,138.6,158.3z"/>
		<path class="st0" d="M36.3,125.1c0.2,0.7,0.4,1.3,0.6,2s0.4,1.1,0.5,1.4c0.1,0.3,0.3,0.8,0.5,1.2l0.4,1l-0.6,0.2
			c-0.4-0.9-1-1.9-1.6-2.7c-0.4-0.6-1-1-1.7-1.1c-0.9-0.1-1.8,0.1-2.6,0.5l-1.6,0.6c-0.5,0.2-0.9,0.4-1.3,0.7
			c-0.3,0.2-0.4,0.5-0.4,0.8c0.1,0.5,0.2,1,0.4,1.5l4.9,13c0.2,0.5,0.4,0.9,0.7,1.3c0.3,0.3,0.6,0.4,1,0.3c0.6-0.1,1.2-0.3,1.8-0.5
			l0.2,0.5c-0.5,0.1-1,0.3-1.8,0.6l-2.1,0.8c-0.7,0.3-1.3,0.5-1.9,0.7s-1.1,0.4-1.4,0.6l-0.2-0.5c0.5-0.2,0.9-0.4,1.3-0.7
			c0.3-0.2,0.4-0.5,0.4-0.9c-0.1-0.5-0.2-1-0.4-1.5l-4.9-13c-0.2-0.5-0.4-1-0.7-1.4c-0.2-0.3-0.5-0.4-0.9-0.4c-0.5,0-1,0.1-1.4,0.3
			l-0.2-0.5l2.8-1c1-0.4,1.9-0.7,2.8-1l2.1-0.8l2.7-1.1C34.6,125.8,35.5,125.5,36.3,125.1z M35.7,135.9l0.2,0.5l-5.2,2l-0.2-0.5
			L35.7,135.9z M34.9,132.2c0.3,1,0.6,1.8,0.8,2.3s0.4,1,0.6,1.4c0.2,0.4,0.4,0.9,0.6,1.4c0.2,0.5,0.5,1.3,1,2.2l-0.6,0.2
			c-0.3-0.5-0.6-1-0.9-1.5c-0.3-0.5-0.7-0.8-1.1-1.1c-0.6-0.2-1.3-0.2-1.8,0.1l-0.2-0.5c0.6-0.2,1.1-0.6,1.4-1.2
			c0.1-0.5,0.1-1.1,0-1.6c-0.1-0.6-0.2-1.1-0.3-1.5L34.9,132.2z"/>
		<path class="st0" d="M50.7,126.2c0.4-0.1,0.9-0.2,1.4-0.1c0.4,0.1,0.8,0.3,1.1,0.5c0.3,0.3,0.5,0.6,0.6,1c0.1,0.4,0.1,0.9-0.1,1.3
			c-0.2,0.4-0.6,0.7-1,0.8c-0.4,0.1-0.8,0.1-1.1-0.1c-0.4-0.2-0.6-0.5-0.7-0.9c-0.1-0.3-0.1-0.7,0-1c0.1-0.3,0.3-0.5,0.5-0.8
			c-0.2-0.2-0.4-0.2-0.7-0.1c-0.7,0.2-1.4,0.7-1.7,1.4c-0.8,1.4-1,3.1-0.6,4.7l1.6,5.7c0.2,0.9,0.7,1.4,1.3,1.6
			c0.7,0.1,1.5,0.1,2.2-0.1l0.2,0.6l-1.8,0.4c-0.8,0.2-1.6,0.4-2.4,0.6c-0.6,0.2-1.2,0.3-1.8,0.5l-1.3,0.5l-0.2-0.6
			c0.6-0.1,1.1-0.4,1.5-0.8c0.2-0.5,0.2-1.1,0-1.7l-2.3-8.4c-0.1-0.6-0.5-1.2-0.9-1.7c-0.5-0.3-1.2-0.4-1.8-0.1l-0.2-0.6
			c0.6-0.1,1.1-0.2,1.7-0.4c0.5-0.1,1-0.3,1.5-0.5c0.4-0.2,0.8-0.4,1.2-0.6l0.9,3.4c0.1-0.6,0.2-1.2,0.4-1.8c0.2-0.6,0.6-1.2,1-1.7
			C49.6,126.7,50.1,126.3,50.7,126.2z"/>
		<path class="st0" d="M63.3,123.4c1.1-0.2,2.2-0.2,3.3,0.2c1.1,0.4,2,1.1,2.7,2c0.9,1.2,1.5,2.6,1.7,4.1c0.4,1.5,0.4,3,0,4.4
			c-0.3,1.1-0.9,2.1-1.8,2.8c-1.8,1.4-4.1,1.8-6.3,1.2c-1.1-0.4-2-1.1-2.7-2c-0.9-1.2-1.4-2.6-1.6-4.1c-0.3-1.5-0.3-3,0-4.5
			c0.3-1.1,0.9-2.1,1.8-2.8C61.2,124,62.2,123.6,63.3,123.4z M63.4,123.9c-1.1,0.2-2,1-2.3,2.1c-0.5,1.2-0.5,3,0,5.5s1.1,4.2,2,5.1
			c1,1.3,2.8,1.6,4.1,0.6c0.5-0.4,0.9-1,1.1-1.6c0.5-1.2,0.5-3,0-5.5c-0.2-1.9-0.9-3.6-2-5.1C65.6,124.2,64.5,123.7,63.4,123.9z"/>
		<path class="st0" d="M84,120.7c0.6-0.1,1.2,0,1.8,0.1c0.5,0.1,0.9,0.4,1.2,0.7c0.4,0.4,0.7,0.8,0.9,1.3c0.2,0.7,0.4,1.5,0.4,2.2
			l0.6,7.4c0,0.6,0.2,1.1,0.6,1.6c0.5,0.3,1.1,0.4,1.7,0.3v0.6c-0.3,0-0.8,0-1.4,0s-1.3,0.1-1.9,0.1c-0.6,0.1-1.2,0.1-1.8,0.2
			s-1,0.1-1.3,0.2v-0.6c0.5,0,1-0.1,1.4-0.5c0.3-0.5,0.4-1.1,0.3-1.6l-0.7-8.1c0-0.5-0.1-1.1-0.3-1.6c-0.1-0.4-0.4-0.8-0.7-1.1
			c-0.5-0.3-1-0.4-1.5-0.3c-1.1,0.1-2.2,0.7-2.7,1.7c-0.6,1.1-0.9,2.4-0.8,3.7l0.5,6.2c0,0.6,0.2,1.1,0.6,1.6c0.4,0.3,1,0.4,1.5,0.3
			v0.6l-1.3,0c-0.6,0-1.2,0-1.8,0.1c-0.6,0.1-1.2,0.1-1.9,0.2l-1.4,0.2v-0.6c0.6,0,1.1-0.2,1.6-0.6c0.3-0.5,0.5-1.1,0.4-1.6
			l-0.8-8.7c0-0.7-0.2-1.3-0.6-1.8c-0.5-0.4-1.1-0.6-1.7-0.5v-0.6c0.6,0,1.2,0,1.7-0.1c0.5,0,1-0.1,1.5-0.2c0.5-0.1,0.9-0.2,1.3-0.4
			l0.3,3.3c0.3-1.1,0.9-2.1,1.8-2.8C82.1,121.1,83,120.8,84,120.7z"/>
		<path class="st0" d="M98.8,115.9l-0.1,4.7l4.2,0.1v0.6l-4.2-0.1L98.6,132c-0.1,0.6,0.1,1.3,0.4,1.9c0.3,0.4,0.8,0.6,1.3,0.5
			c0.6,0,1.1-0.2,1.5-0.7c0.5-0.7,0.9-1.5,1.1-2.3l0.6,0.1c-0.2,1-0.5,2-1.1,2.8c-0.6,0.7-1.6,1.1-2.6,1c-0.5,0-1.1-0.1-1.6-0.3
			c-0.4-0.2-0.8-0.4-1.1-0.7c-0.4-0.4-0.7-1-0.8-1.5c-0.2-0.8-0.2-1.6-0.2-2.4l0.2-9.4h-2.7v-0.6h2.7l0.1-4.3c0.5,0,0.9,0,1.3-0.1
			C98.1,116.1,98.5,116.1,98.8,115.9z"/>
		<path class="st0" d="M117.4,127.6l-0.1,1.6l-10.1-0.8l0.1-1.6L117.4,127.6z"/>
		<path class="st0" d="M138.6,119.4c-0.2,0.6-0.4,1.2-0.5,1.8s-0.2,1.1-0.3,1.4c-0.1,0.3-0.1,0.7-0.1,1s-0.1,0.6-0.1,0.8l-0.6-0.2
			c0.1-0.9,0.1-1.8,0-2.7c-0.1-0.6-0.3-1.1-0.8-1.5c-0.6-0.4-1.4-0.7-2.1-0.8l-2.3-0.4c-0.5-0.1-1-0.1-1.4-0.1
			c-0.3,0-0.6,0.2-0.8,0.5c-0.2,0.5-0.4,1-0.4,1.5l-2.5,13.7c-0.1,0.5-0.1,1-0.1,1.5c0,0.3,0.2,0.6,0.5,0.8c0.4,0.2,0.9,0.3,1.4,0.4
			l2,0.4c0.9,0.2,1.8,0.2,2.7,0c0.7-0.2,1.2-0.7,1.6-1.3c0.5-0.9,0.9-1.8,1.1-2.8l0.6,0.1c-0.1,0.5-0.3,1.1-0.4,2
			c-0.1,0.3-0.1,0.8-0.2,1.5s-0.1,1.3-0.2,2c-0.9-0.2-2-0.4-3.1-0.6l-3.1-0.6l-2.2-0.4l-2.9-0.5c-1-0.2-2-0.3-2.9-0.4l0.1-0.6
			c0.5,0.1,1,0.1,1.5,0c0.3,0,0.6-0.3,0.8-0.6c0.2-0.5,0.4-1,0.4-1.5l2.4-13.7c0.1-0.5,0.1-1,0.1-1.5c0-0.3-0.2-0.6-0.5-0.8
			c-0.4-0.2-0.9-0.4-1.4-0.5l0.1-0.5l2.9,0.6c1,0.2,2,0.4,2.9,0.5l2.2,0.4l2.9,0.5C136.8,119.1,137.8,119.3,138.6,119.4z M132.2,128
			l-0.1,0.5l-5-0.9l0.1-0.5L132.2,128z M133.6,124.5c-0.3,1-0.4,1.8-0.5,2.4s-0.2,1-0.2,1.5c-0.1,0.5-0.2,1-0.2,1.5
			c-0.1,0.5-0.2,1.4-0.3,2.4l-0.6-0.1c0-0.6,0-1.2,0-1.8c0-0.5-0.1-1-0.4-1.5c-0.4-0.5-1-0.8-1.6-0.8l0.1-0.6
			c0.6,0.2,1.3,0.1,1.8-0.3c0.4-0.4,0.7-0.9,0.9-1.4l0.5-1.5L133.6,124.5z"/>
		<path class="st0" d="M152.4,128.2c0.6,0.2,1.1,0.4,1.6,0.8c0.8,0.6,1.3,1.6,1.2,2.6c0,0.8-0.2,1.5-0.4,2.2l-2.1,7.2
			c-0.2,0.5-0.2,1.1,0,1.7c0.4,0.4,0.9,0.8,1.5,0.9l-0.2,0.6l-1.4-0.5c-0.6-0.2-1.2-0.4-1.8-0.6s-1.2-0.3-1.8-0.5l-1.3-0.3l0.2-0.6
			c0.5,0.2,1,0.2,1.5,0c0.5-0.3,0.8-0.9,0.9-1.4l2.3-7.8c0.2-0.5,0.3-1,0.3-1.6c0-0.5,0-0.9-0.3-1.3c-0.3-0.4-0.8-0.7-1.3-0.9
			c-1.1-0.3-2.3-0.1-3.1,0.6c-1,0.8-1.7,1.9-2,3.2l-1.7,6c-0.2,0.5-0.2,1.1,0,1.6c0.3,0.4,0.8,0.7,1.3,0.8l-0.2,0.6l-1.2-0.4
			c-0.6-0.2-1.1-0.4-1.7-0.6s-1.2-0.3-1.8-0.5l-1.4-0.3l0.2-0.6c0.5,0.2,1.1,0.2,1.7,0.1c0.5-0.3,0.8-0.8,0.9-1.4l2.4-8.4
			c0.2-0.6,0.3-1.3,0.1-1.9c-0.3-0.5-0.8-0.9-1.4-1l0.2-0.6c0.5,0.2,1.1,0.4,1.6,0.6c0.5,0.1,1,0.3,1.5,0.3c0.5,0.1,0.9,0.1,1.4,0.1
			l-0.9,3.2c0.6-1,1.6-1.7,2.7-2C150.5,128,151.5,128,152.4,128.2z"/>
		<path class="st0" d="M168.6,133.9c0.8,0.3,1.4,0.8,1.9,1.5c0.5,0.7,0.7,1.6,0.6,2.4l-0.4,0.1c0.1-0.7-0.1-1.4-0.5-2
			c-0.4-0.6-1-1-1.6-1.2c-1.1-0.4-2.3-0.2-3.2,0.5c-1.4,1.2-2.4,2.7-3,4.5c-0.5,1.2-0.8,2.4-1,3.6c-0.1,0.9,0,1.8,0.4,2.6
			c0.3,0.7,0.9,1.2,1.6,1.5c0.8,0.3,1.6,0.2,2.4-0.1c1-0.5,1.7-1.3,2.2-2.3l0.1,0.4c-0.5,1.1-1.4,2-2.5,2.5
			c-1.1,0.4-2.2,0.4-3.3-0.1c-1-0.4-1.9-1.1-2.5-1.9c-0.6-0.9-0.9-2-0.9-3.1c0.1-1.4,0.4-2.9,1-4.2c0.5-1.4,1.3-2.6,2.4-3.6
			C164,133.5,166.5,133.1,168.6,133.9L168.6,133.9z M176.7,129.6l-7.2,17.5c-0.3,0.6-0.4,1.3-0.3,1.9c0.2,0.6,0.7,1,1.3,1.2
			l-0.2,0.5c-0.5-0.3-1-0.5-1.6-0.7c-0.5-0.2-1-0.4-1.5-0.5c-0.4-0.1-0.9-0.2-1.4-0.2l7.2-17.5c0.3-0.6,0.4-1.3,0.3-1.9
			c-0.1-0.5-0.6-0.9-1.3-1.2l0.2-0.5c0.5,0.3,1,0.5,1.6,0.7c0.5,0.2,1,0.4,1.5,0.5C175.8,129.4,176.2,129.5,176.7,129.6L176.7,129.6
			z"/>
	</g>
</g>
</svg>
