<?xml version="1.0" encoding="utf-8"?>
<!-- Generator: Adobe Illustrator 25.4.1, SVG Export Plug-In . SVG Version: 6.00 Build 0)  -->
<svg version="1.1" id="Layer_1" xmlns="http://www.w3.org/2000/svg" xmlns:xlink="http://www.w3.org/1999/xlink" x="0px" y="0px"
	 viewBox="0 0 200.9 164.7" style="enable-background:new 0 0 200.9 164.7;" xml:space="preserve">
<style type="text/css">
	.st0{fill:#FFFFFF;}
	.st1{fill:none;stroke:#FFFFFF;stroke-miterlimit:10;stroke-dasharray:10;}
	.st2{fill:none;stroke:#FFFFFF;stroke-miterlimit:10;}
</style>
<path class="st0" d="M15.3,10.4c1.3-0.3,2.6-0.4,3.9-0.2c1,0.2,2,0.5,2.9,0.9c0.5,0.2,0.9,0.2,1.1-0.1c0.2-0.6,0.2-1.3,0.1-2L24,8.8
	c0.1,0.9,0.4,1.9,0.6,3.1s0.6,2.8,1.1,4.8l-0.8,0.2c-0.4-0.9-0.7-1.7-1-2.2c-0.2-0.5-0.5-0.9-0.8-1.4c-0.3-0.4-0.7-0.7-1.1-1
	c-0.9-0.8-2-1.2-3.1-1.4c-1.2-0.2-2.4-0.1-3.5,0.2c-1.1,0.2-2,0.8-2.8,1.5c-0.8,0.8-1.4,1.8-1.8,2.9c-0.4,1.3-0.6,2.7-0.6,4.1
	c0,1.7,0.2,3.4,0.6,5.1c0.4,1.7,1,3.4,1.8,4.9c0.6,1.2,1.5,2.4,2.5,3.3c0.8,0.8,1.9,1.4,3,1.7s2.2,0.3,3.2,0
	c1.1-0.3,2.1-0.7,3.1-1.4c1-0.6,1.7-1.5,2.2-2.6c0.3-0.8,0.5-1.6,0.5-2.4c0-1.1-0.1-2.2-0.2-3.4l0.8-0.2c0.5,2.1,0.9,3.7,1.2,5
	c0.3,1.2,0.6,2.3,0.9,3.2L29,33c-0.1-0.6-0.4-1.2-0.9-1.7c-0.3-0.2-0.6-0.1-1,0.4c-0.7,0.8-1.5,1.5-2.4,2.2c-1,0.8-2.2,1.3-3.5,1.5
	c-2,0.5-4.1,0.5-6-0.1s-3.6-1.8-4.8-3.4C9,30,8,27.9,7.5,25.6c-0.6-2.3-0.6-4.7-0.2-7c0.4-2,1.4-3.9,2.8-5.4
	C11.4,11.8,13.3,10.8,15.3,10.4z"/>
<path class="st0" d="M43,5.2c2-0.3,4.1-0.1,6,0.7c1.8,0.8,3.4,2.1,4.5,3.7c1.3,2,2.1,4.2,2.3,6.6c0.4,2.3,0.3,4.7-0.4,7
	c-0.6,2-1.7,3.7-3.2,5.1c-1.5,1.3-3.4,2.2-5.5,2.5c-2,0.3-4.1,0.1-6-0.6c-1.8-0.8-3.4-2.1-4.5-3.7c-1.3-2-2.1-4.2-2.3-6.5
	c-0.4-2.3-0.2-4.7,0.4-7c0.6-2,1.7-3.7,3.2-5.1C39.1,6.3,41,5.4,43,5.2z M43,5.8c-1.5,0.2-2.8,1-3.7,2.1c-1,1.4-1.7,3-2,4.7
	c-0.4,2.1-0.4,4.3,0,6.5c0.3,2.2,0.9,4.3,2,6.2c0.8,1.5,1.9,2.8,3.4,3.8c1.2,0.8,2.7,1.1,4.1,0.9c1.5-0.2,2.8-1,3.7-2.1
	c1-1.4,1.7-3,2-4.7c0.3-2.1,0.3-4.3,0-6.4c-0.3-2.2-1-4.3-2-6.3c-0.8-1.5-2-2.8-3.4-3.8C45.8,5.9,44.3,5.6,43,5.8L43,5.8z"/>
<path class="st0" d="M83.1,2.1v0.7c-0.6,0-1.2,0.2-1.8,0.5c-0.4,0.2-0.7,0.6-0.8,1.1c-0.1,0.7-0.2,1.3-0.1,2l1.2,20.9h-0.4h-0.4
	l-16-21.8L65.9,24c0,0.7,0.1,1.4,0.3,2c0.2,0.5,0.5,0.8,1,1c0.7,0.2,1.4,0.3,2.1,0.2v0.7c-0.4,0-1,0-1.7,0S66.3,28,65.7,28L64,27.9
	c-0.6,0-1.1,0.1-1.5,0.2v-0.7c0.6,0,1.2-0.2,1.8-0.5c0.4-0.2,0.6-0.6,0.7-1.1c0.1-0.7,0.2-1.3,0.1-2l-1-17c0-0.6-0.1-1.2-0.3-1.9
	c-0.1-0.4-0.4-0.7-0.8-0.8C62.4,4,61.8,4,61.2,4V3.3c0.4,0,0.9,0,1.5,0s1.2,0,1.8-0.1s1-0.1,1.5-0.1L67.1,3l13.4,18.3l-0.9-15
	c0-0.7-0.1-1.4-0.3-2c-0.2-0.5-0.5-0.8-1-1c-0.7-0.2-1.4-0.3-2.1-0.2V2.4h1.7l1.9-0.1c0.6,0,1.2-0.1,1.8-0.1L83.1,2.1z"/>
<path class="st0" d="M109,2.5c-0.1,0.9-0.2,1.7-0.2,2.6s-0.1,1.5-0.1,1.9s0,1.1,0,1.6s0,0.9,0,1.3h-0.8c-0.1-1.3-0.3-2.6-0.6-3.9
	c-0.2-0.8-0.7-1.6-1.4-2.1c-1-0.5-2.1-0.8-3.2-0.7h-1.9L100.3,23c-0.1,0.7,0,1.4,0.2,2.1c0.2,0.5,0.5,0.8,1,1
	c0.7,0.2,1.5,0.3,2.2,0.4v0.7c-0.6-0.1-1.4-0.1-2.3-0.1L98.6,27c-1.1,0-2,0-3,0s-1.7,0-2.2,0v-0.7c0.8,0,1.5-0.1,2.2-0.3
	c0.5-0.1,0.8-0.5,1-0.9c0.2-0.7,0.3-1.4,0.3-2.1l0.6-20h-1.9c-1.1-0.1-2.2,0.1-3.2,0.6c-0.8,0.4-1.3,1.2-1.5,2
	c-0.4,1.3-0.6,2.5-0.8,3.8h-0.8c0-0.4,0.1-0.8,0.1-1.3s0-1,0-1.6s0-1.1,0-1.9s0-1.7-0.1-2.6l3.2,0.1c1.1,0,2.3,0.1,3.5,0.1l3.2,0.1
	l3.2,0.1c1.2,0,2.3,0,3.5,0L109,2.5z"/>
<path class="st0" d="M123.5,3.5l6.4,22.7c0.1,0.7,0.5,1.4,1,1.9c0.3,0.3,0.7,0.5,1.2,0.6l-0.1,0.7c-0.5-0.1-1-0.2-1.7-0.2l-2-0.2
	c-0.9-0.1-1.8-0.2-2.6-0.2s-1.4-0.1-1.9-0.1l0.1-0.7c0.8,0.2,1.6,0,2.3-0.4c0.4-0.3,0.4-1.1,0-2.3l-4.8-17.9L122,7l-7.6,15
	c-0.5,0.9-0.9,1.9-1,2.9c-0.1,0.6,0.2,1.2,0.7,1.6c0.7,0.4,1.4,0.7,2.2,0.7l-0.1,0.7c-0.6-0.1-1.3-0.2-2-0.3l-2-0.2l-1.5-0.1
	c-0.4,0-0.8,0-1.1,0l0.1-0.7c0.5-0.1,1.1-0.3,1.5-0.7c0.7-0.6,1.2-1.3,1.5-2.1l10.2-20.3h0.3H123.5z M126.3,18.7l-0.1,0.7l-10.4-1
	l0.4-0.7L126.3,18.7z"/>
<path class="st0" d="M150.6,6.9c1.3,0.2,2.5,0.6,3.6,1.3c0.9,0.6,1.6,1.2,2.3,2c0.4,0.4,0.8,0.5,1,0.3c0.4-0.5,0.7-1.1,0.8-1.8
	l0.8,0.1c-0.2,0.8-0.4,1.9-0.6,3.1s-0.5,2.8-0.9,4.8l-0.8-0.1c0-1,0-1.8,0-2.4c0-0.5-0.1-1.1-0.2-1.6c-0.1-0.5-0.3-0.9-0.6-1.4
	c-0.5-1-1.3-1.9-2.3-2.5s-2.1-1-3.3-1.2c-1.1-0.2-2.2-0.1-3.2,0.3c-1.1,0.4-2,1.1-2.8,2c-0.9,1.1-1.7,2.3-2.2,3.6
	c-0.7,1.6-1.1,3.2-1.4,4.9c-0.3,1.7-0.4,3.5-0.3,5.2c0.1,1.4,0.4,2.7,1,4c0.5,1.1,1.2,2,2.1,2.7c0.9,0.7,1.9,1.2,3,1.3
	c1.1,0.2,2.2,0.2,3.4,0c1.1-0.2,2.2-0.7,3-1.5c0.6-0.6,1.1-1.2,1.4-2c0.4-1,0.8-2.1,1.1-3.2l0.8,0.1c-0.4,2.1-0.6,3.8-0.9,5.1
	s-0.4,2.4-0.5,3.2l-0.8-0.1c0.1-0.7,0.1-1.4-0.1-2c-0.2-0.3-0.5-0.3-1.1-0.1c-1,0.4-2,0.8-3,1.1c-1.2,0.3-2.5,0.3-3.8,0
	c-2-0.3-3.9-1.2-5.5-2.5c-1.5-1.3-2.6-3-3.1-4.9c-0.6-2.3-0.7-4.7-0.2-7c0.4-2.3,1.3-4.6,2.6-6.5c1.2-1.7,2.8-3,4.7-3.8
	C146.6,6.7,148.6,6.5,150.6,6.9z"/>
<path class="st0" d="M185.4,15.4c-0.3,0.8-0.6,1.7-0.8,2.4s-0.4,1.4-0.5,1.8s-0.3,1.1-0.4,1.5s-0.2,0.9-0.3,1.3l-0.8-0.2
	c0.2-1.3,0.3-2.6,0.3-3.9c0-0.9-0.3-1.7-0.9-2.4c-0.9-0.7-1.9-1.2-3-1.4l-1.8-0.5l-5,19.3c-0.2,0.7-0.3,1.4-0.3,2.1
	c0,0.5,0.3,0.9,0.8,1.2c0.7,0.4,1.4,0.7,2.1,0.9l-0.2,0.7c-0.6-0.2-1.3-0.4-2.2-0.7l-2.7-0.7l-2.9-0.7c-0.9-0.2-1.6-0.4-2.2-0.5
	l0.2-0.7c0.7,0.2,1.5,0.3,2.2,0.3c0.5,0,1-0.2,1.2-0.7c0.4-0.6,0.6-1.3,0.8-2l5-19.3l-1.8-0.5c-1.1-0.3-2.2-0.4-3.3-0.2
	c-0.8,0.3-1.5,0.8-1.9,1.6c-0.6,1.1-1.2,2.3-1.6,3.6l-0.8-0.2c0.2-0.4,0.3-0.8,0.4-1.2c0.1-0.5,0.3-1,0.4-1.5s0.2-1,0.4-1.9
	s0.3-1.6,0.5-2.5l3.1,0.9c1.1,0.3,2.2,0.6,3.4,0.9l3.1,0.8l3.1,0.8c1.1,0.3,2.2,0.6,3.4,0.9L185.4,15.4z"/>
<circle class="st0" cx="22.9" cy="96.3" r="0.8"/>
<circle class="st0" cx="22" cy="89.8" r="0.7"/>
<circle class="st0" cx="17.9" cy="95.7" r="0.8"/>
<circle class="st0" cx="14.7" cy="121" r="0.7"/>
<circle class="st0" cx="14.1" cy="104.6" r="1"/>
<circle class="st0" cx="11.1" cy="99.5" r="0.8"/>
<circle class="st0" cx="16.6" cy="100.4" r="0.7"/>
<circle class="st0" cx="15.8" cy="91.7" r="1"/>
<circle class="st0" cx="29.6" cy="86.8" r="0.8"/>
<circle class="st0" cx="14.1" cy="96.7" r="0.7"/>
<circle class="st0" cx="16.4" cy="88.3" r="1"/>
<circle class="st0" cx="29.8" cy="94.5" r="0.8"/>
<circle class="st0" cx="26.1" cy="83" r="0.7"/>
<circle class="st0" cx="34.8" cy="82.7" r="1"/>
<circle class="st0" cx="26" cy="89.8" r="0.8"/>
<circle class="st0" cx="21.7" cy="83.8" r="1"/>
<circle class="st0" cx="30.5" cy="90.4" r="0.7"/>
<circle class="st0" cx="24.3" cy="93.2" r="0.8"/>
<circle class="st0" cx="32.9" cy="91.9" r="0.7"/>
<circle class="st0" cx="32.2" cy="96.7" r="0.7"/>
<circle class="st0" cx="27.5" cy="95.5" r="0.7"/>
<circle class="st0" cx="37.5" cy="77.7" r="1"/>
<circle class="st0" cx="18.6" cy="121.4" r="1"/>
<circle class="st0" cx="19.5" cy="118.4" r="0.7"/>
<circle class="st0" cx="20.2" cy="124.1" r="0.7"/>
<circle class="st0" cx="25.6" cy="119.8" r="0.8"/>
<circle class="st0" cx="23.1" cy="121.7" r="1"/>
<circle class="st0" cx="11.5" cy="117.8" r="0.8"/>
<circle class="st0" cx="12.6" cy="113.4" r="0.8"/>
<circle class="st0" cx="16.4" cy="116.3" r="0.7"/>
<circle class="st0" cx="9.6" cy="107.3" r="0.8"/>
<circle class="st0" cx="9.5" cy="111.2" r="0.8"/>
<circle class="st0" cx="13.8" cy="109.1" r="1"/>
<circle class="st0" cx="16.1" cy="111.4" r="0.5"/>
<circle class="st0" cx="22.1" cy="117.3" r="0.3"/>
<circle class="st0" cx="17.9" cy="113.6" r="0.2"/>
<circle class="st0" cx="25.4" cy="96.1" r="0.3"/>
<circle class="st0" cx="13.9" cy="101.6" r="0.3"/>
<circle class="st0" cx="20.3" cy="93" r="0.3"/>
<circle class="st0" cx="19.1" cy="98.1" r="0.3"/>
<circle class="st0" cx="37.3" cy="100.5" r="0.7"/>
<circle class="st0" cx="35.9" cy="97.6" r="0.8"/>
<circle class="st0" cx="40.9" cy="98.3" r="0.7"/>
<circle class="st0" cx="44.6" cy="89.2" r="0.8"/>
<circle class="st0" cx="47.7" cy="92.9" r="0.7"/>
<circle class="st0" cx="72.6" cy="86" r="0.7"/>
<circle class="st0" cx="47.7" cy="86.4" r="0.8"/>
<circle class="st0" cx="41.7" cy="76" r="0.7"/>
<circle class="st0" cx="47.2" cy="77.4" r="1"/>
<circle class="st0" cx="43" cy="82.6" r="0.8"/>
<circle class="st0" cx="47.6" cy="82.3" r="0.7"/>
<circle class="st0" cx="53" cy="89.1" r="1"/>
<circle class="st0" cx="42.1" cy="86.3" r="0.8"/>
<circle class="st0" cx="41.8" cy="90.8" r="0.8"/>
<circle class="st0" cx="69.1" cy="81.7" r="0.7"/>
<circle class="st0" cx="54.4" cy="92.2" r="1"/>
<circle class="st0" cx="37.5" cy="88.5" r="0.7"/>
<circle class="st0" cx="39.9" cy="94.6" r="0.8"/>
<circle class="st0" cx="49.4" cy="102" r="0.7"/>
<circle class="st0" cx="40.3" cy="103.3" r="1"/>
<circle class="st0" cx="45.6" cy="96.3" r="0.8"/>
<circle class="st0" cx="52.6" cy="98.8" r="1"/>
<circle class="st0" cx="43.6" cy="101.3" r="0.7"/>
<circle class="st0" cx="34" cy="94" r="1"/>
<circle class="st0" cx="45.1" cy="92.5" r="0.8"/>
<circle class="st0" cx="48" cy="111.7" r="0.8"/>
<circle class="st0" cx="59.2" cy="116" r="0.7"/>
<circle class="st0" cx="54" cy="122.9" r="1"/>
<circle class="st0" cx="47.5" cy="106.8" r="0.7"/>
<circle class="st0" cx="38.5" cy="109.1" r="0.7"/>
<circle class="st0" cx="43.8" cy="112.2" r="0.8"/>
<circle class="st0" cx="43" cy="124.2" r="0.7"/>
<circle class="st0" cx="39.2" cy="120" r="1"/>
<circle class="st0" cx="45.6" cy="118" r="0.8"/>
<circle class="st0" cx="47.5" cy="125.1" r="1"/>
<circle class="st0" cx="41.7" cy="115.7" r="0.7"/>
<circle class="st0" cx="40.9" cy="107" r="1"/>
<circle class="st0" cx="48.5" cy="115.4" r="0.8"/>
<circle class="st0" cx="51.3" cy="111.9" r="0.8"/>
<circle class="st0" cx="39.2" cy="112.1" r="0.7"/>
<circle class="st0" cx="53.5" cy="116.2" r="0.7"/>
<circle class="st0" cx="54.9" cy="109.8" r="0.8"/>
<circle class="st0" cx="57.9" cy="100.8" r="1"/>
<circle class="st0" cx="51.1" cy="105.2" r="0.8"/>
<circle class="st0" cx="46.8" cy="99.2" r="1"/>
<circle class="st0" cx="55.6" cy="105.8" r="0.7"/>
<circle class="st0" cx="49.4" cy="108.6" r="0.8"/>
<circle class="st0" cx="69.7" cy="104.5" r="0.8"/>
<circle class="st0" cx="58" cy="107.2" r="0.7"/>
<circle class="st0" cx="68.2" cy="98" r="0.8"/>
<circle class="st0" cx="62.6" cy="93.1" r="1"/>
<circle class="st0" cx="72.7" cy="97.7" r="0.7"/>
<circle class="st0" cx="78.1" cy="104.4" r="1"/>
<circle class="st0" cx="66.9" cy="106.2" r="0.8"/>
<circle class="st0" cx="76.7" cy="99.3" r="0.7"/>
<circle class="st0" cx="62.6" cy="103.9" r="0.7"/>
<circle class="st0" cx="65" cy="109.9" r="0.8"/>
<circle class="st0" cx="74.5" cy="117.4" r="0.7"/>
<circle class="st0" cx="65.4" cy="118.7" r="1"/>
<circle class="st0" cx="70.7" cy="111.7" r="0.8"/>
<circle class="st0" cx="77.7" cy="114.2" r="1"/>
<circle class="st0" cx="66.6" cy="113.7" r="0.7"/>
<circle class="st0" cx="59.1" cy="109.4" r="1"/>
<circle class="st0" cx="70.2" cy="107.9" r="0.8"/>
<circle class="st0" cx="63.8" cy="97.8" r="1"/>
<circle class="st0" cx="61.3" cy="77.5" r="0.7"/>
<circle class="st0" cx="56.7" cy="82.1" r="0.8"/>
<circle class="st0" cx="50.9" cy="95.1" r="0.7"/>
<circle class="st0" cx="64.2" cy="87.9" r="1"/>
<circle class="st0" cx="32.3" cy="117.1" r="0.8"/>
<circle class="st0" cx="35.4" cy="114.4" r="0.8"/>
<circle class="st0" cx="29.5" cy="121.1" r="0.7"/>
<circle class="st0" cx="35.8" cy="119.5" r="0.8"/>
<circle class="st0" cx="38.3" cy="123.1" r="0.8"/>
<circle class="st0" cx="44.6" cy="121.2" r="0.8"/>
<circle class="st0" cx="38.3" cy="115.8" r="0.7"/>
<circle class="st0" cx="26.3" cy="125.3" r="0.8"/>
<circle class="st0" cx="29.2" cy="118.4" r="0.8"/>
<circle class="st0" cx="33.2" cy="121.8" r="1"/>
<circle class="st0" cx="57.3" cy="88" r="0.8"/>
<circle class="st0" cx="57.7" cy="95.4" r="1"/>
<circle class="st0" cx="53.9" cy="85" r="0.7"/>
<circle class="st0" cx="61.9" cy="82" r="0.7"/>
<circle class="st0" cx="54.9" cy="76.4" r="1"/>
<circle class="st0" cx="52.2" cy="81" r="0.7"/>
<circle class="st0" cx="56.1" cy="73.2" r="1"/>
<circle class="st0" cx="66.7" cy="69.9" r="0.7"/>
<circle class="st0" cx="75.2" cy="71.4" r="1"/>
<circle class="st0" cx="62.2" cy="69.9" r="1"/>
<circle class="st0" cx="83.6" cy="79.7" r="0.8"/>
<circle class="st0" cx="88.5" cy="68.6" r="1"/>
<circle class="st0" cx="83.4" cy="73" r="0.8"/>
<circle class="st0" cx="92.6" cy="84.6" r="1"/>
<circle class="st0" cx="76.6" cy="92.7" r="1"/>
<circle class="st0" cx="83.2" cy="86.9" r="0.8"/>
<circle class="st0" cx="89.5" cy="90.7" r="1"/>
<circle class="st0" cx="79.4" cy="111" r="0.8"/>
<circle class="st0" cx="89.6" cy="117.5" r="0.7"/>
<circle class="st0" cx="83.1" cy="123.2" r="1"/>
<circle class="st0" cx="72.1" cy="122.4" r="0.7"/>
<circle class="st0" cx="69.1" cy="117.4" r="1"/>
<circle class="st0" cx="76.2" cy="124.1" r="1"/>
<circle class="st0" cx="72.4" cy="113.7" r="0.7"/>
<circle class="st0" cx="83.9" cy="116.5" r="0.7"/>
<circle class="st0" cx="86.5" cy="110.6" r="0.8"/>
<circle class="st0" cx="85.2" cy="98.6" r="0.7"/>
<circle class="st0" cx="93.8" cy="100.1" r="1"/>
<circle class="st0" cx="83.8" cy="105.3" r="0.8"/>
<circle class="st0" cx="88.1" cy="106.8" r="0.7"/>
<circle class="st0" cx="101.8" cy="94.8" r="0.7"/>
<circle class="st0" cx="110" cy="104.6" r="0.7"/>
<circle class="st0" cx="111.2" cy="113.3" r="1"/>
<circle class="st0" cx="95.3" cy="106.3" r="0.7"/>
<circle class="st0" cx="104.2" cy="121.9" r="0.7"/>
<circle class="st0" cx="95.1" cy="121.3" r="1"/>
<circle class="st0" cx="101.7" cy="115.6" r="0.8"/>
<circle class="st0" cx="38.4" cy="105.6" r="0.3"/>
<circle class="st0" cx="40.9" cy="109.8" r="0.3"/>
<circle class="st0" cx="117.8" cy="126.4" r="0.8"/>
<circle class="st0" cx="103.2" cy="64.3" r="0.8"/>
<circle class="st0" cx="113.9" cy="77.2" r="0.7"/>
<path class="st1" d="M142.4,140.9c18,3.2,35.7,7.2,51.1,12.1"/>
<path class="st1" d="M141.2,56.6c18.5,0.1,36.9,1.5,55.2,4.3"/>
<path class="st2" d="M141.2,56.6C101.9,56.3,57,61.7,23.9,79.9c-4.5,2.5-8.5,5.8-11.8,9.7C0.5,103.4-1.1,127.1,25.6,128l0,0
	c0,0,60,2.7,116.8,12.8"/>
</svg>
