<?xml version="1.0" encoding="utf-8"?>
<!-- Generator: Adobe Illustrator 25.4.1, SVG Export Plug-In . SVG Version: 6.00 Build 0)  -->
<svg version="1.1" id="Layer_1" xmlns="http://www.w3.org/2000/svg" xmlns:xlink="http://www.w3.org/1999/xlink" x="0px" y="0px"
	 viewBox="0 0 200.7 200.7" style="enable-background:new 0 0 200.7 200.7;" xml:space="preserve">
<style type="text/css">
	.st0{fill:#081E42;stroke:#FFFFFF;stroke-width:0.848;stroke-miterlimit:10;}
	
		.st1{clip-path:url(#SVGID_00000043422554578132400970000011892477446107201720_);fill:#081E42;stroke:#FFFFFF;stroke-width:0.8491;stroke-miterlimit:10;}
	.st2{clip-path:url(#SVGID_00000013192949220244837150000008137017044532160164_);}
	.st3{fill:#FFFFFF;}
	.st4{enable-background:new    ;}
</style>
<g>
	<circle class="st0" cx="100.3" cy="112.4" r="87.3"/>
	<g>
		<g>
			<defs>
				<path id="SVGID_1_" d="M148.2,39.2C160.6,54.2,168,73.6,168,94.6c0,48.3-39.1,87.4-87.4,87.4c-17.8,0-34.3-5.3-48.1-14.4
					c16,19.6,40.4,32,67.7,32c48.3,0,87.4-39.1,87.4-87.4C187.5,81.7,171.9,54.8,148.2,39.2z"/>
			</defs>
			<clipPath id="SVGID_00000057144732207408336460000015822370730297114275_">
				<use xlink:href="#SVGID_1_"  style="overflow:visible;"/>
			</clipPath>
			
				<circle style="clip-path:url(#SVGID_00000057144732207408336460000015822370730297114275_);fill:#081E42;stroke:#FFFFFF;stroke-width:0.8491;stroke-miterlimit:10;" cx="100.2" cy="112.2" r="87.4"/>
		</g>
		<g>
			<defs>
				<path id="SVGID_00000064342672929862973860000011433733770413913507_" d="M148.2,39.2C160.6,54.2,168,73.6,168,94.6
					c0,48.3-39.1,87.4-87.4,87.4c-17.8,0-34.3-5.3-48.1-14.4c16,19.6,40.4,32,67.7,32c48.3,0,87.4-39.1,87.4-87.4
					C187.5,81.7,171.9,54.8,148.2,39.2z"/>
			</defs>
			<clipPath id="SVGID_00000029759272904529556660000003159901992798234277_">
				<use xlink:href="#SVGID_00000064342672929862973860000011433733770413913507_"  style="overflow:visible;"/>
			</clipPath>
			<g style="clip-path:url(#SVGID_00000029759272904529556660000003159901992798234277_);">
				<rect x="24.5" y="36.8" class="st3" width="180.4" height="1.2"/>
				<rect x="24.5" y="40.4" class="st3" width="180.4" height="1.2"/>
				<rect x="24.5" y="44" class="st3" width="180.4" height="1.2"/>
				<rect x="24.5" y="47.6" class="st3" width="180.4" height="1.2"/>
				<rect x="24.5" y="51.2" class="st3" width="180.4" height="1.2"/>
				<rect x="24.5" y="54.8" class="st3" width="180.4" height="1.2"/>
				<rect x="24.5" y="58.4" class="st3" width="180.4" height="1.2"/>
				<rect x="24.5" y="62" class="st3" width="180.4" height="1.2"/>
				<rect x="24.5" y="65.7" class="st3" width="180.4" height="1.2"/>
				<rect x="24.5" y="69.3" class="st3" width="180.4" height="1.2"/>
				<rect x="24.5" y="72.9" class="st3" width="180.4" height="1.2"/>
				<rect x="24.5" y="76.4" class="st3" width="180.4" height="1.2"/>
				<rect x="24.5" y="80" class="st3" width="180.4" height="1.2"/>
				<rect x="24.5" y="83.7" class="st3" width="180.4" height="1.2"/>
				<rect x="24.5" y="87.3" class="st3" width="180.4" height="1.2"/>
				<rect x="24.5" y="90.9" class="st3" width="180.4" height="1.2"/>
				<rect x="24.5" y="94.5" class="st3" width="180.4" height="1.2"/>
				<rect x="24.5" y="98.1" class="st3" width="180.4" height="1.2"/>
				<rect x="24.5" y="101.7" class="st3" width="180.4" height="1.2"/>
				<rect x="24.5" y="105.3" class="st3" width="180.4" height="1.2"/>
				<rect x="24.5" y="108.9" class="st3" width="180.4" height="1.2"/>
				<rect x="24.5" y="112.5" class="st3" width="180.4" height="1.2"/>
				<rect x="24.5" y="116.1" class="st3" width="180.4" height="1.2"/>
				<rect x="24.5" y="119.7" class="st3" width="180.4" height="1.2"/>
				<rect x="24.5" y="123.4" class="st3" width="180.4" height="1.2"/>
				<rect x="24.5" y="127" class="st3" width="180.4" height="1.2"/>
				<rect x="24.5" y="130.5" class="st3" width="180.4" height="1.2"/>
				<rect x="24.5" y="134.1" class="st3" width="180.4" height="1.2"/>
				<rect x="24.5" y="137.7" class="st3" width="180.4" height="1.2"/>
				<rect x="24.5" y="141.4" class="st3" width="180.4" height="1.2"/>
				<rect x="24.5" y="145" class="st3" width="180.4" height="1.2"/>
				<rect x="24.5" y="148.6" class="st3" width="180.4" height="1.2"/>
				<rect x="24.5" y="152.2" class="st3" width="180.4" height="1.2"/>
				<rect x="24.5" y="155.8" class="st3" width="180.4" height="1.2"/>
				<rect x="24.5" y="159.4" class="st3" width="180.4" height="1.2"/>
				<rect x="24.5" y="163" class="st3" width="180.4" height="1.2"/>
				<rect x="24.5" y="166.6" class="st3" width="180.4" height="1.2"/>
				<rect x="24.5" y="170.2" class="st3" width="180.4" height="1.2"/>
				<rect x="24.5" y="173.8" class="st3" width="180.4" height="1.2"/>
				<rect x="24.5" y="177.4" class="st3" width="180.4" height="1.2"/>
				<rect x="24.5" y="181.1" class="st3" width="180.4" height="1.2"/>
				<rect x="24.5" y="184.6" class="st3" width="180.4" height="1.2"/>
				<rect x="24.5" y="188.2" class="st3" width="180.4" height="1.2"/>
				<rect x="24.5" y="191.8" class="st3" width="180.4" height="1.2"/>
				<rect x="24.5" y="195.4" class="st3" width="180.4" height="1.2"/>
				<rect x="24.5" y="199.1" class="st3" width="180.4" height="1.2"/>
			</g>
		</g>
	</g>
	<g>
		<g>
			<path class="st3" d="M17.5,37.1c0.8-0.9,1.6-1.5,2.4-1.9s1.6-0.6,2.3-0.7c0.5-0.1,0.7-0.3,0.6-0.6c0-0.3-0.3-0.7-0.9-1.3l0.4-0.5
				c0.5,0.5,1.1,1.1,1.8,1.7c0.7,0.7,1.7,1.5,2.9,2.6l-0.4,0.5c-0.7-0.4-1.2-0.8-1.7-1c-0.4-0.2-0.8-0.4-1.2-0.5s-0.7-0.2-1.2-0.2
				c-0.9-0.1-1.8,0.1-2.7,0.5s-1.6,1-2.2,1.7c-0.6,0.7-1,1.4-1.1,2.3c-0.1,0.8-0.1,1.7,0.2,2.7c0.3,1,0.8,1.9,1.5,2.9
				c0.7,1,1.6,2,2.7,3c1.2,1,2.3,1.8,3.4,2.4c1.1,0.6,2.1,0.9,3.1,1c1,0.1,1.9,0,2.7-0.3c0.8-0.3,1.5-0.8,2.1-1.4
				c0.5-0.6,1-1.4,1.3-2.3c0.3-0.9,0.4-1.8,0.2-2.7c-0.1-0.7-0.4-1.3-0.7-1.8c-0.4-0.5-0.9-1.2-1.7-2.1l0.4-0.5c1.3,1.1,2.3,2,3,2.7
				s1.4,1.2,2,1.7l-0.4,0.5c-0.6-0.5-1.1-0.7-1.4-0.7c-0.3,0-0.4,0.2-0.5,0.7c-0.1,0.8-0.3,1.6-0.5,2.5c-0.2,0.8-0.8,1.7-1.5,2.6
				c-1.2,1.3-2.5,2.2-3.9,2.7c-1.5,0.5-3,0.5-4.6,0c-1.6-0.4-3.2-1.4-4.8-2.8c-1.5-1.4-2.6-2.8-3.3-4.4c-0.7-1.6-0.9-3.2-0.6-4.7
				C15.7,39.8,16.4,38.3,17.5,37.1z"/>
			<path class="st3" d="M32.2,23.9l0.3,0.4c-0.5,0.4-0.8,0.7-1,1c-0.2,0.3-0.2,0.6-0.1,0.9s0.4,0.8,0.8,1.3l8.4,10.8
				c0.4,0.5,0.8,0.9,1,1.1c0.3,0.2,0.6,0.2,0.9,0.1c0.3-0.1,0.7-0.4,1.2-0.8l1.6-1.2c0.9-0.7,1.5-1.4,1.8-2s0.3-1.3,0-2.1
				s-0.7-1.7-1.4-2.8l0.5-0.4c0.3,0.5,0.8,1.1,1.3,1.8c0.2,0.3,0.5,0.7,1,1.2c0.4,0.5,0.9,1,1.4,1.5c-0.8,0.5-1.6,1.2-2.5,1.9
				c-0.9,0.7-1.8,1.4-2.5,1.9c-0.4,0.3-1,0.8-1.7,1.4c-0.7,0.6-1.5,1.2-2.3,1.8c-0.8,0.6-1.6,1.3-2.2,1.8l-0.3-0.4
				c0.5-0.4,0.8-0.8,1-1.1c0.2-0.3,0.2-0.6,0.1-0.9c-0.1-0.3-0.4-0.8-0.8-1.3l-8.4-10.8c-0.4-0.5-0.8-0.9-1.1-1.1
				c-0.3-0.2-0.6-0.2-0.9-0.1c-0.3,0.1-0.7,0.3-1.2,0.7l-0.3-0.4c0.3-0.2,0.7-0.5,1.2-0.9c0.5-0.4,1-0.8,1.6-1.2
				c0.5-0.4,1-0.8,1.5-1.2C31.5,24.5,31.9,24.2,32.2,23.9z"/>
			<path class="st3" d="M47.4,13.9l0.3,0.5c-0.5,0.3-0.9,0.6-1.1,0.9c-0.2,0.3-0.3,0.6-0.2,0.9c0.1,0.3,0.3,0.8,0.6,1.4l6.9,11.8
				c0.3,0.6,0.6,1,0.9,1.2s0.6,0.3,0.9,0.2c0.3-0.1,0.8-0.2,1.3-0.5l0.3,0.5c-0.4,0.2-0.9,0.4-1.4,0.7c-0.6,0.3-1.1,0.6-1.7,1
				c-0.6,0.4-1.2,0.7-1.7,1c-0.5,0.3-1,0.6-1.3,0.8l-0.3-0.5c0.5-0.3,0.9-0.7,1.1-0.9c0.2-0.3,0.3-0.6,0.2-0.9
				c-0.1-0.3-0.3-0.8-0.6-1.4l-6.9-11.8c-0.3-0.6-0.6-1-0.9-1.2s-0.6-0.3-0.9-0.2c-0.3,0.1-0.8,0.2-1.3,0.5l-0.3-0.5
				c0.3-0.2,0.8-0.4,1.3-0.7c0.5-0.3,1.1-0.6,1.8-1c0.6-0.3,1.1-0.7,1.6-1C46.5,14.4,47,14.1,47.4,13.9z"/>
			<path class="st3" d="M59.5,7.8c1.1-0.5,2.1-0.7,3-0.6c0.9,0,1.7,0.2,2.4,0.4c0.4,0.1,0.7,0,0.8-0.2c0.1-0.3,0-0.8-0.2-1.5
				l0.6-0.2C66.4,6.2,66.6,7,67,7.9c0.3,0.9,0.8,2.1,1.4,3.6l-0.6,0.2c-0.4-0.7-0.8-1.2-1-1.6c-0.3-0.4-0.6-0.7-0.8-1
				c-0.3-0.2-0.6-0.5-0.9-0.7c-0.8-0.5-1.7-0.7-2.6-0.7c-0.9,0-1.8,0.2-2.7,0.5c-0.8,0.3-1.5,0.9-2,1.5s-0.8,1.5-1,2.5
				c-0.2,1-0.2,2.1,0,3.3c0.2,1.2,0.6,2.5,1.1,3.9c0.6,1.4,1.2,2.6,2,3.6c0.7,1,1.5,1.8,2.3,2.3c0.8,0.5,1.7,0.9,2.5,1
				c0.9,0.1,1.7,0,2.5-0.3c0.8-0.3,1.5-0.8,2.2-1.4c0.7-0.6,1.2-1.4,1.4-2.3c0.2-0.6,0.2-1.3,0.1-1.9c-0.1-0.6-0.3-1.5-0.6-2.6
				l0.6-0.2c0.6,1.6,1.1,2.8,1.5,3.7c0.4,0.9,0.7,1.7,1,2.4L72.8,24c-0.4-0.7-0.7-1.1-0.9-1.2c-0.2-0.1-0.5,0-0.8,0.4
				c-0.5,0.7-1,1.4-1.5,2s-1.4,1.2-2.5,1.6c-1.6,0.7-3.2,0.9-4.7,0.6c-1.5-0.2-2.9-0.9-4.1-2c-1.2-1.1-2.2-2.6-3-4.6
				c-0.8-1.9-1.1-3.7-1-5.4c0.1-1.7,0.6-3.2,1.5-4.5C56.7,9.4,57.9,8.5,59.5,7.8z"/>
			<path class="st3" d="M78.7,2.6l0.1,0.5c-0.6,0.1-1.1,0.3-1.4,0.5C77.1,3.8,77,4,76.9,4.4c0,0.3,0,0.8,0.1,1.5l2.6,13.5
				c0.1,0.7,0.3,1.1,0.4,1.4c0.2,0.3,0.4,0.5,0.8,0.5s0.8,0,1.4,0l0.1,0.5c-0.4,0-0.9,0.1-1.6,0.2c-0.6,0.1-1.3,0.2-1.9,0.3
				c-0.7,0.1-1.4,0.3-2,0.4c-0.6,0.1-1.1,0.2-1.5,0.4l-0.1-0.5c0.6-0.2,1.1-0.3,1.4-0.5c0.3-0.2,0.5-0.4,0.5-0.8
				c0-0.3,0-0.8-0.1-1.5L74.5,6.4c-0.1-0.7-0.3-1.2-0.4-1.4s-0.4-0.5-0.8-0.5c-0.3-0.1-0.8,0-1.4,0.1l-0.1-0.5
				c0.4-0.1,0.9-0.1,1.5-0.2c0.6-0.1,1.3-0.2,2-0.4c0.6-0.1,1.3-0.2,1.9-0.4C77.8,2.8,78.3,2.7,78.7,2.6z M87.3,0.9l0.1,0.5
				c-0.5,0.2-1.1,0.5-1.5,0.9c-0.5,0.4-0.9,1-1.3,1.7l-4,7.7l0.3-1.4l8.3,7.9c0.4,0.4,0.8,0.7,1.2,0.9c0.4,0.2,0.9,0.3,1.5,0.3
				L92,20c-0.4,0-1,0.1-1.6,0.2c-0.6,0.1-1.2,0.2-1.6,0.3c-0.3,0.1-0.7,0.1-1.1,0.2c-0.4,0.1-1,0.2-1.7,0.4l-0.1-0.5
				c0.6-0.2,1-0.3,1.1-0.5c0.1-0.2,0-0.5-0.4-0.9l-5.1-5.2c-0.5-0.5-0.9-0.9-1.2-1.1c-0.3-0.2-0.7-0.4-1-0.4s-0.7,0-1.2,0.1L78.1,12
				c0.8-0.2,1.4-0.4,1.8-0.8s0.8-0.8,1.1-1.3L83,6c0.5-0.9,0.7-1.6,0.9-2.2s0-1-0.3-1.2c-0.3-0.2-0.8-0.3-1.6-0.2L81.9,2
				c0.5-0.1,1.1-0.2,1.6-0.3s1.1-0.2,1.5-0.3C86,1.3,86.8,1.1,87.3,0.9z"/>
			<path class="st3" d="M115.4,1.2c-0.1,0.7-0.2,1.4-0.3,2c-0.1,0.7-0.1,1.2-0.1,1.5c0,0.4,0,0.9-0.1,1.2c0,0.4,0,0.7,0,1l-0.6,0
				c0-1.3-0.2-2.3-0.3-3.1c-0.2-0.8-0.5-1.3-1.1-1.7c-0.5-0.4-1.4-0.6-2.5-0.7l-1.5-0.1l-1,15.7c0,0.7,0,1.3,0.1,1.7
				c0.1,0.4,0.4,0.6,0.8,0.8c0.4,0.2,1,0.3,1.7,0.4l0,0.6c-0.5-0.1-1.1-0.1-1.8-0.2s-1.5-0.1-2.2-0.2c-0.8-0.1-1.6-0.1-2.3-0.1
				c-0.7,0-1.3-0.1-1.8,0l0-0.6c0.8,0,1.4,0,1.8-0.1c0.4-0.1,0.7-0.3,0.9-0.7c0.2-0.4,0.3-0.9,0.3-1.6l1-15.7l-1.5-0.1
				c-1.1-0.1-2,0-2.6,0.3c-0.6,0.3-1,0.8-1.3,1.5c-0.3,0.7-0.5,1.7-0.7,3l-0.6,0c0.1-0.3,0.1-0.6,0.1-1c0-0.4,0.1-0.8,0.1-1.2
				c0-0.3,0-0.9,0.1-1.5c0-0.7,0-1.3,0-2c0.8,0.1,1.6,0.1,2.5,0.2c0.9,0.1,1.8,0.1,2.7,0.2c0.9,0.1,1.8,0.1,2.5,0.2
				c0.8,0,1.6,0.1,2.5,0.2c0.9,0.1,1.8,0.1,2.7,0.2C113.8,1.1,114.7,1.2,115.4,1.2z"/>
			<path class="st3" d="M129.2,3.9c1.7,0.5,3.1,1.2,4.1,2.3c1.1,1.1,1.8,2.5,2.1,4.1c0.3,1.6,0.2,3.5-0.3,5.5
				c-0.5,2-1.4,3.6-2.5,4.9c-1.1,1.3-2.4,2.2-3.9,2.7c-1.5,0.5-3.1,0.5-4.7,0.1c-1.7-0.5-3.1-1.2-4.1-2.3c-1.1-1.1-1.8-2.5-2.1-4.1
				c-0.3-1.6-0.2-3.5,0.3-5.5c0.5-2,1.4-3.6,2.5-4.9c1.1-1.3,2.4-2.2,3.9-2.7S127.5,3.4,129.2,3.9z M128.9,4.3
				c-1.2-0.3-2.3-0.2-3.3,0.4s-2,1.5-2.9,2.8c-0.8,1.3-1.5,2.8-2,4.7c-0.5,1.9-0.7,3.6-0.5,5.1s0.6,2.8,1.3,3.8s1.6,1.6,2.7,1.9
				c1.2,0.3,2.3,0.2,3.3-0.4s2-1.5,2.9-2.8c0.8-1.3,1.5-2.8,2-4.7c0.5-1.9,0.7-3.6,0.5-5.1s-0.6-2.8-1.3-3.8
				C130.9,5.2,130,4.6,128.9,4.3z"/>
			<path class="st3" d="M155,14.5c0.8,0.5,1.4,0.9,1.7,1.3c0.3,0.4,0.6,0.8,0.8,1.2c0.1,0.2,0.2,0.4,0.3,0.5
				c0.1,0.1,0.2,0.2,0.3,0.3c0.3,0.1,0.6-0.1,1.1-0.8l0.6,0.3c-0.2,0.3-0.4,0.6-0.6,0.9s-0.5,0.8-0.9,1.5c-0.4,0.6-0.8,1.4-1.4,2.4
				l-0.6-0.3c0.4-0.8,0.6-1.6,0.8-2.5c0.1-0.9,0-1.7-0.3-2.4c-0.3-0.8-0.9-1.4-1.8-1.9c-0.8-0.5-1.7-0.6-2.5-0.4
				c-0.8,0.2-1.5,0.7-2,1.5c-0.4,0.7-0.6,1.4-0.5,2.1s0.3,1.4,0.7,2.2c0.4,0.7,0.8,1.5,1.3,2.4c0.5,1,1,1.9,1.4,2.8
				c0.4,0.9,0.6,1.7,0.6,2.5s-0.2,1.7-0.7,2.5c-0.6,1-1.3,1.7-2.1,2.1c-0.8,0.4-1.8,0.6-2.7,0.5c-1-0.1-1.9-0.4-2.8-0.9
				c-0.8-0.5-1.5-1-1.9-1.4s-0.7-0.9-0.9-1.3c-0.2-0.4-0.4-0.7-0.6-0.8c-0.3-0.1-0.6,0.1-1.1,0.8l-0.6-0.3c0.2-0.3,0.5-0.7,0.7-1.2
				c0.3-0.5,0.6-1,1-1.8c0.4-0.7,1-1.7,1.6-2.8l0.6,0.3c-0.5,1-0.8,2-1,3s-0.1,1.9,0.2,2.8s1,1.6,2,2.2c0.8,0.4,1.6,0.6,2.6,0.5
				c0.9-0.1,1.7-0.8,2.4-1.9c0.6-1,0.7-2,0.4-3c-0.3-1-0.9-2.2-1.6-3.5c-0.5-0.9-0.9-1.8-1.3-2.6c-0.4-0.9-0.6-1.7-0.6-2.6
				s0.2-1.7,0.7-2.6c0.5-0.9,1.2-1.6,2-2c0.8-0.4,1.6-0.5,2.4-0.4C153.4,13.8,154.3,14.1,155,14.5z"/>
			<path class="st3" d="M175.4,29.4c-0.5,0.5-0.9,0.9-1.3,1.4s-0.7,0.8-0.9,1c-0.2,0.3-0.4,0.5-0.6,0.8c-0.2,0.2-0.3,0.5-0.4,0.6
				l-0.5-0.4c0.6-0.9,1-1.7,1.3-2.3c0.2-0.6,0.3-1.2,0.1-1.7s-0.7-1.1-1.5-1.7l-1.8-1.4c-0.5-0.4-0.9-0.7-1.2-0.8
				c-0.3-0.1-0.6-0.1-0.9,0.1c-0.3,0.2-0.6,0.5-1.1,1.1l-8.7,10.6c-0.4,0.5-0.7,0.9-0.8,1.3c-0.1,0.3-0.1,0.6,0.1,0.9
				c0.2,0.3,0.5,0.6,1,1l1.6,1.3c0.9,0.7,1.7,1.2,2.3,1.3c0.7,0.1,1.3,0,2-0.4c0.7-0.4,1.4-1,2.3-1.9l0.5,0.4
				c-0.4,0.4-0.8,0.8-1.3,1.5c-0.2,0.3-0.5,0.7-0.9,1.2c-0.4,0.5-0.8,1.1-1.2,1.7c-0.7-0.6-1.5-1.3-2.4-2.1c-0.9-0.8-1.7-1.4-2.4-2
				c-0.4-0.3-1-0.8-1.7-1.4s-1.5-1.2-2.3-1.8c-0.8-0.6-1.6-1.2-2.3-1.8l0.3-0.4c0.5,0.4,0.9,0.6,1.2,0.7c0.3,0.1,0.6,0.1,0.9-0.1
				s0.7-0.5,1.1-1.1l8.7-10.6c0.4-0.5,0.7-1,0.8-1.3c0.1-0.3,0.1-0.6-0.1-0.9c-0.2-0.3-0.5-0.6-1-1.1l0.3-0.4
				c0.7,0.6,1.4,1.2,2.2,1.9c0.8,0.7,1.5,1.3,2.2,1.9c0.7,0.6,1.3,1,1.7,1.4c0.7,0.5,1.4,1.1,2.2,1.8S174.7,28.9,175.4,29.4z
				 M165.7,33.8l-0.3,0.4l-3.9-3.2l0.3-0.4L165.7,33.8z M168.6,31.5c-0.7,0.8-1.3,1.4-1.6,1.8c-0.3,0.4-0.7,0.8-0.9,1.2
				s-0.6,0.8-0.9,1.2c-0.3,0.4-0.8,1.1-1.4,2l-0.5-0.4c0.3-0.5,0.6-1,0.9-1.5c0.3-0.5,0.4-1,0.4-1.5c0-0.5-0.4-1-1-1.5l0.3-0.4
				c0.6,0.5,1.2,0.7,1.7,0.6c0.5-0.1,1-0.4,1.4-0.8c0.4-0.4,0.8-0.7,1.2-1L168.6,31.5z"/>
			<path class="st3" d="M188.5,43.8c-0.5,0.4-1,0.7-1.5,1.1c-0.5,0.4-0.8,0.7-1.1,0.9c-0.3,0.2-0.5,0.4-0.7,0.6s-0.4,0.4-0.5,0.5
				l-0.4-0.5c0.7-0.8,1.3-1.5,1.6-2c0.3-0.6,0.5-1.1,0.3-1.7c-0.1-0.5-0.5-1.2-1.1-1.9l-1.5-1.7c-0.4-0.5-0.8-0.8-1-1
				c-0.3-0.2-0.6-0.2-0.9-0.1c-0.3,0.1-0.7,0.4-1.2,0.9l-10.4,9c-0.5,0.4-0.8,0.8-1,1.1c-0.2,0.3-0.2,0.6-0.1,0.9
				c0.1,0.3,0.4,0.7,0.8,1.2l1.3,1.5c0.8,0.9,1.5,1.4,2.1,1.7c0.6,0.2,1.3,0.2,2,0s1.6-0.7,2.6-1.4l0.4,0.5
				c-0.4,0.3-0.9,0.7-1.6,1.2c-0.3,0.2-0.6,0.6-1.1,1c-0.5,0.4-1,0.9-1.4,1.4c-0.6-0.7-1.3-1.6-2-2.4c-0.8-0.9-1.4-1.7-2.1-2.4
				c-0.4-0.4-0.8-1-1.4-1.7c-0.6-0.7-1.2-1.4-1.9-2.2c-0.7-0.8-1.3-1.5-2-2.1l0.4-0.4c0.4,0.4,0.8,0.8,1.1,0.9
				c0.3,0.2,0.6,0.2,0.9,0.1c0.3-0.1,0.7-0.4,1.2-0.9l10.4-9c0.5-0.4,0.9-0.8,1-1.1c0.2-0.3,0.2-0.6,0.1-0.9
				c-0.1-0.3-0.4-0.7-0.8-1.2l0.4-0.4c0.6,0.7,1.2,1.4,1.9,2.2c0.7,0.8,1.3,1.5,1.9,2.2s1.1,1.2,1.4,1.7c0.6,0.6,1.2,1.4,1.9,2.2
				C187.3,42.4,187.9,43.1,188.5,43.8z M178.2,46.3l-0.4,0.4l-3.3-3.8l0.4-0.4L178.2,46.3z M181.5,44.6c-0.8,0.6-1.5,1.1-1.9,1.5
				c-0.4,0.4-0.8,0.7-1.1,1c-0.3,0.3-0.7,0.6-1.1,1c-0.4,0.4-1,0.9-1.7,1.7l-0.4-0.5c0.4-0.4,0.8-0.9,1.1-1.3
				c0.4-0.4,0.6-0.9,0.6-1.4c0-0.5-0.2-1-0.7-1.7l0.4-0.4c0.5,0.6,1.1,0.9,1.6,0.9c0.5,0,1-0.2,1.5-0.5s0.9-0.6,1.3-0.8L181.5,44.6z
				"/>
		</g>
	</g>
	<g>
		<g>
			<g>
				<g>
					<path class="st3" d="M75.7,70.4c0.7,0,1.2,0.1,1.7,0.3c0.5,0.2,0.8,0.4,1,0.6c0.6,0.4,0.9,0.1,1-0.9H80c0,0.5-0.1,1-0.1,1.7
						c0,0.6,0,1.5,0,2.6h-0.6c-0.1-0.6-0.3-1.2-0.5-1.8c-0.2-0.6-0.6-1.1-1.1-1.4c-0.5-0.4-1.1-0.6-1.8-0.6c-0.6,0-1.1,0.2-1.5,0.5
						c-0.4,0.3-0.6,0.8-0.6,1.4c0,0.5,0.1,0.9,0.5,1.3c0.3,0.4,0.7,0.7,1.2,1c0.5,0.3,1,0.6,1.6,1c0.9,0.6,1.8,1.2,2.4,1.9
						c0.7,0.6,1,1.5,1,2.5c0,0.8-0.2,1.4-0.6,1.9c-0.4,0.5-0.9,0.9-1.6,1.2C77.7,83.8,77,84,76.2,84c-0.4,0-0.7,0-1-0.1
						c-0.3-0.1-0.6-0.1-0.9-0.3c-0.2-0.1-0.3-0.2-0.5-0.3c-0.2-0.1-0.3-0.2-0.5-0.4c-0.2-0.1-0.3-0.1-0.5,0
						c-0.1,0.1-0.2,0.4-0.3,0.8h-0.6c0-0.5,0.1-1.2,0.1-1.9c0-0.8,0-1.8,0-3.1h0.6c0.1,0.9,0.3,1.8,0.5,2.5c0.2,0.7,0.6,1.2,1,1.6
						c0.5,0.4,1.1,0.6,1.9,0.6c0.5,0,1-0.2,1.5-0.5c0.5-0.4,0.7-1,0.7-1.9c0-0.7-0.3-1.3-0.8-1.8c-0.5-0.5-1.2-1-2-1.5
						c-0.6-0.4-1.2-0.8-1.7-1.2c-0.5-0.4-1-0.8-1.3-1.3c-0.3-0.5-0.5-1.1-0.5-1.8c0-0.8,0.2-1.4,0.5-1.8c0.3-0.5,0.8-0.8,1.4-1.1
						C74.4,70.5,75,70.4,75.7,70.4z"/>
					<path class="st3" d="M88.5,70.4c1.1,0,2,0.2,2.9,0.7c0.9,0.5,1.5,1.2,2,2.2c0.5,1,0.8,2.3,0.8,3.9c0,1.6-0.3,2.9-0.8,3.9
						c-0.5,1-1.2,1.7-2,2.2S89.6,84,88.5,84c-1.1,0-2-0.2-2.9-0.7s-1.5-1.2-2-2.2c-0.5-1-0.8-2.3-0.8-3.9c0-1.6,0.3-2.9,0.8-3.9
						c0.5-1,1.2-1.7,2-2.2C86.5,70.6,87.5,70.4,88.5,70.4z M88.5,70.9c-1,0-1.7,0.5-2.3,1.5c-0.6,1-0.9,2.6-0.9,4.8s0.3,3.8,0.9,4.8
						c0.6,1,1.4,1.5,2.3,1.5c0.9,0,1.7-0.5,2.3-1.5c0.6-1,0.9-2.6,0.9-4.8s-0.3-3.8-0.9-4.8S89.5,70.9,88.5,70.9z"/>
					<path class="st3" d="M104.3,70.4c0.6,0,1.1,0.1,1.5,0.2c0.4,0.2,0.8,0.4,1.1,0.7c0.3,0.3,0.5,0.8,0.7,1.3
						c0.1,0.5,0.2,1.2,0.2,2v6.7c0,0.7,0.1,1.2,0.4,1.4c0.3,0.2,0.8,0.4,1.5,0.4v0.5c-0.3,0-0.7,0-1.3-0.1c-0.6,0-1.2,0-1.7,0
						c-0.5,0-1.1,0-1.6,0s-0.9,0-1.2,0.1v-0.5c0.6,0,1-0.1,1.3-0.4s0.4-0.7,0.4-1.4v-7.2c0-0.5,0-1-0.1-1.4c-0.1-0.4-0.2-0.8-0.5-1
						c-0.3-0.3-0.7-0.4-1.3-0.4c-0.7,0-1.2,0.2-1.7,0.6c-0.5,0.4-0.9,0.9-1.2,1.6c-0.3,0.7-0.4,1.5-0.4,2.3v5.5
						c0,0.7,0.1,1.2,0.4,1.4s0.7,0.4,1.3,0.4v0.5c-0.3,0-0.7,0-1.2-0.1s-1.1,0-1.6,0c-0.6,0-1.1,0-1.7,0s-1,0-1.3,0.1v-0.5
						c0.7,0,1.2-0.1,1.5-0.4c0.3-0.2,0.4-0.7,0.4-1.4v-7.8c0-0.8-0.1-1.3-0.4-1.7c-0.3-0.4-0.8-0.5-1.5-0.5v-0.5
						c0.5,0,1,0.1,1.5,0.1c0.5,0,0.9,0,1.4-0.1c0.4-0.1,0.8-0.1,1.2-0.3v2.9c0.4-1.1,1-1.9,1.8-2.3
						C102.8,70.6,103.5,70.4,104.3,70.4z M111.9,70.4c0.6,0,1.1,0.1,1.5,0.2c0.4,0.2,0.8,0.4,1.1,0.7c0.3,0.3,0.5,0.8,0.7,1.3
						c0.1,0.5,0.2,1.2,0.2,2v6.7c0,0.7,0.1,1.2,0.4,1.4c0.3,0.2,0.8,0.4,1.5,0.4v0.5c-0.3,0-0.7,0-1.3-0.1c-0.6,0-1.2,0-1.7,0
						c-0.5,0-1.1,0-1.6,0c-0.5,0-0.9,0-1.2,0.1v-0.5c0.6,0,1-0.1,1.3-0.4s0.4-0.7,0.4-1.4v-7.2c0-0.5,0-1-0.1-1.4
						c-0.1-0.4-0.2-0.8-0.5-1c-0.3-0.3-0.7-0.4-1.3-0.4c-1,0-1.8,0.4-2.4,1.3c-0.6,0.9-1,1.9-1,3.2l-0.1-2.3
						c0.5-1.1,1.1-1.9,1.8-2.4C110.3,70.6,111.1,70.4,111.9,70.4z"/>
					<path class="st3" d="M124.4,70.4c1.5,0,2.6,0.4,3.4,1.3c0.8,0.9,1.2,2.3,1.2,4.2h-8.8l0-0.5h6.5c0-0.8,0-1.6-0.2-2.3
						c-0.2-0.7-0.4-1.2-0.8-1.7c-0.4-0.4-0.8-0.6-1.4-0.6c-0.8,0-1.4,0.4-2,1.1c-0.6,0.8-0.9,2-1.1,3.6l0.1,0.1
						c0,0.2-0.1,0.5-0.1,0.8c0,0.3,0,0.6,0,0.9c0,1.1,0.2,2.1,0.5,2.9c0.4,0.8,0.8,1.4,1.4,1.9c0.6,0.4,1.2,0.6,1.8,0.6
						c0.8,0,1.4-0.2,2.1-0.5c0.6-0.4,1.2-1,1.6-2l0.5,0.2c-0.2,0.5-0.5,1.1-0.9,1.6s-0.9,0.9-1.6,1.3c-0.6,0.3-1.4,0.5-2.2,0.5
						c-1.2,0-2.2-0.3-3.1-0.8c-0.9-0.5-1.5-1.3-2-2.3c-0.5-1-0.7-2.1-0.7-3.4c0-1.5,0.2-2.7,0.7-3.8c0.5-1.1,1.1-1.9,2-2.4
						C122.2,70.7,123.2,70.4,124.4,70.4z"/>
				</g>
			</g>
		</g>
		<g>
			<g class="st4">
				<path class="st3" d="M53.1,93.1c3.8,0,6.6,0.9,8.4,2.8s2.7,4.6,2.7,8.1c0,2.3-0.4,4.3-1.3,6c-0.9,1.7-2.2,3-3.9,4
					c-1.7,0.9-3.8,1.4-6.2,1.4c-0.5,0-1.1,0-2.1,0c-0.9,0-1.7,0-2.4,0c-0.7,0-1.5,0-2.2,0c-0.7,0-1.3,0-1.7,0.1v-0.6
					c0.7,0,1.3-0.1,1.6-0.3c0.4-0.1,0.6-0.4,0.7-0.8s0.2-0.9,0.2-1.7V96.5c0-0.8-0.1-1.4-0.2-1.7s-0.4-0.6-0.7-0.8
					c-0.4-0.1-0.9-0.2-1.6-0.2v-0.6c0.4,0,1,0,1.7,0.1s1.4,0,2.1,0c0.7,0,1.6,0,2.5-0.1C51.8,93.1,52.5,93.1,53.1,93.1z M52.3,93.7
					c-1,0-1.6,0.2-1.9,0.5c-0.3,0.4-0.4,1.1-0.4,2.2v15.8c0,1.1,0.2,1.8,0.5,2.2c0.3,0.4,0.9,0.5,1.9,0.5c2.3,0,4.1-0.4,5.3-1.2
					c1.3-0.8,2.1-2,2.7-3.6c0.5-1.6,0.8-3.5,0.8-5.8c0-3.5-0.6-6.2-1.9-7.9C57.9,94.5,55.6,93.7,52.3,93.7z"/>
				<path class="st3" d="M83.1,93.1c-0.1,0.7-0.1,1.5-0.2,2.1c0,0.7,0,1.2,0,1.6c0,0.4,0,0.7,0,1.1s0,0.6,0.1,0.9h-0.7
					c-0.1-1.2-0.3-2.2-0.5-3c-0.2-0.7-0.6-1.2-1.2-1.5C80,94,79.1,93.8,78,93.8h-2.6c-0.7,0-1.3,0.1-1.6,0.2
					c-0.4,0.1-0.6,0.4-0.7,0.7c-0.1,0.4-0.2,0.9-0.2,1.7v15.7c0,0.8,0.1,1.3,0.2,1.7c0.1,0.4,0.4,0.6,0.7,0.7
					c0.4,0.1,0.9,0.2,1.6,0.2h2.3c1.3,0,2.3-0.2,3-0.5c0.7-0.4,1.2-0.9,1.5-1.8c0.3-0.8,0.5-1.9,0.7-3.3h0.7
					c-0.1,0.6-0.1,1.3-0.1,2.3c0,0.4,0,1,0,1.7c0,0.7,0.1,1.5,0.2,2.3c-1.1,0-2.3-0.1-3.6-0.1c-1.3,0-2.5,0-3.6,0
					c-0.6,0-1.5,0-2.5,0c-1,0-2.2,0-3.3,0c-1.2,0-2.3,0-3.3,0.1v-0.6c0.7,0,1.3-0.1,1.6-0.3c0.4-0.1,0.6-0.4,0.7-0.8
					s0.2-0.9,0.2-1.7V96.5c0-0.8-0.1-1.4-0.2-1.7S69.3,94.1,69,94c-0.4-0.1-0.9-0.2-1.6-0.2v-0.6c1,0,2.1,0,3.3,0.1
					c1.2,0,2.3,0,3.3,0c1,0,1.9,0,2.5,0c1,0,2.1,0,3.3,0C81,93.2,82.1,93.2,83.1,93.1z M77.7,103.9v0.6h-5.8v-0.6H77.7z M78.6,99.7
					c-0.1,1.2-0.1,2.1-0.1,2.7c0,0.6,0,1.2,0,1.7c0,0.5,0,1.1,0,1.7c0,0.6,0.1,1.5,0.2,2.7H78c-0.1-0.7-0.2-1.3-0.3-2
					c-0.1-0.6-0.4-1.2-0.8-1.6c-0.4-0.4-1-0.6-2-0.6v-0.6c0.9,0,1.6-0.2,1.9-0.7c0.4-0.5,0.6-1.1,0.7-1.7c0.1-0.7,0.2-1.2,0.3-1.7
					H78.6z"/>
				<path class="st3" d="M93.3,92.8c1.1,0,1.9,0.1,2.4,0.4c0.5,0.2,1,0.5,1.5,0.8c0.3,0.1,0.5,0.3,0.6,0.3c0.2,0.1,0.3,0.1,0.5,0.1
					c0.3,0,0.6-0.5,0.7-1.4h0.7c0,0.4,0,0.8-0.1,1.3c0,0.5-0.1,1.1-0.1,2c0,0.8,0,1.9,0,3.2h-0.7c-0.1-1-0.3-2-0.7-2.9
					c-0.4-0.9-0.9-1.7-1.7-2.3c-0.7-0.6-1.7-0.9-2.9-0.9c-1.1,0-2,0.3-2.8,1c-0.7,0.7-1.1,1.6-1.1,2.7c0,0.9,0.2,1.7,0.7,2.4
					c0.5,0.6,1.1,1.2,1.9,1.7c0.8,0.5,1.7,1.1,2.6,1.7c1.1,0.7,2.1,1.3,2.9,2c0.9,0.7,1.5,1.4,2,2.2c0.5,0.8,0.7,1.8,0.7,2.9
					c0,1.3-0.3,2.5-0.9,3.3c-0.6,0.9-1.4,1.5-2.4,2c-1,0.4-2.1,0.7-3.3,0.7c-1.1,0-2-0.1-2.7-0.4c-0.7-0.3-1.2-0.5-1.7-0.8
					c-0.5-0.3-0.8-0.4-1.1-0.4c-0.3,0-0.6,0.5-0.7,1.4h-0.7c0-0.4,0.1-1,0.1-1.6c0-0.6,0-1.4,0-2.4c0-1,0-2.2,0-3.7h0.7
					c0.1,1.3,0.3,2.4,0.7,3.5c0.4,1.1,1,2,1.8,2.6c0.8,0.7,1.9,1,3.2,1c1,0,2-0.3,2.8-1s1.3-1.7,1.3-3.2c0-1.3-0.5-2.3-1.4-3.2
					c-0.9-0.8-2.1-1.7-3.6-2.6c-1-0.6-1.9-1.2-2.8-1.9c-0.9-0.6-1.6-1.4-2.1-2.2c-0.5-0.8-0.8-1.8-0.8-3c0-1.2,0.3-2.3,0.8-3.1
					c0.6-0.8,1.3-1.4,2.2-1.8C91.3,93,92.3,92.8,93.3,92.8z"/>
				<path class="st3" d="M111.7,93.1v0.6c-0.7,0-1.3,0.1-1.6,0.2c-0.4,0.1-0.6,0.4-0.7,0.8c-0.1,0.4-0.2,0.9-0.2,1.7v15.7
					c0,0.8,0.1,1.3,0.2,1.7c0.1,0.4,0.4,0.6,0.7,0.8c0.4,0.1,0.9,0.2,1.6,0.3v0.6c-0.5,0-1.1-0.1-1.8-0.1c-0.7,0-1.5,0-2.2,0
					c-0.8,0-1.6,0-2.3,0c-0.7,0-1.3,0-1.7,0.1v-0.6c0.7,0,1.3-0.1,1.6-0.3c0.4-0.1,0.6-0.4,0.7-0.8s0.2-0.9,0.2-1.7V96.5
					c0-0.8-0.1-1.4-0.2-1.7s-0.4-0.6-0.7-0.8c-0.4-0.1-0.9-0.2-1.6-0.2v-0.6c0.4,0,1,0,1.7,0.1c0.7,0,1.5,0,2.3,0c0.7,0,1.5,0,2.2,0
					C110.6,93.2,111.2,93.1,111.7,93.1z"/>
				<path class="st3" d="M124.9,92.7c1.4,0,2.5,0.2,3.3,0.6s1.6,0.9,2.4,1.4c0.3,0.2,0.5,0.3,0.6,0.3c0.4,0,0.7-0.6,0.8-1.9h0.7
					c0,0.8-0.1,1.7-0.1,2.8c0,1.1,0,2.6,0,4.4h-0.7c-0.1-0.9-0.3-1.7-0.5-2.6c-0.2-0.8-0.6-1.5-1-2.1c-0.6-0.8-1.4-1.4-2.4-1.8
					c-1-0.4-2-0.6-3.1-0.6c-1.1,0-2,0.3-2.9,0.8s-1.6,1.3-2.2,2.2c-0.6,1-1.1,2.1-1.4,3.5c-0.3,1.4-0.5,2.9-0.5,4.6
					c0,3.8,0.6,6.6,1.8,8.3c1.2,1.8,3.1,2.6,5.7,2.6c0.8,0,1.4-0.1,2-0.3c0.6-0.2,1-0.4,1.3-0.6c0.4-0.3,0.7-0.5,0.8-0.8
					c0.1-0.2,0.2-0.6,0.2-1v-3c0-0.9-0.1-1.5-0.3-1.9c-0.2-0.4-0.5-0.7-0.9-0.9c-0.5-0.1-1.1-0.2-2-0.3v-0.6c0.4,0,0.8,0,1.3,0
					c0.5,0,1,0,1.6,0s1.1,0,1.5,0c0.7,0,1.3,0,1.9,0c0.6,0,1,0,1.4-0.1v0.6c-0.7,0-1.1,0.2-1.3,0.5c-0.2,0.3-0.3,1-0.3,2.2v6.3h-0.6
					c0-0.4-0.1-0.7-0.2-1.2c-0.1-0.4-0.3-0.6-0.6-0.6c-0.1,0-0.3,0-0.4,0.1c-0.1,0.1-0.3,0.2-0.7,0.4c-0.7,0.5-1.4,0.9-2.2,1.2
					c-0.8,0.3-1.7,0.5-2.7,0.5c-3.3,0-5.8-1-7.6-3c-1.8-2-2.7-4.7-2.7-8.3c0-2.5,0.4-4.6,1.3-6.4c0.9-1.8,2.1-3.2,3.6-4.2
					C121.2,93.2,122.9,92.7,124.9,92.7z"/>
				<path class="st3" d="M156.4,93.1v0.6c-0.7,0-1.3,0.1-1.6,0.3s-0.6,0.5-0.7,0.9c-0.1,0.4-0.2,1-0.2,1.8v18.9c-0.1,0-0.2,0-0.4,0
					c-0.1,0-0.2,0-0.4,0l-13.3-20.5v16.7c0,0.8,0.1,1.4,0.2,1.8s0.4,0.7,0.8,0.9s1,0.3,1.8,0.3v0.6c-0.4,0-0.9-0.1-1.5-0.1
					c-0.6,0-1.2,0-1.7,0c-0.5,0-1.1,0-1.6,0c-0.5,0-1,0-1.3,0.1v-0.6c0.7,0,1.3-0.2,1.6-0.3c0.4-0.2,0.6-0.5,0.7-0.9s0.2-1,0.2-1.8
					V96.5c0-0.8-0.1-1.4-0.2-1.7s-0.4-0.6-0.7-0.8c-0.4-0.1-0.9-0.2-1.6-0.2v-0.6c0.4,0,0.8,0,1.3,0.1c0.5,0,1.1,0,1.6,0
					c0.5,0,0.9,0,1.3,0c0.4,0,0.8,0,1.1-0.1l11.1,17.2V96.8c0-0.8-0.1-1.4-0.2-1.8c-0.1-0.4-0.4-0.7-0.8-0.9c-0.4-0.2-1-0.3-1.8-0.3
					v-0.6c0.4,0,0.9,0,1.5,0.1c0.6,0,1.2,0,1.7,0c0.5,0,1.1,0,1.6,0C155.6,93.2,156,93.1,156.4,93.1z"/>
				<path class="st3" d="M59.6,129.2v15.4c0,0.7,0.2,1.2,0.6,1.4c0.4,0.2,1,0.4,1.8,0.4v0.5c-0.4,0-0.9,0-1.5-0.1
					c-0.7,0-1.3,0-2.1,0c-0.5,0-1,0-1.5,0c-0.5,0-0.9,0-1.2,0.1v-0.5c0.6,0,1-0.1,1.3-0.3s0.4-0.6,0.4-1.2v-12.6
					c0-0.8-0.1-1.3-0.4-1.7s-0.8-0.5-1.5-0.5v-0.5c0.5,0,1.1,0.1,1.6,0.1c0.5,0,0.9,0,1.4-0.1C58.9,129.4,59.3,129.3,59.6,129.2z
					 M63.6,129.1c1.3,0,2.4,0.5,3.3,1.6c0.9,1.1,1.3,2.6,1.3,4.6c0,1.2-0.2,2.4-0.6,3.5c-0.4,1.1-1,2.1-1.8,2.8
					c-0.8,0.7-1.9,1.1-3.3,1.1c-0.8,0-1.5-0.2-2-0.5c-0.6-0.4-1-0.8-1.2-1.3l0.2-0.3c0.2,0.5,0.6,0.9,1,1.2c0.4,0.3,1,0.5,1.7,0.5
					c0.9,0,1.7-0.3,2.2-0.9c0.5-0.6,0.9-1.4,1.1-2.3s0.3-2.1,0.3-3.2c0-1.3-0.1-2.4-0.3-3.3c-0.2-0.8-0.5-1.5-1-1.9
					c-0.4-0.4-1-0.6-1.6-0.6c-0.8,0-1.6,0.3-2.2,1c-0.7,0.7-1.1,1.7-1.3,3.1l-0.3-0.3c0.2-1.4,0.7-2.5,1.5-3.3
					C61.5,129.5,62.5,129.1,63.6,129.1z"/>
				<path class="st3" d="M78,129.1c0.5,0,0.8,0.1,1.2,0.3c0.3,0.2,0.6,0.4,0.8,0.7s0.3,0.6,0.3,1c0,0.4-0.1,0.8-0.4,1.1
					c-0.3,0.3-0.6,0.5-1,0.5c-0.4,0-0.7-0.1-0.9-0.3c-0.3-0.2-0.4-0.5-0.4-1c0-0.3,0.1-0.6,0.3-0.8c0.2-0.2,0.4-0.4,0.6-0.5
					c-0.1-0.2-0.3-0.2-0.5-0.2c-0.7,0-1.3,0.3-1.8,0.8c-0.5,0.5-0.9,1.2-1.2,1.9c-0.3,0.7-0.4,1.4-0.4,2v5.3c0,0.8,0.2,1.4,0.7,1.6
					s1.1,0.4,1.9,0.4v0.5c-0.4,0-0.9,0-1.6-0.1c-0.7,0-1.4,0-2.2,0c-0.6,0-1.1,0-1.7,0s-1,0-1.3,0.1v-0.5c0.7,0,1.2-0.1,1.5-0.4
					c0.3-0.2,0.4-0.7,0.4-1.4v-7.8c0-0.8-0.1-1.3-0.4-1.7c-0.3-0.4-0.8-0.5-1.5-0.5v-0.5c0.5,0,1,0.1,1.5,0.1c0.5,0,0.9,0,1.4-0.1
					c0.4-0.1,0.8-0.1,1.2-0.3v3.1c0.2-0.5,0.4-1,0.8-1.5c0.3-0.5,0.8-0.9,1.2-1.2C76.8,129.3,77.4,129.1,78,129.1z"/>
				<path class="st3" d="M87.4,129.1c1.1,0,2,0.2,2.9,0.7c0.9,0.5,1.5,1.2,2,2.2c0.5,1,0.8,2.3,0.8,3.9c0,1.6-0.3,2.9-0.8,3.9
					c-0.5,1-1.2,1.7-2,2.2c-0.9,0.5-1.8,0.7-2.9,0.7c-1.1,0-2-0.2-2.9-0.7c-0.9-0.5-1.5-1.2-2-2.2c-0.5-1-0.8-2.3-0.8-3.9
					c0-1.6,0.3-2.9,0.8-3.9c0.5-1,1.2-1.7,2-2.2C85.4,129.3,86.4,129.1,87.4,129.1z M87.4,129.6c-1,0-1.7,0.5-2.3,1.5
					c-0.6,1-0.9,2.6-0.9,4.8s0.3,3.8,0.9,4.8c0.6,1,1.4,1.5,2.3,1.5c0.9,0,1.7-0.5,2.3-1.5c0.6-1,0.9-2.6,0.9-4.8s-0.3-3.8-0.9-4.8
					S88.4,129.6,87.4,129.6z"/>
				<path class="st3" d="M93.6,147v-0.4c1,0,1.8-0.5,2.3-1.3s0.8-2,0.8-3.5v-9.7c0-0.8-0.1-1.3-0.4-1.7s-0.8-0.5-1.5-0.5v-0.5
					c0.5,0,1.1,0.1,1.6,0.1c0.5,0,0.9,0,1.4-0.1c0.4-0.1,0.8-0.1,1.2-0.3v10.3c0,1.2-0.1,2.4-0.4,3.5s-0.7,1.9-1.4,2.6
					c-0.4,0.5-0.9,0.8-1.5,1.1C95,146.9,94.4,147,93.6,147z M97.6,123.2c0.4,0,0.8,0.2,1.1,0.5c0.3,0.3,0.5,0.7,0.5,1.1
					c0,0.4-0.2,0.8-0.5,1.1c-0.3,0.3-0.7,0.5-1.1,0.5c-0.4,0-0.8-0.2-1.1-0.5c-0.3-0.3-0.5-0.7-0.5-1.1c0-0.4,0.2-0.8,0.5-1.1
					C96.8,123.4,97.2,123.2,97.6,123.2z"/>
				<path class="st3" d="M107.8,129.1c1.5,0,2.6,0.4,3.4,1.3s1.2,2.3,1.2,4.2h-8.8l0-0.5h6.5c0-0.8,0-1.6-0.2-2.3
					c-0.2-0.7-0.4-1.2-0.8-1.7c-0.4-0.4-0.8-0.6-1.4-0.6c-0.8,0-1.4,0.4-2,1.2s-0.9,2-1.1,3.6l0.1,0.1c0,0.2-0.1,0.5-0.1,0.8
					c0,0.3,0,0.6,0,0.9c0,1.1,0.2,2.1,0.5,2.9c0.4,0.8,0.8,1.4,1.4,1.9c0.6,0.4,1.2,0.6,1.8,0.6c0.8,0,1.4-0.2,2.1-0.5
					c0.6-0.4,1.2-1,1.6-2l0.5,0.2c-0.2,0.5-0.5,1.1-0.9,1.6c-0.4,0.5-0.9,0.9-1.6,1.3c-0.6,0.3-1.4,0.5-2.2,0.5
					c-1.2,0-2.2-0.3-3.1-0.8c-0.9-0.6-1.5-1.3-2-2.3c-0.5-1-0.7-2.1-0.7-3.4c0-1.5,0.2-2.7,0.7-3.8s1.1-1.9,2-2.5
					C105.6,129.4,106.6,129.1,107.8,129.1z"/>
				<path class="st3" d="M120.6,129.1c0.5,0,1.1,0.1,1.6,0.2c0.5,0.1,0.9,0.3,1.3,0.6c0.4,0.2,0.7,0.5,0.9,0.9s0.3,0.7,0.3,1.1
					c0,0.5-0.1,0.8-0.4,1c-0.2,0.2-0.6,0.4-1,0.4c-0.4,0-0.7-0.1-1-0.3c-0.3-0.2-0.4-0.5-0.4-0.9c0-0.4,0.1-0.7,0.3-0.9
					c0.2-0.2,0.5-0.4,0.7-0.4c-0.2-0.3-0.5-0.6-0.9-0.8c-0.4-0.2-0.9-0.3-1.4-0.3c-0.4,0-0.8,0.1-1.2,0.3c-0.4,0.2-0.8,0.5-1.2,1
					s-0.6,1.1-0.8,1.9c-0.2,0.8-0.3,1.8-0.3,3c0,1.5,0.2,2.6,0.5,3.5c0.3,0.9,0.8,1.5,1.3,1.9c0.5,0.4,1.1,0.6,1.8,0.6
					c0.7,0,1.3-0.2,2-0.6c0.7-0.4,1.2-1,1.6-2l0.5,0.2c-0.2,0.5-0.4,1.1-0.8,1.6c-0.4,0.5-0.9,1-1.5,1.3c-0.6,0.3-1.4,0.5-2.3,0.5
					c-1,0-2-0.3-2.8-0.8c-0.8-0.5-1.5-1.3-2-2.3c-0.5-1-0.7-2.2-0.7-3.5c0-1.4,0.2-2.6,0.7-3.6c0.5-1,1.2-1.9,2.1-2.5
					C118.4,129.4,119.4,129.1,120.6,129.1z"/>
				<path class="st3" d="M130.5,125.3v4.2h3.7v0.5h-3.7v9.7c0,0.8,0.1,1.3,0.4,1.6c0.3,0.3,0.7,0.5,1.2,0.5s0.9-0.2,1.3-0.6
					c0.4-0.4,0.7-1.1,0.9-2.1l0.5,0.1c-0.2,1-0.5,1.8-1,2.4c-0.5,0.7-1.2,1-2.3,1c-0.6,0-1-0.1-1.4-0.2c-0.4-0.1-0.7-0.3-1-0.6
					c-0.4-0.4-0.6-0.8-0.8-1.4c-0.1-0.5-0.2-1.2-0.2-2.1V130h-2.4v-0.5h2.4v-3.8c0.4,0,0.8,0,1.2-0.1
					C129.8,125.5,130.2,125.4,130.5,125.3z"/>
				<path class="st3" d="M139.8,129.1c0.7,0,1.2,0.1,1.7,0.3c0.5,0.2,0.8,0.4,1,0.6c0.5,0.5,0.9,0.1,1-0.9h0.6c0,0.5-0.1,1-0.1,1.7
					s0,1.5,0,2.6h-0.6c-0.1-0.6-0.3-1.2-0.5-1.8c-0.2-0.6-0.6-1.1-1.1-1.4s-1.1-0.6-1.8-0.6c-0.6,0-1.1,0.2-1.5,0.5
					c-0.4,0.3-0.6,0.8-0.6,1.4c0,0.5,0.2,0.9,0.5,1.3s0.7,0.7,1.2,1s1,0.6,1.6,1c1,0.6,1.8,1.2,2.4,1.9c0.7,0.6,1,1.5,1,2.5
					c0,0.8-0.2,1.4-0.6,1.9c-0.4,0.5-0.9,0.9-1.6,1.2c-0.6,0.3-1.3,0.4-2.1,0.4c-0.4,0-0.7,0-1-0.1c-0.3-0.1-0.6-0.1-0.9-0.3
					c-0.2-0.1-0.3-0.2-0.5-0.3s-0.3-0.2-0.5-0.4c-0.2-0.1-0.3-0.1-0.4,0c-0.1,0.1-0.2,0.4-0.3,0.8H136c0-0.5,0.1-1.2,0.1-2
					c0-0.8,0-1.8,0-3h0.6c0.1,0.9,0.3,1.8,0.5,2.5c0.2,0.7,0.6,1.2,1,1.6s1.1,0.6,2,0.6c0.5,0,1-0.2,1.5-0.5c0.5-0.4,0.7-1,0.7-1.9
					c0-0.7-0.3-1.3-0.8-1.8c-0.5-0.5-1.2-1-2-1.5c-0.6-0.4-1.2-0.8-1.7-1.2c-0.5-0.4-1-0.8-1.3-1.3s-0.5-1.1-0.5-1.8
					c0-0.8,0.2-1.4,0.5-1.8c0.3-0.5,0.8-0.8,1.4-1C138.5,129.2,139.1,129.1,139.8,129.1z"/>
			</g>
		</g>
	</g>
</g>
</svg>
