<?xml version="1.0" encoding="utf-8"?>
<!-- Generator: Adobe Illustrator 25.4.1, SVG Export Plug-In . SVG Version: 6.00 Build 0)  -->
<svg version="1.1" id="Layer_1" xmlns="http://www.w3.org/2000/svg" xmlns:xlink="http://www.w3.org/1999/xlink" x="0px" y="0px"
	 viewBox="0 0 200 200" style="enable-background:new 0 0 200 200;" xml:space="preserve">
<style type="text/css">
	.st0{fill:#FFFFFF;}
	.st1{fill:none;stroke:#FFFFFF;stroke-linejoin:round;stroke-miterlimit:10;}
	.st2{fill:none;stroke:#FFFFFF;stroke-width:0.8745;stroke-linecap:round;stroke-miterlimit:10;}
	.st3{fill:none;stroke:#FFFFFF;stroke-miterlimit:10;stroke-dasharray:3,3;}
	.st4{fill:none;stroke:#FFFFFF;stroke-width:0.1749;stroke-miterlimit:10;}
	.st5{fill:none;stroke:#FFFFFF;stroke-width:0.1667;stroke-miterlimit:10;}
	.st6{fill:none;stroke:#FFFFFF;stroke-width:0.1627;stroke-miterlimit:10;}
	.st7{fill:none;stroke:#FFFFFF;stroke-width:0.125;stroke-miterlimit:10;}
</style>
<g id="_x36_7DYpN_00000106826935282857958620000010296963546415878801_">
	
		<image style="overflow:visible;" width="564" height="809" id="_x36_7DYpN" xlink:href="11FDA47B01A248.jpg"  transform="matrix(3.9319 4.5823 -4.5823 3.9319 2822.6506 -1309.1647)">
	</image>
</g>
<g>
	<g>
		<circle class="st0" cx="54.1" cy="23.6" r="5.7"/>
	</g>
	<path class="st1" d="M123.3,35.4c1.3-0.9,1.5-2.7,0.6-4c0.9,1.3,2.7,1.5,4,0.6c-1.3,0.9-1.5,2.7-0.6,4
		C126.3,34.7,124.6,34.5,123.3,35.4z"/>
	<circle class="st0" cx="72.1" cy="88.2" r="2.6"/>
	<circle class="st0" cx="9.5" cy="81.7" r="3.7"/>
	<g>
		<circle class="st0" cx="192" cy="78.2" r="3"/>
		<line class="st2" x1="190.3" y1="81.5" x2="193.6" y2="74.9"/>
	</g>
	<g>
		<circle class="st0" cx="162.5" cy="73.4" r="5.7"/>
	</g>
	<line class="st3" x1="14.7" y1="82.6" x2="67.4" y2="86.8"/>
	<line class="st3" x1="160.3" y1="69.4" x2="128.9" y2="37.1"/>
	<line class="st3" x1="124.3" y1="37.8" x2="75.9" y2="84.8"/>
	<line class="st3" x1="58.2" y1="24.7" x2="121.9" y2="33.7"/>
	<line class="st3" x1="11.4" y1="75.7" x2="50.6" y2="28.9"/>
	<line class="st3" x1="166.4" y1="72.6" x2="186.8" y2="77.7"/>
</g>
<g>
	<path class="st0" d="M64.2,160.3l-0.1,0.5c-0.5-0.1-0.8,0-1.1,0.1c-0.2,0.1-0.4,0.3-0.4,0.6c-0.1,0.3,0,0.8,0,1.4l1.8,13.8
		l-0.8,0.6l6.2-11.5l0.3,0.7l-7.4,13.8c0,0-0.1,0-0.1,0c0,0-0.1,0-0.1,0c0,0-0.1,0-0.1,0c0,0-0.1,0-0.1,0l-2.5-18.4
		c-0.1-0.8-0.3-1.3-0.6-1.6c-0.3-0.3-0.6-0.5-0.9-0.5l0.1-0.5c0.4,0.1,0.8,0.2,1.3,0.3c0.5,0.1,1.1,0.2,1.6,0.3
		c0.6,0.1,1.2,0.2,1.7,0.3C63.4,160.2,63.9,160.3,64.2,160.3z M83.4,164l-0.1,0.6c-0.4,0-0.8,0.1-1.3,0.4c-0.5,0.3-0.9,0.8-1.4,1.6
		l-8.4,15.7c0,0-0.1,0-0.1,0c0,0-0.1,0-0.1,0c0,0-0.1,0-0.1,0c0,0-0.1,0-0.1,0l-2.5-18.4c-0.1-0.8-0.3-1.3-0.5-1.6s-0.5-0.4-0.8-0.5
		l0.1-0.5c0.3,0.1,0.7,0.2,1.2,0.3c0.5,0.1,1,0.2,1.4,0.3c0.7,0.1,1.4,0.3,2,0.4c0.6,0.1,1.1,0.2,1.5,0.2l-0.1,0.5
		c-0.6-0.1-1-0.1-1.3-0.1c-0.3,0-0.6,0.2-0.7,0.5c-0.1,0.3-0.1,0.8,0,1.6l1.7,13.5l-0.4,0.3l5.8-10.7c0.5-0.9,0.8-1.7,0.9-2.3
		s-0.1-1-0.4-1.3c-0.3-0.3-0.9-0.5-1.7-0.7l0.1-0.5c0.5,0.1,1.1,0.2,1.6,0.4c0.5,0.1,1.1,0.2,1.5,0.3c0.5,0.1,0.9,0.2,1.2,0.2
		C82.8,163.9,83.1,164,83.4,164z"/>
	<path class="st0" d="M89.8,169c1.2,0.1,2.2,0.4,3.2,1s1.6,1.4,2.1,2.6c0.5,1.2,0.7,2.6,0.6,4.4s-0.5,3.2-1.1,4.3s-1.4,1.8-2.4,2.3
		c-1,0.5-2.1,0.7-3.3,0.6c-1.2-0.1-2.2-0.4-3.2-1c-0.9-0.6-1.6-1.4-2.1-2.6c-0.5-1.1-0.7-2.6-0.6-4.4c0.1-1.8,0.5-3.2,1.1-4.3
		c0.6-1.1,1.5-1.9,2.4-2.3C87.6,169.2,88.7,169,89.8,169z M89.8,169.6c-1.1-0.1-2,0.4-2.7,1.5c-0.8,1.1-1.2,2.8-1.4,5.3
		c-0.2,2.5,0.1,4.3,0.7,5.4c0.6,1.1,1.4,1.7,2.5,1.8c1.1,0.1,2-0.4,2.7-1.5s1.2-2.8,1.4-5.3c0.2-2.5-0.1-4.3-0.7-5.5
		C91.7,170.3,90.9,169.7,89.8,169.6z"/>
	<path class="st0" d="M108.7,169.2c0.5,0,1,0.1,1.3,0.3c0.4,0.2,0.7,0.4,0.9,0.8c0.2,0.3,0.3,0.7,0.4,1.1c0,0.5-0.1,0.9-0.4,1.2
		s-0.7,0.6-1.1,0.6c-0.4,0-0.7-0.1-1-0.3c-0.3-0.2-0.5-0.6-0.5-1.1c0-0.4,0.1-0.7,0.3-0.9s0.4-0.5,0.6-0.6c-0.1-0.2-0.3-0.3-0.6-0.3
		c-0.8,0-1.5,0.3-2,1s-1,1.3-1.3,2.2c-0.3,0.8-0.4,1.6-0.4,2.3l0.2,5.9c0,0.9,0.3,1.5,0.9,1.8s1.3,0.4,2.2,0.4l0,0.6
		c-0.4,0-1,0-1.8,0c-0.8,0-1.6,0-2.5,0c-0.6,0-1.3,0.1-1.9,0.1c-0.6,0-1.1,0.1-1.4,0.1l0-0.6c0.8,0,1.3-0.2,1.6-0.5
		c0.3-0.3,0.5-0.8,0.4-1.6l-0.3-8.8c0-0.8-0.2-1.5-0.5-1.8c-0.3-0.4-0.9-0.6-1.7-0.5l0-0.6c0.6,0,1.2,0,1.7,0c0.5,0,1.1-0.1,1.5-0.2
		c0.5-0.1,0.9-0.2,1.3-0.3l0.1,3.5c0.2-0.5,0.5-1.1,0.8-1.7c0.4-0.6,0.8-1,1.3-1.4S108.1,169.2,108.7,169.2z"/>
	<path class="st0" d="M117.1,161.3l2.5,19.2c0.1,0.8,0.3,1.3,0.6,1.5c0.3,0.2,0.8,0.3,1.5,0.2l0.1,0.6c-0.3,0-0.7,0.1-1.3,0.1
		c-0.6,0-1.2,0.1-1.8,0.2c-0.6,0.1-1.3,0.2-1.9,0.3s-1.1,0.2-1.4,0.3l-0.1-0.6c0.8-0.1,1.3-0.3,1.6-0.6c0.3-0.3,0.4-0.9,0.3-1.6
		l-2-15.9c-0.1-0.8-0.3-1.4-0.7-1.8c-0.3-0.4-0.9-0.5-1.7-0.4l-0.1-0.6c0.6,0,1.2-0.1,1.7-0.1c0.5-0.1,1-0.2,1.5-0.3
		C116.2,161.6,116.7,161.5,117.1,161.3z M126.8,167.6l0.1,0.6c-0.5,0.1-0.9,0.3-1.3,0.5s-0.7,0.6-1.1,1.1l-3.4,4.6l0.3-0.8l6.1,6.4
		c0.4,0.4,0.7,0.7,1,0.9c0.3,0.2,0.7,0.3,1.1,0.3l0.1,0.6c-0.2,0-0.5,0-1,0.1c-0.4,0-0.9,0.1-1.3,0.1c-0.6,0.1-1.2,0.2-1.7,0.3
		c-0.6,0.1-1,0.2-1.3,0.2l-0.1-0.6c0.4,0,0.6-0.2,0.7-0.4c0.1-0.2,0.1-0.4-0.2-0.7l-3.8-4.3c-0.4-0.5-0.8-0.7-1.1-0.8
		c-0.3-0.1-0.7-0.1-1.3-0.1l-0.1-0.6c0.6-0.2,1-0.3,1.4-0.6c0.3-0.2,0.7-0.5,1-0.9l1.8-2.4c0.5-0.7,0.7-1.2,0.7-1.6
		c0-0.4-0.3-0.6-0.7-0.7c-0.4-0.1-0.9-0.1-1.5,0l-0.1-0.6c0.5,0,1-0.1,1.6-0.1s1.1-0.1,1.5-0.2c0.3,0,0.6-0.1,0.9-0.1
		c0.3,0,0.6-0.1,0.8-0.1C126.4,167.7,126.7,167.7,126.8,167.6z"/>
	<path class="st0" d="M135.4,165.4c0.7-0.2,1.4-0.2,1.9-0.1c0.6,0.1,1,0.3,1.3,0.4c0.7,0.4,1-0.1,0.9-1.2l0.6-0.1
		c0.1,0.5,0.2,1.1,0.3,1.8s0.4,1.6,0.6,2.8l-0.6,0.1c-0.3-0.6-0.6-1.3-1-1.8c-0.4-0.6-0.9-1-1.5-1.3c-0.6-0.3-1.3-0.3-2.1-0.2
		c-0.6,0.1-1.1,0.4-1.5,0.9c-0.3,0.5-0.4,1-0.3,1.7c0.1,0.5,0.4,1,0.8,1.3c0.4,0.3,0.9,0.6,1.5,0.8s1.3,0.4,2,0.7
		c1.2,0.4,2.2,0.9,3.1,1.4s1.5,1.3,1.7,2.5c0.2,0.8,0.1,1.6-0.2,2.3c-0.3,0.7-0.8,1.2-1.4,1.7s-1.4,0.8-2.2,1
		c-0.4,0.1-0.8,0.1-1.2,0.2s-0.7,0-1.1,0c-0.2,0-0.4-0.1-0.6-0.2s-0.4-0.2-0.7-0.3s-0.4-0.1-0.5,0.1c-0.1,0.2-0.1,0.5-0.1,1
		l-0.6,0.1c-0.1-0.6-0.2-1.3-0.4-2.1c-0.2-0.8-0.4-2-0.7-3.3l0.6-0.1c0.4,1,0.8,1.8,1.2,2.5c0.4,0.7,0.9,1.2,1.5,1.5
		c0.6,0.3,1.4,0.4,2.3,0.1c0.5-0.1,1-0.4,1.5-1c0.4-0.5,0.6-1.2,0.3-2.2c-0.2-0.8-0.6-1.4-1.3-1.8s-1.6-0.7-2.6-1.1
		c-0.8-0.3-1.5-0.5-2.1-0.8s-1.2-0.7-1.7-1.1c-0.5-0.4-0.8-1-1-1.8c-0.2-0.8-0.2-1.5,0.1-2.1c0.3-0.6,0.7-1.1,1.2-1.5
		C134.1,165.8,134.7,165.5,135.4,165.4z"/>
</g>
<g>
	<g>
		<path class="st0" d="M63.5,126c3.2,1,5.3,2.5,6.4,4.6c1.1,2.1,1.1,4.6,0.2,7.6c-0.6,1.9-1.5,3.5-2.7,4.8c-1.2,1.2-2.7,2-4.3,2.4
			c-1.7,0.4-3.6,0.2-5.6-0.4c-0.4-0.1-1-0.3-1.7-0.6c-0.8-0.3-1.4-0.5-2-0.7c-0.6-0.2-1.2-0.4-1.9-0.6c-0.6-0.2-1.1-0.3-1.5-0.4
			l0.2-0.5c0.6,0.2,1.1,0.2,1.4,0.2c0.3,0,0.6-0.2,0.8-0.4c0.2-0.3,0.4-0.8,0.6-1.4l4.1-13.3c0.2-0.7,0.3-1.2,0.3-1.5
			c0-0.3-0.2-0.6-0.4-0.8c-0.3-0.2-0.7-0.4-1.3-0.6l0.2-0.5c0.4,0.1,0.9,0.3,1.5,0.5c0.6,0.2,1.2,0.4,1.8,0.6
			c0.6,0.2,1.3,0.4,2.1,0.6C62.3,125.6,63,125.8,63.5,126z M62.6,126.2c-0.8-0.3-1.4-0.3-1.7,0s-0.7,0.8-0.9,1.7l-4.1,13.4
			c-0.3,0.9-0.3,1.6-0.2,2c0.2,0.4,0.7,0.7,1.5,1c1.9,0.6,3.6,0.7,4.8,0.3c1.3-0.4,2.4-1.2,3.2-2.4c0.8-1.2,1.6-2.8,2.2-4.8
			c0.9-3,1.1-5.4,0.4-7.2C67.1,128.4,65.4,127.1,62.6,126.2z"/>
		<path class="st0" d="M82.1,135.3c1.6,0.2,2.8,0.9,3.6,2s1,2.7,0.7,4.8l-9.8-1.4l0-0.5l7.1,1.1c0.2-0.9,0.2-1.7,0.1-2.5
			c-0.1-0.8-0.3-1.5-0.6-2c-0.3-0.5-0.8-0.8-1.4-0.9c-0.8-0.1-1.7,0.2-2.4,0.9c-0.8,0.8-1.4,2-1.8,3.9l0.1,0.1
			c-0.1,0.3-0.2,0.6-0.2,0.9s-0.1,0.7-0.2,1c-0.2,1.3-0.1,2.4,0.1,3.3c0.3,1,0.7,1.7,1.3,2.3c0.6,0.6,1.2,0.9,1.9,1
			c0.8,0.1,1.6,0,2.4-0.3c0.8-0.3,1.5-0.9,2.1-1.9l0.5,0.3c-0.3,0.6-0.7,1.1-1.3,1.6c-0.5,0.5-1.2,0.9-2,1.1
			c-0.8,0.3-1.6,0.3-2.5,0.2c-1.3-0.2-2.4-0.7-3.3-1.4s-1.5-1.7-1.8-2.9c-0.3-1.2-0.4-2.4-0.2-3.8c0.2-1.6,0.7-3,1.4-4.1
			c0.7-1.1,1.6-1.9,2.6-2.4C79.7,135.3,80.8,135.2,82.1,135.3z"/>
		<path class="st0" d="M96,136.6c0.7,0,1.4,0.2,1.9,0.4c0.5,0.3,0.9,0.5,1.1,0.7c0.6,0.5,1,0.2,1.1-1l0.6,0
			c-0.1,0.5-0.1,1.1-0.1,1.9c0,0.7-0.1,1.7-0.1,2.9l-0.6,0c-0.1-0.7-0.3-1.4-0.5-2c-0.3-0.7-0.6-1.2-1.1-1.6c-0.5-0.4-1.2-0.7-2-0.7
			c-0.7,0-1.2,0.1-1.7,0.5s-0.7,0.9-0.7,1.6c0,0.6,0.1,1,0.5,1.5c0.3,0.4,0.8,0.8,1.3,1.2c0.5,0.4,1.1,0.8,1.7,1.2
			c1,0.7,1.9,1.4,2.7,2.2s1.1,1.7,1,2.8c0,0.9-0.3,1.6-0.7,2.1c-0.5,0.6-1.1,1-1.8,1.3s-1.5,0.4-2.4,0.4c-0.4,0-0.8-0.1-1.2-0.1
			c-0.4-0.1-0.7-0.2-1-0.3c-0.2-0.1-0.4-0.2-0.6-0.4c-0.2-0.1-0.4-0.3-0.6-0.4c-0.2-0.2-0.4-0.2-0.5,0s-0.3,0.5-0.4,0.9l-0.6,0
			c0.1-0.6,0.1-1.3,0.1-2.2c0-0.9,0.1-2,0.1-3.4l0.6,0c0.1,1,0.3,2,0.5,2.8c0.2,0.8,0.6,1.4,1.1,1.9c0.5,0.5,1.2,0.7,2.2,0.7
			c0.6,0,1.1-0.2,1.7-0.5c0.6-0.4,0.9-1.1,0.9-2c0-0.8-0.3-1.5-0.8-2c-0.6-0.5-1.3-1.1-2.2-1.7c-0.7-0.4-1.3-0.9-1.9-1.3
			c-0.6-0.4-1-0.9-1.4-1.5c-0.3-0.6-0.5-1.2-0.5-2c0-0.8,0.2-1.5,0.6-2s0.9-0.9,1.6-1.1C94.6,136.6,95.3,136.5,96,136.6z"/>
		<path class="st0" d="M109.9,136.3l0.8,12.1c0.1,0.8,0.3,1.3,0.6,1.6s0.9,0.4,1.7,0.3l0,0.6c-0.3,0-0.8,0-1.4,0
			c-0.6,0-1.3,0-1.9,0.1c-0.6,0-1.3,0.1-1.9,0.2c-0.6,0.1-1.1,0.1-1.4,0.2l0-0.6c0.8-0.1,1.3-0.2,1.6-0.5c0.3-0.3,0.4-0.8,0.4-1.6
			l-0.6-8.7c-0.1-0.8-0.2-1.4-0.6-1.8c-0.3-0.4-0.9-0.5-1.7-0.5l0-0.6c0.6,0,1.2,0,1.7,0c0.5,0,1.1-0.1,1.5-0.2
			C109,136.6,109.5,136.5,109.9,136.3z M108,129.7c0.5,0,0.9,0.1,1.3,0.4c0.4,0.3,0.6,0.7,0.6,1.2s-0.1,0.9-0.4,1.3
			c-0.3,0.4-0.7,0.6-1.2,0.6c-0.5,0-0.9-0.1-1.3-0.4c-0.4-0.3-0.6-0.7-0.6-1.2c0-0.5,0.1-0.9,0.4-1.3
			C107.1,130,107.5,129.8,108,129.7z"/>
		<path class="st0" d="M121.8,143.7c-1.4,0.2-2.6,0.1-3.6-0.5c-1-0.5-1.7-1.6-2-3.1c-0.3-1.5,0-2.7,0.8-3.6c0.8-0.9,1.9-1.4,3.3-1.6
			c1.4-0.2,2.6-0.1,3.6,0.4c1,0.5,1.7,1.6,2,3.1c0.3,1.5,0,2.7-0.8,3.6C124.3,142.9,123.2,143.5,121.8,143.7z M123.6,154.8
			c-1,0.2-1.9,0.2-2.8,0.2c-0.9-0.1-1.6-0.2-2.2-0.6c-0.6-0.3-1-0.8-1.1-1.5c-0.1-0.6,0-1.2,0.5-1.8c0.4-0.5,1.1-1,1.9-1.4l0.2,0.4
			c-0.4,0.2-0.7,0.5-0.8,0.9s-0.2,0.9-0.1,1.4c0.1,0.8,0.6,1.4,1.5,1.7c0.9,0.3,1.9,0.4,3.2,0.1c0.8-0.1,1.6-0.4,2.4-0.7
			c0.8-0.3,1.3-0.8,1.8-1.4s0.6-1.3,0.4-2.1c-0.1-0.6-0.4-1.1-0.9-1.4s-1.4-0.4-2.7-0.1l-2,0.4c-0.6,0.1-1.2,0.2-1.7,0.2
			c-0.6,0-1.1-0.1-1.5-0.3c-0.4-0.2-0.7-0.7-0.8-1.3c-0.1-0.6,0-1.3,0.5-1.9s1.3-1.4,2.5-2.3l0.4,0.2c-0.6,0.4-1.1,0.9-1.5,1.3
			c-0.4,0.4-0.6,0.9-0.5,1.3c0.1,0.6,0.6,0.8,1.5,0.7l3.4-0.6c1.1-0.2,2.2-0.1,3.2,0.2c1,0.4,1.5,1.1,1.7,2.3c0.1,0.9,0,1.7-0.4,2.6
			s-1.1,1.6-2.2,2.3S125.2,154.5,123.6,154.8z M121.8,143.2c0.7-0.1,1.2-0.5,1.5-1.1c0.3-0.6,0.3-1.7,0.1-3.1
			c-0.3-1.5-0.6-2.4-1.1-2.9c-0.5-0.5-1.1-0.7-1.8-0.5c-0.7,0.1-1.2,0.5-1.5,1.1s-0.3,1.7-0.1,3.1c0.3,1.5,0.6,2.4,1.1,2.9
			C120.5,143.1,121.1,143.3,121.8,143.2z M124.7,136.6l-0.5-0.1c0.1-0.7,0.5-1.3,1-1.9c0.5-0.6,1.2-0.9,1.8-1.1
			c0.5-0.1,0.9,0,1.2,0.2c0.3,0.2,0.6,0.6,0.6,1.1c0.1,0.6,0,1-0.2,1.3c-0.3,0.3-0.6,0.5-0.9,0.5c-0.3,0-0.6,0-0.8-0.2
			c-0.3-0.2-0.5-0.4-0.6-0.9s-0.1-1,0.1-1.7l0.4,0c-0.7,0.4-1.2,0.8-1.5,1.2C125.1,135.5,124.9,136,124.7,136.6z"/>
		<path class="st0" d="M140.2,130c0.7-0.2,1.3-0.3,1.8-0.3c0.5,0,1,0.2,1.4,0.4c0.5,0.2,0.8,0.6,1.1,1.1c0.3,0.5,0.6,1.2,0.9,2.1
			l2.3,7.1c0.2,0.7,0.6,1.2,1,1.4s1,0.1,1.7-0.1l0.2,0.6c-0.3,0.1-0.8,0.2-1.4,0.4s-1.2,0.4-1.8,0.5c-0.6,0.2-1.2,0.4-1.7,0.6
			c-0.6,0.2-1,0.4-1.2,0.5l-0.2-0.6c0.6-0.2,1-0.5,1.2-0.8s0.2-0.9-0.1-1.6l-2.5-7.7c-0.2-0.6-0.4-1-0.6-1.5c-0.2-0.4-0.6-0.7-1-0.9
			c-0.4-0.2-0.9-0.2-1.6,0c-1.1,0.4-1.9,1.1-2.3,2.3s-0.4,2.4,0.1,3.8l1.9,5.9c0.2,0.7,0.5,1.2,0.9,1.4s0.8,0.2,1.5,0l0.2,0.6
			c-0.3,0.1-0.7,0.2-1.3,0.3c-0.6,0.2-1.1,0.3-1.7,0.5c-0.6,0.2-1.2,0.4-1.8,0.6c-0.6,0.2-1.1,0.4-1.4,0.5l-0.2-0.6
			c0.7-0.2,1.2-0.5,1.4-0.9c0.2-0.4,0.2-0.9,0-1.7l-2.7-8.3c-0.3-0.8-0.6-1.3-1-1.6c-0.4-0.3-1-0.3-1.8-0.1l-0.2-0.6
			c0.6-0.1,1.1-0.3,1.7-0.5c0.5-0.2,1-0.4,1.4-0.6c0.5-0.2,0.9-0.4,1.2-0.7l1,3.1c0.1-1.4,0.4-2.4,1.1-3.1
			C138.5,130.8,139.3,130.3,140.2,130z"/>
	</g>
</g>
</svg>
