<?xml version="1.0" encoding="utf-8"?>
<!-- Generator: Adobe Illustrator 25.4.1, SVG Export Plug-In . SVG Version: 6.00 Build 0)  -->
<svg version="1.1" id="Layer_1" xmlns="http://www.w3.org/2000/svg" xmlns:xlink="http://www.w3.org/1999/xlink" x="0px" y="0px"
	 viewBox="0 0 1327.6 350.7" style="enable-background:new 0 0 1327.6 350.7;" xml:space="preserve">
<style type="text/css">
	.st0{fill:#081E42;}
	.st1{opacity:0.5;fill:none;stroke:#FF66FF;stroke-width:0.9935;stroke-miterlimit:10;}
	.st2{opacity:0.5;fill:none;stroke:#FF66FF;stroke-width:1.0349;stroke-miterlimit:10;}
	.st3{fill:#FFFF33;}
	.st4{clip-path:url(#SVGID_00000061458126497389402600000014024257941700062896_);}
	.st5{fill:#FF66FF;}
	.st6{fill:#00FFFF;}
	.st7{opacity:0.5;fill:none;stroke:#FF66FF;stroke-miterlimit:10;}
	.st8{clip-path:url(#SVGID_00000183226326631455143460000003848819343443882916_);}
	.st9{clip-path:url(#SVGID_00000160888722226356577420000002641501988424837272_);}
	.st10{fill:none;stroke:#000000;stroke-linecap:round;stroke-linejoin:round;stroke-miterlimit:10;}
	.st11{fill:none;stroke:#FFFFFF;stroke-width:1.2011;stroke-miterlimit:10;}
	.st12{fill:none;stroke:#FFFFFF;stroke-miterlimit:10;}
	.st13{fill:none;stroke:#FFFFFF;stroke-width:0.9049;stroke-miterlimit:10;}
	.st14{fill:none;stroke:#FFFFFF;stroke-width:0.9049;stroke-miterlimit:10;stroke-dasharray:10.2867,10.2867;}
	.st15{fill:none;stroke:#FFFFFF;stroke-width:1.2011;stroke-miterlimit:10;stroke-dasharray:13.2536,13.2536;}
	.st16{fill:none;stroke:#FFFFFF;stroke-width:1.2011;stroke-miterlimit:10;stroke-dasharray:20.7415,20.7415;}
	.st17{fill:none;stroke:#FFFFFF;stroke-width:0.9049;stroke-miterlimit:10;stroke-dasharray:20.9498,20.9498;}
	.st18{fill:none;stroke:#FFFFFF;stroke-width:0.9947;stroke-miterlimit:10;}
	.st19{fill:#FFFFFF;}
	.st20{fill:none;stroke:#FFFFFF;stroke-width:0.6372;stroke-miterlimit:10;}
	.st21{fill:none;stroke:#FFFFFF;stroke-width:0.6075;stroke-miterlimit:10;}
	.st22{fill:none;stroke:#FFFFFF;stroke-width:0.5929;stroke-miterlimit:10;}
	.st23{fill:none;stroke:#FFFFFF;stroke-width:0.4556;stroke-miterlimit:10;}
	.st24{fill:none;stroke:#FFFFFF;stroke-width:0.4055;stroke-miterlimit:10;}
	.st25{fill:none;stroke:#FFFFFF;stroke-width:0.3866;stroke-miterlimit:10;}
	.st26{fill:none;stroke:#FFFFFF;stroke-width:0.3773;stroke-miterlimit:10;}
	.st27{fill:none;stroke:#FFFFFF;stroke-width:0.2899;stroke-miterlimit:10;}
	.st28{fill:none;stroke:#FFFFFF;stroke-linejoin:round;stroke-miterlimit:10;}
	.st29{fill:none;stroke:#FFFFFF;stroke-width:0.8745;stroke-linecap:round;stroke-miterlimit:10;}
	.st30{fill:none;stroke:#FFFFFF;stroke-width:1.4411;stroke-linejoin:round;stroke-miterlimit:10;}
	.st31{fill:none;stroke:#FFFFFF;stroke-width:1.2602;stroke-linecap:round;stroke-miterlimit:10;}
	.st32{fill:none;stroke:#FFFFFF;stroke-miterlimit:10;stroke-dasharray:3,3;}
	.st33{fill:none;stroke:#FFFFFF;stroke-width:0.9715;stroke-miterlimit:10;}
	.st34{fill:none;stroke:#FFFFFF;stroke-width:0.8603;stroke-miterlimit:10;}
	.st35{fill:none;stroke:#FFFFFF;stroke-width:0.9392;stroke-miterlimit:10;}
	.st36{fill:none;stroke:#FFFFFF;stroke-width:0.9392;stroke-miterlimit:10;stroke-dasharray:7,7;}
	.st37{opacity:0.5;}
</style>
<g class="st37">
	<g>
		<g>
			<circle class="st19" cx="255.6" cy="131.4" r="2.8"/>
		</g>
		<g>
			<g>
				
					<rect x="242.7" y="131.3" transform="matrix(0.9978 -6.580796e-02 6.580796e-02 0.9978 -8.0949 17.1161)" class="st19" width="26.1" height="0.4"/>
			</g>
			<g>
				<polygon class="st19" points="256.4,144.4 254.7,118.4 255.1,118.4 256.8,144.4 				"/>
			</g>
		</g>
		<g>
			<g>
				
					<rect x="255.6" y="119" transform="matrix(0.4929 -0.8701 0.8701 0.4929 15.3364 289.1813)" class="st19" width="0.3" height="24.8"/>
			</g>
			<g>
				
					<rect x="243.3" y="131.3" transform="matrix(0.4923 -0.8704 0.8704 0.4923 15.4439 289.3451)" class="st19" width="24.8" height="0.3"/>
			</g>
		</g>
		<g>
			<g>
				
					<rect x="255.6" y="119" transform="matrix(0.9638 -0.2667 0.2667 0.9638 -25.788 72.9659)" class="st19" width="0.3" height="24.8"/>
			</g>
			<g>
				
					<rect x="243.3" y="131.3" transform="matrix(0.9638 -0.2666 0.2666 0.9638 -25.7864 72.9578)" class="st19" width="24.8" height="0.3"/>
			</g>
		</g>
		<g>
			<g>
				
					<rect x="255.6" y="119.3" transform="matrix(0.1266 -0.992 0.992 0.1266 93.0098 368.5004)" class="st19" width="0.3" height="24.2"/>
			</g>
			<g>
				<polygon class="st19" points="254.4,143.5 254.1,143.4 257.1,119.4 257.5,119.4 				"/>
			</g>
		</g>
		<g>
			<g>
				
					<rect x="255.6" y="119.3" transform="matrix(0.7909 -0.6119 0.6119 0.7909 -26.9517 183.9863)" class="st19" width="0.3" height="24.2"/>
			</g>
			<g>
				
					<rect x="243.6" y="131.3" transform="matrix(0.7904 -0.6126 0.6126 0.7904 -26.9082 184.2195)" class="st19" width="24.2" height="0.3"/>
			</g>
		</g>
		<g>
			<g>
				
					<rect x="255.6" y="118.4" transform="matrix(0.6593 -0.7519 0.7519 0.6593 -11.6781 237.0963)" class="st19" width="0.4" height="26.1"/>
			</g>
			<g>
				
					<rect x="242.7" y="131.3" transform="matrix(0.6588 -0.7523 0.7523 0.6588 -11.6175 237.2494)" class="st19" width="26.1" height="0.4"/>
			</g>
		</g>
		<g>
			<g>
				<polygon class="st19" points="259.8,139.8 251.5,123.1 251.7,123 260,139.7 				"/>
			</g>
			<g>
				
					<rect x="246.4" y="131.3" transform="matrix(0.8961 -0.4438 0.4438 0.8961 -31.7628 127.1537)" class="st19" width="18.6" height="0.3"/>
			</g>
		</g>
		<g>
			<g>
				<polygon class="st19" points="252.9,140.3 252.7,140.2 258.6,122.6 258.9,122.6 				"/>
			</g>
			<g>
				
					<rect x="255.6" y="122.1" transform="matrix(0.3201 -0.9474 0.9474 0.3201 49.3757 331.6674)" class="st19" width="0.3" height="18.6"/>
			</g>
		</g>
	</g>
	<g>
		<circle class="st19" cx="279.4" cy="88" r="1.5"/>
	</g>
	<g>
		<circle class="st19" cx="289" cy="78.6" r="1.7"/>
	</g>
	<g>
		<path class="st19" d="M287,79.5c-0.1,0-0.2-0.1-0.2-0.2c0-0.1,0-0.3,0.2-0.3l4-1.2c0.1,0,0.3,0,0.3,0.2c0,0.1,0,0.3-0.2,0.3
			L287,79.5C287.1,79.5,287.1,79.5,287,79.5z"/>
	</g>
	<g>
		<path class="st19" d="M447,84C447,84,447,84,447,84c-0.2,0-0.3-0.2-0.3-0.3c0,0,0,0,0-0.1c0.2-0.7-0.3-1.4-1-1.6
			c-0.1,0-0.2-0.1-0.2-0.3c0,0,0,0,0-0.1c0-0.2,0.2-0.3,0.3-0.2c0.3,0.1,0.7,0,1-0.2c0.3-0.2,0.5-0.5,0.6-0.8c0-0.2,0.2-0.3,0.3-0.2
			c0.1,0,0.2,0.1,0.2,0.3c0,0,0,0,0,0.1c-0.2,0.7,0.3,1.4,1,1.6c0.1,0,0.2,0.1,0.2,0.3c0,0,0,0,0,0.1c0,0.2-0.2,0.3-0.3,0.2
			c-0.3-0.1-0.7,0-1,0.2c-0.3,0.2-0.5,0.5-0.6,0.8C447.3,83.9,447.1,84,447,84z M446.8,82c0.2,0.2,0.4,0.5,0.5,0.7
			c0.1-0.1,0.2-0.2,0.3-0.3c0.1-0.1,0.3-0.1,0.4-0.2c-0.2-0.2-0.4-0.5-0.5-0.7c-0.1,0.1-0.2,0.2-0.3,0.3
			C447,81.9,446.9,81.9,446.8,82z"/>
	</g>
	<g>
		<circle class="st19" cx="177.7" cy="46.2" r="1.5"/>
	</g>
	<g>
		<circle class="st19" cx="222.5" cy="77.2" r="2.1"/>
	</g>
	<g>
		<g>
			<circle class="st19" cx="144.8" cy="51.9" r="1.7"/>
		</g>
		<g>
			<path class="st19" d="M144.5,54.2C144.5,54.2,144.5,54.2,144.5,54.2c-0.2,0-0.3-0.2-0.2-0.3l0.6-4.1c0-0.1,0.2-0.2,0.3-0.2
				c0.1,0,0.2,0.1,0.2,0.3l-0.6,4.1C144.8,54.1,144.7,54.2,144.5,54.2z"/>
		</g>
	</g>
	<g>
		<g>
			<circle class="st19" cx="222.2" cy="225.9" r="3.2"/>
		</g>
	</g>
	<g>
		<path class="st19" d="M224.5,217.6c0,0-0.1,0-0.1,0c-0.1-0.1-0.1-0.1-0.1-0.2c0,0,0-0.1,0-0.1c0.2-0.3,0.2-0.7,0.1-1
			c-0.1-0.3-0.3-0.6-0.6-0.8c-0.1-0.1-0.1-0.1-0.1-0.2c0,0,0-0.1,0-0.1c0.1-0.1,0.3-0.2,0.4-0.1c0.6,0.4,1.4,0.2,1.8-0.5
			c0.1-0.1,0.3-0.2,0.4-0.1c0.1,0.1,0.1,0.1,0.1,0.2c0,0,0,0.1,0,0.1c-0.4,0.6-0.2,1.4,0.5,1.8c0.1,0.1,0.1,0.1,0.1,0.2
			c0,0,0,0.1,0,0.1c-0.1,0.1-0.3,0.2-0.4,0.1c-0.3-0.2-0.7-0.2-1-0.1c-0.3,0.1-0.6,0.3-0.8,0.6C224.7,217.6,224.6,217.6,224.5,217.6
			z M224.8,215.6c0.1,0.1,0.1,0.3,0.2,0.4c0,0.1,0.1,0.3,0.1,0.4c0.1-0.1,0.3-0.1,0.4-0.2c0.1,0,0.3-0.1,0.4-0.1
			c-0.1-0.3-0.2-0.5-0.2-0.8C225.4,215.6,225.1,215.6,224.8,215.6z"/>
	</g>
	<g>
		<circle class="st19" cx="188.6" cy="183.8" r="1.5"/>
	</g>
	<g>
		<circle class="st19" cx="181.9" cy="195.5" r="1.7"/>
	</g>
	<g>
		<circle class="st19" cx="193.6" cy="200" r="2.1"/>
	</g>
	<g>
		<path class="st19" d="M180.1,196.9c-0.1,0-0.2,0-0.2-0.1c-0.1-0.1,0-0.3,0.1-0.3l3.5-2.2c0.1-0.1,0.3,0,0.3,0.1
			c0.1,0.1,0,0.3-0.1,0.3l-3.5,2.2C180.2,196.9,180.1,196.9,180.1,196.9z"/>
	</g>
	<g>
		<g>
			<circle class="st19" cx="365.2" cy="33.1" r="3.2"/>
		</g>
	</g>
	<g>
		<path class="st19" d="M315.5,35.1c0,0-0.1,0-0.1,0c-0.1,0-0.2-0.2-0.2-0.3c0,0,0-0.1,0-0.1c0.1-0.3,0.1-0.7,0-1
			c-0.1-0.3-0.4-0.6-0.7-0.7c-0.1,0-0.2-0.2-0.2-0.3c0,0,0-0.1,0-0.1c0.1-0.1,0.2-0.2,0.4-0.1c0.7,0.3,1.5,0,1.7-0.7
			c0.1-0.1,0.2-0.2,0.4-0.1c0.1,0,0.2,0.2,0.2,0.3c0,0,0,0.1,0,0.1c-0.1,0.3-0.1,0.7,0,1c0.1,0.3,0.4,0.6,0.7,0.7
			c0.1,0,0.2,0.2,0.2,0.3c0,0,0,0.1,0,0.1c-0.1,0.1-0.2,0.2-0.4,0.1c-0.7-0.3-1.5,0-1.7,0.7C315.7,35.1,315.6,35.1,315.5,35.1z
			 M315.6,33.1c0.1,0.1,0.2,0.2,0.2,0.4s0.1,0.3,0.1,0.4c0.2-0.2,0.5-0.3,0.8-0.3c-0.1-0.1-0.2-0.2-0.2-0.4
			c-0.1-0.1-0.1-0.3-0.1-0.4C316.2,33,315.9,33.1,315.6,33.1z"/>
	</g>
	<g>
		<circle class="st19" cx="351" cy="69" r="1.5"/>
	</g>
	<g>
		<circle class="st19" cx="366.3" cy="78.6" r="2.1"/>
	</g>
	<g>
		<g>
			<circle class="st19" cx="343.1" cy="80.7" r="1.7"/>
		</g>
		<g>
			<path class="st19" d="M343,83C343,83,343,83,343,83c-0.2,0-0.3-0.1-0.2-0.3l0.2-4.2c0-0.1,0.1-0.2,0.3-0.2c0.1,0,0.2,0.1,0.2,0.3
				l-0.2,4.2C343.3,82.9,343.1,83,343,83z"/>
		</g>
	</g>
	<g>
		<g>
			<circle class="st19" cx="257.7" cy="196.9" r="4.6"/>
		</g>
	</g>
	<g>
		<path class="st19" d="M325.7,153.5c-0.1,0-0.1,0-0.2-0.1c-0.1-0.1-0.2-0.2-0.2-0.4c0-0.1,0-0.1,0.1-0.2c0.3-0.4,0.3-1,0.2-1.5
			c-0.1-0.5-0.5-0.9-0.9-1.2c-0.1-0.1-0.2-0.2-0.2-0.4c0-0.1,0-0.1,0.1-0.2c0.1-0.2,0.4-0.3,0.6-0.2c0.9,0.5,2.1,0.2,2.6-0.7
			c0.1-0.2,0.4-0.3,0.6-0.2c0.1,0.1,0.2,0.2,0.2,0.4c0,0.1,0,0.1-0.1,0.2c-0.5,0.9-0.2,2.1,0.7,2.6c0.1,0.1,0.2,0.2,0.2,0.4
			c0,0.1,0,0.1-0.1,0.2c-0.1,0.2-0.4,0.3-0.6,0.2c-0.4-0.3-1-0.3-1.5-0.2c-0.5,0.1-0.9,0.5-1.2,0.9
			C326,153.4,325.9,153.5,325.7,153.5z M326.1,150.6c0.1,0.2,0.2,0.4,0.2,0.6c0.1,0.2,0.1,0.4,0.1,0.6c0.2-0.1,0.4-0.2,0.6-0.2
			c0.2-0.1,0.4-0.1,0.6-0.1c-0.2-0.4-0.3-0.8-0.3-1.2C326.9,150.5,326.5,150.6,326.1,150.6z"/>
	</g>
	<g>
		<circle class="st19" cx="354.8" cy="192" r="2.1"/>
	</g>
	<g>
		<circle class="st19" cx="321.6" cy="163.3" r="3"/>
	</g>
	<g>
		<g>
			<circle class="st19" cx="347.7" cy="116.2" r="2.5"/>
		</g>
		<g>
			<path class="st19" d="M349.3,119.1c-0.1,0-0.2-0.1-0.3-0.2l-3.3-5.1c-0.1-0.2-0.1-0.4,0.1-0.5c0.2-0.1,0.4-0.1,0.5,0.1l3.3,5.1
				c0.1,0.2,0.1,0.4-0.1,0.5C349.5,119,349.4,119.1,349.3,119.1z"/>
		</g>
	</g>
	<g>
		<g>
			<circle class="st19" cx="411.8" cy="158.6" r="3.2"/>
		</g>
	</g>
	<g>
		<path class="st19" d="M457.7,174.4c-0.1,0-0.1,0-0.2-0.1c-0.1-0.1-0.1-0.1-0.1-0.2c0-0.1,0-0.1,0.1-0.2c0.2-0.3,0.3-0.6,0.3-1
			c0-0.4-0.2-0.7-0.5-0.9c-0.1-0.1-0.1-0.1-0.1-0.2c0-0.1,0-0.1,0.1-0.2c0.1-0.1,0.3-0.1,0.4,0c0.3,0.2,0.6,0.3,1,0.3
			c0.4,0,0.7-0.2,0.9-0.5c0.1-0.1,0.3-0.1,0.4,0c0.1,0.1,0.1,0.1,0.1,0.2c0,0.1,0,0.1-0.1,0.2c-0.2,0.3-0.3,0.6-0.3,1
			s0.2,0.7,0.5,0.9c0.1,0.1,0.1,0.1,0.1,0.2c0,0.1,0,0.1-0.1,0.2c-0.1,0.1-0.3,0.1-0.4,0c-0.3-0.2-0.6-0.3-1-0.3
			c-0.4,0-0.7,0.2-0.9,0.5C457.8,174.3,457.7,174.4,457.7,174.4z M458.2,172.5c0.1,0.3,0.1,0.6,0.1,0.9c0.3-0.1,0.6-0.1,0.9-0.1
			c-0.1-0.3-0.1-0.6-0.1-0.9C458.8,172.5,458.5,172.5,458.2,172.5z"/>
	</g>
	<g>
		<circle class="st19" cx="435.9" cy="128.5" r="1.5"/>
	</g>
	<g>
		<circle class="st19" cx="424.1" cy="114.9" r="2.1"/>
	</g>
	<g>
		<g>
			<circle class="st19" cx="446.9" cy="119.7" r="1.7"/>
		</g>
		<g>
			<path class="st19" d="M446.2,121.9C446.2,121.9,446.2,121.9,446.2,121.9c-0.2-0.1-0.3-0.2-0.2-0.3l1.4-3.9c0-0.1,0.2-0.2,0.3-0.1
				c0.1,0,0.2,0.2,0.1,0.3l-1.4,3.9C446.4,121.9,446.3,121.9,446.2,121.9z"/>
		</g>
	</g>
	<g>
		<g>
			<circle class="st19" cx="533.6" cy="317.2" r="2.8"/>
		</g>
		<g>
			<g>
				
					<rect x="520.6" y="316.9" transform="matrix(7.974523e-02 -0.9968 0.9968 7.974523e-02 175.008 823.7009)" class="st19" width="26.1" height="0.4"/>
			</g>
			<g>
				
					<rect x="533.4" y="304" transform="matrix(7.981062e-02 -0.9968 0.9968 7.981062e-02 174.9747 823.6774)" class="st19" width="0.4" height="26.1"/>
			</g>
		</g>
		<g>
			<g>
				
					<rect x="521.2" y="316.9" transform="matrix(0.6141 -0.7893 0.7893 0.6141 -44.3008 543.5377)" class="st19" width="24.8" height="0.3"/>
			</g>
			<g>
				
					<rect x="533.4" y="304.6" transform="matrix(0.6138 -0.7894 0.7894 0.6138 -44.2372 543.7)" class="st19" width="0.3" height="24.8"/>
			</g>
		</g>
		<g>
			<g>
				
					<rect x="521.2" y="316.9" transform="matrix(0.9923 -0.1236 0.1236 0.9923 -35.1076 68.4091)" class="st19" width="24.8" height="0.3"/>
			</g>
			<g>
				<polygon class="st19" points="535,329.4 531.9,304.8 532.2,304.7 535.3,329.4 				"/>
			</g>
		</g>
		<g>
			<g>
				
					<rect x="521.5" y="316.9" transform="matrix(0.2699 -0.9629 0.9629 0.2699 84.2794 745.2888)" class="st19" width="24.2" height="0.3"/>
			</g>
			<g>
				
					<rect x="533.4" y="304.9" transform="matrix(0.269 -0.9631 0.9631 0.269 84.6934 745.7228)" class="st19" width="0.3" height="24.2"/>
			</g>
		</g>
		<g>
			<g>
				
					<rect x="521.5" y="316.9" transform="matrix(0.8709 -0.4915 0.4915 0.8709 -86.9364 303.2235)" class="st19" width="24.2" height="0.3"/>
			</g>
			<g>
				
					<rect x="533.4" y="304.9" transform="matrix(0.8713 -0.4908 0.4908 0.8713 -86.9253 302.729)" class="st19" width="0.3" height="24.2"/>
			</g>
		</g>
		<g>
			<g>
				
					<rect x="520.6" y="316.9" transform="matrix(0.7609 -0.6489 0.6489 0.7609 -78.1431 422.0793)" class="st19" width="26.1" height="0.4"/>
			</g>
			<g>
				
					<rect x="533.4" y="304" transform="matrix(0.7613 -0.6484 0.6484 0.7613 -78.2087 421.6963)" class="st19" width="0.4" height="26.1"/>
			</g>
		</g>
		<g>
			<g>
				
					<rect x="524.3" y="316.9" transform="matrix(0.9512 -0.3085 0.3085 0.9512 -71.7882 180.0894)" class="st19" width="18.6" height="0.3"/>
			</g>
			<g>
				
					<rect x="533.5" y="307.8" transform="matrix(0.9511 -0.309 0.309 0.9511 -71.8569 180.3936)" class="st19" width="0.3" height="18.6"/>
			</g>
		</g>
		<g>
			<g>
				
					<rect x="533.5" y="307.8" transform="matrix(0.454 -0.891 0.891 0.454 8.8387 648.5573)" class="st19" width="0.3" height="18.6"/>
			</g>
			<g>
				
					<rect x="524.3" y="316.9" transform="matrix(0.4541 -0.891 0.891 0.4541 8.8286 648.5413)" class="st19" width="18.6" height="0.3"/>
			</g>
		</g>
	</g>
	<g>
		<g>
			<circle class="st19" cx="119.7" cy="214.1" r="1.8"/>
		</g>
		<g>
			<g>
				<polygon class="st19" points="119.2,222.2 119,222.2 120.3,205.7 120.5,205.7 				"/>
			</g>
			<g>
				
					<rect x="119.6" y="205.7" transform="matrix(7.981595e-02 -0.9968 0.9968 7.981595e-02 -103.0817 316.2315)" class="st19" width="0.2" height="16.6"/>
			</g>
		</g>
		<g>
			<g>
				<polygon class="st19" points="115,220.3 114.8,220.1 124.5,207.6 124.7,207.8 				"/>
			</g>
			<g>
				
					<rect x="119.6" y="206" transform="matrix(0.6138 -0.7894 0.7894 0.6138 -122.6589 177.1519)" class="st19" width="0.2" height="15.8"/>
			</g>
		</g>
		<g>
			<g>
				
					<rect x="111.8" y="213.8" transform="matrix(0.9923 -0.124 0.124 0.9923 -25.6124 16.5042)" class="st19" width="15.8" height="0.2"/>
			</g>
			<g>
				<polygon class="st19" points="120.6,221.8 118.7,206.1 118.9,206.1 120.8,221.8 				"/>
			</g>
		</g>
		<g>
			<g>
				
					<rect x="112" y="213.8" transform="matrix(0.2692 -0.9631 0.9631 0.2692 -118.5461 271.6635)" class="st19" width="15.4" height="0.2"/>
			</g>
			<g>
				
					<rect x="119.6" y="206.2" transform="matrix(0.269 -0.9631 0.9631 0.269 -118.5303 271.7287)" class="st19" width="0.2" height="15.4"/>
			</g>
		</g>
		<g>
			<g>
				<polygon class="st19" points="113.1,217.8 113,217.6 126.4,210.1 126.5,210.3 				"/>
			</g>
			<g>
				
					<rect x="119.6" y="206.2" transform="matrix(0.8713 -0.4908 0.4908 0.8713 -89.596 86.317)" class="st19" width="0.2" height="15.4"/>
			</g>
		</g>
		<g>
			<g>
				
					<rect x="111.4" y="213.8" transform="matrix(0.7615 -0.6482 0.6482 0.7615 -110.1204 128.6518)" class="st19" width="16.6" height="0.2"/>
			</g>
			<g>
				<polygon class="st19" points="125,220.3 114.3,207.7 114.5,207.6 125.2,220.2 				"/>
			</g>
		</g>
		<g>
			<g>
				<polygon class="st19" points="114.1,215.9 114.1,215.7 125.4,212 125.4,212.2 				"/>
			</g>
			<g>
				<polygon class="st19" points="121.5,219.6 117.8,208.3 118,208.3 121.7,219.6 				"/>
			</g>
		</g>
		<g>
			<g>
				<polygon class="st19" points="125,216.7 114.4,211.3 114.5,211.2 125.1,216.6 				"/>
			</g>
			<g>
				<polygon class="st19" points="117.1,219.3 117,219.2 122.4,208.6 122.5,208.7 				"/>
			</g>
		</g>
	</g>
	<g>
		<g>
			<circle class="st19" cx="200.2" cy="270.7" r="3.2"/>
		</g>
	</g>
	<g>
		<path class="st19" d="M196.1,281.1c0,0-0.1,0-0.1,0c-0.1,0-0.2-0.2-0.2-0.3c0,0,0-0.1,0-0.1c0.1-0.3,0.2-0.7,0-1
			c-0.1-0.3-0.4-0.6-0.7-0.7c-0.1,0-0.2-0.2-0.2-0.3c0,0,0-0.1,0-0.1c0.1-0.1,0.2-0.2,0.4-0.1c0.7,0.3,1.5,0,1.8-0.7
			c0.1-0.1,0.2-0.2,0.4-0.1c0.1,0,0.2,0.2,0.2,0.3c0,0,0,0.1,0,0.1c-0.3,0.7,0,1.5,0.7,1.8c0.1,0,0.2,0.2,0.2,0.3c0,0,0,0.1,0,0.1
			c-0.1,0.1-0.2,0.2-0.4,0.1c-0.3-0.1-0.7-0.2-1,0c-0.3,0.1-0.6,0.4-0.7,0.7C196.3,281.1,196.2,281.1,196.1,281.1z M196.2,279.1
			c0.1,0.1,0.1,0.2,0.2,0.4c0.1,0.1,0.1,0.3,0.1,0.4c0.2-0.2,0.5-0.3,0.8-0.3c-0.2-0.2-0.3-0.5-0.3-0.8
			C196.7,279,196.5,279.1,196.2,279.1z"/>
	</g>
	<g>
		<circle class="st19" cx="237.5" cy="307.7" r="1.5"/>
	</g>
	<g>
		<circle class="st19" cx="242.9" cy="295.3" r="1.7"/>
	</g>
	<g>
		<circle class="st19" cx="230.7" cy="292.2" r="2.1"/>
	</g>
	<g>
		<path class="st19" d="M241.2,296.9c-0.1,0-0.1,0-0.2-0.1c-0.1-0.1-0.1-0.3,0-0.4l3.3-2.6c0.1-0.1,0.3-0.1,0.4,0
			c0.1,0.1,0.1,0.3,0,0.4l-3.3,2.6C241.3,296.9,241.3,296.9,241.2,296.9z"/>
	</g>
	<g>
		<g>
			<circle class="st19" cx="402.8" cy="231" r="3.2"/>
		</g>
	</g>
	<g>
		<path class="st19" d="M389.2,255.8c-0.1,0-0.3-0.1-0.3-0.2c-0.1-0.7-0.8-1.2-1.5-1.1c-0.2,0-0.3-0.1-0.3-0.2c0,0,0,0,0-0.1
			c0-0.1,0.1-0.3,0.2-0.3c0.7-0.1,1.2-0.8,1.1-1.5c0,0,0,0,0-0.1c0-0.1,0.1-0.3,0.2-0.3c0.2,0,0.3,0.1,0.3,0.2
			c0.1,0.3,0.3,0.7,0.6,0.9c0.3,0.2,0.6,0.3,1,0.2c0.2,0,0.3,0.1,0.3,0.2c0,0,0,0,0,0.1c0,0.1-0.1,0.3-0.2,0.3
			c-0.3,0.1-0.7,0.3-0.9,0.6c-0.2,0.3-0.3,0.6-0.2,1c0,0,0,0,0,0.1C389.5,255.6,389.4,255.7,389.2,255.8
			C389.3,255.8,389.2,255.8,389.2,255.8z M388.3,254c0.3,0.1,0.5,0.3,0.7,0.5c0.1-0.1,0.1-0.3,0.2-0.4c0.1-0.1,0.2-0.2,0.3-0.3
			c-0.1-0.1-0.3-0.1-0.4-0.2c-0.1-0.1-0.2-0.2-0.3-0.3C388.7,253.5,388.5,253.8,388.3,254z"/>
	</g>
	<g>
		<circle class="st19" cx="414.6" cy="284.6" r="1.5"/>
	</g>
	<g>
		<circle class="st19" cx="451.8" cy="244.9" r="2.1"/>
	</g>
	<g>
		<g>
			<circle class="st19" cx="415.5" cy="318" r="1.7"/>
		</g>
		<g>
			<path class="st19" d="M417.5,318.9C417.4,318.9,417.4,318.9,417.5,318.9l-4.1-1.2c-0.1,0-0.2-0.2-0.2-0.3c0-0.1,0.2-0.2,0.3-0.2
				l4,1.2c0.1,0,0.2,0.2,0.2,0.3C417.7,318.8,417.6,318.9,417.5,318.9z"/>
		</g>
	</g>
	<g>
		<g>
			<circle class="st19" cx="49.9" cy="216.3" r="3.2"/>
		</g>
	</g>
	<g>
		<path class="st19" d="M43.9,225.7c-0.1,0-0.1,0-0.2-0.1c-0.1-0.1-0.1-0.1-0.1-0.2c0-0.1,0-0.1,0.1-0.2c0.2-0.3,0.3-0.6,0.2-1
			c-0.1-0.3-0.3-0.7-0.5-0.9c-0.1-0.1-0.1-0.1-0.1-0.2c0-0.1,0-0.1,0.1-0.2c0.1-0.1,0.3-0.2,0.4-0.1c0.6,0.4,1.4,0.3,1.8-0.3
			c0.1-0.1,0.3-0.2,0.4-0.1c0.1,0.1,0.1,0.1,0.1,0.2c0,0.1,0,0.1-0.1,0.2c-0.4,0.6-0.3,1.4,0.3,1.8c0.1,0.1,0.1,0.1,0.1,0.2
			c0,0.1,0,0.1-0.1,0.2c-0.1,0.1-0.3,0.2-0.4,0.1c-0.3-0.2-0.6-0.3-1-0.2c-0.3,0.1-0.7,0.3-0.9,0.5C44.1,225.7,44,225.7,43.9,225.7z
			 M44.3,223.8c0.1,0.1,0.1,0.3,0.1,0.4c0,0.1,0,0.3,0,0.4c0.1-0.1,0.3-0.1,0.4-0.1c0.1,0,0.3,0,0.4,0c-0.1-0.3-0.2-0.6-0.2-0.9
			C44.9,223.7,44.6,223.8,44.3,223.8z"/>
	</g>
	<g>
		<circle class="st19" cx="79.5" cy="259.7" r="1.5"/>
	</g>
	<g>
		<circle class="st19" cx="87.1" cy="248.6" r="1.7"/>
	</g>
	<g>
		<path class="st19" d="M85.2,249.8c-0.1,0-0.2,0-0.2-0.1c-0.1-0.1,0-0.3,0.1-0.3l3.7-2c0.1-0.1,0.3,0,0.3,0.1
			c0.1,0.1,0,0.3-0.1,0.3l-3.7,2C85.3,249.8,85.3,249.8,85.2,249.8z"/>
	</g>
	<g>
		<g>
			<circle class="st19" cx="295.6" cy="223.9" r="3.2"/>
		</g>
	</g>
	<g>
		<path class="st19" d="M250.4,245C250.4,245,250.4,245,250.4,245c-0.2,0-0.3-0.1-0.3-0.3c0,0,0,0,0,0c0-0.7-0.6-1.3-1.3-1.3
			c-0.2,0-0.3-0.1-0.3-0.3c0,0,0,0,0,0c0-0.2,0.1-0.3,0.3-0.3c0.4,0,0.7-0.1,0.9-0.4c0.3-0.2,0.4-0.6,0.4-0.9c0-0.2,0.1-0.3,0.3-0.3
			c0,0,0,0,0,0c0.2,0,0.3,0.1,0.3,0.3c0,0,0,0,0,0c0,0.7,0.6,1.3,1.3,1.3c0.2,0,0.3,0.1,0.3,0.3c0,0,0,0,0,0c0,0.2-0.1,0.3-0.3,0.3
			c-0.3,0-0.7,0.1-0.9,0.4c-0.3,0.2-0.4,0.6-0.4,0.9C250.7,244.9,250.5,245,250.4,245z M249.8,243.1c0.2,0.2,0.5,0.4,0.6,0.6
			c0.1-0.1,0.2-0.2,0.3-0.3c0.1-0.1,0.2-0.2,0.3-0.3c-0.2-0.2-0.5-0.4-0.6-0.6c-0.1,0.1-0.2,0.2-0.3,0.3
			C250,242.9,249.9,243,249.8,243.1z"/>
	</g>
	<g>
		<circle class="st19" cx="641.4" cy="330.6" r="1.5"/>
	</g>
	<g>
		<circle class="st19" cx="646.8" cy="318.3" r="1.7"/>
	</g>
	<g>
		<circle class="st19" cx="634.6" cy="315.1" r="2.1"/>
	</g>
	<g>
		<path class="st19" d="M654.3,267.9C654.3,267.9,654.3,267.9,654.3,267.9c-0.2,0-0.3-0.1-0.3-0.3c0,0,0,0,0,0
			c0-0.7-0.6-1.3-1.3-1.3c-0.2,0-0.3-0.1-0.3-0.3c0,0,0,0,0,0c0-0.2,0.1-0.3,0.3-0.3c0,0,0,0,0,0c0.7,0,1.3-0.6,1.3-1.3
			c0-0.2,0.1-0.3,0.3-0.3c0.2,0,0.3,0.1,0.3,0.3c0,0,0,0,0,0c0,0.7,0.6,1.3,1.3,1.3c0.2,0,0.3,0.1,0.3,0.3c0,0,0,0,0,0
			c0,0.2-0.1,0.3-0.3,0.3c0,0,0,0,0,0c-0.7,0-1.3,0.6-1.3,1.3C654.6,267.8,654.5,267.9,654.3,267.9z M653.7,266
			c0.1,0.1,0.2,0.2,0.3,0.3c0.1,0.1,0.2,0.2,0.3,0.3c0.1-0.1,0.2-0.2,0.3-0.3c0.1-0.1,0.2-0.2,0.3-0.3c-0.2-0.2-0.5-0.4-0.6-0.6
			c-0.1,0.1-0.2,0.2-0.3,0.3C653.9,265.9,653.8,266,653.7,266z"/>
	</g>
	<g>
		<circle class="st19" cx="296.3" cy="262.5" r="1.5"/>
	</g>
	<g>
		<circle class="st19" cx="314.1" cy="265.4" r="2.1"/>
	</g>
	<g>
		<g>
			<circle class="st19" cx="293.5" cy="276.3" r="1.7"/>
		</g>
		<g>
			<path class="st19" d="M294.2,278.5c-0.1,0-0.2-0.1-0.2-0.2l-1.4-3.9c0-0.1,0-0.3,0.2-0.3c0.1,0,0.3,0,0.3,0.1l1.4,3.9
				C294.5,278.3,294.5,278.5,294.2,278.5C294.3,278.5,294.3,278.5,294.2,278.5z"/>
		</g>
	</g>
	<g>
		<path class="st19" d="M620.4,61.3c-0.1,0-0.2-0.1-0.3-0.2c-0.2-0.7-1-1.1-1.7-0.9c-0.2,0-0.3,0-0.4-0.2c0,0,0-0.1,0-0.1
			c0-0.1,0.1-0.2,0.2-0.3c0.3-0.1,0.6-0.3,0.8-0.7c0.2-0.3,0.2-0.7,0.1-1c0,0,0-0.1,0-0.1c0-0.1,0.1-0.2,0.2-0.3
			c0.2,0,0.3,0,0.4,0.2c0.2,0.7,1,1.1,1.7,0.9c0.2,0,0.3,0,0.4,0.2c0,0,0,0.1,0,0.1c0,0.1-0.1,0.2-0.2,0.3c-0.3,0.1-0.6,0.3-0.8,0.7
			c-0.2,0.3-0.2,0.7-0.1,1c0,0,0,0.1,0,0.1C620.6,61.1,620.6,61.2,620.4,61.3C620.4,61.3,620.4,61.3,620.4,61.3z M619.3,59.6
			c0.3,0.1,0.5,0.2,0.8,0.4c0-0.1,0.1-0.3,0.2-0.4c0.1-0.1,0.1-0.3,0.2-0.4c-0.3-0.1-0.5-0.2-0.8-0.4c0,0.1-0.1,0.3-0.2,0.4
			C619.5,59.4,619.4,59.5,619.3,59.6z"/>
	</g>
	<g>
		<g>
			<circle class="st19" cx="576.3" cy="288.9" r="4.6"/>
		</g>
	</g>
	<g>
		<path class="st19" d="M561.9,251.8c-0.1,0-0.2,0-0.3-0.1c-0.1-0.1-0.2-0.2-0.2-0.3c0-0.1,0-0.2,0.1-0.3c0.3-0.4,0.5-0.9,0.4-1.4
			s-0.3-1-0.7-1.3c-0.1-0.1-0.2-0.2-0.2-0.3c0-0.1,0-0.2,0.1-0.3c0.1-0.2,0.4-0.2,0.6-0.1c0.8,0.6,2,0.5,2.7-0.3
			c0.1-0.2,0.4-0.2,0.6-0.1c0.1,0.1,0.2,0.2,0.2,0.3c0,0.1,0,0.2-0.1,0.3c-0.3,0.4-0.5,0.9-0.4,1.4c0.1,0.5,0.3,1,0.7,1.3
			c0.1,0.1,0.2,0.2,0.2,0.3c0,0.1,0,0.2-0.1,0.3c-0.1,0.2-0.4,0.2-0.6,0.1c-0.8-0.6-2-0.5-2.7,0.3
			C562.2,251.8,562.1,251.8,561.9,251.8z M562.7,249c0.1,0.2,0.1,0.4,0.1,0.6c0,0.2,0,0.4,0,0.6c0.4-0.1,0.8-0.2,1.2-0.2
			c-0.1-0.2-0.1-0.4-0.1-0.6c0-0.2,0-0.4,0-0.6C563.5,249,563.1,249.1,562.7,249z"/>
	</g>
	<g>
		<circle class="st19" cx="607.9" cy="227.8" r="2.1"/>
	</g>
	<g>
		<circle class="st19" cx="574.7" cy="256.6" r="3"/>
	</g>
	<g>
		<g>
			<circle class="st19" cx="556.4" cy="228.4" r="2.5"/>
		</g>
		<g>
			<path class="st19" d="M553.7,230c-0.1,0-0.3-0.1-0.3-0.2c-0.1-0.2,0-0.4,0.2-0.5l5.5-2.5c0.2-0.1,0.4,0,0.5,0.2
				c0.1,0.2,0,0.4-0.2,0.5l-5.5,2.5C553.8,230,553.7,230,553.7,230z"/>
		</g>
	</g>
	<g>
		<g>
			<circle class="st19" cx="583.1" cy="166.7" r="3.2"/>
		</g>
	</g>
	<g>
		<path class="st19" d="M605.1,123.8c-0.1,0-0.2,0-0.2-0.1c-0.5-0.6-1.3-0.6-1.9-0.1c-0.1,0.1-0.3,0.1-0.4,0c0-0.1-0.1-0.1-0.1-0.2
			c0-0.1,0-0.2,0.1-0.2c0.6-0.5,0.6-1.3,0.1-1.9c0-0.1-0.1-0.1-0.1-0.2c0-0.1,0-0.2,0.1-0.2c0.1-0.1,0.3-0.1,0.4,0
			c0.2,0.3,0.6,0.4,0.9,0.5c0.4,0,0.7-0.1,1-0.3c0.1-0.1,0.3-0.1,0.4,0c0,0.1,0.1,0.1,0.1,0.2c0,0.1,0,0.2-0.1,0.2
			c-0.6,0.5-0.6,1.3-0.1,1.9c0,0.1,0.1,0.1,0.1,0.2c0,0.1,0,0.2-0.1,0.2C605.2,123.7,605.1,123.8,605.1,123.8z M603.9,122.6
			c0.2,0,0.4,0,0.6,0.1c0-0.1,0-0.3,0-0.4c0-0.1,0-0.3,0.1-0.4c-0.1,0-0.3,0-0.4,0c-0.1,0-0.3,0-0.4-0.1c0,0.3,0,0.6-0.1,0.9
			C603.7,122.7,603.8,122.6,603.9,122.6z"/>
	</g>
	<g>
		<circle class="st19" cx="568.2" cy="121.3" r="1.5"/>
	</g>
	<g>
		<circle class="st19" cx="541.6" cy="148.1" r="2.1"/>
	</g>
	<g>
		<g>
			<circle class="st19" cx="561.1" cy="109.1" r="1.7"/>
		</g>
		<g>
			<path class="st19" d="M563,110.4c0,0-0.1,0-0.1,0l-3.7-2c-0.1-0.1-0.2-0.2-0.1-0.3c0.1-0.1,0.2-0.2,0.3-0.1l3.7,2
				c0.1,0.1,0.2,0.2,0.1,0.3C563.1,110.3,563.1,110.4,563,110.4z"/>
		</g>
	</g>
	<g>
		<g>
			<circle class="st19" cx="99.1" cy="24.8" r="2.8"/>
		</g>
		<g>
			<g>
				<polygon class="st19" points="108,34.5 90.1,15.6 90.3,15.4 108.3,34.3 				"/>
			</g>
			<g>
				
					<rect x="86.2" y="24.8" transform="matrix(0.726 -0.6877 0.6877 0.726 10.0255 75.0406)" class="st19" width="26.1" height="0.4"/>
			</g>
		</g>
		<g>
			<g>
				
					<rect x="99" y="12.5" transform="matrix(0.9842 -0.1768 0.1768 0.9842 -2.8471 17.9324)" class="st19" width="0.3" height="24.8"/>
			</g>
			<g>
				
					<rect x="86.8" y="24.8" transform="matrix(0.9842 -0.1769 0.1769 0.9842 -2.8476 17.9388)" class="st19" width="24.8" height="0.3"/>
			</g>
		</g>
		<g>
			<g>
				
					<rect x="86.8" y="24.8" transform="matrix(0.5716 -0.8205 0.8205 0.5716 22.023 92.0626)" class="st19" width="24.8" height="0.3"/>
			</g>
			<g>
				<rect x="99" y="12.5" transform="matrix(0.5709 -0.821 0.821 0.5709 22.0817 92.13)" class="st19" width="0.3" height="24.8"/>
			</g>
		</g>
		<g>
			<g>
				
					<rect x="99" y="12.8" transform="matrix(0.8439 -0.5365 0.5365 0.8439 2.1026 57.1054)" class="st19" width="0.3" height="24.2"/>
			</g>
			<g>
				
					<rect x="87.1" y="24.8" transform="matrix(0.8435 -0.5371 0.5371 0.8435 2.1245 57.1714)" class="st19" width="24.2" height="0.3"/>
			</g>
		</g>
		<g>
			<g>
				
					<rect x="87.1" y="24.8" transform="matrix(0.2173 -0.9761 0.9761 0.2173 53.2875 116.332)" class="st19" width="24.2" height="0.3"/>
			</g>
			<g>
				
					<rect x="99" y="12.8" transform="matrix(0.2174 -0.9761 0.9761 0.2174 53.2801 116.3286)" class="st19" width="0.3" height="24.2"/>
			</g>
		</g>
		<g>
			<g>
				
					<rect x="86.2" y="24.8" transform="matrix(2.759685e-02 -0.9996 0.9996 2.759685e-02 71.5138 123.3945)" class="st19" width="26.1" height="0.4"/>
			</g>
			<g>
				
					<rect x="99" y="11.9" transform="matrix(2.662502e-02 -0.9996 0.9996 2.662502e-02 71.6095 123.4214)" class="st19" width="0.4" height="26.1"/>
			</g>
		</g>
		<g>
			<g>
				<polygon class="st19" points="95.5,33.5 95.3,33.4 102.8,16.4 103.1,16.5 				"/>
			</g>
			<g>
				
					<rect x="99.1" y="15.6" transform="matrix(0.4059 -0.9139 0.9139 0.4059 36.1273 105.4572)" class="st19" width="0.3" height="18.6"/>
			</g>
		</g>
		<g>
			<g>
				
					<rect x="89.9" y="24.8" transform="matrix(0.9331 -0.3596 0.3596 0.9331 -2.3343 37.3287)" class="st19" width="18.6" height="0.3"/>
			</g>
			<g>
				<polygon class="st19" points="102.4,33.7 95.7,16.3 96,16.2 102.6,33.6 				"/>
			</g>
		</g>
	</g>
	<g>
		<g>
			<circle class="st19" cx="481" cy="60.5" r="1.8"/>
		</g>
		<g>
			<g>
				<polygon class="st19" points="486.7,66.7 475.3,54.6 475.4,54.5 486.9,66.5 				"/>
			</g>
			<g>
				
					<rect x="472.8" y="60.5" transform="matrix(0.7261 -0.6876 0.6876 0.7261 90.1244 347.3769)" class="st19" width="16.6" height="0.2"/>
			</g>
		</g>
		<g>
			<g>
				
					<rect x="481" y="52.7" transform="matrix(0.9842 -0.1768 0.1768 0.9842 -3.1299 86.0189)" class="st19" width="0.2" height="15.8"/>
			</g>
			<g>
				
					<rect x="473.2" y="60.5" transform="matrix(0.9843 -0.1767 0.1767 0.9843 -3.1341 85.9395)" class="st19" width="15.8" height="0.2"/>
			</g>
		</g>
		<g>
			<g>
				
					<rect x="473.2" y="60.5" transform="matrix(0.5709 -0.821 0.821 0.5709 156.6876 420.9477)" class="st19" width="15.8" height="0.2"/>
			</g>
			<g>
				<polygon class="st19" points="487.5,65.2 474.5,56.1 474.6,56 487.6,65 				"/>
			</g>
		</g>
		<g>
			<g>
				<polygon class="st19" points="485.1,67.1 476.8,54.1 477,54 485.3,67 				"/>
			</g>
			<g>
				
					<rect x="473.3" y="60.5" transform="matrix(0.8442 -0.536 0.536 0.8442 42.4843 267.3058)" class="st19" width="15.4" height="0.2"/>
			</g>
		</g>
		<g>
			<g>
				
					<rect x="473.3" y="60.5" transform="matrix(0.2175 -0.9761 0.9761 0.2175 317.3219 516.9481)" class="st19" width="15.4" height="0.2"/>
			</g>
			<g>
				
					<rect x="481" y="52.9" transform="matrix(0.2173 -0.9761 0.9761 0.2173 317.3907 516.9728)" class="st19" width="0.2" height="15.4"/>
			</g>
		</g>
		<g>
			<g>
				<polygon class="st19" points="481,68.9 480.7,68.9 481.2,52.3 481.4,52.3 				"/>
			</g>
			<g>
				
					<rect x="480.9" y="52.3" transform="matrix(2.659411e-02 -0.9996 0.9996 2.659411e-02 407.7213 539.8543)" class="st19" width="0.2" height="16.6"/>
			</g>
		</g>
		<g>
			<g>
				<polygon class="st19" points="478.7,66 478.6,66 483.4,55.1 483.5,55.2 				"/>
			</g>
			<g>
				
					<rect x="481" y="54.6" transform="matrix(0.406 -0.9139 0.9139 0.406 230.4104 475.6183)" class="st19" width="0.2" height="11.9"/>
			</g>
		</g>
		<g>
			<g>
				
					<rect x="475.1" y="60.5" transform="matrix(0.9333 -0.3592 0.3592 0.9333 10.3494 176.8428)" class="st19" width="11.9" height="0.2"/>
			</g>
			<g>
				<polygon class="st19" points="483.1,66.1 478.9,55.1 479,55 483.3,66.1 				"/>
			</g>
		</g>
	</g>
	<g>
		<g>
			<circle class="st19" cx="514.2" cy="80.4" r="1.7"/>
		</g>
		<g>
			<path class="st19" d="M515.4,82.3c-0.1,0-0.2,0-0.2-0.1l-2.4-3.4c-0.1-0.1-0.1-0.3,0.1-0.3c0.1-0.1,0.3-0.1,0.3,0.1l2.4,3.4
				c0.1,0.1,0.1,0.3-0.1,0.3C515.5,82.3,515.4,82.3,515.4,82.3z"/>
		</g>
	</g>
	<g>
		<circle class="st19" cx="476.2" cy="19.9" r="1.5"/>
	</g>
	<g>
		<circle class="st19" cx="479.3" cy="33" r="1.7"/>
	</g>
	<g>
		<circle class="st19" cx="490.9" cy="28.2" r="2.1"/>
	</g>
	<g>
		<path class="st19" d="M478.8,35.3C478.8,35.3,478.8,35.3,478.8,35.3c-0.2,0-0.3-0.2-0.2-0.3l1-4.1c0-0.1,0.2-0.2,0.3-0.2
			c0.1,0,0.2,0.2,0.2,0.3l-1,4.1C479,35.2,478.9,35.3,478.8,35.3z"/>
	</g>
	<g>
		<g>
			<circle class="st19" cx="40.9" cy="55.6" r="4.6"/>
		</g>
	</g>
	<g>
		<path class="st19" d="M79.2,75c-0.2,0-0.4-0.1-0.4-0.3c-0.1-0.5-0.4-0.9-0.8-1.2c-0.4-0.3-0.9-0.4-1.4-0.3c-0.2,0-0.4-0.1-0.5-0.3
			c0,0,0,0,0-0.1c0-0.2,0.1-0.4,0.3-0.4c1-0.2,1.7-1.2,1.5-2.2c0,0,0,0,0-0.1c0-0.2,0.1-0.4,0.3-0.4c0.2,0,0.4,0.1,0.5,0.3
			c0.1,0.5,0.4,0.9,0.8,1.2c0.4,0.3,0.9,0.4,1.4,0.3c0.2,0,0.4,0.1,0.5,0.3c0,0,0,0,0,0.1c0,0.2-0.1,0.4-0.3,0.4
			c-1,0.2-1.7,1.2-1.5,2.2c0,0,0,0,0,0.1C79.6,74.8,79.5,75,79.2,75C79.2,75,79.2,75,79.2,75z M77.9,72.5c0.4,0.2,0.7,0.4,1,0.7
			c0.2-0.4,0.4-0.7,0.7-1c-0.4-0.2-0.7-0.4-1-0.7C78.5,71.8,78.2,72.2,77.9,72.5z"/>
	</g>
	<g>
		<circle class="st19" cx="65.2" cy="119.9" r="2.1"/>
	</g>
	<g>
		<circle class="st19" cx="66" cy="76" r="3"/>
	</g>
	<g>
		<g>
			<circle class="st19" cx="99.2" cy="81.3" r="2.5"/>
		</g>
		<g>
			<path class="st19" d="M98.3,84.6c0,0-0.1,0-0.1,0c-0.2-0.1-0.3-0.3-0.2-0.4l1.8-5.8c0.1-0.2,0.3-0.3,0.4-0.2
				c0.2,0.1,0.3,0.3,0.2,0.4l-1.8,5.8C98.6,84.5,98.4,84.6,98.3,84.6z"/>
		</g>
	</g>
	<g>
		<g>
			<circle class="st19" cx="127.2" cy="142.4" r="3.2"/>
		</g>
	</g>
	<g>
		<path class="st19" d="M146.3,189.5C146.3,189.5,146.3,189.5,146.3,189.5c-0.2,0-0.3-0.1-0.3-0.3c0,0,0,0,0,0
			c0-0.7-0.6-1.3-1.3-1.3c-0.2,0-0.3-0.1-0.3-0.3c0,0,0,0,0,0c0-0.2,0.1-0.3,0.3-0.3c0,0,0,0,0,0c0.3,0,0.7-0.1,0.9-0.4
			c0.3-0.2,0.4-0.6,0.4-0.9c0-0.2,0.1-0.3,0.3-0.3c0,0,0,0,0,0c0.2,0,0.3,0.1,0.3,0.3c0,0,0,0,0,0c0,0.7,0.6,1.3,1.3,1.3
			c0.2,0,0.3,0.1,0.3,0.3c0,0,0,0,0,0c0,0.2-0.1,0.3-0.3,0.3c0,0,0,0,0,0c-0.3,0-0.7,0.1-0.9,0.4c-0.3,0.2-0.4,0.6-0.4,0.9
			C146.5,189.4,146.4,189.5,146.3,189.5z M145.7,187.6c0.2,0.2,0.5,0.4,0.6,0.6c0.1-0.1,0.2-0.2,0.3-0.3c0.1-0.1,0.2-0.2,0.3-0.3
			c-0.2-0.2-0.5-0.4-0.6-0.6c-0.1,0.1-0.2,0.2-0.3,0.3C145.9,187.5,145.8,187.6,145.7,187.6z"/>
	</g>
	<g>
		<circle class="st19" cx="165.9" cy="141.8" r="1.5"/>
	</g>
	<g>
		<circle class="st19" cx="168.8" cy="124" r="2.1"/>
	</g>
	<g>
		<g>
			<circle class="st19" cx="179.6" cy="144.6" r="1.7"/>
		</g>
		<g>
			<path class="st19" d="M177.7,145.6c-0.1,0-0.2-0.1-0.2-0.2c0-0.1,0-0.3,0.2-0.3l3.9-1.4c0.1,0,0.3,0,0.3,0.2c0,0.1,0,0.3-0.2,0.3
				L177.7,145.6C177.7,145.6,177.7,145.6,177.7,145.6z"/>
		</g>
	</g>
	<g>
		<g>
			<circle class="st19" cx="376.7" cy="265.9" r="1.8"/>
		</g>
		<g>
			<g>
				
					<rect x="376.5" y="257.6" transform="matrix(0.4838 -0.8752 0.8752 0.4838 -38.2808 466.8073)" class="st19" width="0.2" height="16.6"/>
			</g>
			<g>
				<polygon class="st19" points="372.7,273.2 372.5,273.1 380.5,258.5 380.7,258.7 				"/>
			</g>
		</g>
		<g>
			<g>
				
					<rect x="376.5" y="258" transform="matrix(0.8848 -0.466 0.466 0.8848 -80.4989 206.1205)" class="st19" width="0.2" height="15.8"/>
			</g>
			<g>
				
					<rect x="368.7" y="265.7" transform="matrix(0.8851 -0.4653 0.4653 0.8851 -80.454 205.7781)" class="st19" width="15.8" height="0.2"/>
			</g>
		</g>
		<g>
			<g>
				<polygon class="st19" points="374.4,273.4 374.1,273.4 378.8,258.3 379,258.3 				"/>
			</g>
			<g>
				
					<rect x="376.5" y="258" transform="matrix(0.2961 -0.9551 0.9551 0.2961 11.1415 546.8309)" class="st19" width="0.2" height="15.8"/>
			</g>
		</g>
		<g>
			<g>
				
					<rect x="376.5" y="258.1" transform="matrix(0.6423 -0.7664 0.7664 0.6423 -69.0626 383.7216)" class="st19" width="0.2" height="15.4"/>
			</g>
			<g>
				
					<rect x="368.9" y="265.7" transform="matrix(0.6422 -0.7665 0.7665 0.6422 -69.0457 383.7866)" class="st19" width="15.4" height="0.2"/>
			</g>
		</g>
		<g>
			<g>
				
					<rect x="376.5" y="258.1" transform="matrix(0.9961 -8.775162e-02 8.775162e-02 0.9961 -21.8765 34.0725)" class="st19" width="0.2" height="15.4"/>
			</g>
			<g>
				
					<rect x="368.9" y="265.7" transform="matrix(0.9961 -8.819663e-02 8.819663e-02 0.9961 -21.98 34.2505)" class="st19" width="15.4" height="0.2"/>
			</g>
		</g>
		<g>
			<g>
				<polygon class="st19" points="378.8,273.9 374.2,257.9 374.4,257.9 379,273.8 				"/>
			</g>
			<g>
				
					<rect x="368.3" y="265.7" transform="matrix(0.9611 -0.2763 0.2763 0.9611 -58.7969 114.4062)" class="st19" width="16.6" height="0.2"/>
			</g>
		</g>
		<g>
			<g>
				<polygon class="st19" points="376,271.8 375.9,271.7 377.2,260 377.3,260 				"/>
			</g>
			<g>
				
					<rect x="376.5" y="259.9" transform="matrix(0.1108 -0.9938 0.9938 0.1108 70.6524 610.6786)" class="st19" width="0.2" height="11.9"/>
			</g>
		</g>
		<g>
			<g>
				<polygon class="st19" points="372,269.6 371.9,269.5 381.2,262.1 381.3,262.2 				"/>
			</g>
			<g>
				<polygon class="st19" points="380.2,270.5 372.8,261.3 373,261.2 380.4,270.4 				"/>
			</g>
		</g>
	</g>
	<g>
		<g>
			<circle class="st19" cx="461.5" cy="216" r="3.2"/>
		</g>
	</g>
	<g>
		<path class="st19" d="M469,224.2c-0.1,0-0.2,0-0.2-0.1c-0.5-0.5-1.3-0.6-1.9-0.1c-0.1,0.1-0.3,0.1-0.4,0c0-0.1-0.1-0.1-0.1-0.2
			c0-0.1,0-0.2,0.1-0.2c0.5-0.5,0.6-1.3,0.1-1.9c0-0.1-0.1-0.1-0.1-0.2c0-0.1,0-0.2,0.1-0.2c0.1-0.1,0.3-0.1,0.4,0
			c0.5,0.5,1.3,0.6,1.9,0.1c0.1-0.1,0.3-0.1,0.4,0c0,0.1,0.1,0.1,0.1,0.2c0,0.1,0,0.2-0.1,0.2c-0.3,0.2-0.4,0.6-0.4,0.9
			c0,0.4,0.1,0.7,0.3,1c0,0.1,0.1,0.1,0.1,0.2c0,0.1,0,0.2-0.1,0.2C469.2,224.2,469.1,224.2,469,224.2z M467.8,223.1
			c0.2,0,0.4,0,0.5,0.1c-0.1-0.3,0-0.6,0-0.9c-0.3,0.1-0.6,0-0.9,0c0.1,0.3,0,0.6,0,0.9C467.6,223.1,467.7,223.1,467.8,223.1z"/>
	</g>
	<g>
		<circle class="st19" cx="510.6" cy="197.2" r="1.5"/>
	</g>
	<g>
		<circle class="st19" cx="501.5" cy="187.3" r="1.7"/>
	</g>
	<g>
		<circle class="st19" cx="493.6" cy="197.1" r="2.1"/>
	</g>
	<g>
		<g>
			<circle class="st19" cx="615.3" cy="15" r="3.2"/>
		</g>
	</g>
	<g>
		<path class="st19" d="M540.8,51.9C540.8,51.9,540.7,51.9,540.8,51.9c-0.2,0-0.3-0.2-0.3-0.3c0,0,0,0,0-0.1c0.2-0.7-0.3-1.4-1-1.6
			c-0.1,0-0.2-0.1-0.2-0.3c0,0,0,0,0-0.1c0-0.2,0.2-0.2,0.3-0.2c0.3,0.1,0.7,0,1-0.1c0.3-0.2,0.5-0.5,0.6-0.8c0-0.2,0.2-0.2,0.3-0.2
			c0.1,0,0.2,0.1,0.2,0.3c0,0,0,0,0,0.1c-0.2,0.7,0.3,1.4,1,1.6c0.1,0,0.2,0.1,0.2,0.3c0,0,0,0,0,0.1c0,0.2-0.2,0.2-0.3,0.2
			c-0.3-0.1-0.7,0-1,0.1c-0.3,0.2-0.5,0.5-0.6,0.8C541,51.8,540.9,51.9,540.8,51.9z M540.6,49.9c0.2,0.2,0.4,0.5,0.4,0.7
			c0.1-0.1,0.2-0.2,0.3-0.3c0.1-0.1,0.3-0.1,0.4-0.2c-0.2-0.2-0.4-0.5-0.4-0.7c-0.1,0.1-0.2,0.2-0.3,0.3
			C540.8,49.8,540.7,49.9,540.6,49.9z"/>
	</g>
	<g>
		<circle class="st19" cx="562.6" cy="26.4" r="1.5"/>
	</g>
	<g>
		<g>
			<circle class="st19" cx="593.4" cy="39.4" r="1.7"/>
		</g>
		<g>
			<path class="st19" d="M592,41.2c-0.1,0-0.1,0-0.2-0.1c-0.1-0.1-0.1-0.2,0-0.4l2.8-3.1c0.1-0.1,0.2-0.1,0.4,0
				c0.1,0.1,0.1,0.2,0,0.4l-2.8,3.1C592.1,41.2,592.1,41.2,592,41.2z"/>
		</g>
	</g>
	<g>
		<path class="st19" d="M120.2,337.4c-0.1,0-0.2-0.1-0.2-0.1c-0.2-0.3-0.5-0.5-0.8-0.6c-0.3-0.1-0.7,0-1,0.1c-0.1,0.1-0.3,0-0.4-0.1
			c0,0,0-0.1,0-0.1c0-0.1,0.1-0.2,0.1-0.2c0.3-0.2,0.5-0.5,0.6-0.8c0.1-0.3,0-0.7-0.1-1c0,0,0-0.1,0-0.1c0-0.1,0.1-0.2,0.1-0.2
			c0.1-0.1,0.3,0,0.4,0.1c0.2,0.3,0.5,0.5,0.8,0.6c0.3,0.1,0.7,0,1-0.1c0.1-0.1,0.3,0,0.4,0.1c0,0,0,0.1,0,0.1
			c0,0.1-0.1,0.2-0.1,0.2c-0.3,0.2-0.5,0.5-0.6,0.8c-0.1,0.3,0,0.7,0.1,1c0,0,0,0.1,0,0.1c0,0.1-0.1,0.2-0.1,0.2
			C120.3,337.3,120.2,337.4,120.2,337.4z M118.8,336c0.3,0,0.6,0.1,0.8,0.2c0-0.3,0.1-0.6,0.2-0.8c-0.3,0-0.6-0.1-0.8-0.2
			C119,335.4,119,335.7,118.8,336z"/>
	</g>
	<g>
		<path class="st19" d="M53.6,335c-0.1,0-0.1,0-0.2-0.1c-0.1-0.1-0.1-0.1-0.1-0.2c0-0.1,0-0.1,0.1-0.2c0.2-0.3,0.3-0.6,0.3-1
			c-0.1-0.4-0.2-0.7-0.5-0.9c-0.1-0.1-0.1-0.1-0.1-0.2c0-0.1,0-0.1,0.1-0.2c0.1-0.1,0.3-0.2,0.4-0.1c0.6,0.4,1.4,0.3,1.9-0.3
			c0.1-0.1,0.3-0.2,0.4-0.1c0.1,0.1,0.1,0.1,0.1,0.2c0,0.1,0,0.1-0.1,0.2c-0.2,0.3-0.3,0.6-0.3,1c0.1,0.4,0.2,0.7,0.5,0.9
			c0.1,0.1,0.1,0.1,0.1,0.2c0,0.1,0,0.1-0.1,0.2c-0.1,0.1-0.3,0.2-0.4,0.1c-0.6-0.4-1.4-0.3-1.9,0.3C53.8,335,53.7,335,53.6,335z
			 M54.1,333.1c0.1,0.1,0.1,0.3,0.1,0.4c0,0.1,0,0.3,0,0.4c0.3-0.1,0.6-0.1,0.9-0.1c-0.1-0.1-0.1-0.3-0.1-0.4c0-0.1,0-0.3,0-0.4
			C54.7,333.1,54.4,333.1,54.1,333.1z"/>
	</g>
	<g>
		<circle class="st19" cx="48" cy="298.3" r="1.5"/>
	</g>
	<g>
		<circle class="st19" cx="16.2" cy="277.9" r="2.1"/>
	</g>
	<g>
		<g>
			<circle class="st19" cx="58.4" cy="288.8" r="1.7"/>
		</g>
		<g>
			<path class="st19" d="M57.8,291C57.8,291,57.8,291,57.8,291c-0.2,0-0.3-0.2-0.2-0.3l1.2-4c0-0.1,0.2-0.2,0.3-0.2
				c0.1,0,0.2,0.2,0.2,0.3l-1.2,4C58,291,57.9,291,57.8,291z"/>
		</g>
	</g>
	<g>
		<circle class="st19" cx="139.5" cy="272.7" r="1.5"/>
	</g>
	<g>
		<g>
			<circle class="st19" cx="133.3" cy="305.6" r="1.7"/>
		</g>
		<g>
			<path class="st19" d="M135.2,306.8c0,0-0.1,0-0.1,0l-3.7-2c-0.1-0.1-0.2-0.2-0.1-0.3c0.1-0.1,0.2-0.2,0.3-0.1l3.7,2
				c0.1,0.1,0.2,0.2,0.1,0.3C135.3,306.8,135.3,306.8,135.2,306.8z"/>
		</g>
	</g>
	<g>
		<circle class="st19" cx="385.1" cy="318" r="2.1"/>
	</g>
	<g>
		<g>
			<circle class="st19" cx="222.5" cy="168.4" r="3.2"/>
		</g>
	</g>
	<g>
		<circle class="st19" cx="493.7" cy="125" r="1.5"/>
	</g>
	<g>
		<circle class="st19" cx="503.6" cy="110" r="2.1"/>
	</g>
	<g>
		<g>
			<circle class="st19" cx="505.1" cy="133.3" r="1.7"/>
		</g>
		<g>
			<path class="st19" d="M507.2,133.7C507.2,133.7,507.2,133.7,507.2,133.7l-4.2-0.3c-0.1,0-0.2-0.1-0.2-0.3c0-0.1,0.1-0.2,0.3-0.2
				l4.2,0.3c0.1,0,0.2,0.1,0.2,0.3C507.4,133.6,507.3,133.7,507.2,133.7z"/>
		</g>
	</g>
	<g>
		<path class="st19" d="M403.6,48.2c-0.1,0-0.2-0.1-0.3-0.2c-0.1-0.3-0.3-0.6-0.6-0.8c-0.3-0.2-0.7-0.2-1-0.1c-0.2,0-0.3,0-0.4-0.2
			c0,0,0-0.1,0-0.1c0-0.1,0.1-0.2,0.2-0.3c0.3-0.1,0.6-0.3,0.8-0.6c0.2-0.3,0.2-0.7,0.1-1c0,0,0-0.1,0-0.1c0-0.1,0.1-0.2,0.2-0.3
			c0.2,0,0.3,0,0.4,0.2c0.2,0.7,1,1.1,1.7,0.9c0.2,0,0.3,0,0.4,0.2c0,0,0,0.1,0,0.1c0,0.1-0.1,0.2-0.2,0.3c-0.7,0.2-1.1,1-0.9,1.7
			c0,0,0,0.1,0,0.1C403.9,48,403.8,48.2,403.6,48.2C403.7,48.2,403.6,48.2,403.6,48.2z M402.6,46.6c0.1,0,0.3,0.1,0.4,0.2
			c0.1,0.1,0.3,0.2,0.4,0.2c0.1-0.3,0.2-0.5,0.4-0.8c-0.3-0.1-0.5-0.2-0.8-0.4c0,0.1-0.1,0.3-0.2,0.4
			C402.7,46.3,402.7,46.4,402.6,46.6z"/>
	</g>
	<g>
		<path class="st19" d="M219.4,74.7l-1.4-0.9l0.3-0.5l1.4,0.9L219.4,74.7z M216.6,72.8l-1.4-0.9l0.3-0.5l1.4,0.9L216.6,72.8z
			 M213.7,71l-1.4-0.9l0.3-0.5l1.4,0.9L213.7,71z M210.9,69.1l-1.4-0.9l0.3-0.5l1.4,0.9L210.9,69.1z M208,67.2l-1.4-0.9l0.3-0.5
			l1.4,0.9L208,67.2z M205.2,65.3l-1.4-0.9l0.3-0.5l1.4,0.9L205.2,65.3z M202.3,63.4l-1.4-0.9l0.3-0.5l1.4,0.9L202.3,63.4z
			 M199.5,61.5l-1.4-0.9l0.3-0.5l1.4,0.9L199.5,61.5z M196.6,59.6l-1.4-0.9l0.3-0.5l1.4,0.9L196.6,59.6z M193.7,57.8l-1.4-0.9
			l0.3-0.5l1.4,0.9L193.7,57.8z M190.9,55.9l-1.4-0.9l0.3-0.5l1.4,0.9L190.9,55.9z M188,54l-1.4-0.9l0.3-0.5l1.4,0.9L188,54z
			 M185.2,52.1l-1.4-0.9l0.3-0.5l1.4,0.9L185.2,52.1z M182.3,50.2l-0.8-0.5l0.3-0.5l0.8,0.5L182.3,50.2z"/>
	</g>
	<g>
		<path class="st19" d="M148.3,51.7l-0.1-0.6l1.7-0.3l0.1,0.6L148.3,51.7z M151.6,51.1l-0.1-0.6l1.7-0.3l0.1,0.6L151.6,51.1z
			 M155,50.4l-0.1-0.6l1.7-0.3l0.1,0.6L155,50.4z M158.4,49.8l-0.1-0.6l1.7-0.3l0.1,0.6L158.4,49.8z M161.7,49.1l-0.1-0.6l1.7-0.3
			l0.1,0.6L161.7,49.1z M165.1,48.5l-0.1-0.6l1.7-0.3l0.1,0.6L165.1,48.5z M168.4,47.8l-0.1-0.6L170,47l0.1,0.6L168.4,47.8z
			 M171.8,47.2l-0.1-0.6l1.7-0.3l0.1,0.6L171.8,47.2z"/>
	</g>
	<g>
		<path class="st19" d="M180.7,43.1l-0.4-0.4l1.2-1.2l0.4,0.4L180.7,43.1z M183,40.6l-0.4-0.4l1.2-1.2l0.4,0.4L183,40.6z
			 M185.4,38.1l-0.4-0.4l1.2-1.2l0.4,0.4L185.4,38.1z M187.7,35.6l-0.4-0.4l1.2-1.2l0.4,0.4L187.7,35.6z M190.1,33.1l-0.4-0.4
			l1.2-1.2l0.4,0.4L190.1,33.1z M192.4,30.6l-0.4-0.4l1.2-1.2l0.4,0.4L192.4,30.6z M194.7,28.1l-0.4-0.4l1.2-1.2l0.4,0.4L194.7,28.1
			z M197.1,25.6l-0.4-0.4l1.2-1.2l0.4,0.4L197.1,25.6z M199.4,23.1l-0.4-0.4l1.2-1.2l0.4,0.4L199.4,23.1z M201.8,20.7l-0.4-0.4
			l1.2-1.2l0.4,0.4L201.8,20.7z"/>
	</g>
	<g>
		<path class="st19" d="M225.3,26.5l-1.5-0.7l0.2-0.5l1.5,0.7L225.3,26.5z M222.2,25l-1.5-0.7l0.2-0.5l1.5,0.7L222.2,25z
			 M219.2,23.5l-1.5-0.7l0.2-0.5l1.5,0.7L219.2,23.5z M216.1,22l-1.5-0.7l0.2-0.5l1.5,0.7L216.1,22z M213,20.5l-1.5-0.7l0.2-0.5
			l1.5,0.7L213,20.5z M209.9,19l-1.5-0.7l0.2-0.5l1.5,0.7L209.9,19z"/>
	</g>
	<g>
		<path class="st19" d="M223.9,73.8l-0.6-0.1l0.2-1.7l0.6,0.1L223.9,73.8z M224.3,70.4l-0.6-0.1l0.2-1.7l0.6,0.1L224.3,70.4z
			 M224.7,67l-0.6-0.1l0.2-1.7l0.6,0.1L224.7,67z M225,63.6l-0.6-0.1l0.2-1.7l0.6,0.1L225,63.6z M225.4,60.2l-0.6-0.1l0.2-1.7
			l0.6,0.1L225.4,60.2z M225.8,56.8l-0.6-0.1l0.2-1.7l0.6,0.1L225.8,56.8z M226.2,53.4l-0.6-0.1l0.2-1.7l0.6,0.1L226.2,53.4z
			 M226.6,50l-0.6-0.1l0.2-1.7l0.6,0.1L226.6,50z M227,46.6l-0.6-0.1l0.2-1.7l0.6,0.1L227,46.6z M227.4,43.2l-0.6-0.1l0.2-1.7
			l0.6,0.1L227.4,43.2z M227.8,39.8l-0.6-0.1l0.2-1.7l0.6,0.1L227.8,39.8z M228.1,36.4l-0.6-0.1l0.2-1.7l0.6,0.1L228.1,36.4z
			 M228.5,33l-0.6-0.1l0.2-1.7l0.6,0.1L228.5,33z"/>
	</g>
	<g>
		<path class="st19" d="M183.3,193.1l-0.5-0.3l0.6-1.1l0.5,0.3L183.3,193.1z M184.7,190.5l-0.5-0.3l0.9-1.5l0.5,0.3L184.7,190.5z
			 M186.5,187.6l-0.5-0.3l0.9-1.5l0.5,0.3L186.5,187.6z"/>
	</g>
	<g>
		<path class="st19" d="M189.3,198.7l-1.6-0.6l0.2-0.5l1.6,0.6L189.3,198.7z M186.1,197.5l-1.6-0.6l0.2-0.5l1.6,0.6L186.1,197.5z"/>
	</g>
	<g>
		<path class="st19" d="M222.3,214.9l-1.5-0.8l0.3-0.5l1.5,0.8L222.3,214.9z M219.2,213.3l-1.5-0.8l0.3-0.5l1.5,0.8L219.2,213.3z
			 M216.2,211.7l-1.5-0.8l0.3-0.5l1.5,0.8L216.2,211.7z M213.2,210.1l-1.5-0.8l0.3-0.5l1.5,0.8L213.2,210.1z M210.1,208.6l-1.5-0.8
			l0.3-0.5l1.5,0.8L210.1,208.6z M207.1,207l-1.5-0.8l0.3-0.5l1.5,0.8L207.1,207z M204.1,205.4l-1.5-0.8l0.3-0.5l1.5,0.8
			L204.1,205.4z M201,203.8l-1.5-0.8l0.3-0.5l1.5,0.8L201,203.8z M198,202.2l-1.5-0.8l0.3-0.5l1.5,0.8L198,202.2z"/>
	</g>
	<g>
		<path class="st19" d="M223.6,223.8l-0.6-0.2l0.5-1.6l0.6,0.2L223.6,223.8z M224.5,220.4l-0.6-0.2l0.5-1.6l0.6,0.2L224.5,220.4z"/>
	</g>
	<g>
		<path class="st19" d="M504.9,107l-0.5-0.2l0.2-0.7l0.5,0.2L504.9,107z M505.7,104.7l-0.5-0.2l0.6-1.6l0.5,0.2L505.7,104.7z
			 M506.8,101.5l-0.5-0.2l0.6-1.6l0.5,0.2L506.8,101.5z M508,98.3l-0.5-0.2l0.6-1.6l0.5,0.2L508,98.3z M509.2,95l-0.5-0.2l0.6-1.6
			l0.5,0.2L509.2,95z M510.3,91.8l-0.5-0.2l0.6-1.6l0.5,0.2L510.3,91.8z M511.5,88.6l-0.5-0.2l0.6-1.6l0.5,0.2L511.5,88.6z
			 M512.7,85.4l-0.5-0.2l0.6-1.6l0.5,0.2L512.7,85.4z"/>
	</g>
	<g>
		<path class="st19" d="M504.8,130.3l-0.1-1.7l0.6,0l0.1,1.7L504.8,130.3z M504.5,126.9l-0.1-1.7l0.6,0l0.1,1.7L504.5,126.9z
			 M504.2,123.5l-0.1-1.7l0.6,0l0.1,1.7L504.2,123.5z M503.9,120.1l-0.1-1.7l0.6,0l0.1,1.7L503.9,120.1z M503.6,116.7l-0.1-1.7
			l0.6,0l0.1,1.7L503.6,116.7z"/>
	</g>
	<g>
		<path class="st19" d="M495.4,122.9l-0.5-0.3l0.9-1.4l0.5,0.3L495.4,122.9z M497.3,120.1l-0.5-0.3l0.9-1.4l0.5,0.3L497.3,120.1z
			 M499.2,117.2l-0.5-0.3l0.9-1.4l0.5,0.3L499.2,117.2z M501.1,114.4l-0.5-0.3l0.7-1l0.5,0.3L501.1,114.4z"/>
	</g>
	<g>
		<path class="st19" d="M557.9,107.6l-0.6-0.4l0.3-0.5l0.6,0.4L557.9,107.6z M555.9,106.3l-1.4-0.9l0.3-0.5l1.4,0.9L555.9,106.3z
			 M553,104.5l-1.4-0.9l0.3-0.5l1.4,0.9L553,104.5z M550.1,102.6l-1.4-0.9l0.3-0.5l1.4,0.9L550.1,102.6z M547.3,100.8l-1.4-0.9
			l0.3-0.5l1.4,0.9L547.3,100.8z M544.4,99l-1.4-0.9l0.3-0.5l1.4,0.9L544.4,99z M541.5,97.1l-1.4-0.9l0.3-0.5l1.4,0.9L541.5,97.1z
			 M538.6,95.3l-1.4-0.9l0.3-0.5l1.4,0.9L538.6,95.3z M535.7,93.5l-1.4-0.9l0.3-0.5L536,93L535.7,93.5z M532.8,91.6l-1.4-0.9
			l0.3-0.5l1.4,0.9L532.8,91.6z M529.9,89.8l-1.4-0.9l0.3-0.5l1.4,0.9L529.9,89.8z M527.1,87.9l-1.4-0.9l0.3-0.5l1.4,0.9L527.1,87.9
			z M524.2,86.1l-1.4-0.9l0.3-0.5l1.4,0.9L524.2,86.1z M521.3,84.3l-1.4-0.9l0.3-0.5l1.4,0.9L521.3,84.3z M518.4,82.4l-1.4-0.9
			l0.3-0.5l1.4,0.9L518.4,82.4z"/>
	</g>
	<g>
		<path class="st19" d="M566.5,118.9l-0.4-0.7l0.5-0.3l0.4,0.7L566.5,118.9z M565.2,116.7l-0.8-1.5l0.5-0.3l0.8,1.5L565.2,116.7z
			 M563.6,113.7l-0.8-1.5l0.5-0.3l0.8,1.5L563.6,113.7z"/>
	</g>
	<g>
		<path class="st19" d="M543.2,144.7l-0.5-0.3l0.8-1.5l0.5,0.3L543.2,144.7z M544.8,141.6l-0.5-0.3l0.8-1.5l0.5,0.3L544.8,141.6z
			 M546.3,138.6l-0.5-0.3l0.8-1.5l0.5,0.3L546.3,138.6z M547.8,135.5l-0.5-0.3l0.8-1.5l0.5,0.3L547.8,135.5z M549.4,132.5l-0.5-0.3
			l0.8-1.5l0.5,0.3L549.4,132.5z M550.9,129.4l-0.5-0.3l0.8-1.5l0.5,0.3L550.9,129.4z M552.5,126.3l-0.5-0.3l0.8-1.5l0.5,0.3
			L552.5,126.3z M554,123.3l-0.5-0.3l0.8-1.5l0.5,0.3L554,123.3z M555.6,120.2l-0.5-0.3l0.8-1.5l0.5,0.3L555.6,120.2z M557.1,117.2
			l-0.5-0.3l0.8-1.5l0.5,0.3L557.1,117.2z M558.7,114.1l-0.5-0.3l0.8-1.5l0.5,0.3L558.7,114.1z"/>
	</g>
	<g>
		<path class="st19" d="M516.9,78.4l-0.4-0.4l1.1-1.3l0.4,0.4L516.9,78.4z M519.2,75.8l-0.4-0.4l1.1-1.3l0.4,0.4L519.2,75.8z
			 M521.4,73.2l-0.4-0.4l1.1-1.3l0.4,0.4L521.4,73.2z M523.6,70.6l-0.4-0.4l1.1-1.3l0.4,0.4L523.6,70.6z M525.9,68l-0.4-0.4l1.1-1.3
			l0.4,0.4L525.9,68z M528.1,65.4l-0.4-0.4l1.1-1.3l0.4,0.4L528.1,65.4z M530.3,62.8l-0.4-0.4l1.1-1.3l0.4,0.4L530.3,62.8z
			 M532.5,60.2l-0.4-0.4l1.1-1.3l0.4,0.4L532.5,60.2z M534.8,57.6l-0.4-0.4l1.1-1.3l0.4,0.4L534.8,57.6z M537,55l-0.4-0.4l1.1-1.3
			l0.4,0.4L537,55z M539.2,52.4l-0.4-0.4l0.3-0.4l0.4,0.4L539.2,52.4z"/>
	</g>
	<g>
		<circle class="st19" cx="204.3" cy="15.4" r="2.1"/>
	</g>
	<g>
		<circle class="st19" cx="229.3" cy="27.3" r="2.1"/>
	</g>
</g>
<g class="st37">
	<g>
		<g>
			<circle class="st19" cx="907.4" cy="219.8" r="2.8"/>
		</g>
		<g>
			<g>
				
					<rect x="907.3" y="206.8" transform="matrix(6.580796e-02 -0.9978 0.9978 6.580796e-02 628.4382 1110.9227)" class="st19" width="0.4" height="26.1"/>
			</g>
			<g>
				<polygon class="st19" points="908.2,206.8 906.5,232.8 906.8,232.9 908.6,206.8 				"/>
			</g>
		</g>
		<g>
			<g>
				
					<rect x="895.1" y="219.7" transform="matrix(0.8701 -0.4929 0.4929 0.8701 9.5467 475.8927)" class="st19" width="24.8" height="0.3"/>
			</g>
			<g>
				
					<rect x="907.3" y="207.4" transform="matrix(0.8704 -0.4923 0.4923 0.8704 9.3724 475.2804)" class="st19" width="0.3" height="24.8"/>
			</g>
		</g>
		<g>
			<g>
				
					<rect x="895.1" y="219.7" transform="matrix(0.2667 -0.9638 0.9638 0.2667 453.6297 1035.8663)" class="st19" width="24.8" height="0.3"/>
			</g>
			<g>
				
					<rect x="907.3" y="207.4" transform="matrix(0.2666 -0.9638 0.9638 0.2666 453.6532 1035.8794)" class="st19" width="0.3" height="24.8"/>
			</g>
		</g>
		<g>
			<g>
				
					<rect x="895.4" y="219.7" transform="matrix(0.992 -0.1266 0.1266 0.992 -20.5283 116.6525)" class="st19" width="24.2" height="0.3"/>
			</g>
			<g>
				<polygon class="st19" points="906.2,207.8 905.8,207.8 908.9,231.9 909.2,231.8 				"/>
			</g>
		</g>
		<g>
			<g>
				
					<rect x="895.4" y="219.7" transform="matrix(0.6119 -0.7909 0.7909 0.6119 178.3178 803.0904)" class="st19" width="24.2" height="0.3"/>
			</g>
			<g>
				
					<rect x="907.4" y="207.7" transform="matrix(0.6126 -0.7904 0.7904 0.6126 177.8368 802.4886)" class="st19" width="0.3" height="24.2"/>
			</g>
		</g>
		<g>
			<g>
				
					<rect x="894.5" y="219.7" transform="matrix(0.7519 -0.6593 0.6593 0.7519 80.213 652.8307)" class="st19" width="26.1" height="0.4"/>
			</g>
			<g>
				
					<rect x="907.3" y="206.8" transform="matrix(0.7523 -0.6588 0.6588 0.7523 79.9651 652.3568)" class="st19" width="0.4" height="26.1"/>
			</g>
		</g>
		<g>
			<g>
				<polygon class="st19" points="911.5,211.4 903.3,228.1 903.5,228.2 911.8,211.5 				"/>
			</g>
			<g>
				
					<rect x="907.4" y="210.5" transform="matrix(0.4438 -0.8961 0.8961 0.4438 307.7773 935.5388)" class="st19" width="0.3" height="18.6"/>
			</g>
		</g>
		<g>
			<g>
				<polygon class="st19" points="904.7,211 904.4,211.1 910.4,228.7 910.6,228.6 				"/>
			</g>
			<g>
				
					<rect x="898.2" y="219.7" transform="matrix(0.9474 -0.3201 0.3201 0.9474 -22.6195 302.0628)" class="st19" width="18.6" height="0.3"/>
			</g>
		</g>
	</g>
	<g>
		<circle class="st19" cx="931.1" cy="263.3" r="1.5"/>
	</g>
	<g>
		<circle class="st19" cx="940.8" cy="272.6" r="1.7"/>
	</g>
	<g>
		<path class="st19" d="M938.8,271.8c-0.1,0-0.2,0.1-0.2,0.2c0,0.1,0,0.3,0.2,0.3l4,1.2c0.1,0,0.3,0,0.3-0.2c0-0.1,0-0.3-0.2-0.3
			L938.8,271.8C938.8,271.8,938.8,271.8,938.8,271.8z"/>
	</g>
	<g>
		<path class="st19" d="M1099.1,267.5c0.1,0.3,0.3,0.6,0.6,0.8c0.3,0.2,0.7,0.3,1,0.2c0.2,0,0.3,0.1,0.3,0.2c0,0,0,0,0,0.1
			c0,0.1-0.1,0.2-0.2,0.3c-0.7,0.2-1.2,0.9-1,1.6c0,0,0,0,0,0.1c0,0.1-0.1,0.2-0.2,0.3c-0.2,0-0.3-0.1-0.3-0.2
			c-0.1-0.3-0.3-0.6-0.6-0.8c-0.3-0.2-0.7-0.3-1-0.2c-0.2,0-0.3-0.1-0.3-0.2c0,0,0,0,0-0.1c0-0.1,0.1-0.2,0.2-0.3
			c0.7-0.2,1.2-0.9,1-1.6c0,0,0,0,0-0.1c0-0.1,0.1-0.2,0.2-0.3c0,0,0,0,0.1,0C1098.9,267.3,1099,267.4,1099.1,267.5z M1098.9,269.5
			c0.1,0.1,0.2,0.2,0.3,0.3c0.1-0.3,0.3-0.5,0.5-0.7c-0.1,0-0.3-0.1-0.4-0.2c-0.1-0.1-0.2-0.2-0.3-0.3c-0.1,0.3-0.3,0.5-0.5,0.7
			C1098.7,269.3,1098.8,269.4,1098.9,269.5z"/>
	</g>
	<g>
		<circle class="st19" cx="829.5" cy="305.1" r="1.5"/>
	</g>
	<g>
		<circle class="st19" cx="874.3" cy="274.1" r="2.1"/>
	</g>
	<g>
		<g>
			<circle class="st19" cx="796.6" cy="299.4" r="1.7"/>
		</g>
		<g>
			<path class="st19" d="M796.3,297.1C796.3,297.1,796.3,297.1,796.3,297.1c-0.2,0-0.3,0.2-0.2,0.3l0.6,4.1c0,0.1,0.2,0.2,0.3,0.2
				c0.1,0,0.2-0.1,0.2-0.3l-0.6-4.1C796.5,297.2,796.4,297.1,796.3,297.1z"/>
		</g>
	</g>
	<g>
		<g>
			<circle class="st19" cx="873.9" cy="125.4" r="3.2"/>
		</g>
	</g>
	<g>
		<path class="st19" d="M876.5,133.8c0.2,0.3,0.5,0.5,0.8,0.6c0.3,0.1,0.7,0,1-0.1c0.1-0.1,0.3,0,0.4,0.1c0,0,0,0.1,0,0.1
			c0,0.1-0.1,0.2-0.1,0.2c-0.6,0.4-0.8,1.2-0.5,1.8c0,0,0,0.1,0,0.1c0,0.1-0.1,0.2-0.1,0.2c-0.1,0.1-0.3,0-0.4-0.1
			c-0.4-0.6-1.2-0.8-1.8-0.5c-0.1,0.1-0.3,0-0.4-0.1c0,0,0-0.1,0-0.1c0-0.1,0.1-0.2,0.1-0.2c0.3-0.2,0.5-0.5,0.6-0.8
			c0.1-0.3,0-0.7-0.1-1c0,0,0-0.1,0-0.1c0-0.1,0.1-0.2,0.1-0.2c0,0,0.1,0,0.1,0C876.4,133.6,876.5,133.7,876.5,133.8z M877.4,135.8
			c0-0.3,0.1-0.6,0.2-0.8c-0.1,0-0.3,0-0.4-0.1c-0.1,0-0.3-0.1-0.4-0.2c0,0.1,0,0.3-0.1,0.4c0,0.1-0.1,0.3-0.2,0.4
			C876.9,135.6,877.1,135.7,877.4,135.8z"/>
	</g>
	<g>
		<circle class="st19" cx="840.3" cy="167.5" r="1.5"/>
	</g>
	<g>
		<circle class="st19" cx="833.6" cy="155.8" r="1.7"/>
	</g>
	<g>
		<circle class="st19" cx="845.4" cy="151.3" r="2.1"/>
	</g>
	<g>
		<path class="st19" d="M831.9,154.4c-0.1,0-0.2,0-0.2,0.1c-0.1,0.1,0,0.3,0.1,0.3l3.5,2.2c0.1,0.1,0.3,0,0.3-0.1
			c0.1-0.1,0-0.3-0.1-0.3l-3.5-2.2C831.9,154.4,831.9,154.4,831.9,154.4z"/>
	</g>
	<g>
		<g>
			<circle class="st19" cx="1017" cy="318.2" r="3.2"/>
		</g>
	</g>
	<g>
		<path class="st19" d="M967.5,316.3c0.3,0.7,1.1,1,1.7,0.7c0.1-0.1,0.3,0,0.4,0.1c0,0,0,0.1,0,0.1c0,0.1-0.1,0.2-0.2,0.3
			c-0.3,0.1-0.6,0.4-0.7,0.7c-0.1,0.3-0.1,0.7,0,1c0,0,0,0.1,0,0.1c0,0.1-0.1,0.2-0.2,0.3c-0.1,0.1-0.3,0-0.4-0.1
			c-0.3-0.7-1.1-1-1.7-0.7c-0.1,0.1-0.3,0-0.4-0.1c0,0,0-0.1,0-0.1c0-0.1,0.1-0.2,0.2-0.3c0.3-0.1,0.6-0.4,0.7-0.7
			c0.1-0.3,0.1-0.7,0-1c0,0,0-0.1,0-0.1c0-0.1,0.1-0.2,0.2-0.3c0,0,0.1,0,0.1,0C967.4,316.1,967.5,316.2,967.5,316.3z M968.2,318.5
			c0-0.1,0.1-0.3,0.1-0.4c0.1-0.1,0.1-0.3,0.2-0.4c-0.3,0-0.6-0.2-0.8-0.3c0,0.1-0.1,0.3-0.1,0.4c-0.1,0.1-0.1,0.3-0.2,0.4
			C967.6,318.2,967.9,318.3,968.2,318.5z"/>
	</g>
	<g>
		<circle class="st19" cx="1002.8" cy="282.2" r="1.5"/>
	</g>
	<g>
		<circle class="st19" cx="1018.1" cy="272.7" r="2.1"/>
	</g>
	<g>
		<g>
			<circle class="st19" cx="994.9" cy="270.6" r="1.7"/>
		</g>
		<g>
			<path class="st19" d="M994.8,268.3C994.8,268.3,994.8,268.3,994.8,268.3c-0.2,0-0.3,0.1-0.2,0.3l0.2,4.2c0,0.1,0.1,0.2,0.3,0.2
				c0.1,0,0.2-0.1,0.2-0.3l-0.2-4.2C995,268.4,994.9,268.3,994.8,268.3z"/>
		</g>
	</g>
	<g>
		<g>
			<circle class="st19" cx="909.5" cy="154.4" r="4.6"/>
		</g>
	</g>
	<g>
		<path class="st19" d="M977.8,198c0.3,0.4,0.7,0.8,1.2,0.9c0.5,0.1,1,0.1,1.5-0.2c0.2-0.1,0.4,0,0.6,0.2c0,0.1,0.1,0.1,0.1,0.2
			c0,0.1-0.1,0.3-0.2,0.4c-0.9,0.5-1.2,1.7-0.7,2.6c0,0.1,0.1,0.1,0.1,0.2c0,0.1-0.1,0.3-0.2,0.4c-0.2,0.1-0.4,0-0.6-0.2
			c-0.5-0.9-1.7-1.2-2.6-0.7c-0.2,0.1-0.4,0-0.6-0.2c0-0.1-0.1-0.1-0.1-0.2c0-0.1,0.1-0.3,0.2-0.4c0.4-0.3,0.8-0.7,0.9-1.2
			c0.1-0.5,0.1-1-0.2-1.5c0-0.1-0.1-0.1-0.1-0.2c0-0.1,0.1-0.3,0.2-0.4c0.1,0,0.1-0.1,0.2-0.1C977.6,197.8,977.7,197.8,977.8,198z
			 M979.1,201c0-0.4,0.1-0.8,0.3-1.2c-0.2,0-0.4,0-0.6-0.1c-0.2-0.1-0.4-0.1-0.6-0.2c0,0.2,0,0.4-0.1,0.6c-0.1,0.2-0.1,0.4-0.2,0.6
			C978.3,200.6,978.7,200.8,979.1,201z"/>
	</g>
	<g>
		<circle class="st19" cx="1006.6" cy="159.3" r="2.1"/>
	</g>
	<g>
		<circle class="st19" cx="973.3" cy="188" r="3"/>
	</g>
	<g>
		<g>
			<circle class="st19" cx="999.5" cy="235.1" r="2.5"/>
		</g>
		<g>
			<path class="st19" d="M1001.1,232.2c-0.1,0-0.2,0.1-0.3,0.2l-3.3,5.1c-0.1,0.2-0.1,0.4,0.1,0.5s0.4,0.1,0.5-0.1l3.3-5.1
				c0.1-0.2,0.1-0.4-0.1-0.5C1001.2,232.2,1001.2,232.2,1001.1,232.2z"/>
		</g>
	</g>
	<g>
		<g>
			<circle class="st19" cx="1063.5" cy="192.6" r="3.2"/>
		</g>
	</g>
	<g>
		<path class="st19" d="M1109.6,177c0.2,0.3,0.6,0.4,0.9,0.5c0.4,0,0.7-0.1,1-0.3c0.1-0.1,0.3-0.1,0.4,0c0,0.1,0.1,0.1,0.1,0.2
			c0,0.1,0,0.2-0.1,0.2c-0.3,0.2-0.4,0.6-0.5,0.9c0,0.4,0.1,0.7,0.3,1c0,0.1,0.1,0.1,0.1,0.2c0,0.1,0,0.2-0.1,0.2
			c-0.1,0.1-0.3,0.1-0.4,0c-0.2-0.3-0.6-0.4-0.9-0.5c-0.4,0-0.7,0.1-1,0.3c-0.1,0.1-0.3,0.1-0.4,0c0-0.1-0.1-0.1-0.1-0.2
			c0-0.1,0-0.2,0.1-0.2c0.3-0.2,0.4-0.6,0.5-0.9c0-0.4-0.1-0.7-0.3-1c0-0.1-0.1-0.1-0.1-0.2c0-0.1,0-0.2,0.1-0.2
			c0.1,0,0.1-0.1,0.2-0.1C1109.5,176.9,1109.6,176.9,1109.6,177z M1110.9,178.9c0-0.3,0-0.6,0.1-0.9c-0.3,0-0.6,0-0.9-0.1
			c0,0.3,0,0.6-0.1,0.9C1110.3,178.8,1110.6,178.8,1110.9,178.9z"/>
	</g>
	<g>
		<circle class="st19" cx="1087.7" cy="222.8" r="1.5"/>
	</g>
	<g>
		<circle class="st19" cx="1075.9" cy="236.4" r="2.1"/>
	</g>
	<g>
		<g>
			<circle class="st19" cx="1098.7" cy="231.6" r="1.7"/>
		</g>
		<g>
			<path class="st19" d="M1098,229.3C1097.9,229.3,1097.9,229.3,1098,229.3c-0.2,0.1-0.3,0.2-0.2,0.3l1.4,3.9c0,0.1,0.2,0.2,0.3,0.1
				c0.1,0,0.2-0.2,0.1-0.3l-1.4-3.9C1098.2,229.4,1098.1,229.3,1098,229.3z"/>
		</g>
	</g>
	<g>
		<g>
			<circle class="st19" cx="1185.4" cy="34" r="2.8"/>
		</g>
		<g>
			<g>
				
					<rect x="1185.2" y="21.2" transform="matrix(0.9968 -7.974523e-02 7.974523e-02 0.9968 1.0475 94.637)" class="st19" width="0.4" height="26.1"/>
			</g>
			<g>
				
					<rect x="1172.3" y="34" transform="matrix(0.9968 -7.981062e-02 7.981062e-02 0.9968 1.0515 94.7147)" class="st19" width="26.1" height="0.4"/>
			</g>
		</g>
		<g>
			<g>
				
					<rect x="1185.2" y="21.8" transform="matrix(0.7893 -0.6141 0.6141 0.7893 228.7967 735.0898)" class="st19" width="0.3" height="24.8"/>
			</g>
			<g>
				
					<rect x="1173" y="34" transform="matrix(0.7894 -0.6138 0.6138 0.7894 228.6001 734.8215)" class="st19" width="24.8" height="0.3"/>
			</g>
		</g>
		<g>
			<g>
				
					<rect x="1185.2" y="21.8" transform="matrix(0.1236 -0.9923 0.9923 0.1236 1004.8755 1206.2549)" class="st19" width="0.3" height="24.8"/>
			</g>
			<g>
				<polygon class="st19" points="1186.7,21.9 1183.7,46.5 1184,46.6 1187.1,21.9 				"/>
			</g>
		</g>
		<g>
			<g>
				
					<rect x="1185.2" y="22.1" transform="matrix(0.9629 -0.2699 0.2699 0.9629 34.7702 321.2442)" class="st19" width="0.3" height="24.2"/>
			</g>
			<g>
				
					<rect x="1173.3" y="34" transform="matrix(0.9631 -0.269 0.269 0.9631 34.4934 320.1323)" class="st19" width="24.2" height="0.3"/>
			</g>
		</g>
		<g>
			<g>
				
					<rect x="1185.2" y="22.1" transform="matrix(0.4915 -0.8709 0.8709 0.4915 572.9606 1049.6998)" class="st19" width="0.3" height="24.2"/>
			</g>
			<g>
				
					<rect x="1173.3" y="34" transform="matrix(0.4908 -0.8713 0.8713 0.4908 573.7704 1050.1874)" class="st19" width="24.2" height="0.3"/>
			</g>
		</g>
		<g>
			<g>
				
					<rect x="1185.2" y="21.2" transform="matrix(0.6489 -0.7609 0.7609 0.6489 390.1675 913.9358)" class="st19" width="0.4" height="26.1"/>
			</g>
			<g>
				
					<rect x="1172.3" y="34" transform="matrix(0.6484 -0.7613 0.7613 0.6484 390.7184 914.4335)" class="st19" width="26.1" height="0.4"/>
			</g>
		</g>
		<g>
			<g>
				
					<rect x="1185.2" y="24.9" transform="matrix(0.3085 -0.9512 0.9512 0.3085 787.147 1151.2075)" class="st19" width="0.3" height="18.6"/>
			</g>
			<g>
				
					<rect x="1176.1" y="34.1" transform="matrix(0.309 -0.9511 0.9511 0.309 786.5854 1151.0074)" class="st19" width="18.6" height="0.3"/>
			</g>
		</g>
		<g>
			<g>
				
					<rect x="1176.1" y="34.1" transform="matrix(0.891 -0.454 0.454 0.891 113.691 541.9211)" class="st19" width="18.6" height="0.3"/>
			</g>
			<g>
				
					<rect x="1185.2" y="24.9" transform="matrix(0.891 -0.4541 0.4541 0.891 113.7065 541.9537)" class="st19" width="0.3" height="18.6"/>
			</g>
		</g>
	</g>
	<g>
		<g>
			<circle class="st19" cx="771.5" cy="137.2" r="1.8"/>
		</g>
		<g>
			<g>
				<polygon class="st19" points="771,129 770.7,129.1 772,145.6 772.3,145.6 				"/>
			</g>
			<g>
				
					<rect x="763.2" y="137.2" transform="matrix(0.9968 -7.981595e-02 7.981595e-02 0.9968 -8.4991 62.016)" class="st19" width="16.6" height="0.2"/>
			</g>
		</g>
		<g>
			<g>
				<polygon class="st19" points="766.7,131 766.6,131.1 776.3,143.6 776.4,143.5 				"/>
			</g>
			<g>
				
					<rect x="763.6" y="137.2" transform="matrix(0.7894 -0.6138 0.6138 0.7894 78.1513 502.4749)" class="st19" width="15.8" height="0.2"/>
			</g>
		</g>
		<g>
			<g>
				
					<rect x="771.4" y="129.4" transform="matrix(0.124 -0.9923 0.9923 0.124 539.5452 885.83)" class="st19" width="0.2" height="15.8"/>
			</g>
			<g>
				<polygon class="st19" points="772.4,129.5 770.4,145.2 770.6,145.2 772.6,129.5 				"/>
			</g>
		</g>
		<g>
			<g>
				
					<rect x="771.4" y="129.6" transform="matrix(0.9631 -0.2692 0.2692 0.9631 -8.4829 212.7939)" class="st19" width="0.2" height="15.4"/>
			</g>
			<g>
				
					<rect x="763.8" y="137.2" transform="matrix(0.9631 -0.269 0.269 0.9631 -8.5035 212.5802)" class="st19" width="15.4" height="0.2"/>
			</g>
		</g>
		<g>
			<g>
				<polygon class="st19" points="764.8,133.4 764.7,133.6 778.2,141.2 778.3,141 				"/>
			</g>
			<g>
				
					<rect x="763.8" y="137.2" transform="matrix(0.4908 -0.8713 0.8713 0.4908 273.1833 742.0934)" class="st19" width="15.4" height="0.2"/>
			</g>
		</g>
		<g>
			<g>
				
					<rect x="771.4" y="129" transform="matrix(0.6482 -0.7615 0.7615 0.6482 166.842 635.7766)" class="st19" width="0.2" height="16.6"/>
			</g>
			<g>
				<polygon class="st19" points="776.8,130.9 766,143.6 766.2,143.7 777,131.1 				"/>
			</g>
		</g>
		<g>
			<g>
				<polygon class="st19" points="765.9,135.4 765.8,135.6 777.1,139.2 777.2,139.1 				"/>
			</g>
			<g>
				<polygon class="st19" points="773.3,131.7 769.6,142.9 769.7,143 773.4,131.7 				"/>
			</g>
		</g>
		<g>
			<g>
				<polygon class="st19" points="776.7,134.6 766.2,139.9 766.3,140.1 776.8,134.7 				"/>
			</g>
			<g>
				<polygon class="st19" points="768.9,132 768.7,132.1 774.1,142.6 774.3,142.6 				"/>
			</g>
		</g>
	</g>
	<g>
		<g>
			<circle class="st19" cx="852" cy="80.6" r="3.2"/>
		</g>
	</g>
	<g>
		<path class="st19" d="M848.1,70.3c0.1,0.3,0.4,0.6,0.7,0.7c0.3,0.1,0.7,0.1,1,0c0.1-0.1,0.3,0,0.4,0.1c0,0,0,0.1,0,0.1
			c0,0.1-0.1,0.2-0.2,0.3c-0.7,0.3-1,1.1-0.7,1.8c0,0,0,0.1,0,0.1c0,0.1-0.1,0.2-0.2,0.3c-0.1,0.1-0.3,0-0.4-0.1
			c-0.3-0.7-1.1-1-1.8-0.7c-0.1,0.1-0.3,0-0.4-0.1c0,0,0-0.1,0-0.1c0-0.1,0.1-0.2,0.2-0.3c0.3-0.1,0.6-0.4,0.7-0.7
			c0.1-0.3,0.1-0.7,0-1c0,0,0-0.1,0-0.1c0-0.1,0.1-0.2,0.2-0.3c0,0,0.1,0,0.1,0C848,70.1,848.1,70.2,848.1,70.3z M848.7,72.4
			c0-0.3,0.1-0.6,0.3-0.8c-0.3,0-0.6-0.1-0.8-0.3c0,0.1-0.1,0.3-0.1,0.4c-0.1,0.1-0.1,0.3-0.2,0.4C848.2,72.2,848.5,72.3,848.7,72.4
			z"/>
	</g>
	<g>
		<circle class="st19" cx="889.3" cy="43.6" r="1.5"/>
	</g>
	<g>
		<circle class="st19" cx="894.6" cy="56" r="1.7"/>
	</g>
	<g>
		<circle class="st19" cx="882.4" cy="59.1" r="2.1"/>
	</g>
	<g>
		<path class="st19" d="M893,54.4c-0.1,0-0.1,0-0.2,0.1c-0.1,0.1-0.1,0.3,0,0.4l3.3,2.6c0.1,0.1,0.3,0.1,0.4,0
			c0.1-0.1,0.1-0.3,0-0.4l-3.3-2.6C893.1,54.4,893,54.4,893,54.4z"/>
	</g>
	<g>
		<g>
			<circle class="st19" cx="1054.6" cy="120.2" r="3.2"/>
		</g>
	</g>
	<g>
		<path class="st19" d="M1041,95.5c0.1,0,0.2,0.1,0.2,0.3c0,0,0,0,0,0.1c-0.1,0.3,0,0.7,0.2,1c0.2,0.3,0.5,0.5,0.9,0.6
			c0.1,0,0.2,0.1,0.2,0.3c0,0,0,0,0,0.1c0,0.2-0.2,0.3-0.3,0.2c-0.3-0.1-0.7,0-1,0.2c-0.3,0.2-0.5,0.5-0.6,0.9
			c0,0.2-0.2,0.3-0.3,0.2c-0.1,0-0.2-0.1-0.2-0.3c0,0,0,0,0-0.1c0.1-0.7-0.3-1.4-1.1-1.5c-0.1,0-0.2-0.1-0.2-0.3c0,0,0,0,0-0.1
			c0-0.2,0.2-0.3,0.3-0.2c0.7,0.1,1.4-0.3,1.5-1.1C1040.7,95.6,1040.8,95.5,1041,95.5C1041,95.5,1041,95.5,1041,95.5z M1040.6,98
			c0.1-0.1,0.2-0.2,0.3-0.3c0.1-0.1,0.2-0.2,0.4-0.2c-0.1-0.1-0.2-0.2-0.3-0.3c-0.1-0.1-0.2-0.3-0.2-0.4c-0.2,0.2-0.4,0.4-0.7,0.5
			C1040.3,97.5,1040.5,97.7,1040.6,98z"/>
	</g>
	<g>
		<circle class="st19" cx="1066.3" cy="66.6" r="1.5"/>
	</g>
	<g>
		<circle class="st19" cx="1103.5" cy="106.4" r="2.1"/>
	</g>
	<g>
		<g>
			<circle class="st19" cx="1067.2" cy="33.2" r="1.7"/>
		</g>
		<g>
			<path class="st19" d="M1069.2,32.4C1069.2,32.4,1069.2,32.4,1069.2,32.4l-4.1,1.2c-0.1,0-0.2,0.2-0.2,0.3c0,0.1,0.2,0.2,0.3,0.2
				l4-1.2c0.1,0,0.2-0.2,0.2-0.3C1069.4,32.5,1069.3,32.4,1069.2,32.4z"/>
		</g>
	</g>
	<g>
		<g>
			
				<ellipse transform="matrix(0.4906 -0.8714 0.8714 0.4906 239.8013 680.1708)" class="st19" cx="701.7" cy="135" rx="2.7" ry="4.1"/>
		</g>
	</g>
	<g>
		<path class="st19" d="M695.9,125.7c0.2,0.3,0.5,0.5,0.9,0.5c0.4,0.1,0.7,0,1-0.2c0.1-0.1,0.3-0.1,0.4,0.1c0,0,0.1,0.1,0.1,0.2
			c0,0.1,0,0.2-0.1,0.2c-0.6,0.4-0.7,1.2-0.3,1.8c0,0,0.1,0.1,0.1,0.2c0,0.1,0,0.2-0.1,0.2c-0.1,0.1-0.3,0.1-0.4-0.1
			c-0.4-0.6-1.2-0.7-1.8-0.3c-0.1,0.1-0.3,0.1-0.4-0.1c0,0-0.1-0.1-0.1-0.2c0-0.1,0-0.2,0.1-0.2c0.3-0.2,0.5-0.5,0.5-0.9
			c0.1-0.3,0-0.7-0.2-1c0,0-0.1-0.1-0.1-0.2c0-0.1,0-0.2,0.1-0.2c0,0,0.1-0.1,0.2-0.1C695.8,125.5,695.9,125.6,695.9,125.7z
			 M697,127.6c0-0.3,0-0.6,0.2-0.9c-0.1,0-0.3,0-0.4,0c-0.1,0-0.3-0.1-0.4-0.1c0,0.1,0,0.3,0,0.4c0,0.1-0.1,0.3-0.1,0.4
			C696.4,127.5,696.7,127.5,697,127.6z"/>
	</g>
	<g>
		<circle class="st19" cx="731.2" cy="91.6" r="1.5"/>
	</g>
	<g>
		<circle class="st19" cx="738.8" cy="102.7" r="1.7"/>
	</g>
	<g>
		<path class="st19" d="M737,101.4c-0.1,0-0.2,0-0.2,0.1c-0.1,0.1,0,0.3,0.1,0.3l3.7,2c0.1,0.1,0.3,0,0.3-0.1c0.1-0.1,0-0.3-0.1-0.3
			l-3.7-2C737,101.4,737,101.4,737,101.4z"/>
	</g>
	<g>
		<g>
			<circle class="st19" cx="947.3" cy="127.4" r="3.2"/>
		</g>
	</g>
	<g>
		<path class="st19" d="M902.4,106.6c0,0.4,0.1,0.7,0.4,0.9c0.3,0.2,0.6,0.4,0.9,0.4c0.2,0,0.3,0.1,0.3,0.3c0,0,0,0,0,0
			c0,0.2-0.1,0.3-0.3,0.3c-0.7,0-1.3,0.6-1.3,1.3c0,0,0,0,0,0c0,0.2-0.1,0.3-0.3,0.3c0,0,0,0,0,0c-0.2,0-0.3-0.1-0.3-0.3
			c0-0.4-0.1-0.7-0.4-0.9c-0.3-0.2-0.6-0.4-0.9-0.4c-0.2,0-0.3-0.1-0.3-0.3c0,0,0,0,0,0c0-0.2,0.1-0.3,0.3-0.3
			c0.7,0,1.3-0.6,1.3-1.3c0,0,0,0,0,0c0-0.2,0.1-0.3,0.3-0.3c0,0,0,0,0,0C902.3,106.3,902.4,106.4,902.4,106.6z M901.9,108.5
			c0.1,0.1,0.2,0.2,0.3,0.3c0.2-0.3,0.4-0.5,0.6-0.6c-0.1-0.1-0.2-0.2-0.3-0.3c-0.1-0.1-0.2-0.2-0.3-0.3c-0.2,0.2-0.4,0.5-0.6,0.6
			C901.7,108.3,901.8,108.3,901.9,108.5z"/>
	</g>
	<g>
		<circle class="st19" cx="1293.2" cy="20.7" r="1.5"/>
	</g>
	<g>
		<circle class="st19" cx="1298.5" cy="33" r="1.7"/>
	</g>
	<g>
		<circle class="st19" cx="1286.3" cy="36.1" r="2.1"/>
	</g>
	<g>
		<path class="st19" d="M1306.3,83.6c0,0.7,0.6,1.3,1.3,1.3c0,0,0,0,0,0c0.2,0,0.3,0.1,0.3,0.3c0,0,0,0,0,0c0,0.2-0.1,0.3-0.3,0.3
			c-0.7,0-1.3,0.6-1.3,1.3c0,0,0,0,0,0c0,0.2-0.1,0.3-0.3,0.3c-0.2,0-0.3-0.1-0.3-0.3c0-0.7-0.6-1.3-1.3-1.3c0,0,0,0,0,0
			c-0.2,0-0.3-0.1-0.3-0.3c0,0,0,0,0,0c0-0.2,0.1-0.3,0.3-0.3c0.7,0,1.3-0.6,1.3-1.3c0,0,0,0,0,0c0-0.2,0.1-0.3,0.3-0.3c0,0,0,0,0,0
			C1306.2,83.3,1306.3,83.5,1306.3,83.6z M1305.8,85.5c0.1,0.1,0.2,0.2,0.3,0.3c0.2-0.3,0.4-0.5,0.6-0.6c-0.1-0.1-0.2-0.2-0.3-0.3
			c-0.1-0.1-0.2-0.2-0.3-0.3c-0.1,0.1-0.2,0.2-0.3,0.3c-0.1,0.1-0.2,0.2-0.3,0.3C1305.6,85.3,1305.7,85.4,1305.8,85.5z"/>
	</g>
	<g>
		<circle class="st19" cx="948.1" cy="88.7" r="1.5"/>
	</g>
	<g>
		<circle class="st19" cx="965.9" cy="85.9" r="2.1"/>
	</g>
	<g>
		<g>
			<circle class="st19" cx="945.3" cy="75" r="1.7"/>
		</g>
		<g>
			<path class="st19" d="M946,72.7c-0.1,0-0.2,0.1-0.2,0.2l-1.4,3.9c0,0.1,0,0.3,0.2,0.3c0.1,0,0.3,0,0.3-0.1l1.4-3.9
				C946.3,72.9,946.2,72.8,946,72.7C946.1,72.7,946,72.7,946,72.7z"/>
		</g>
	</g>
	<g>
		<path class="st19" d="M1272.2,290c0.1,0,0.2,0.2,0.2,0.3c0,0,0,0.1,0,0.1c-0.1,0.3-0.1,0.7,0.1,1c0.2,0.3,0.4,0.6,0.8,0.7
			c0.1,0,0.2,0.2,0.2,0.3c0,0,0,0.1,0,0.1c0,0.1-0.2,0.2-0.4,0.2c-0.7-0.2-1.4,0.2-1.7,0.9c0,0.1-0.2,0.2-0.4,0.2
			c-0.1,0-0.2-0.2-0.2-0.3c0,0,0-0.1,0-0.1c0.1-0.3,0.1-0.7-0.1-1c-0.2-0.3-0.4-0.6-0.8-0.7c-0.1,0-0.2-0.2-0.2-0.3c0,0,0-0.1,0-0.1
			c0-0.1,0.2-0.2,0.4-0.2c0.7,0.2,1.4-0.2,1.7-0.9C1271.9,290.1,1272,290,1272.2,290C1272.1,290,1272.2,290,1272.2,290z M1271.3,292
			c0.1,0.1,0.1,0.3,0.2,0.4c0.2-0.2,0.5-0.3,0.8-0.4c-0.1-0.1-0.2-0.2-0.2-0.4c-0.1-0.1-0.1-0.3-0.2-0.4c-0.2,0.2-0.5,0.3-0.8,0.4
			C1271.1,291.7,1271.2,291.9,1271.3,292z"/>
	</g>
	<g>
		<g>
			<circle class="st19" cx="1228" cy="62.4" r="4.6"/>
		</g>
	</g>
	<g>
		<path class="st19" d="M1214,99.6c0.6,0.8,1.9,1,2.7,0.3c0.2-0.1,0.4-0.1,0.6,0.1c0.1,0.1,0.1,0.2,0.1,0.3c0,0.1-0.1,0.2-0.2,0.3
			c-0.4,0.3-0.7,0.8-0.7,1.3c-0.1,0.5,0.1,1,0.4,1.4c0.1,0.1,0.1,0.2,0.1,0.3c0,0.1-0.1,0.2-0.2,0.3c-0.2,0.1-0.4,0.1-0.6-0.1
			c-0.6-0.8-1.9-1-2.7-0.3c-0.2,0.1-0.4,0.1-0.6-0.1c-0.1-0.1-0.1-0.2-0.1-0.3c0-0.1,0.1-0.2,0.2-0.3c0.4-0.3,0.7-0.8,0.7-1.3
			c0.1-0.5-0.1-1-0.4-1.4c-0.1-0.1-0.1-0.2-0.1-0.3c0-0.1,0.1-0.2,0.2-0.3c0.1-0.1,0.2-0.1,0.3-0.1
			C1213.8,99.5,1213.9,99.5,1214,99.6z M1215.7,102.4c0-0.2,0-0.4,0-0.6c0-0.2,0.1-0.4,0.1-0.6c-0.4,0-0.8,0-1.2-0.2
			c0,0.2,0,0.4,0,0.6c0,0.2-0.1,0.4-0.1,0.6C1214.8,102.2,1215.3,102.3,1215.7,102.4z"/>
	</g>
	<g>
		<circle class="st19" cx="1259.6" cy="123.4" r="2.1"/>
	</g>
	<g>
		<circle class="st19" cx="1226.4" cy="94.7" r="3"/>
	</g>
	<g>
		<g>
			<circle class="st19" cx="1208.2" cy="122.9" r="2.5"/>
		</g>
		<g>
			<path class="st19" d="M1205.4,121.3c-0.1,0-0.3,0.1-0.3,0.2c-0.1,0.2,0,0.4,0.2,0.5l5.5,2.5c0.2,0.1,0.4,0,0.5-0.2
				c0.1-0.2,0-0.4-0.2-0.5l-5.5-2.5C1205.5,121.3,1205.5,121.3,1205.4,121.3z"/>
		</g>
	</g>
	<g>
		<g>
			<circle class="st19" cx="1234.9" cy="184.6" r="3.2"/>
		</g>
	</g>
	<g>
		<path class="st19" d="M1257,227.6c0.1,0.1,0.1,0.1,0.1,0.2c0,0.1,0,0.1-0.1,0.2c-0.5,0.6-0.4,1.4,0.1,1.9c0.1,0.1,0.1,0.1,0.1,0.2
			c0,0.1,0,0.1-0.1,0.2c-0.1,0.1-0.3,0.1-0.4,0c-0.3-0.2-0.6-0.4-1-0.3c-0.4,0-0.7,0.2-0.9,0.5c-0.1,0.1-0.3,0.1-0.4,0
			c-0.1-0.1-0.1-0.1-0.1-0.2c0-0.1,0-0.1,0.1-0.2c0.5-0.6,0.4-1.4-0.1-1.9c-0.1-0.1-0.1-0.1-0.1-0.2c0-0.1,0-0.1,0.1-0.2
			c0.1-0.1,0.3-0.1,0.4,0c0.6,0.5,1.4,0.4,1.9-0.1c0.1-0.1,0.1-0.1,0.2-0.1C1256.9,227.5,1257,227.5,1257,227.6z M1255.3,228.6
			c0.1,0.3,0.1,0.6,0.1,0.9c0.1,0,0.3-0.1,0.4-0.1c0.1,0,0.3,0,0.4,0c0-0.1-0.1-0.3-0.1-0.4c0-0.1,0-0.3,0-0.4
			c-0.2,0.1-0.4,0.1-0.6,0.1C1255.5,228.6,1255.4,228.6,1255.3,228.6z"/>
	</g>
	<g>
		<circle class="st19" cx="1220" cy="230" r="1.5"/>
	</g>
	<g>
		<circle class="st19" cx="1193.4" cy="203.2" r="2.1"/>
	</g>
	<g>
		<g>
			<circle class="st19" cx="1212.9" cy="242.2" r="1.7"/>
		</g>
		<g>
			<path class="st19" d="M1214.7,240.9c0,0-0.1,0-0.1,0l-3.7,2c-0.1,0.1-0.2,0.2-0.1,0.3c0.1,0.1,0.2,0.2,0.3,0.1l3.7-2
				c0.1-0.1,0.2-0.2,0.1-0.3C1214.9,241,1214.8,240.9,1214.7,240.9z"/>
		</g>
	</g>
	<g>
		<g>
			<circle class="st19" cx="750.8" cy="326.5" r="2.8"/>
		</g>
		<g>
			<g>
				<polygon class="st19" points="759.8,316.8 741.8,335.7 742.1,335.9 760,317 				"/>
			</g>
			<g>
				
					<rect x="750.8" y="313.3" transform="matrix(0.6877 -0.726 0.726 0.6877 -2.3973 647.0883)" class="st19" width="0.4" height="26.1"/>
			</g>
		</g>
		<g>
			<g>
				
					<rect x="738.5" y="326.2" transform="matrix(0.1768 -0.9842 0.9842 0.1768 296.9538 1007.7249)" class="st19" width="24.8" height="0.3"/>
			</g>
			<g>
				
					<rect x="750.8" y="313.9" transform="matrix(0.1769 -0.9842 0.9842 0.1769 296.911 1007.6959)" class="st19" width="0.3" height="24.8"/>
			</g>
		</g>
		<g>
			<g>
				
					<rect x="750.8" y="313.9" transform="matrix(0.8205 -0.5716 0.5716 0.8205 -51.7556 487.8303)" class="st19" width="0.3" height="24.8"/>
			</g>
			<g>
				
					<rect x="738.5" y="326.2" transform="matrix(0.821 -0.5709 0.5709 0.821 -51.8964 487.1292)" class="st19" width="24.8" height="0.3"/>
			</g>
		</g>
		<g>
			<g>
				
					<rect x="738.8" y="326.2" transform="matrix(0.5365 -0.8439 0.8439 0.5365 72.6614 784.959)" class="st19" width="24.2" height="0.3"/>
			</g>
			<g>
				
					<rect x="750.8" y="314.2" transform="matrix(0.5371 -0.8435 0.8435 0.5371 72.3498 784.4978)" class="st19" width="0.3" height="24.2"/>
			</g>
		</g>
		<g>
			<g>
				
					<rect x="750.8" y="314.2" transform="matrix(0.9761 -0.2173 0.2173 0.9761 -52.9645 170.9593)" class="st19" width="0.3" height="24.2"/>
			</g>
			<g>
				
					<rect x="738.8" y="326.2" transform="matrix(0.9761 -0.2174 0.2174 0.9761 -52.9767 171.0227)" class="st19" width="24.2" height="0.3"/>
			</g>
		</g>
		<g>
			<g>
				
					<rect x="750.8" y="313.3" transform="matrix(0.9996 -2.759685e-02 2.759685e-02 0.9996 -8.7197 20.8478)" class="st19" width="0.4" height="26.1"/>
			</g>
			<g>
				
					<rect x="737.9" y="326.1" transform="matrix(0.9996 -2.662502e-02 2.662502e-02 0.9996 -8.4223 20.1094)" class="st19" width="26.1" height="0.4"/>
			</g>
		</g>
		<g>
			<g>
				<polygon class="st19" points="747.3,317.8 747,317.9 754.6,334.9 754.8,334.8 				"/>
			</g>
			<g>
				
					<rect x="741.6" y="326.2" transform="matrix(0.9139 -0.4059 0.4059 0.9139 -67.8146 332.9319)" class="st19" width="18.6" height="0.3"/>
			</g>
		</g>
		<g>
			<g>
				
					<rect x="750.8" y="317" transform="matrix(0.3596 -0.9331 0.9331 0.3596 176.4296 909.7166)" class="st19" width="0.3" height="18.6"/>
			</g>
			<g>
				<polygon class="st19" points="754.2,317.6 747.5,335 747.7,335.1 754.4,317.7 				"/>
			</g>
		</g>
	</g>
	<g>
		<g>
			<circle class="st19" cx="1132.7" cy="290.8" r="1.8"/>
		</g>
		<g>
			<g>
				<polygon class="st19" points="1138.4,284.6 1127,296.6 1127.2,296.8 1138.6,284.8 				"/>
			</g>
			<g>
				
					<rect x="1132.7" y="282.4" transform="matrix(0.6876 -0.7261 0.7261 0.6876 142.8103 913.3291)" class="st19" width="0.2" height="16.6"/>
			</g>
		</g>
		<g>
			<g>
				
					<rect x="1124.9" y="290.6" transform="matrix(0.1768 -0.9842 0.9842 0.1768 646.3914 1354.2671)" class="st19" width="15.8" height="0.2"/>
			</g>
			<g>
				
					<rect x="1132.7" y="282.8" transform="matrix(0.1767 -0.9843 0.9843 0.1767 646.5659 1354.3468)" class="st19" width="0.2" height="15.8"/>
			</g>
		</g>
		<g>
			<g>
				
					<rect x="1132.7" y="282.8" transform="matrix(0.821 -0.5709 0.5709 0.821 36.801 698.7792)" class="st19" width="0.2" height="15.8"/>
			</g>
			<g>
				<polygon class="st19" points="1139.2,286.1 1126.3,295.1 1126.4,295.3 1139.4,286.3 				"/>
			</g>
		</g>
		<g>
			<g>
				<polygon class="st19" points="1136.9,284.1 1128.6,297.2 1128.8,297.3 1137.1,284.2 				"/>
			</g>
			<g>
				
					<rect x="1132.7" y="283" transform="matrix(0.536 -0.8442 0.8442 0.536 280.1805 1091.1949)" class="st19" width="0.2" height="15.4"/>
			</g>
		</g>
		<g>
			<g>
				
					<rect x="1132.7" y="283" transform="matrix(0.9761 -0.2175 0.2175 0.9761 -36.1068 253.3224)" class="st19" width="0.2" height="15.4"/>
			</g>
			<g>
				
					<rect x="1125.1" y="290.6" transform="matrix(0.9761 -0.2173 0.2173 0.9761 -36.1012 253.1464)" class="st19" width="15.4" height="0.2"/>
			</g>
		</g>
		<g>
			<g>
				<polygon class="st19" points="1132.7,282.4 1132.5,282.4 1132.9,299 1133.2,299 				"/>
			</g>
			<g>
				
					<rect x="1124.5" y="290.6" transform="matrix(0.9996 -2.659411e-02 2.659411e-02 0.9996 -7.3302 30.2292)" class="st19" width="16.6" height="0.2"/>
			</g>
		</g>
		<g>
			<g>
				<polygon class="st19" points="1130.5,285.2 1130.3,285.3 1135.2,296.2 1135.3,296.1 				"/>
			</g>
			<g>
				
					<rect x="1126.9" y="290.6" transform="matrix(0.9139 -0.406 0.406 0.9139 -20.4631 484.9283)" class="st19" width="11.9" height="0.2"/>
			</g>
		</g>
		<g>
			<g>
				
					<rect x="1132.7" y="284.8" transform="matrix(0.3592 -0.9333 0.9333 0.3592 454.6101 1243.4948)" class="st19" width="0.2" height="11.9"/>
			</g>
			<g>
				<polygon class="st19" points="1134.9,285.1 1130.6,296.2 1130.8,296.3 1135,285.2 				"/>
			</g>
		</g>
	</g>
	<g>
		<g>
			<circle class="st19" cx="1165.9" cy="270.9" r="1.7"/>
		</g>
		<g>
			<path class="st19" d="M1167.1,268.9c-0.1,0-0.2,0-0.2,0.1l-2.4,3.4c-0.1,0.1-0.1,0.3,0.1,0.3c0.1,0.1,0.3,0.1,0.3-0.1l2.4-3.4
				c0.1-0.1,0.1-0.3-0.1-0.3C1167.2,269,1167.2,268.9,1167.1,268.9z"/>
		</g>
	</g>
	<g>
		<circle class="st19" cx="1127.9" cy="331.3" r="1.5"/>
	</g>
	<g>
		<circle class="st19" cx="1131.1" cy="318.2" r="1.7"/>
	</g>
	<g>
		<circle class="st19" cx="1142.7" cy="323.1" r="2.1"/>
	</g>
	<g>
		<path class="st19" d="M1130.6,316C1130.6,316,1130.5,316,1130.6,316c-0.2,0-0.3,0.2-0.2,0.3l1,4.1c0,0.1,0.2,0.2,0.3,0.2
			c0.1,0,0.2-0.2,0.2-0.3l-1-4.1C1130.8,316,1130.7,316,1130.6,316z"/>
	</g>
	<g>
		<g>
			<circle class="st19" cx="692.7" cy="295.7" r="4.6"/>
		</g>
	</g>
	<g>
		<path class="st19" d="M731,276.3c0.2,0,0.3,0.2,0.3,0.4c0,0,0,0,0,0.1c-0.2,1,0.5,2,1.5,2.2c0.2,0,0.3,0.2,0.3,0.4c0,0,0,0,0,0.1
			c0,0.2-0.3,0.4-0.5,0.3c-0.5-0.1-1,0-1.4,0.3c-0.4,0.3-0.7,0.7-0.8,1.2c0,0.2-0.3,0.4-0.5,0.3c-0.2,0-0.3-0.2-0.3-0.4
			c0,0,0,0,0-0.1c0.2-1-0.5-2-1.5-2.2c-0.2,0-0.3-0.2-0.3-0.4c0,0,0,0,0-0.1c0-0.2,0.3-0.4,0.5-0.3c0.5,0.1,1,0,1.4-0.3
			c0.4-0.3,0.7-0.7,0.8-1.2C730.6,276.4,730.7,276.3,731,276.3C731,276.3,731,276.3,731,276.3z M730.4,279.8c0.3-0.3,0.6-0.6,1-0.7
			c-0.3-0.3-0.6-0.6-0.7-1c-0.3,0.3-0.6,0.6-1,0.7C730,279.1,730.2,279.4,730.4,279.8z"/>
	</g>
	<g>
		<circle class="st19" cx="717" cy="231.3" r="2.1"/>
	</g>
	<g>
		<circle class="st19" cx="717.8" cy="275.2" r="3"/>
	</g>
	<g>
		<g>
			<circle class="st19" cx="750.9" cy="270" r="2.5"/>
		</g>
		<g>
			<path class="st19" d="M750,266.7c0,0-0.1,0-0.1,0c-0.2,0.1-0.3,0.3-0.2,0.4l1.8,5.8c0.1,0.2,0.3,0.3,0.4,0.2
				c0.2-0.1,0.3-0.3,0.2-0.4l-1.8-5.8C750.3,266.8,750.2,266.7,750,266.7z"/>
		</g>
	</g>
	<g>
		<g>
			<circle class="st19" cx="779" cy="208.8" r="3.2"/>
		</g>
	</g>
	<g>
		<path class="st19" d="M798.3,162c0,0.4,0.1,0.7,0.4,0.9c0.2,0.2,0.6,0.4,0.9,0.4c0,0,0,0,0,0c0.2,0,0.3,0.1,0.3,0.3c0,0,0,0,0,0
			c0,0.2-0.1,0.3-0.3,0.3c-0.7,0-1.3,0.6-1.3,1.3c0,0,0,0,0,0c0,0.2-0.1,0.3-0.3,0.3c0,0,0,0,0,0c-0.2,0-0.3-0.1-0.3-0.3
			c0-0.4-0.1-0.7-0.4-0.9c-0.2-0.2-0.6-0.4-0.9-0.4c0,0,0,0,0,0c-0.2,0-0.3-0.1-0.3-0.3c0,0,0,0,0,0c0-0.2,0.1-0.3,0.3-0.3
			c0.7,0,1.3-0.6,1.3-1.3c0,0,0,0,0,0c0-0.2,0.1-0.3,0.3-0.3c0,0,0,0,0,0C798.2,161.7,798.3,161.9,798.3,162z M797.8,163.9
			c0.1,0.1,0.2,0.2,0.3,0.3c0.2-0.3,0.4-0.5,0.6-0.6c-0.1-0.1-0.2-0.2-0.3-0.3c-0.1-0.1-0.2-0.2-0.3-0.3c-0.2,0.3-0.4,0.5-0.6,0.6
			C797.6,163.7,797.7,163.8,797.8,163.9z"/>
	</g>
	<g>
		<circle class="st19" cx="817.6" cy="209.5" r="1.5"/>
	</g>
	<g>
		<circle class="st19" cx="820.5" cy="227.3" r="2.1"/>
	</g>
	<g>
		<g>
			<circle class="st19" cx="831.4" cy="206.7" r="1.7"/>
		</g>
		<g>
			<path class="st19" d="M829.4,205.7c-0.1,0-0.2,0.1-0.2,0.2c0,0.1,0,0.3,0.2,0.3l3.9,1.4c0.1,0,0.3,0,0.3-0.2c0-0.1,0-0.3-0.2-0.3
				L829.4,205.7C829.5,205.7,829.5,205.7,829.4,205.7z"/>
		</g>
	</g>
	<g>
		<g>
			<circle class="st19" cx="1028.4" cy="85.4" r="1.8"/>
		</g>
		<g>
			<g>
				
					<rect x="1020.1" y="85.3" transform="matrix(0.8752 -0.4838 0.4838 0.8752 87.0539 508.2156)" class="st19" width="16.6" height="0.2"/>
			</g>
			<g>
				<polygon class="st19" points="1024.4,78.1 1024.2,78.2 1032.3,92.7 1032.5,92.6 				"/>
			</g>
		</g>
		<g>
			<g>
				
					<rect x="1020.4" y="85.3" transform="matrix(0.466 -0.8848 0.8848 0.466 473.5753 955.4869)" class="st19" width="15.8" height="0.2"/>
			</g>
			<g>
				
					<rect x="1028.2" y="77.5" transform="matrix(0.4653 -0.8851 0.8851 0.4653 474.2273 955.9023)" class="st19" width="0.2" height="15.8"/>
			</g>
		</g>
		<g>
			<g>
				<polygon class="st19" points="1026.1,77.8 1025.9,77.9 1030.6,93 1030.8,92.9 				"/>
			</g>
			<g>
				
					<rect x="1020.4" y="85.3" transform="matrix(0.9551 -0.2961 0.2961 0.9551 20.8314 308.3619)" class="st19" width="15.8" height="0.2"/>
			</g>
		</g>
		<g>
			<g>
				
					<rect x="1020.6" y="85.3" transform="matrix(0.7664 -0.6423 0.6423 0.7664 185.3314 680.4939)" class="st19" width="15.4" height="0.2"/>
			</g>
			<g>
				
					<rect x="1028.2" y="77.7" transform="matrix(0.7665 -0.6422 0.6422 0.7665 185.245 680.3712)" class="st19" width="0.2" height="15.4"/>
			</g>
		</g>
		<g>
			<g>
				
					<rect x="1020.6" y="85.3" transform="matrix(8.775162e-02 -0.9961 0.9961 8.775162e-02 853.0291 1102.3051)" class="st19" width="15.4" height="0.2"/>
			</g>
			<g>
				
					<rect x="1028.2" y="77.7" transform="matrix(8.819663e-02 -0.9961 0.9961 8.819663e-02 852.5748 1102.2266)" class="st19" width="0.2" height="15.4"/>
			</g>
		</g>
		<g>
			<g>
				<polygon class="st19" points="1030.5,77.4 1025.9,93.4 1026.2,93.4 1030.8,77.5 				"/>
			</g>
			<g>
				
					<rect x="1028.2" y="77.1" transform="matrix(0.2763 -0.9611 0.9611 0.2763 662.123 1050.132)" class="st19" width="0.2" height="16.6"/>
			</g>
		</g>
		<g>
			<g>
				<polygon class="st19" points="1027.8,79.5 1027.6,79.5 1028.9,91.3 1029.1,91.3 				"/>
			</g>
			<g>
				
					<rect x="1022.4" y="85.3" transform="matrix(0.9938 -0.1108 0.1108 0.9938 -3.1322 114.4595)" class="st19" width="11.9" height="0.2"/>
			</g>
		</g>
		<g>
			<g>
				<polygon class="st19" points="1023.8,81.6 1023.7,81.8 1032.9,89.2 1033,89.1 				"/>
			</g>
			<g>
				<polygon class="st19" points="1032,80.7 1024.6,90 1024.7,90.1 1032.1,80.8 				"/>
			</g>
		</g>
	</g>
	<g>
		<g>
			<circle class="st19" cx="1113.3" cy="135.3" r="3.2"/>
		</g>
	</g>
	<g>
		<path class="st19" d="M1121,127.2c0.1,0.1,0.1,0.1,0.1,0.2c0,0.1,0,0.1-0.1,0.2c-0.2,0.3-0.4,0.6-0.3,1c0,0.4,0.2,0.7,0.4,0.9
			c0.1,0.1,0.1,0.1,0.1,0.2c0,0.1,0,0.1-0.1,0.2c-0.1,0.1-0.3,0.1-0.4,0c-0.5-0.5-1.4-0.4-1.9,0.1c-0.1,0.1-0.3,0.1-0.4,0
			c-0.1-0.1-0.1-0.1-0.1-0.2c0-0.1,0-0.1,0.1-0.2c0.5-0.5,0.4-1.4-0.1-1.9c-0.1-0.1-0.1-0.1-0.1-0.2c0-0.1,0-0.1,0.1-0.2
			c0.1-0.1,0.3-0.1,0.4,0c0.5,0.5,1.4,0.4,1.9-0.1c0.1-0.1,0.1-0.1,0.2-0.1C1120.9,127.1,1120.9,127.1,1121,127.2z M1119.3,128.2
			c0.1,0.3,0.1,0.6,0,0.9c0.3-0.1,0.6-0.1,0.9,0c-0.1-0.3-0.1-0.6,0-0.9c-0.2,0.1-0.4,0.1-0.5,0.1
			C1119.5,128.2,1119.4,128.2,1119.3,128.2z"/>
	</g>
	<g>
		<circle class="st19" cx="1162.3" cy="154.1" r="1.5"/>
	</g>
	<g>
		<circle class="st19" cx="1153.3" cy="164" r="1.7"/>
	</g>
	<g>
		<circle class="st19" cx="1145.4" cy="154.2" r="2.1"/>
	</g>
	<g>
		<circle class="st19" cx="641.5" cy="147.5" r="2.1"/>
	</g>
	<g>
		<g>
			<circle class="st19" cx="638.5" cy="177.8" r="3.2"/>
		</g>
	</g>
	<g>
		<path class="st19" d="M648.9,173.5c0,0.1,0,0.2,0,0.2c0,0.1-0.1,0.1-0.1,0.1c-0.3,0.1-0.6,0.4-0.7,0.7c-0.1,0.3-0.1,0.7,0,1
			c0,0.1,0,0.2,0,0.2c0,0.1-0.1,0.1-0.1,0.1c-0.1,0.1-0.3,0-0.4-0.1c-0.3-0.7-1.1-1-1.8-0.7c-0.1,0.1-0.3,0-0.4-0.1
			c0-0.1,0-0.2,0-0.2c0-0.1,0.1-0.1,0.1-0.1c0.7-0.3,1-1.1,0.7-1.8c0-0.1,0-0.2,0-0.2c0-0.1,0.1-0.1,0.1-0.1c0.1-0.1,0.3,0,0.4,0.1
			c0.3,0.7,1.1,1,1.8,0.7c0.1,0,0.2,0,0.2,0C648.8,173.4,648.8,173.5,648.9,173.5z M646.9,173.8c0,0.3-0.1,0.6-0.3,0.8
			c0.3,0,0.6,0.1,0.8,0.3c0-0.3,0.1-0.6,0.3-0.8c-0.2,0-0.4-0.1-0.5-0.2C647.1,173.9,647,173.8,646.9,173.8z"/>
	</g>
	<g>
		<circle class="st19" cx="675.4" cy="215.1" r="1.5"/>
	</g>
	<g>
		<circle class="st19" cx="663.1" cy="220.4" r="1.7"/>
	</g>
	<g>
		<circle class="st19" cx="659.9" cy="208.2" r="2.1"/>
	</g>
	<g>
		<g>
			<circle class="st19" cx="1267.1" cy="336.3" r="3.2"/>
		</g>
	</g>
	<g>
		<path class="st19" d="M1192.8,299.6c0.1,0.3,0.3,0.6,0.6,0.8c0.3,0.2,0.7,0.2,1,0.1c0.2,0,0.3,0.1,0.3,0.2c0,0,0,0,0,0.1
			c0,0.1-0.1,0.2-0.2,0.3c-0.7,0.2-1.1,0.9-1,1.6c0,0,0,0,0,0.1c0,0.1-0.1,0.2-0.2,0.3c-0.2,0-0.3-0.1-0.3-0.2
			c-0.1-0.3-0.3-0.6-0.6-0.8c-0.3-0.2-0.7-0.2-1-0.1c-0.2,0-0.3-0.1-0.3-0.2c0,0,0,0,0-0.1c0-0.1,0.1-0.2,0.2-0.3
			c0.7-0.2,1.1-0.9,1-1.6c0,0,0,0,0-0.1c0-0.1,0.1-0.2,0.2-0.3c0,0,0,0,0.1,0C1192.7,299.4,1192.8,299.4,1192.8,299.6z
			 M1192.7,301.5c0.1,0.1,0.2,0.2,0.3,0.3c0.1-0.3,0.2-0.5,0.4-0.7c-0.1,0-0.3-0.1-0.4-0.2c-0.1-0.1-0.2-0.2-0.3-0.3
			c-0.1,0.3-0.2,0.5-0.4,0.7C1192.5,301.4,1192.6,301.5,1192.7,301.5z"/>
	</g>
	<g>
		<circle class="st19" cx="1214.4" cy="324.8" r="1.5"/>
	</g>
	<g>
		<g>
			<circle class="st19" cx="1245.1" cy="311.9" r="1.7"/>
		</g>
		<g>
			<path class="st19" d="M1243.8,310c-0.1,0-0.1,0-0.2,0.1c-0.1,0.1-0.1,0.2,0,0.4l2.8,3.1c0.1,0.1,0.2,0.1,0.4,0
				c0.1-0.1,0.1-0.2,0-0.4l-2.8-3.1C1243.9,310.1,1243.8,310,1243.8,310z"/>
		</g>
	</g>
	<g>
		<path class="st19" d="M772.1,14c0.1,0.1,0.1,0.1,0.1,0.2c0,0,0,0.1,0,0.1c-0.2,0.3-0.2,0.7-0.1,1c0.1,0.3,0.3,0.6,0.6,0.8
			c0.1,0.1,0.1,0.1,0.1,0.2c0,0,0,0.1,0,0.1c-0.1,0.1-0.3,0.2-0.4,0.1c-0.3-0.2-0.7-0.2-1-0.1c-0.3,0.1-0.6,0.3-0.8,0.6
			c-0.1,0.1-0.3,0.2-0.4,0.1c-0.1-0.1-0.1-0.1-0.1-0.2c0,0,0-0.1,0-0.1c0.2-0.3,0.2-0.7,0.1-1c-0.1-0.3-0.3-0.6-0.6-0.8
			c-0.1-0.1-0.1-0.1-0.1-0.2c0,0,0-0.1,0-0.1c0.1-0.1,0.3-0.2,0.4-0.1c0.3,0.2,0.7,0.2,1,0.1c0.3-0.1,0.6-0.3,0.8-0.6
			c0.1-0.1,0.1-0.1,0.2-0.1C772,13.9,772,13.9,772.1,14z M770.8,16.1c0.3-0.1,0.5-0.2,0.8-0.2c-0.1-0.3-0.2-0.5-0.2-0.8
			c-0.3,0.1-0.5,0.2-0.8,0.2C770.7,15.5,770.8,15.8,770.8,16.1z"/>
	</g>
	<g>
		<path class="st19" d="M705.6,16.3c0.4,0.6,1.3,0.7,1.9,0.3c0.1-0.1,0.3-0.1,0.4,0.1c0,0.1,0.1,0.1,0.1,0.2c0,0.1,0,0.2-0.1,0.2
			c-0.3,0.2-0.5,0.5-0.5,0.9c-0.1,0.4,0,0.7,0.3,1c0,0.1,0.1,0.1,0.1,0.2c0,0.1,0,0.2-0.1,0.2c-0.1,0.1-0.3,0.1-0.4-0.1
			c-0.4-0.6-1.3-0.7-1.9-0.3c-0.1,0.1-0.3,0.1-0.4-0.1c0-0.1-0.1-0.1-0.1-0.2c0-0.1,0-0.2,0.1-0.2c0.3-0.2,0.5-0.5,0.5-0.9
			c0.1-0.4,0-0.7-0.3-1c0-0.1-0.1-0.1-0.1-0.2c0-0.1,0-0.2,0.1-0.2c0.1,0,0.1-0.1,0.2-0.1C705.5,16.2,705.6,16.3,705.6,16.3z
			 M706.7,18.3c0-0.1,0-0.3,0-0.4c0-0.1,0.1-0.3,0.1-0.4c-0.3,0-0.6,0-0.9-0.1c0,0.1,0,0.3,0,0.4c0,0.1-0.1,0.3-0.1,0.4
			C706.2,18.1,706.5,18.2,706.7,18.3z"/>
	</g>
	<g>
		<circle class="st19" cx="699.8" cy="53" r="1.5"/>
	</g>
	<g>
		<circle class="st19" cx="667.9" cy="73.3" r="2.1"/>
	</g>
	<g>
		<g>
			<circle class="st19" cx="710.1" cy="62.5" r="1.7"/>
		</g>
		<g>
			<path class="st19" d="M709.6,60.2C709.5,60.2,709.5,60.2,709.6,60.2c-0.2,0-0.3,0.2-0.2,0.3l1.2,4c0,0.1,0.2,0.2,0.3,0.2
				c0.1,0,0.2-0.2,0.2-0.3l-1.2-4C709.8,60.3,709.7,60.2,709.6,60.2z"/>
		</g>
	</g>
	<g>
		<circle class="st19" cx="791.3" cy="78.5" r="1.5"/>
	</g>
	<g>
		<g>
			<circle class="st19" cx="785.1" cy="45.7" r="1.7"/>
		</g>
		<g>
			<path class="st19" d="M786.9,44.4c0,0-0.1,0-0.1,0l-3.7,2c-0.1,0.1-0.2,0.2-0.1,0.3c0.1,0.1,0.2,0.2,0.3,0.1l3.7-2
				c0.1-0.1,0.2-0.2,0.1-0.3C787.1,44.5,787,44.4,786.9,44.4z"/>
		</g>
	</g>
	<g>
		<circle class="st19" cx="1036.8" cy="33.2" r="2.1"/>
	</g>
	<g>
		<g>
			<circle class="st19" cx="874.2" cy="182.9" r="3.2"/>
		</g>
	</g>
	<g>
		<circle class="st19" cx="1145.4" cy="226.3" r="1.5"/>
	</g>
	<g>
		<circle class="st19" cx="1155.4" cy="241.3" r="2.1"/>
	</g>
	<g>
		<g>
			<circle class="st19" cx="1156.8" cy="218" r="1.7"/>
		</g>
		<g>
			<path class="st19" d="M1158.9,217.6C1158.9,217.6,1158.9,217.6,1158.9,217.6l-4.2,0.3c-0.1,0-0.2,0.1-0.2,0.3
				c0,0.1,0.1,0.2,0.3,0.2l4.2-0.3c0.1,0,0.2-0.1,0.2-0.3C1159.2,217.7,1159.1,217.6,1158.9,217.6z"/>
		</g>
	</g>
	<g>
		<path class="st19" d="M1055.5,303.1c0.1,0,0.2,0.1,0.2,0.3c0,0,0,0.1,0,0.1c-0.2,0.7,0.2,1.4,0.9,1.7c0.1,0,0.2,0.1,0.2,0.3
			c0,0,0,0.1,0,0.1c0,0.2-0.2,0.2-0.4,0.2c-0.7-0.2-1.4,0.2-1.7,0.9c0,0.2-0.2,0.2-0.4,0.2c-0.1,0-0.2-0.1-0.2-0.3c0,0,0-0.1,0-0.1
			c0.1-0.3,0.1-0.7-0.1-1c-0.2-0.3-0.4-0.5-0.8-0.6c-0.1,0-0.2-0.1-0.2-0.3c0,0,0-0.1,0-0.1c0-0.2,0.2-0.2,0.4-0.2
			c0.3,0.1,0.7,0.1,1-0.1c0.3-0.2,0.5-0.4,0.6-0.8C1055.1,303.1,1055.3,303.1,1055.5,303.1C1055.4,303.1,1055.4,303.1,1055.5,303.1z
			 M1054.6,305.1c0.1,0.1,0.1,0.3,0.2,0.4c0.2-0.2,0.5-0.3,0.8-0.4c-0.2-0.2-0.3-0.5-0.4-0.8c-0.1,0.1-0.2,0.2-0.4,0.2
			c-0.1,0.1-0.3,0.1-0.4,0.2C1054.4,304.8,1054.5,304.9,1054.6,305.1z"/>
	</g>
	<g>
		<path class="st19" d="M871.5,277l-1.4,0.9l-0.3-0.5l1.4-0.9L871.5,277z M868.7,278.9l-1.4,0.9l-0.3-0.5l1.4-0.9L868.7,278.9z
			 M865.8,280.8l-1.4,0.9l-0.3-0.5l1.4-0.9L865.8,280.8z M862.9,282.7l-1.4,0.9l-0.3-0.5l1.4-0.9L862.9,282.7z M860.1,284.6
			l-1.4,0.9l-0.3-0.5l1.4-0.9L860.1,284.6z M857.2,286.4l-1.4,0.9l-0.3-0.5l1.4-0.9L857.2,286.4z M854.4,288.3l-1.4,0.9l-0.3-0.5
			l1.4-0.9L854.4,288.3z M851.5,290.2l-1.4,0.9l-0.3-0.5l1.4-0.9L851.5,290.2z M848.7,292.1l-1.4,0.9l-0.3-0.5l1.4-0.9L848.7,292.1z
			 M845.8,294l-1.4,0.9l-0.3-0.5l1.4-0.9L845.8,294z M843,295.9l-1.4,0.9l-0.3-0.5l1.4-0.9L843,295.9z M840.1,297.8l-1.4,0.9
			l-0.3-0.5l1.4-0.9L840.1,297.8z M837.2,299.6l-1.4,0.9l-0.3-0.5l1.4-0.9L837.2,299.6z M834.4,301.5l-0.8,0.5l-0.3-0.5l0.8-0.5
			L834.4,301.5z"/>
	</g>
	<g>
		<path class="st19" d="M801.7,299.9l-0.1,0.6l-1.7-0.3l0.1-0.6L801.7,299.9z M805.1,300.5l-0.1,0.6l-1.7-0.3l0.1-0.6L805.1,300.5z
			 M808.4,301.2l-0.1,0.6l-1.7-0.3l0.1-0.6L808.4,301.2z M811.8,301.8l-0.1,0.6L810,302l0.1-0.6L811.8,301.8z M815.2,302.5l-0.1,0.6
			l-1.7-0.3l0.1-0.6L815.2,302.5z M818.5,303.1l-0.1,0.6l-1.7-0.3l0.1-0.6L818.5,303.1z M821.9,303.8l-0.1,0.6l-1.7-0.3l0.1-0.6
			L821.9,303.8z M825.2,304.4l-0.1,0.6l-1.7-0.3l0.1-0.6L825.2,304.4z"/>
	</g>
	<g>
		<path class="st19" d="M833.6,309.4l-0.4,0.4l-1.2-1.2l0.4-0.4L833.6,309.4z M835.9,311.9l-0.4,0.4l-1.2-1.2l0.4-0.4L835.9,311.9z
			 M838.3,314.4l-0.4,0.4l-1.2-1.2l0.4-0.4L838.3,314.4z M840.6,316.9l-0.4,0.4l-1.2-1.2l0.4-0.4L840.6,316.9z M843,319.4l-0.4,0.4
			l-1.2-1.2l0.4-0.4L843,319.4z M845.3,321.9l-0.4,0.4l-1.2-1.2l0.4-0.4L845.3,321.9z M847.7,324.4l-0.4,0.4l-1.2-1.2l0.4-0.4
			L847.7,324.4z M850,326.9l-0.4,0.4l-1.2-1.2l0.4-0.4L850,326.9z M852.4,329.4l-0.4,0.4l-1.2-1.2l0.4-0.4L852.4,329.4z
			 M854.7,331.9l-0.4,0.4l-1.2-1.2l0.4-0.4L854.7,331.9z"/>
	</g>
	<g>
		<path class="st19" d="M877.3,325.3l-1.5,0.7l-0.2-0.5l1.5-0.7L877.3,325.3z M874.2,326.8l-1.5,0.7l-0.2-0.5l1.5-0.7L874.2,326.8z
			 M871.2,328.3l-1.5,0.7l-0.2-0.5l1.5-0.7L871.2,328.3z M868.1,329.8l-1.5,0.7l-0.2-0.5l1.5-0.7L868.1,329.8z M865,331.3l-1.5,0.7
			l-0.2-0.5l1.5-0.7L865,331.3z M861.9,332.8l-1.5,0.7l-0.2-0.5l1.5-0.7L861.9,332.8z"/>
	</g>
	<g>
		<path class="st19" d="M875.8,279.2l-0.6,0.1l-0.2-1.7l0.6-0.1L875.8,279.2z M876.2,282.6l-0.6,0.1l-0.2-1.7l0.6-0.1L876.2,282.6z
			 M876.6,286L876,286l-0.2-1.7l0.6-0.1L876.6,286z M877,289.4l-0.6,0.1l-0.2-1.7l0.6-0.1L877,289.4z M877.4,292.8l-0.6,0.1
			l-0.2-1.7l0.6-0.1L877.4,292.8z M877.8,296.2l-0.6,0.1l-0.2-1.7l0.6-0.1L877.8,296.2z M878.2,299.6l-0.6,0.1l-0.2-1.7l0.6-0.1
			L878.2,299.6z M878.5,303L878,303l-0.2-1.7l0.6-0.1L878.5,303z M878.9,306.4l-0.6,0.1l-0.2-1.7l0.6-0.1L878.9,306.4z M879.3,309.8
			l-0.6,0.1l-0.2-1.7l0.6-0.1L879.3,309.8z M879.7,313.2l-0.6,0.1l-0.2-1.7l0.6-0.1L879.7,313.2z M880.1,316.6l-0.6,0.1l-0.2-1.7
			l0.6-0.1L880.1,316.6z M880.5,320l-0.6,0.1l-0.2-1.7l0.6-0.1L880.5,320z"/>
	</g>
	<g>
		<path class="st19" d="M835.6,159.2l-0.5,0.3l-0.6-1.1l0.5-0.3L835.6,159.2z M837.4,162.2l-0.5,0.3L836,161l0.5-0.3L837.4,162.2z
			 M839.1,165.2l-0.5,0.3l-0.9-1.5l0.5-0.3L839.1,165.2z"/>
	</g>
	<g>
		<path class="st19" d="M841.3,153.1l-1.6,0.6l-0.2-0.5l1.6-0.6L841.3,153.1z M838.1,154.3l-1.6,0.6l-0.2-0.5l1.6-0.6L838.1,154.3z"
			/>
	</g>
	<g>
		<path class="st19" d="M874.3,136.9l-1.5,0.8l-0.3-0.5l1.5-0.8L874.3,136.9z M871.3,138.5l-1.5,0.8l-0.3-0.5l1.5-0.8L871.3,138.5z
			 M868.2,140l-1.5,0.8l-0.3-0.5l1.5-0.8L868.2,140z M865.2,141.6l-1.5,0.8l-0.3-0.5l1.5-0.8L865.2,141.6z M862.2,143.2l-1.5,0.8
			l-0.3-0.5l1.5-0.8L862.2,143.2z M859.1,144.8l-1.5,0.8l-0.3-0.5l1.5-0.8L859.1,144.8z M856.1,146.4l-1.5,0.8l-0.3-0.5l1.5-0.8
			L856.1,146.4z M853.1,148l-1.5,0.8l-0.3-0.5l1.5-0.8L853.1,148z M850,149.6l-1.5,0.8l-0.3-0.5l1.5-0.8L850,149.6z"/>
	</g>
	<g>
		<path class="st19" d="M875.8,129.2l-0.6,0.2l-0.5-1.6l0.6-0.2L875.8,129.2z M876.7,132.5l-0.6,0.2l-0.5-1.6l0.6-0.2L876.7,132.5z"
			/>
	</g>
	<g>
		<path class="st19" d="M1156.9,245l-0.5,0.2l-0.2-0.7l0.5-0.2L1156.9,245z M1158,248.2l-0.5,0.2l-0.6-1.6l0.5-0.2L1158,248.2z
			 M1159.2,251.4l-0.5,0.2l-0.6-1.6l0.5-0.2L1159.2,251.4z M1160.3,254.6l-0.5,0.2l-0.6-1.6l0.5-0.2L1160.3,254.6z M1161.5,257.8
			l-0.5,0.2l-0.6-1.6l0.5-0.2L1161.5,257.8z M1162.7,261.1l-0.5,0.2l-0.6-1.6l0.5-0.2L1162.7,261.1z M1163.8,264.3l-0.5,0.2
			l-0.6-1.6l0.5-0.2L1163.8,264.3z M1165,267.5l-0.5,0.2l-0.6-1.6l0.5-0.2L1165,267.5z"/>
	</g>
	<g>
		<path class="st19" d="M1157.1,221l-0.1,1.7l-0.6,0l0.1-1.7L1157.1,221z M1156.8,224.4l-0.1,1.7l-0.6,0l0.1-1.7L1156.8,224.4z
			 M1156.5,227.8l-0.1,1.7l-0.6,0l0.1-1.7L1156.5,227.8z M1156.2,231.2l-0.1,1.7l-0.6,0l0.1-1.7L1156.2,231.2z M1155.9,234.6
			l-0.1,1.7l-0.6,0l0.1-1.7L1155.9,234.6z"/>
	</g>
	<g>
		<path class="st19" d="M1148.1,229.8l-0.5,0.3l-0.9-1.4l0.5-0.3L1148.1,229.8z M1150,232.6l-0.5,0.3l-0.9-1.4l0.5-0.3L1150,232.6z
			 M1151.9,235.5l-0.5,0.3l-0.9-1.4l0.5-0.3L1151.9,235.5z M1153.5,237.9l-0.5,0.3l-0.7-1l0.5-0.3L1153.5,237.9z"/>
	</g>
	<g>
		<path class="st19" d="M1210,244.1l-0.6,0.4l-0.3-0.5l0.6-0.4L1210,244.1z M1208,245.4l-1.4,0.9l-0.3-0.5l1.4-0.9L1208,245.4z
			 M1205.1,247.3l-1.4,0.9l-0.3-0.5l1.4-0.9L1205.1,247.3z M1202.2,249.1l-1.4,0.9l-0.3-0.5l1.4-0.9L1202.2,249.1z M1199.3,250.9
			l-1.4,0.9l-0.3-0.5l1.4-0.9L1199.3,250.9z M1196.4,252.8l-1.4,0.9l-0.3-0.5l1.4-0.9L1196.4,252.8z M1193.5,254.6l-1.4,0.9
			l-0.3-0.5l1.4-0.9L1193.5,254.6z M1190.7,256.5l-1.4,0.9l-0.3-0.5l1.4-0.9L1190.7,256.5z M1187.8,258.3l-1.4,0.9l-0.3-0.5l1.4-0.9
			L1187.8,258.3z M1184.9,260.1l-1.4,0.9l-0.3-0.5l1.4-0.9L1184.9,260.1z M1182,262l-1.4,0.9l-0.3-0.5l1.4-0.9L1182,262z
			 M1179.1,263.8l-1.4,0.9l-0.3-0.5l1.4-0.9L1179.1,263.8z M1176.2,265.7l-1.4,0.9l-0.3-0.5l1.4-0.9L1176.2,265.7z M1173.3,267.5
			l-1.4,0.9l-0.3-0.5l1.4-0.9L1173.3,267.5z M1170.5,269.3l-1.4,0.9l-0.3-0.5l1.4-0.9L1170.5,269.3z"/>
	</g>
	<g>
		<path class="st19" d="M1218.7,232.7l-0.4,0.7l-0.5-0.3l0.4-0.7L1218.7,232.7z M1217.5,234.8l-0.8,1.5l-0.5-0.3l0.8-1.5
			L1217.5,234.8z M1215.8,237.8l-0.8,1.5l-0.5-0.3l0.8-1.5L1215.8,237.8z"/>
	</g>
	<g>
		<path class="st19" d="M1195.7,208.1l-0.5,0.3l-0.8-1.5l0.5-0.3L1195.7,208.1z M1197.3,211.2l-0.5,0.3l-0.8-1.5l0.5-0.3
			L1197.3,211.2z M1198.8,214.2l-0.5,0.3l-0.8-1.5l0.5-0.3L1198.8,214.2z M1200.4,217.3l-0.5,0.3l-0.8-1.5l0.5-0.3L1200.4,217.3z
			 M1201.9,220.3l-0.5,0.3l-0.8-1.5l0.5-0.3L1201.9,220.3z M1203.5,223.4l-0.5,0.3l-0.8-1.5l0.5-0.3L1203.5,223.4z M1205,226.4
			l-0.5,0.3l-0.8-1.5l0.5-0.3L1205,226.4z M1206.6,229.5l-0.5,0.3l-0.8-1.5l0.5-0.3L1206.6,229.5z M1208.1,232.5l-0.5,0.3l-0.8-1.5
			l0.5-0.3L1208.1,232.5z M1209.7,235.6l-0.5,0.3l-0.8-1.5l0.5-0.3L1209.7,235.6z M1211.2,238.7l-0.5,0.3l-0.8-1.5l0.5-0.3
			L1211.2,238.7z"/>
	</g>
	<g>
		<path class="st19" d="M1169.8,274.2l-0.4,0.4l-1.1-1.3l0.4-0.4L1169.8,274.2z M1172,276.8l-0.4,0.4l-1.1-1.3l0.4-0.4L1172,276.8z
			 M1174.3,279.4l-0.4,0.4l-1.1-1.3l0.4-0.4L1174.3,279.4z M1176.5,282l-0.4,0.4l-1.1-1.3l0.4-0.4L1176.5,282z M1178.7,284.5
			l-0.4,0.4l-1.1-1.3l0.4-0.4L1178.7,284.5z M1181,287.1l-0.4,0.4l-1.1-1.3l0.4-0.4L1181,287.1z M1183.2,289.7l-0.4,0.4l-1.1-1.3
			l0.4-0.4L1183.2,289.7z M1185.4,292.3l-0.4,0.4l-1.1-1.3l0.4-0.4L1185.4,292.3z M1187.6,294.9l-0.4,0.4l-1.1-1.3l0.4-0.4
			L1187.6,294.9z M1189.9,297.5l-0.4,0.4l-1.1-1.3l0.4-0.4L1189.9,297.5z M1191.3,299.2l-0.4,0.4l-0.3-0.4l0.4-0.4L1191.3,299.2z"/>
	</g>
	<g>
		<circle class="st19" cx="856.1" cy="335.9" r="2.1"/>
	</g>
	<g>
		<circle class="st19" cx="881" cy="324" r="2.1"/>
	</g>
</g>
</svg>
