<?xml version="1.0" encoding="utf-8"?>
<!-- Generator: Adobe Illustrator 25.4.1, SVG Export Plug-In . SVG Version: 6.00 Build 0)  -->
<svg version="1.1" id="Layer_1" xmlns="http://www.w3.org/2000/svg" xmlns:xlink="http://www.w3.org/1999/xlink" x="0px" y="0px"
	 viewBox="0 0 200 200" style="enable-background:new 0 0 200 200;" xml:space="preserve">
<style type="text/css">
	.st0{fill:none;stroke:#FFFFFF;stroke-width:1.5;stroke-linecap:round;stroke-linejoin:round;stroke-miterlimit:10;}
	.st1{fill:#FFFFFF;}
</style>
<g>
	<path class="st0" d="M57.3,125.9c0.5,1.3,1.1,2.5,1.7,3.7"/>
	<path class="st0" d="M53.9,108.2c0-1.5,0.1-3,0.2-4.5"/>
	<path class="st0" d="M67.5,141c-1.1-1.1-2.2-2.3-3.2-3.6"/>
	<path class="st0" d="M54,111.9c0.1,1.7,0.4,3.5,0.7,5.2"/>
	<path class="st0" d="M57.3,125.9c-0.6-1.5-1.2-3.1-1.6-4.7"/>
	<path class="st0" d="M61.9,134.4c0.7,1.1,1.5,2.1,2.3,3.1"/>
	<path class="st0" d="M54.7,99.5c-0.3,1.4-0.5,2.7-0.6,4.1"/>
	<path class="st0" d="M96.2,62.1c-1.6,0.1-3.2,0.4-4.8,0.7"/>
	<path class="st0" d="M87,63.8c-1.5,0.4-2.9,0.9-4.3,1.5"/>
	<path class="st0" d="M146.4,104.4c0.1,1.2,0.2,2.5,0.2,3.7"/>
	<path class="st0" d="M64.8,78.3c-1.1,1.3-2.1,2.6-3,3.9"/>
	<path class="st0" d="M70.7,72.5c-1.1,0.9-2.2,1.9-3.2,2.9"/>
	<path class="st0" d="M145.8,116.7c0.2-1.3,0.4-2.6,0.6-4"/>
	<path class="st0" d="M59.5,86c-0.8,1.4-1.4,2.8-2,4.3"/>
	<path class="st0" d="M87,63.8c1.5-0.4,3-0.8,4.5-1.1"/>
	<path class="st0" d="M70.7,72.5c1.1-0.9,2.3-1.8,3.5-2.6"/>
	<path class="st0" d="M96.2,62.1c1.3-0.1,2.6-0.2,4-0.2c0,0,0.1,0,0.1,0"/>
	<path class="st0" d="M78.5,67.2c1.3-0.7,2.7-1.4,4.1-1.9"/>
	<path class="st0" d="M100.3,61.9c1.4,0,2.8,0.1,4.2,0.2"/>
	<path class="st0" d="M104.5,62.1c1.5,0.1,2.9,0.3,4.4,0.6"/>
	<path class="st0" d="M55.9,94.4c0.4-1.4,0.9-2.8,1.5-4.1"/>
	<path class="st0" d="M54,111.9c-0.1-1.2-0.2-2.4-0.2-3.7c0,0,0,0,0-0.1"/>
	<path class="st0" d="M55.7,121.2c-0.4-1.3-0.7-2.7-1-4.1"/>
	<path class="st0" d="M54.7,99.5c0.3-1.7,0.7-3.5,1.3-5.1"/>
	<path class="st0" d="M64.8,78.3c0.9-1,1.8-2,2.7-2.9"/>
	<path class="st0" d="M59.5,86c0.7-1.3,1.5-2.6,2.3-3.8"/>
	<path class="st0" d="M61.9,134.4c-1-1.5-2-3.1-2.8-4.8"/>
	<path class="st0" d="M113.8,63.9c-1.6-0.5-3.2-0.9-4.9-1.2"/>
	<path class="st0" d="M130.1,72.8c-1.3-1.1-2.6-2.1-3.9-3"/>
	<path class="st0" d="M126.1,69.8c-1.3-0.9-2.6-1.6-3.9-2.4"/>
	<path class="st0" d="M126.5,146.4c1-0.7,2.1-1.5,3-2.3"/>
	<path class="st0" d="M118,151c1.2-0.5,2.4-1.1,3.6-1.7"/>
	<path class="st0" d="M118.1,65.5c-1.4-0.6-2.8-1.1-4.3-1.6"/>
	<path class="st0" d="M122.2,67.4c-1.3-0.7-2.7-1.4-4.1-2"/>
	<path class="st0" d="M86.2,152.4c1.8,0.6,3.7,1,5.5,1.4"/>
	<path class="st0" d="M74.4,146.7c1.1,0.7,2.3,1.4,3.4,2.1"/>
	<path class="st0" d="M70,143.4c1.4,1.2,2.8,2.3,4.3,3.3"/>
	<path class="st0" d="M67.5,141c0.8,0.8,1.7,1.6,2.6,2.4"/>
	<path class="st0" d="M77.8,148.8c1.5,0.8,3.1,1.6,4.7,2.3"/>
	<path class="st0" d="M130.1,72.8c1,0.9,2,1.7,2.9,2.7"/>
	<path class="st0" d="M82.5,151.1c1.2,0.5,2.4,1,3.7,1.4"/>
	<path class="st0" d="M138.5,82.1c-0.8-1.2-1.7-2.3-2.6-3.4"/>
	<path class="st0" d="M138.7,134c0.8-1.1,1.5-2.3,2.1-3.5"/>
	<path class="st0" d="M146.5,108.1c0,0,0,0.1,0,0.1c0,1.5-0.1,3-0.2,4.5"/>
	<path class="st0" d="M145.8,116.7c-0.3,1.8-0.8,3.6-1.3,5.3"/>
	<path class="st0" d="M143.1,125.9c-0.6,1.6-1.4,3.1-2.2,4.6"/>
	<path class="st0" d="M138.7,134c-1,1.5-2.1,2.9-3.3,4.3"/>
	<path class="st0" d="M143.1,125.9c0.5-1.3,1-2.6,1.4-3.9"/>
	<path class="st0" d="M133.1,140.9c0.8-0.8,1.6-1.7,2.4-2.6"/>
	<path class="st0" d="M143,90.5c-0.6-1.4-1.2-2.7-1.9-4"/>
	<path class="st0" d="M138.5,82.1c1,1.4,1.9,2.9,2.7,4.5"/>
	<path class="st0" d="M133,75.5c1,1,2,2.1,2.9,3.2"/>
	<path class="st0" d="M143,90.5c0.6,1.5,1.1,3,1.6,4.5"/>
	<path class="st0" d="M145.7,99.3c0.3,1.7,0.6,3.4,0.7,5.1"/>
	<path class="st0" d="M144.6,95c0.4,1.4,0.8,2.8,1,4.2"/>
	<path class="st0" d="M78.5,67.2c-1.5,0.8-3,1.7-4.3,2.6"/>
	<path class="st0" d="M100.4,154.6c-0.1,0-0.1,0-0.2,0c-1.6,0-3.2-0.1-4.7-0.2"/>
	<path class="st0" d="M103.8,154.4c-1.1,0.1-2.3,0.1-3.4,0.1"/>
	<path class="st0" d="M91.7,153.8c1.2,0.2,2.5,0.4,3.7,0.5"/>
	<path class="st0" d="M133.1,140.9c-1.1,1.1-2.3,2.2-3.6,3.3"/>
	<path class="st0" d="M113.1,152.7c-1.3,0.4-2.5,0.7-3.8,0.9"/>
	<path class="st0" d="M103.8,154.4c1.9-0.1,3.7-0.4,5.5-0.7"/>
	<path class="st0" d="M126.5,146.4c-1.6,1.1-3.2,2.1-4.9,2.9"/>
	<path class="st0" d="M118,151c-1.6,0.7-3.3,1.2-4.9,1.7"/>
	<path class="st0" d="M73.3,93.4c-2.1,1-3.4,2-3.4,2"/>
	<path class="st0" d="M96.3,116.8c0,0,2.5-14.5-6.4-22.2c-5.9-5-12.6-3.2-16.6-1.3"/>
	<path class="st0" d="M102.7,120.1c-1.8,1.4-4.4,1.4-6.2,0"/>
	<path class="st0" d="M83.5,99.7c6.6,0.6,8.3,4.2,8.4,4.4"/>
	<path class="st0" d="M74.7,99.5c1.9,0.1,4.1,0.1,6.7,0.1c0.8,0,1.4,0,2.1,0.1"/>
	<path class="st0" d="M91.9,104.1C91.9,104.1,91.9,104.2,91.9,104.1C91.9,104.2,91.9,104.1,91.9,104.1"/>
	<path class="st0" d="M66.8,97.7c-0.3-0.2-0.6-0.5-0.9-0.7"/>
	<path class="st0" d="M91.9,104.1c-0.1-0.2-1.1-1.6-8.6,1.2c-4.6,1.8-9.8,0.8-13.4-2.6"/>
	<path class="st0" d="M74.7,99.5c-3.7-0.2-6.1-0.6-7.9-1.8"/>
	<path class="st0" d="M74.7,99.5C74.7,99.5,74.7,99.5,74.7,99.5"/>
	<path class="st0" d="M83.5,99.7C83.5,99.7,83.5,99.7,83.5,99.7"/>
	<path class="st0" d="M74.7,99.5c-0.2,0.5-0.3,1.1-0.3,1.6c0.1,2.4,2,4.4,4.5,4.5c2.6,0.1,4.8-1.9,4.9-4.5c0-0.5-0.1-1-0.2-1.4"/>
	<path class="st0" d="M127.3,94c1.4,0.8,2.2,1.4,2.2,1.4"/>
	<path class="st0" d="M127.3,94c-3.7-2-11.3-5-17.9,0.6c-9,7.7-6.4,22.2-6.4,22.2"/>
	<path class="st0" d="M83.4,132c0.1-0.5-0.2-0.5-0.2-0.5c-0.4,0-0.6,0.5-0.4,0.8c0.2,0.3,0.4,0.5,0.7,0.7c0,0,0.1,0,0.1,0"/>
	<path class="st0" d="M83.6,133.1c2.5,1.2,5.5,0.7,7.3-1.4c2.1-2.3,5.5-4.7,8.8,0c3.2-4.7,6.6-2.3,8.8,0c1.9,2.1,4.9,2.6,7.4,1.3
		c0.3-0.1,0.5-0.4,0.7-0.7c0.2-0.3,0-0.9-0.4-0.8c0,0-0.4,0-0.2,0.5"/>
	<path class="st0" d="M99.7,125.3C99.7,125.3,99.7,125.3,99.7,125.3"/>
	<path class="st0" d="M92.2,119.1c0,0-1.5,3.8,3.1,4.4c2.4,0.3,4-0.3,4.4,1.8"/>
	<path class="st0" d="M99.7,125.3C99.7,125.3,99.7,125.3,99.7,125.3"/>
	<path class="st0" d="M107.2,119.1c0,0,1.5,3.8-3,4.4c-2.4,0.3-4-0.3-4.4,1.8"/>
	<path class="st0" d="M115.9,99.7c0.7-0.1,1.3-0.1,2.1-0.1c2.6,0,4.8,0,6.7-0.1"/>
	<path class="st0" d="M107.4,104.1C107.4,104.1,107.4,104.2,107.4,104.1C107.4,104.2,107.4,104.1,107.4,104.1"/>
	<path class="st0" d="M107.4,104.1c0.1-0.2,1.1-1.6,8.6,1.2c4.6,1.8,9.8,0.8,13.4-2.6"/>
	<path class="st0" d="M115.9,99.7c-6.6,0.6-8.3,4.2-8.4,4.4"/>
	<path class="st0" d="M133.4,97c-1.7,1.8-4.4,2.4-8.7,2.6"/>
	<path class="st0" d="M115.9,99.7c-0.2,0.5-0.2,1-0.2,1.4c0.1,2.6,2.3,4.6,4.9,4.5c2.4-0.1,4.4-2,4.5-4.5c0-0.6-0.1-1.1-0.3-1.6"/>
	<path class="st0" d="M124.7,99.5C124.7,99.5,124.7,99.5,124.7,99.5"/>
	<path class="st0" d="M115.9,99.7C115.9,99.7,115.9,99.7,115.9,99.7"/>
	<line class="st0" x1="104.5" y1="62.1" x2="107.2" y2="32"/>
	<line class="st0" x1="95.5" y1="154.3" x2="92.8" y2="184.3"/>
	<line class="st0" x1="92.4" y1="188.5" x2="91.2" y2="199.9"/>
	<line class="st0" x1="176.1" y1="115.3" x2="146.3" y2="112.7"/>
	<line class="st0" x1="180.3" y1="115.7" x2="191.7" y2="116.9"/>
	<line class="st0" x1="54.1" y1="103.6" x2="23.9" y2="101"/>
	<line class="st0" x1="19.7" y1="100.6" x2="8.2" y2="99.4"/>
	<line class="st0" x1="158.9" y1="59.4" x2="135.9" y2="78.7"/>
	<line class="st0" x1="41.1" y1="156.9" x2="64.3" y2="137.5"/>
	<line class="st0" x1="37.8" y1="159.6" x2="28.9" y2="166.8"/>
	<line class="st0" x1="148.8" y1="167.1" x2="129.5" y2="144.1"/>
	<line class="st0" x1="158.7" y1="179.2" x2="151.4" y2="170.3"/>
	<line class="st0" x1="70.7" y1="72.5" x2="51.2" y2="49.2"/>
	<line class="st0" x1="122.2" y1="67.4" x2="136.4" y2="40.9"/>
	<line class="st0" x1="77.8" y1="148.8" x2="63.6" y2="175.4"/>
	<line class="st0" x1="61.6" y1="179.1" x2="56" y2="189.2"/>
	<line class="st0" x1="167.3" y1="144.6" x2="140.9" y2="130.5"/>
	<line class="st0" x1="181" y1="152.1" x2="170.9" y2="146.6"/>
	<line class="st0" x1="59.5" y1="86" x2="32.7" y2="71.8"/>
	<line class="st0" x1="19" y1="64.2" x2="29.1" y2="69.8"/>
	<line class="st0" x1="144.6" y1="95" x2="173.3" y2="86.3"/>
	<line class="st0" x1="177.3" y1="85.1" x2="188.4" y2="82"/>
	<line class="st0" x1="26.7" y1="130" x2="55.7" y2="121.2"/>
	<line class="st0" x1="22.7" y1="131.2" x2="11.6" y2="134.4"/>
	<line class="st0" x1="113.1" y1="152.7" x2="121.8" y2="181.5"/>
	<line class="st0" x1="126.2" y1="196.5" x2="123" y2="185.5"/>
	<line class="st0" x1="87" y1="63.8" x2="78.2" y2="34.9"/>
	<line class="st0" x1="113.8" y1="63.9" x2="122.5" y2="35.1"/>
	<line class="st0" x1="86.2" y1="152.4" x2="77.5" y2="181.3"/>
	<path class="st0" d="M109.6,134.4c0,1.2-1.3,2.3-3.5,3.1c-1.1,0.4-2.4,0.7-3.8,0.8c-0.6,0.1-1.2,0.1-1.9,0.1c-0.3,0-0.5,0-0.8,0
		c-1,0-1.9-0.1-2.8-0.2c-0.7-0.1-1.4-0.2-2.1-0.4c-1.6-0.4-2.9-0.9-3.8-1.5l0-0.1l0,0.1c-0.8-0.6-1.3-1.3-1.3-2"/>
	<line class="st0" x1="76.3" y1="185.3" x2="72.8" y2="196.2"/>
	<line class="st0" x1="144.5" y1="122" x2="173.1" y2="130.6"/>
	<line class="st0" x1="177.1" y1="131.9" x2="188.1" y2="135.4"/>
	<line class="st0" x1="55.9" y1="94.4" x2="26.9" y2="85.7"/>
	<line class="st0" x1="22.9" y1="84.4" x2="11.9" y2="81"/>
	<line class="st0" x1="167.6" y1="72.4" x2="141.2" y2="86.6"/>
	<line class="st0" x1="171.3" y1="70.4" x2="181.5" y2="65.1"/>
	<line class="st0" x1="32.4" y1="144" x2="59.1" y2="129.6"/>
	<line class="st0" x1="28.7" y1="145.9" x2="18.5" y2="151.2"/>
	<line class="st0" x1="121.6" y1="149.3" x2="135.8" y2="175.8"/>
	<line class="st0" x1="143" y1="189.7" x2="137.7" y2="179.5"/>
	<line class="st0" x1="78.5" y1="67.2" x2="64.2" y2="40.6"/>
	<line class="st0" x1="130.1" y1="72.8" x2="149.3" y2="49.7"/>
	<line class="st0" x1="70" y1="143.4" x2="50.7" y2="166.6"/>
	<line class="st0" x1="48" y1="169.8" x2="40.5" y2="178.6"/>
	<line class="st0" x1="158.5" y1="157.4" x2="135.5" y2="138.3"/>
	<line class="st0" x1="170.4" y1="167.6" x2="161.7" y2="160.2"/>
	<line class="st0" x1="64.8" y1="78.3" x2="41.5" y2="58.9"/>
	<line class="st0" x1="146.4" y1="104.4" x2="176.2" y2="101.7"/>
	<line class="st0" x1="180.4" y1="101.3" x2="191.8" y2="100.4"/>
	<line class="st0" x1="54" y1="111.9" x2="23.8" y2="114.7"/>
	<line class="st0" x1="19.6" y1="115" x2="8.2" y2="115.9"/>
	<line class="st0" x1="103.8" y1="154.4" x2="106.5" y2="184.4"/>
	<line class="st0" x1="107.7" y1="200" x2="106.8" y2="188.5"/>
	<line class="st0" x1="96.2" y1="62.1" x2="93.5" y2="31.9"/>
	<line class="st0" x1="184.6" y1="108.2" x2="146.5" y2="108.1"/>
	<line class="st0" x1="16" y1="108.1" x2="53.9" y2="108.2"/>
	<line class="st0" x1="100.3" y1="61.9" x2="100.4" y2="23.8"/>
	<line class="st0" x1="100.4" y1="154.6" x2="100.3" y2="192.4"/>
	<line class="st0" x1="133.1" y1="140.9" x2="159.9" y2="167.8"/>
	<line class="st0" x1="40.8" y1="48.5" x2="67.5" y2="75.4"/>
	<line class="st0" x1="133" y1="75.5" x2="160" y2="48.6"/>
	<line class="st0" x1="40.7" y1="167.7" x2="67.5" y2="141"/>
	<line class="st0" x1="183.2" y1="123.9" x2="145.8" y2="116.7"/>
	<line class="st0" x1="17.5" y1="92.4" x2="54.7" y2="99.5"/>
	<line class="st0" x1="108.9" y1="62.7" x2="116.1" y2="25.3"/>
	<line class="st0" x1="91.7" y1="153.8" x2="84.6" y2="191"/>
	<line class="st0" x1="126.5" y1="146.4" x2="147.8" y2="177.8"/>
	<line class="st0" x1="74.2" y1="69.9" x2="52.9" y2="38.5"/>
	<line class="st0" x1="170" y1="60.7" x2="138.5" y2="82.1"/>
	<line class="st0" x1="30.7" y1="155.6" x2="61.9" y2="134.4"/>
	<line class="st0" x1="143.1" y1="125.9" x2="178.1" y2="140.6"/>
	<line class="st0" x1="22.6" y1="75.7" x2="57.4" y2="90.3"/>
	<line class="st0" x1="118.1" y1="65.5" x2="132.8" y2="30.3"/>
	<line class="st0" x1="82.5" y1="151.1" x2="67.9" y2="185.9"/>
	<line class="st0" x1="118" y1="151" x2="132.4" y2="186.1"/>
	<line class="st0" x1="82.7" y1="65.3" x2="68.3" y2="30.2"/>
	<line class="st0" x1="178.3" y1="76.1" x2="143" y2="90.5"/>
	<line class="st0" x1="22.4" y1="140.2" x2="57.3" y2="125.9"/>
	<line class="st0" x1="138.7" y1="134" x2="170.2" y2="155.3"/>
	<line class="st0" x1="30.5" y1="61" x2="61.8" y2="82.2"/>
	<line class="st0" x1="126.1" y1="69.8" x2="147.5" y2="38.3"/>
	<line class="st0" x1="74.4" y1="146.7" x2="53.2" y2="178"/>
	<line class="st0" x1="109.2" y1="153.7" x2="116.4" y2="190.9"/>
	<line class="st0" x1="91.5" y1="62.7" x2="84.3" y2="25.4"/>
	<line class="st0" x1="145.7" y1="99.3" x2="183.1" y2="92.1"/>
	<line class="st0" x1="17.6" y1="124.2" x2="54.7" y2="117.1"/>
</g>
<g>
	<path class="st1" d="M21.2,35.6c0.3-0.2,0.7-0.6,1.1-1c0.5-0.4,0.9-0.8,1.3-1.2c0.6-0.6,1.2-1.1,1.8-1.7c0.6-0.5,0.9-0.9,1.2-1.1
		c1.4-1.3,2.7-2,3.9-2c1.2-0.1,2.3,0.3,3.1,1.3c0.4,0.5,0.8,1,1,1.6c0.2,0.6,0.3,1.3,0.2,2.1c-0.1,0.8-0.4,1.6-0.9,2.5l0,0
		c1.2-0.8,2.2-1.4,3.1-1.5c0.9-0.2,1.7-0.1,2.4,0.1c0.7,0.3,1.3,0.7,1.8,1.2c1,1.1,1.5,2.4,1.3,3.9c-0.2,1.5-1,2.9-2.5,4.3
		c-0.3,0.3-0.7,0.7-1.3,1.2c-0.6,0.5-1.3,1.2-2.1,1.9c-0.5,0.4-0.9,0.9-1.4,1.3c-0.4,0.4-0.8,0.8-1,1.1l-0.4-0.4
		c0.4-0.4,0.7-0.8,0.9-1.1s0.2-0.6,0-0.9c-0.1-0.3-0.4-0.7-0.9-1.2l-9.1-9.8c-0.5-0.5-0.8-0.8-1.1-1c-0.3-0.2-0.6-0.2-0.9,0
		c-0.3,0.1-0.7,0.4-1.2,0.8L21.2,35.6z M26.4,31.4c-0.6,0.6-0.9,1-0.9,1.4c0,0.4,0.4,0.9,1,1.6l9.1,9.8c0.6,0.7,1.1,1,1.5,1.1
		c0.4,0,0.9-0.2,1.5-0.8c1.3-1.2,1.9-2.4,2-3.5c0-1.1-0.5-2.3-1.5-3.4c-0.9-1-2-1.5-3-1.6c-1.1,0-2.2,0.5-3.5,1.7l-2,1.9l-0.3-0.3
		l1.7-1.6c0.8-0.7,1.2-1.4,1.4-2.1c0.1-0.7,0.1-1.4-0.2-2c-0.3-0.6-0.7-1.2-1.2-1.8c-0.9-1-1.8-1.5-2.7-1.6
		C28.4,30.1,27.4,30.5,26.4,31.4z"/>
	<path class="st1" d="M41.8,18.6l14.7,10.7c0.6,0.4,1.1,0.6,1.5,0.6c0.4,0,0.7-0.1,1-0.2l0.3,0.5c-0.3,0.2-0.7,0.4-1.1,0.7
		c-0.4,0.3-0.9,0.6-1.3,0.8c-0.6,0.4-1.1,0.7-1.6,1.1c-0.5,0.3-0.9,0.6-1.2,0.9l-0.3-0.5c0.8-0.5,1.2-1,1.2-1.3
		c0.1-0.4-0.3-0.8-1.1-1.4l-11.5-8.6l0.2-0.5l2.7,12.8c0.2,1,0.5,1.8,0.8,2.2c0.3,0.5,0.7,0.7,1.2,0.7c0.5,0,1-0.2,1.7-0.6l0.3,0.5
		c-0.4,0.2-0.9,0.5-1.4,0.8c-0.5,0.3-0.9,0.6-1.3,0.8c-0.4,0.2-0.7,0.5-1,0.6c-0.3,0.2-0.5,0.4-0.7,0.5l-0.3-0.5
		c0.3-0.3,0.4-0.6,0.6-1.1s0.1-1.2-0.1-2l-3.5-17.2c0.1,0,0.1-0.1,0.2-0.1S41.8,18.6,41.8,18.6z M50.8,26.4l0.3,0.5l-6.8,4.4
		l-0.1-0.6L50.8,26.4z"/>
	<path class="st1" d="M60.2,8.9c1.1-0.4,2.1-0.6,2.9-0.6s1.6,0.2,2.4,0.4c0.4,0.1,0.7,0,0.8-0.2c0.1-0.3,0-0.8-0.2-1.5l0.6-0.2
		c0.2,0.6,0.5,1.4,0.8,2.3c0.3,0.9,0.8,2.1,1.4,3.5l-0.6,0.2c-0.4-0.7-0.7-1.2-1-1.6c-0.3-0.4-0.5-0.7-0.8-0.9s-0.6-0.5-0.9-0.7
		C64.8,9,63.9,8.8,63,8.8c-0.9,0-1.8,0.2-2.7,0.5c-0.8,0.3-1.5,0.8-2,1.5c-0.5,0.7-0.8,1.5-1,2.5c-0.2,1-0.2,2,0,3.2
		c0.2,1.2,0.5,2.5,1.1,3.8c0.6,1.4,1.2,2.6,1.9,3.5c0.7,1,1.5,1.7,2.3,2.2c0.8,0.5,1.6,0.8,2.5,0.9c0.8,0.1,1.7,0,2.5-0.3
		c0.8-0.3,1.5-0.8,2.2-1.4c0.7-0.6,1.1-1.4,1.3-2.2c0.2-0.6,0.2-1.3,0.1-1.9s-0.3-1.5-0.6-2.5l0.6-0.2c0.6,1.5,1.1,2.7,1.5,3.7
		c0.4,0.9,0.7,1.7,1,2.3l-0.6,0.2c-0.4-0.7-0.7-1.1-0.9-1.2c-0.2-0.1-0.5,0-0.8,0.4c-0.4,0.7-0.9,1.3-1.5,1.9
		c-0.6,0.6-1.4,1.1-2.5,1.6c-1.6,0.6-3.1,0.8-4.6,0.6c-1.5-0.2-2.8-0.9-4-2c-1.2-1.1-2.2-2.6-3-4.5c-0.8-1.9-1.1-3.6-1-5.3
		c0.1-1.7,0.6-3.2,1.5-4.4C57.5,10.4,58.7,9.5,60.2,8.9z"/>
	<path class="st1" d="M79,3.7l0.1,0.5c-0.6,0.1-1,0.3-1.3,0.5c-0.3,0.2-0.5,0.4-0.5,0.8c0,0.3,0,0.8,0.1,1.5l2.5,13.2
		c0.1,0.6,0.3,1.1,0.4,1.4c0.2,0.3,0.4,0.5,0.7,0.5c0.3,0,0.8,0,1.4,0l0.1,0.5c-0.4,0-0.9,0.1-1.5,0.2c-0.6,0.1-1.2,0.2-1.8,0.3
		c-0.7,0.1-1.3,0.3-1.9,0.4c-0.6,0.1-1.1,0.2-1.4,0.3l-0.1-0.5c0.6-0.1,1-0.3,1.3-0.5s0.5-0.4,0.5-0.8c0-0.3,0-0.8-0.1-1.5L74.9,7.4
		c-0.1-0.7-0.3-1.1-0.4-1.4s-0.4-0.5-0.7-0.5c-0.3-0.1-0.8,0-1.4,0.1L72.2,5c0.4-0.1,0.9-0.1,1.5-0.2c0.6-0.1,1.3-0.2,1.9-0.3
		c0.6-0.1,1.2-0.2,1.8-0.4C78.1,3.9,78.6,3.8,79,3.7z M87.4,2.1l0.1,0.5c-0.5,0.2-1,0.5-1.5,0.8c-0.5,0.4-0.9,0.9-1.3,1.7l-3.9,7.5
		l0.3-1.4l8.1,7.7c0.4,0.4,0.8,0.7,1.2,0.8c0.4,0.2,0.9,0.3,1.5,0.3l0.1,0.5c-0.4,0-1,0.1-1.6,0.2c-0.6,0.1-1.2,0.2-1.6,0.3
		c-0.3,0.1-0.7,0.1-1.1,0.2c-0.4,0.1-1,0.2-1.6,0.4L86,21.3c0.6-0.1,1-0.3,1.1-0.5c0.1-0.2,0-0.5-0.4-0.8l-5-5.1
		c-0.5-0.5-0.8-0.8-1.2-1.1c-0.3-0.2-0.6-0.3-1-0.4s-0.7,0-1.1,0l-0.1-0.5c0.7-0.2,1.3-0.4,1.8-0.8c0.5-0.4,0.8-0.8,1.1-1.3l1.9-3.7
		C83.6,6.3,83.9,5.6,84,5c0.1-0.6,0-0.9-0.3-1.2S83,3.5,82.2,3.7l-0.1-0.5c0.5-0.1,1-0.2,1.6-0.2c0.5-0.1,1-0.2,1.5-0.3
		C86.2,2.5,86.9,2.3,87.4,2.1z"/>
	<path class="st1" d="M98.7,20.3l0-0.5c0.6,0,1.1,0,1.4-0.1c0.3-0.1,0.6-0.3,0.7-0.6s0.2-0.8,0.3-1.4l1.2-13.3c0.1-0.7,0-1.2,0-1.5
		c-0.1-0.3-0.3-0.6-0.6-0.7c-0.3-0.1-0.8-0.3-1.4-0.3l0-0.5c0.4,0.1,0.9,0.1,1.5,0.2c0.6,0.1,1.3,0.1,2,0.2c0.6,0.1,1.3,0.1,1.9,0.1
		c0.6,0,1.1,0.1,1.6,0.1l0,0.5c-0.6,0-1.1,0-1.4,0.1c-0.3,0.1-0.6,0.3-0.7,0.6c-0.1,0.3-0.2,0.8-0.3,1.5l-1.2,13.3
		c-0.1,0.6,0,1.1,0,1.5c0.1,0.3,0.3,0.6,0.6,0.7s0.8,0.2,1.4,0.3l0,0.5c-0.4-0.1-0.9-0.1-1.5-0.2c-0.6-0.1-1.2-0.1-1.9-0.2
		c-0.7-0.1-1.4-0.1-2-0.2C99.6,20.4,99.1,20.3,98.7,20.3z M103.3,11.4l0-0.5l10.6,0.9l0,0.5L103.3,11.4z M110,21.3l0-0.5
		c0.6,0,1.1,0,1.4-0.1c0.3-0.1,0.6-0.3,0.7-0.6c0.1-0.3,0.2-0.8,0.3-1.4l1.2-13.3c0.1-0.7,0-1.2,0-1.5c-0.1-0.3-0.3-0.6-0.6-0.7
		c-0.3-0.1-0.8-0.3-1.4-0.3l0-0.5c0.4,0.1,0.9,0.1,1.6,0.2c0.6,0.1,1.2,0.1,1.9,0.2c0.7,0.1,1.4,0.1,2,0.1c0.6,0,1.1,0.1,1.5,0.1
		l0,0.5c-0.6,0-1.1,0-1.4,0.1s-0.6,0.3-0.7,0.6c-0.1,0.3-0.2,0.8-0.3,1.5l-1.2,13.3c-0.1,0.6,0,1.1,0,1.5c0.1,0.3,0.3,0.6,0.6,0.7
		c0.3,0.1,0.8,0.2,1.4,0.3l0,0.5c-0.4-0.1-0.9-0.1-1.5-0.2c-0.6-0.1-1.3-0.1-2-0.2c-0.6-0.1-1.2-0.1-1.9-0.1
		C110.9,21.3,110.4,21.3,110,21.3z"/>
	<path class="st1" d="M132.2,6.2c1.6,0.5,2.9,1.3,3.9,2.4c1,1.1,1.6,2.5,1.9,4.1c0.2,1.6,0.1,3.4-0.6,5.4c-0.6,1.9-1.5,3.5-2.6,4.7
		c-1.1,1.2-2.5,2.1-4,2.5c-1.5,0.4-3,0.4-4.6-0.1c-1.6-0.5-2.9-1.3-3.9-2.4c-1-1.1-1.6-2.5-1.9-4.1c-0.2-1.6-0.1-3.4,0.5-5.3
		c0.6-1.9,1.5-3.5,2.6-4.7s2.5-2,4-2.5C129.1,5.7,130.6,5.7,132.2,6.2z M131.9,6.6c-1.1-0.3-2.2-0.3-3.3,0.3s-2,1.4-2.9,2.6
		c-0.9,1.2-1.6,2.7-2.2,4.5c-0.6,1.8-0.8,3.5-0.7,5c0.1,1.5,0.5,2.8,1.1,3.8c0.6,1,1.5,1.7,2.5,2c1.1,0.3,2.2,0.3,3.3-0.3
		c1.1-0.5,2-1.4,2.9-2.6c0.9-1.2,1.6-2.7,2.1-4.5c0.6-1.8,0.8-3.5,0.7-5c-0.1-1.5-0.5-2.7-1.1-3.7S133,6.9,131.9,6.6z"/>
	<path class="st1" d="M163.9,22.1l-0.3,0.5c-0.5-0.3-1-0.5-1.3-0.5c-0.3-0.1-0.6,0-0.9,0.2c-0.3,0.2-0.5,0.6-0.9,1.2l-6.8,11.5
		c-0.3,0.6-0.5,1-0.6,1.3s0,0.6,0.2,0.9c0.2,0.3,0.6,0.6,1.1,0.9l-0.3,0.5c-0.3-0.2-0.8-0.5-1.3-0.8c-0.5-0.3-1.1-0.6-1.6-1
		c-0.6-0.4-1.2-0.7-1.7-1c-0.5-0.3-1-0.5-1.3-0.7l0.3-0.5c0.5,0.3,1,0.5,1.3,0.5c0.3,0.1,0.6,0,0.9-0.2c0.3-0.2,0.6-0.6,0.9-1.2
		l7.6-12.8l0.1,0.1l-14.7,11.9l-0.4-0.2l3.1-18.5l-7.3,12.3c-0.3,0.6-0.5,1-0.6,1.4s0,0.7,0.2,1c0.2,0.3,0.6,0.7,1.2,1l-0.3,0.5
		c-0.3-0.2-0.6-0.4-1.1-0.7c-0.4-0.3-0.9-0.5-1.3-0.8c-0.4-0.2-0.8-0.5-1.2-0.7c-0.4-0.2-0.7-0.4-1-0.5l0.3-0.5
		c0.5,0.3,1,0.4,1.3,0.5c0.3,0,0.7-0.1,0.9-0.4c0.3-0.3,0.6-0.7,0.9-1.2l6.7-11.3c0.3-0.6,0.5-1,0.6-1.3s0-0.6-0.2-0.9
		c-0.2-0.3-0.6-0.6-1.1-0.9l0.3-0.5c0.3,0.2,0.6,0.4,1,0.6c0.4,0.2,0.8,0.5,1.2,0.7c0.3,0.2,0.7,0.4,1.1,0.6
		c0.4,0.2,0.7,0.4,0.9,0.5l-2.9,17l-0.5,0l13.5-10.9c0.2,0.1,0.4,0.2,0.5,0.3c0.2,0.1,0.4,0.2,0.5,0.3c0.5,0.3,1.1,0.6,1.6,0.9
		C163.1,21.6,163.6,21.9,163.9,22.1z"/>
	<path class="st1" d="M177.9,34.8c-0.5,0.4-0.9,0.8-1.4,1.2s-0.7,0.7-0.9,1c-0.2,0.2-0.4,0.5-0.6,0.7c-0.2,0.2-0.3,0.4-0.5,0.6
		l-0.5-0.4c0.6-0.9,1.1-1.6,1.4-2.2c0.3-0.6,0.3-1.1,0.2-1.7c-0.2-0.5-0.6-1.1-1.3-1.7l-1.6-1.5c-0.4-0.4-0.8-0.7-1.1-0.8
		c-0.3-0.1-0.6-0.1-0.9,0c-0.3,0.2-0.7,0.5-1.1,1l-9.1,9.8c-0.4,0.5-0.7,0.9-0.9,1.2c-0.1,0.3-0.1,0.6,0,0.9
		c0.2,0.3,0.5,0.6,0.9,1.1l1.4,1.3c0.8,0.8,1.6,1.2,2.2,1.4c0.6,0.2,1.3,0.1,1.9-0.2c0.7-0.3,1.4-0.9,2.3-1.7l0.5,0.4
		c-0.4,0.3-0.8,0.8-1.4,1.4c-0.2,0.3-0.6,0.6-1,1.1c-0.4,0.5-0.8,1-1.2,1.6c-0.6-0.7-1.4-1.4-2.2-2.2c-0.8-0.8-1.6-1.5-2.2-2.1
		c-0.4-0.4-0.9-0.9-1.6-1.5c-0.7-0.6-1.4-1.2-2.1-1.9c-0.7-0.7-1.5-1.3-2.1-1.9l0.4-0.4c0.5,0.4,0.9,0.7,1.2,0.8
		c0.3,0.1,0.6,0.1,0.9,0s0.7-0.5,1.1-1l9.1-9.8c0.5-0.5,0.7-0.9,0.9-1.2c0.1-0.3,0.1-0.6,0-0.9c-0.2-0.3-0.4-0.7-0.9-1.1l0.4-0.4
		c0.6,0.6,1.3,1.3,2,2c0.7,0.7,1.4,1.4,2.1,2c0.7,0.6,1.2,1.1,1.6,1.5c0.6,0.6,1.3,1.2,2.1,1.9C176.6,33.6,177.3,34.2,177.9,34.8z
		 M168.3,38.4l-0.4,0.4l-3.6-3.4l0.4-0.4L168.3,38.4z M171.3,36.3c-0.8,0.7-1.3,1.3-1.7,1.7c-0.4,0.4-0.7,0.8-1,1.1
		c-0.3,0.3-0.6,0.7-1,1.1c-0.4,0.4-0.9,1-1.5,1.8l-0.5-0.4c0.3-0.5,0.7-0.9,1-1.4c0.3-0.5,0.4-0.9,0.4-1.4c0-0.5-0.3-1-0.9-1.5
		l0.4-0.4c0.6,0.5,1.1,0.8,1.6,0.7c0.5-0.1,1-0.3,1.4-0.7c0.4-0.3,0.8-0.7,1.2-0.9L171.3,36.3z"/>
</g>
</svg>
