<?xml version="1.0" encoding="utf-8"?>
<!-- Generator: Adobe Illustrator 25.4.1, SVG Export Plug-In . SVG Version: 6.00 Build 0)  -->
<svg version="1.1" id="Layer_1" xmlns="http://www.w3.org/2000/svg" xmlns:xlink="http://www.w3.org/1999/xlink" x="0px" y="0px"
	 viewBox="0 0 200 200" style="enable-background:new 0 0 200 200;" xml:space="preserve">
<style type="text/css">
	.st0{fill:none;stroke:#FFFFFF;stroke-width:1.5;stroke-linecap:round;stroke-linejoin:round;stroke-miterlimit:10;}
	.st1{fill:#FFFFFF;}
</style>
<g>
	<path class="st0" d="M142.8,74.5c-0.5-1.3-1.1-2.5-1.7-3.7"/>
	<path class="st0" d="M146.2,92.2c0,1.5-0.1,3-0.2,4.5"/>
	<path class="st0" d="M132.6,59.4c1.1,1.1,2.2,2.3,3.2,3.6"/>
	<path class="st0" d="M146.1,88.5c-0.1-1.7-0.4-3.5-0.7-5.2"/>
	<path class="st0" d="M142.8,74.5c0.6,1.5,1.2,3.1,1.6,4.7"/>
	<path class="st0" d="M138.2,66c-0.7-1.1-1.5-2.1-2.3-3.1"/>
	<path class="st0" d="M145.4,100.9c0.3-1.4,0.5-2.7,0.6-4.1"/>
	<path class="st0" d="M103.9,138.3c1.6-0.1,3.2-0.4,4.8-0.7"/>
	<path class="st0" d="M113.1,136.6c1.5-0.4,2.9-0.9,4.3-1.5"/>
	<path class="st0" d="M53.7,96c-0.1-1.2-0.2-2.5-0.2-3.7"/>
	<path class="st0" d="M135.3,122.1c1.1-1.3,2.1-2.6,3-3.9"/>
	<path class="st0" d="M129.4,127.9c1.1-0.9,2.2-1.9,3.2-2.9"/>
	<path class="st0" d="M54.3,83.7c-0.2,1.3-0.4,2.6-0.6,4"/>
	<path class="st0" d="M140.6,114.4c0.8-1.4,1.4-2.8,2-4.3"/>
	<path class="st0" d="M113.1,136.6c-1.5,0.4-3,0.8-4.5,1.1"/>
	<path class="st0" d="M129.4,127.9c-1.1,0.9-2.3,1.8-3.5,2.6"/>
	<path class="st0" d="M103.9,138.3c-1.3,0.1-2.6,0.2-4,0.2h-0.1"/>
	<path class="st0" d="M121.6,133.2c-1.3,0.7-2.7,1.4-4.1,1.9"/>
	<path class="st0" d="M99.8,138.5c-1.4,0-2.8-0.1-4.2-0.2"/>
	<path class="st0" d="M95.6,138.3c-1.5-0.1-2.9-0.3-4.4-0.6"/>
	<path class="st0" d="M144.2,106c-0.4,1.4-0.9,2.8-1.5,4.1"/>
	<path class="st0" d="M146.1,88.5c0.1,1.2,0.2,2.4,0.2,3.7c0,0,0,0,0,0.1"/>
	<path class="st0" d="M144.4,79.2c0.4,1.3,0.7,2.7,1,4.1"/>
	<path class="st0" d="M145.4,100.9c-0.3,1.7-0.7,3.5-1.3,5.1"/>
	<path class="st0" d="M135.3,122.1c-0.9,1-1.8,2-2.7,2.9"/>
	<path class="st0" d="M140.6,114.4c-0.7,1.3-1.5,2.6-2.3,3.8"/>
	<path class="st0" d="M138.2,66c1,1.5,2,3.1,2.8,4.8"/>
	<path class="st0" d="M86.3,136.5c1.6,0.5,3.2,0.9,4.9,1.2"/>
	<path class="st0" d="M70,127.6c1.3,1.1,2.6,2.1,3.9,3"/>
	<path class="st0" d="M74,130.6c1.3,0.9,2.6,1.6,3.9,2.4"/>
	<path class="st0" d="M73.6,54c-1,0.7-2.1,1.5-3,2.3"/>
	<path class="st0" d="M82.1,49.4c-1.2,0.5-2.4,1.1-3.6,1.7"/>
	<path class="st0" d="M82,134.9c1.4,0.6,2.8,1.1,4.3,1.6"/>
	<path class="st0" d="M77.9,133c1.3,0.7,2.7,1.4,4.1,2"/>
	<path class="st0" d="M113.9,48c-1.8-0.6-3.7-1-5.5-1.4"/>
	<path class="st0" d="M125.7,53.7c-1.1-0.7-2.3-1.4-3.4-2.1"/>
	<path class="st0" d="M130.1,57c-1.4-1.2-2.8-2.3-4.3-3.3"/>
	<path class="st0" d="M132.6,59.4c-0.8-0.8-1.7-1.6-2.6-2.4"/>
	<path class="st0" d="M122.3,51.6c-1.5-0.8-3.1-1.6-4.7-2.3"/>
	<path class="st0" d="M70,127.6c-1-0.9-2-1.7-2.9-2.7"/>
	<path class="st0" d="M117.6,49.3c-1.2-0.5-2.4-1-3.7-1.4"/>
	<path class="st0" d="M61.6,118.3c0.8,1.2,1.7,2.3,2.6,3.4"/>
	<path class="st0" d="M61.4,66.4c-0.8,1.1-1.5,2.3-2.1,3.5"/>
	<path class="st0" d="M53.6,92.3L53.6,92.3c0-1.6,0.1-3.1,0.2-4.6"/>
	<path class="st0" d="M54.3,83.7c0.3-1.8,0.8-3.6,1.3-5.3"/>
	<path class="st0" d="M57,74.5c0.6-1.6,1.4-3.1,2.2-4.6"/>
	<path class="st0" d="M61.4,66.4c1-1.5,2.1-2.9,3.3-4.3"/>
	<path class="st0" d="M57,74.5c-0.5,1.3-1,2.6-1.4,3.9"/>
	<path class="st0" d="M67,59.5c-0.8,0.8-1.6,1.7-2.4,2.6"/>
	<path class="st0" d="M57.1,109.9c0.6,1.4,1.2,2.7,1.9,4"/>
	<path class="st0" d="M61.6,118.3c-1-1.4-1.9-2.9-2.7-4.5"/>
	<path class="st0" d="M67.1,124.9c-1-1-2-2.1-2.9-3.2"/>
	<path class="st0" d="M57.1,109.9c-0.6-1.5-1.1-3-1.6-4.5"/>
	<path class="st0" d="M54.4,101.1c-0.3-1.7-0.6-3.4-0.7-5.1"/>
	<path class="st0" d="M55.5,105.4c-0.4-1.4-0.8-2.8-1-4.2"/>
	<path class="st0" d="M121.6,133.2c1.5-0.8,3-1.7,4.3-2.6"/>
	<path class="st0" d="M99.7,45.8c0.1,0,0.1,0,0.2,0c1.6,0,3.2,0.1,4.7,0.2"/>
	<path class="st0" d="M96.3,46c1.1-0.1,2.3-0.1,3.4-0.1"/>
	<path class="st0" d="M108.4,46.6c-1.2-0.2-2.5-0.4-3.7-0.5"/>
	<path class="st0" d="M67,59.5c1.1-1.1,2.3-2.2,3.6-3.3"/>
	<path class="st0" d="M87,47.7c1.3-0.4,2.5-0.7,3.8-0.9"/>
	<path class="st0" d="M96.3,46c-1.9,0.1-3.7,0.4-5.5,0.7"/>
	<path class="st0" d="M73.6,54c1.6-1.1,3.2-2.1,4.9-2.9"/>
	<path class="st0" d="M82.1,49.4c1.6-0.7,3.3-1.2,4.9-1.7"/>
	<line class="st0" x1="95.6" y1="138.3" x2="92.9" y2="168.4"/>
	<line class="st0" x1="104.6" y1="46.1" x2="107.3" y2="16.1"/>
	<line class="st0" x1="107.7" y1="11.9" x2="108.9" y2="0.5"/>
	<line class="st0" x1="24" y1="85.1" x2="53.8" y2="87.7"/>
	<line class="st0" x1="19.8" y1="84.7" x2="8.4" y2="83.5"/>
	<line class="st0" x1="146" y1="96.8" x2="176.2" y2="99.4"/>
	<line class="st0" x1="180.4" y1="99.8" x2="191.9" y2="101"/>
	<line class="st0" x1="41.2" y1="141" x2="64.2" y2="121.7"/>
	<line class="st0" x1="159" y1="43.5" x2="135.8" y2="62.9"/>
	<line class="st0" x1="162.3" y1="40.8" x2="171.2" y2="33.6"/>
	<line class="st0" x1="51.3" y1="33.3" x2="70.6" y2="56.3"/>
	<line class="st0" x1="41.4" y1="21.2" x2="48.7" y2="30.1"/>
	<line class="st0" x1="129.4" y1="127.9" x2="148.9" y2="151.2"/>
	<line class="st0" x1="77.9" y1="133" x2="63.7" y2="159.5"/>
	<line class="st0" x1="122.3" y1="51.6" x2="136.5" y2="25"/>
	<line class="st0" x1="138.5" y1="21.3" x2="144.1" y2="11.2"/>
	<line class="st0" x1="32.8" y1="55.8" x2="59.2" y2="69.9"/>
	<line class="st0" x1="19.1" y1="48.3" x2="29.2" y2="53.8"/>
	<line class="st0" x1="140.6" y1="114.4" x2="167.4" y2="128.6"/>
	<line class="st0" x1="181.1" y1="136.2" x2="171" y2="130.6"/>
	<line class="st0" x1="55.5" y1="105.4" x2="26.8" y2="114.1"/>
	<line class="st0" x1="22.8" y1="115.3" x2="11.7" y2="118.4"/>
	<line class="st0" x1="173.4" y1="70.4" x2="144.4" y2="79.2"/>
	<line class="st0" x1="177.4" y1="69.2" x2="188.5" y2="66"/>
	<line class="st0" x1="87" y1="47.7" x2="78.3" y2="18.9"/>
	<line class="st0" x1="73.9" y1="3.9" x2="77.1" y2="14.9"/>
	<line class="st0" x1="113.1" y1="136.6" x2="121.9" y2="165.5"/>
	<line class="st0" x1="86.3" y1="136.5" x2="77.6" y2="165.3"/>
	<line class="st0" x1="113.9" y1="48" x2="122.6" y2="19.1"/>
	<line class="st0" x1="123.8" y1="15.1" x2="127.3" y2="4.2"/>
	<line class="st0" x1="55.6" y1="78.4" x2="27" y2="69.8"/>
	<line class="st0" x1="23" y1="68.5" x2="12" y2="65"/>
	<line class="st0" x1="144.2" y1="106" x2="173.2" y2="114.7"/>
	<line class="st0" x1="177.2" y1="116" x2="188.2" y2="119.4"/>
	<line class="st0" x1="32.5" y1="128" x2="58.9" y2="113.8"/>
	<line class="st0" x1="28.8" y1="130" x2="18.6" y2="135.3"/>
	<line class="st0" x1="167.7" y1="56.4" x2="141" y2="70.8"/>
	<line class="st0" x1="171.4" y1="54.5" x2="181.6" y2="49.2"/>
	<line class="st0" x1="78.5" y1="51.1" x2="64.3" y2="24.6"/>
	<line class="st0" x1="57.1" y1="10.7" x2="62.4" y2="20.9"/>
	<line class="st0" x1="121.6" y1="133.2" x2="135.9" y2="159.8"/>
	<line class="st0" x1="70" y1="127.6" x2="50.8" y2="150.7"/>
	<line class="st0" x1="130.1" y1="57" x2="149.4" y2="33.8"/>
	<line class="st0" x1="152.1" y1="30.6" x2="159.6" y2="21.8"/>
	<line class="st0" x1="41.6" y1="43" x2="64.6" y2="62.1"/>
	<line class="st0" x1="29.7" y1="32.8" x2="38.4" y2="40.2"/>
	<line class="st0" x1="135.3" y1="122.1" x2="158.6" y2="141.5"/>
	<line class="st0" x1="53.7" y1="96" x2="23.9" y2="98.7"/>
	<line class="st0" x1="19.7" y1="99.1" x2="8.3" y2="100"/>
	<line class="st0" x1="146.1" y1="88.5" x2="176.3" y2="85.7"/>
	<line class="st0" x1="180.5" y1="85.4" x2="191.9" y2="84.5"/>
	<line class="st0" x1="96.3" y1="46" x2="93.6" y2="16"/>
	<line class="st0" x1="92.4" y1="0.4" x2="93.3" y2="11.9"/>
	<line class="st0" x1="103.9" y1="138.3" x2="106.6" y2="168.5"/>
	<line class="st0" x1="15.5" y1="92.2" x2="53.6" y2="92.3"/>
	<line class="st0" x1="184.1" y1="92.3" x2="146.2" y2="92.2"/>
	<line class="st0" x1="99.8" y1="138.5" x2="99.7" y2="176.6"/>
	<line class="st0" x1="99.7" y1="45.8" x2="99.8" y2="8"/>
	<line class="st0" x1="67" y1="59.5" x2="40.2" y2="32.6"/>
	<line class="st0" x1="159.3" y1="151.9" x2="132.6" y2="125"/>
	<line class="st0" x1="67.1" y1="124.9" x2="40.1" y2="151.8"/>
	<line class="st0" x1="159.4" y1="32.7" x2="132.6" y2="59.4"/>
	<line class="st0" x1="16.9" y1="76.5" x2="54.3" y2="83.7"/>
	<line class="st0" x1="182.6" y1="108" x2="145.4" y2="100.9"/>
	<line class="st0" x1="91.2" y1="137.7" x2="84" y2="175.1"/>
	<line class="st0" x1="108.4" y1="46.6" x2="115.5" y2="9.4"/>
	<line class="st0" x1="73.6" y1="54" x2="52.3" y2="22.6"/>
	<line class="st0" x1="125.9" y1="130.5" x2="147.2" y2="161.9"/>
	<line class="st0" x1="30.1" y1="139.7" x2="61.6" y2="118.3"/>
	<line class="st0" x1="169.4" y1="44.8" x2="138.2" y2="66"/>
	<line class="st0" x1="57" y1="74.5" x2="22" y2="59.8"/>
	<line class="st0" x1="177.5" y1="124.7" x2="142.7" y2="110.1"/>
	<line class="st0" x1="82" y1="134.9" x2="67.3" y2="170.1"/>
	<line class="st0" x1="117.6" y1="49.3" x2="132.2" y2="14.5"/>
	<line class="st0" x1="82.1" y1="49.4" x2="67.7" y2="14.3"/>
	<line class="st0" x1="117.4" y1="135.1" x2="131.8" y2="170.2"/>
	<line class="st0" x1="21.8" y1="124.3" x2="57.1" y2="109.9"/>
	<line class="st0" x1="177.7" y1="60.2" x2="142.8" y2="74.5"/>
	<line class="st0" x1="61.4" y1="66.4" x2="29.9" y2="45.1"/>
	<line class="st0" x1="169.6" y1="139.4" x2="138.3" y2="118.2"/>
	<line class="st0" x1="74" y1="130.6" x2="52.6" y2="162.1"/>
	<line class="st0" x1="125.7" y1="53.7" x2="146.9" y2="22.4"/>
	<line class="st0" x1="90.9" y1="46.7" x2="83.7" y2="9.5"/>
	<line class="st0" x1="108.6" y1="137.7" x2="115.8" y2="175"/>
	<line class="st0" x1="54.4" y1="101.1" x2="17" y2="108.3"/>
	<line class="st0" x1="182.5" y1="76.2" x2="145.4" y2="83.3"/>
</g>
<g>
	<path class="st1" d="M37.5,151.8c0.3,0.3,0.6,0.6,1,1.1c0.4,0.4,0.8,0.9,1.3,1.3c0.6,0.6,1.2,1.2,1.7,1.7c0.6,0.5,1,0.9,1.2,1.2
		c1.3,1.3,2.1,2.6,2.2,3.9c0.1,1.2-0.3,2.3-1.2,3.2c-0.4,0.4-1,0.8-1.6,1c-0.6,0.2-1.3,0.3-2.1,0.2c-0.8-0.1-1.6-0.4-2.6-0.9l0,0
		c0.9,1.1,1.4,2.2,1.6,3.1c0.2,0.9,0.2,1.7,0,2.4c-0.2,0.7-0.6,1.3-1.2,1.8c-1.1,1.1-2.4,1.6-3.9,1.4c-1.5-0.1-3-0.9-4.4-2.3
		c-0.3-0.3-0.7-0.7-1.2-1.3s-1.2-1.3-2-2.1c-0.4-0.4-0.9-0.9-1.3-1.3s-0.8-0.8-1.1-1l0.4-0.4c0.5,0.4,0.8,0.7,1.1,0.8
		c0.3,0.1,0.6,0.1,0.9,0c0.3-0.2,0.7-0.5,1.1-0.9l9.5-9.4c0.5-0.5,0.8-0.9,0.9-1.2s0.2-0.6,0-0.9c-0.1-0.3-0.4-0.7-0.8-1.1
		L37.5,151.8z M41.8,156.9c-0.6-0.6-1.1-0.9-1.5-0.8c-0.4,0-0.9,0.4-1.6,1l-9.5,9.4c-0.7,0.7-1,1.2-1,1.6s0.3,0.9,0.9,1.5
		c1.2,1.3,2.4,1.9,3.6,1.9c1.1,0,2.3-0.5,3.3-1.6c1-1,1.5-2,1.5-3.1c0-1.1-0.6-2.2-1.8-3.4l-2-2l0.3-0.3l1.6,1.6
		c0.7,0.8,1.5,1.2,2.2,1.3s1.4,0,2-0.3c0.6-0.3,1.2-0.8,1.8-1.3c0.9-0.9,1.5-1.9,1.5-2.7C43.2,158.8,42.7,157.9,41.8,156.9z"/>
	<path class="st1" d="M54.6,166.8l-4.2,17.7c-0.2,0.7-0.2,1.3,0,1.6c0.2,0.4,0.3,0.7,0.6,0.8l-0.3,0.4c-0.3-0.2-0.6-0.5-1.1-0.8
		s-0.9-0.6-1.3-0.9c-0.6-0.4-1.1-0.8-1.6-1.1c-0.5-0.3-0.9-0.6-1.3-0.8l0.3-0.4c0.8,0.5,1.3,0.7,1.7,0.6c0.4-0.1,0.7-0.6,0.9-1.6
		l3.4-13.9l0.6,0l-10.8,7.4c-0.9,0.6-1.4,1.1-1.7,1.6c-0.3,0.5-0.3,0.9-0.2,1.3s0.6,0.8,1.2,1.3l-0.3,0.4c-0.4-0.3-0.8-0.6-1.3-0.9
		c-0.4-0.3-0.9-0.6-1.2-0.9c-0.4-0.3-0.7-0.5-1-0.6c-0.3-0.2-0.5-0.3-0.8-0.4l0.3-0.4c0.3,0.1,0.8,0.2,1.3,0.1
		c0.5-0.1,1.1-0.3,1.8-0.8l14.5-9.9c0.1,0,0.1,0.1,0.2,0.1S54.5,166.7,54.6,166.8z M50.8,178.1l-0.3,0.4l-6.6-4.5l0.5-0.3
		L50.8,178.1z"/>
	<path class="st1" d="M69.2,174.4c1.1,0.5,1.9,1,2.5,1.6c0.6,0.6,1,1.3,1.4,1.9c0.2,0.4,0.5,0.5,0.7,0.4c0.3-0.1,0.6-0.5,0.9-1.2
		l0.6,0.2c-0.3,0.6-0.6,1.3-1,2.2c-0.4,0.9-0.9,2-1.5,3.5l-0.6-0.2c0.2-0.8,0.3-1.4,0.4-1.8c0.1-0.5,0.1-0.9,0.1-1.2
		c0-0.4-0.1-0.7-0.2-1.1c-0.2-0.9-0.7-1.7-1.3-2.3c-0.6-0.6-1.4-1.1-2.3-1.5c-0.8-0.3-1.6-0.5-2.5-0.3c-0.8,0.1-1.6,0.5-2.4,1
		s-1.6,1.3-2.3,2.3c-0.7,1-1.4,2.1-1.9,3.5c-0.6,1.4-1,2.7-1.1,3.9c-0.2,1.2-0.2,2.3,0,3.2c0.2,0.9,0.6,1.7,1.1,2.4
		c0.5,0.7,1.2,1.2,2,1.5c0.7,0.3,1.6,0.5,2.5,0.5s1.8-0.2,2.5-0.6c0.6-0.3,1-0.7,1.4-1.2c0.4-0.5,0.8-1.2,1.4-2.2l0.6,0.2
		c-0.6,1.5-1.1,2.7-1.5,3.7c-0.4,0.9-0.7,1.7-0.9,2.4l-0.6-0.2c0.2-0.7,0.3-1.2,0.2-1.5c-0.1-0.2-0.4-0.3-0.8-0.3
		c-0.8,0.2-1.6,0.3-2.4,0.3c-0.8,0-1.8-0.2-2.9-0.6c-1.6-0.7-2.8-1.6-3.7-2.8c-0.9-1.2-1.4-2.6-1.4-4.3s0.3-3.4,1.1-5.3
		c0.8-1.9,1.8-3.3,3.1-4.4c1.3-1.1,2.7-1.8,4.2-2.1C66.1,173.6,67.7,173.8,69.2,174.4z"/>
	<path class="st1" d="M83.4,179.2l-0.1,0.5c-0.6-0.1-1.1-0.1-1.4-0.1c-0.3,0.1-0.6,0.2-0.7,0.5c-0.2,0.3-0.3,0.8-0.4,1.4l-2.6,13.1
		c-0.1,0.6-0.2,1.1-0.1,1.5c0,0.3,0.2,0.6,0.5,0.8s0.7,0.3,1.3,0.5l-0.1,0.5c-0.4-0.1-0.9-0.2-1.5-0.4s-1.2-0.3-1.8-0.4
		c-0.7-0.1-1.3-0.3-1.9-0.4c-0.6-0.1-1.1-0.2-1.5-0.2l0.1-0.5c0.6,0.1,1.1,0.1,1.4,0.1s0.6-0.2,0.7-0.5s0.3-0.8,0.4-1.4l2.6-13.1
		c0.1-0.7,0.2-1.1,0.1-1.5c0-0.3-0.2-0.6-0.5-0.8c-0.3-0.2-0.7-0.3-1.3-0.5l0.1-0.5c0.4,0.1,0.8,0.2,1.4,0.3s1.2,0.3,1.9,0.4
		c0.6,0.1,1.2,0.2,1.8,0.3C82.5,179,83,179.1,83.4,179.2z M91.8,180.9l-0.1,0.5c-0.6,0-1.1,0-1.7,0.2c-0.6,0.2-1.2,0.5-1.8,1.1
		l-6.4,5.5l0.8-1.2l4.6,10.2c0.2,0.5,0.5,0.9,0.8,1.2s0.7,0.6,1.2,0.8l-0.1,0.5c-0.4-0.1-0.9-0.2-1.6-0.4s-1.2-0.2-1.6-0.3
		c-0.3-0.1-0.7-0.1-1.1-0.2c-0.4-0.1-1-0.2-1.6-0.3l0.1-0.5c0.6,0.1,1,0.1,1.2-0.1c0.2-0.1,0.2-0.4,0-0.9l-2.7-6.6
		c-0.2-0.6-0.5-1.1-0.7-1.4s-0.5-0.6-0.7-0.7c-0.3-0.1-0.6-0.3-1.1-0.4l0.1-0.5c0.7,0.1,1.4,0.1,2-0.1s1-0.4,1.5-0.8l3.2-2.7
		c0.7-0.6,1.2-1.2,1.6-1.6c0.3-0.5,0.4-0.9,0.2-1.2s-0.6-0.6-1.4-0.7l0.1-0.5c0.5,0.1,1,0.2,1.6,0.4c0.5,0.1,1,0.2,1.5,0.3
		C90.6,180.7,91.3,180.8,91.8,180.9z"/>
	<path class="st1" d="M100.5,200.4l-0.1-0.5c0.6-0.1,1.1-0.2,1.4-0.3c0.3-0.1,0.5-0.4,0.6-0.7s0.1-0.8,0-1.5l-1.3-13.3
		c-0.1-0.7-0.2-1.1-0.3-1.5c-0.1-0.3-0.4-0.5-0.7-0.6c-0.3-0.1-0.8-0.1-1.4-0.1l-0.1-0.5c0.4,0,0.9,0,1.5-0.1c0.6,0,1.3-0.1,2-0.2
		c0.6-0.1,1.2-0.1,1.9-0.2c0.6-0.1,1.1-0.1,1.5-0.2l0.1,0.5c-0.6,0.1-1.1,0.2-1.4,0.3s-0.5,0.4-0.6,0.7c-0.1,0.3-0.1,0.8,0,1.5
		l1.3,13.3c0.1,0.6,0.2,1.1,0.3,1.4s0.4,0.5,0.7,0.6c0.3,0.1,0.8,0.1,1.4,0.1l0.1,0.5c-0.4,0-0.9,0-1.6,0.1s-1.2,0.1-1.9,0.2
		c-0.7,0.1-1.4,0.1-2,0.2C101.4,200.3,100.9,200.3,100.5,200.4z M103.4,190.8l-0.1-0.5l10.6-1l0.1,0.5L103.4,190.8z M111.8,199.3
		l-0.1-0.5c0.6-0.1,1.1-0.2,1.4-0.3c0.3-0.1,0.5-0.4,0.6-0.7s0.1-0.8,0-1.5l-1.3-13.3c-0.1-0.7-0.2-1.1-0.3-1.4
		c-0.1-0.3-0.4-0.5-0.7-0.6c-0.3-0.1-0.8-0.1-1.4-0.1l-0.1-0.5c0.4,0,0.9-0.1,1.6-0.1c0.6,0,1.2-0.1,1.9-0.1c0.7-0.1,1.4-0.1,2-0.2
		c0.6-0.1,1.1-0.1,1.5-0.2l0.1,0.5c-0.6,0.1-1.1,0.2-1.4,0.3s-0.5,0.4-0.6,0.7c-0.1,0.3-0.1,0.8,0,1.5l1.3,13.3
		c0.1,0.6,0.2,1.1,0.3,1.4c0.1,0.3,0.4,0.5,0.7,0.6c0.3,0.1,0.8,0.1,1.4,0.1l0.1,0.5c-0.4,0-0.9,0-1.5,0.1c-0.6,0-1.3,0.1-2,0.2
		c-0.6,0.1-1.2,0.1-1.9,0.2C112.7,199.2,112.2,199.3,111.8,199.3z"/>
	<path class="st1" d="M125.5,176.4c1.6-0.5,3.2-0.6,4.6-0.3c1.5,0.3,2.8,1.1,3.9,2.2c1.1,1.1,2,2.7,2.7,4.7c0.6,1.9,0.9,3.7,0.6,5.4
		c-0.2,1.7-0.8,3.1-1.8,4.3c-1,1.2-2.2,2.1-3.8,2.6c-1.6,0.5-3.2,0.7-4.6,0.3s-2.8-1.1-3.9-2.2c-1.1-1.2-2-2.7-2.7-4.7
		c-0.6-1.9-0.8-3.7-0.6-5.4c0.2-1.7,0.8-3.1,1.8-4.3C122.7,177.8,124,176.9,125.5,176.4z M125.6,176.9c-1.1,0.4-1.9,1.1-2.5,2.1
		s-0.8,2.3-0.8,3.8c0,1.5,0.3,3.1,0.9,4.9c0.6,1.8,1.4,3.3,2.3,4.5s2,2,3.1,2.4s2.2,0.5,3.2,0.1c1.1-0.4,1.9-1.1,2.5-2.1
		c0.6-1,0.8-2.3,0.8-3.8c0-1.5-0.3-3.1-0.9-4.9c-0.6-1.8-1.4-3.3-2.3-4.5c-0.9-1.2-2-2-3.1-2.4S126.7,176.5,125.6,176.9z"/>
	<path class="st1" d="M152.4,162.5l0.3,0.5c-0.5,0.3-0.9,0.7-1.1,0.9c-0.2,0.3-0.3,0.6-0.2,0.9c0.1,0.3,0.3,0.8,0.7,1.3l7.2,11.3
		c0.3,0.5,0.7,0.9,0.9,1.1c0.3,0.2,0.6,0.3,0.9,0.2c0.3-0.1,0.8-0.3,1.3-0.6l0.3,0.5c-0.4,0.2-0.8,0.5-1.3,0.8s-1.1,0.7-1.6,1
		c-0.6,0.4-1.1,0.7-1.7,1.1s-0.9,0.6-1.2,0.9l-0.3-0.5c0.5-0.4,0.8-0.7,1.1-0.9c0.2-0.3,0.3-0.6,0.2-0.9c-0.1-0.3-0.3-0.8-0.6-1.3
		l-8-12.5l0.1,0l4,18.5l-0.4,0.2l-15.2-11.1l7.7,12c0.3,0.5,0.7,0.9,1,1.2s0.6,0.3,1,0.3c0.4-0.1,0.9-0.3,1.5-0.6l0.3,0.5
		c-0.3,0.1-0.7,0.4-1.1,0.6c-0.4,0.3-0.9,0.5-1.3,0.8c-0.4,0.2-0.8,0.5-1.1,0.7c-0.4,0.3-0.7,0.5-0.9,0.7l-0.3-0.5
		c0.5-0.4,0.8-0.7,1-1c0.2-0.3,0.2-0.6,0.1-1c-0.1-0.4-0.3-0.8-0.7-1.4l-7.1-11.1c-0.4-0.6-0.7-0.9-0.9-1.2
		c-0.3-0.2-0.6-0.3-0.9-0.2c-0.3,0.1-0.8,0.3-1.3,0.6l-0.3-0.5c0.3-0.1,0.6-0.3,1-0.6c0.4-0.2,0.8-0.5,1.2-0.7
		c0.3-0.2,0.7-0.4,1-0.7c0.3-0.2,0.6-0.4,0.9-0.6l13.9,10.3l-0.3,0.4l-3.6-17c0.2-0.1,0.4-0.2,0.5-0.3c0.2-0.1,0.4-0.2,0.5-0.3
		c0.5-0.3,1.1-0.7,1.6-1C151.6,163.1,152,162.8,152.4,162.5z"/>
	<path class="st1" d="M162.1,152.2c0.4,0.5,0.8,1,1.2,1.4c0.4,0.4,0.7,0.8,0.9,1c0.2,0.2,0.5,0.4,0.7,0.6c0.2,0.2,0.4,0.4,0.6,0.5
		l-0.4,0.4c-0.8-0.7-1.5-1.1-2.1-1.4c-0.6-0.3-1.1-0.4-1.7-0.2c-0.5,0.2-1.1,0.6-1.8,1.3l-1.6,1.6c-0.4,0.4-0.7,0.8-0.9,1.1
		c-0.2,0.3-0.2,0.6,0,0.9c0.1,0.3,0.5,0.7,0.9,1.1l9.5,9.4c0.5,0.5,0.8,0.8,1.2,0.9c0.3,0.2,0.6,0.1,0.9,0c0.3-0.2,0.7-0.5,1.1-0.9
		l1.4-1.4c0.8-0.8,1.3-1.5,1.5-2.2s0.1-1.3-0.2-2c-0.3-0.7-0.8-1.5-1.6-2.4l0.4-0.4c0.3,0.4,0.8,0.9,1.3,1.4c0.2,0.2,0.6,0.6,1.1,1
		c0.5,0.4,1,0.9,1.5,1.3c-0.7,0.6-1.4,1.4-2.2,2.2c-0.8,0.8-1.5,1.5-2.2,2.2c-0.4,0.4-0.9,0.9-1.5,1.5c-0.6,0.6-1.3,1.3-2,2
		c-0.7,0.7-1.3,1.4-1.9,2.1l-0.4-0.4c0.4-0.5,0.7-0.8,0.8-1.1c0.1-0.3,0.1-0.6,0-0.9c-0.2-0.3-0.5-0.7-0.9-1.1l-9.5-9.4
		c-0.5-0.5-0.9-0.8-1.2-0.9c-0.3-0.1-0.6-0.1-0.9,0c-0.3,0.1-0.7,0.4-1.1,0.8l-0.4-0.4c0.6-0.6,1.3-1.3,2-2c0.7-0.7,1.4-1.4,2-2
		c0.6-0.6,1.1-1.1,1.5-1.5c0.6-0.6,1.2-1.3,2-2C160.9,153.5,161.6,152.8,162.1,152.2z M165.4,162l0.4,0.4l-3.5,3.5l-0.4-0.4
		L165.4,162z M163.5,158.9c0.7,0.8,1.2,1.3,1.6,1.7c0.4,0.4,0.7,0.7,1.1,1c0.3,0.3,0.7,0.7,1.1,1c0.4,0.4,1,0.9,1.8,1.6l-0.4,0.4
		c-0.5-0.4-0.9-0.7-1.4-1s-0.9-0.5-1.4-0.5s-1,0.3-1.6,0.8l-0.4-0.4c0.6-0.6,0.8-1.1,0.7-1.6c-0.1-0.5-0.3-1-0.6-1.5
		c-0.3-0.5-0.6-0.9-0.9-1.2L163.5,158.9z"/>
</g>
<g>
	<path class="st0" d="M73.3,77.4c-2.1,1-3.4,2-3.4,2"/>
	<path class="st0" d="M96.3,100.8c0,0,2.5-14.5-6.4-22.2c-5.9-5-12.6-3.2-16.6-1.3"/>
	<path class="st0" d="M102.7,104.1c-1.8,1.4-4.4,1.4-6.2,0"/>
	<path class="st0" d="M83.5,83.7c6.6,0.6,8.3,4.2,8.4,4.4"/>
	<path class="st0" d="M74.7,83.5c1.9,0.1,4.1,0.1,6.7,0.1c0.8,0,1.4,0,2.1,0.1"/>
	<path class="st0" d="M91.9,88.1C91.9,88.1,91.9,88.2,91.9,88.1C91.9,88.2,91.9,88.1,91.9,88.1"/>
	<path class="st0" d="M66.8,81.7c-0.3-0.2-0.6-0.5-0.9-0.7"/>
	<path class="st0" d="M91.9,88.1c-0.1-0.2-1.1-1.6-8.6,1.2c-4.6,1.8-9.8,0.8-13.4-2.6"/>
	<path class="st0" d="M74.7,83.5c-3.7-0.2-6.1-0.6-7.9-1.8"/>
	<path class="st0" d="M74.7,83.5L74.7,83.5"/>
	<path class="st0" d="M83.5,83.7L83.5,83.7"/>
	<path class="st0" d="M74.7,83.5c-0.2,0.5-0.3,1.1-0.3,1.6c0.1,2.4,2,4.4,4.5,4.5c2.6,0.1,4.8-1.9,4.9-4.5c0-0.5-0.1-1-0.2-1.4"/>
	<path class="st0" d="M127.3,78c1.4,0.8,2.2,1.4,2.2,1.4"/>
	<path class="st0" d="M127.3,78c-3.7-2-11.3-5-17.9,0.6c-9,7.7-6.4,22.2-6.4,22.2"/>
	<path class="st0" d="M83.4,116c0.1-0.5-0.2-0.5-0.2-0.5c-0.4,0-0.6,0.5-0.4,0.8s0.4,0.5,0.7,0.7h0.1"/>
	<path class="st0" d="M83.6,117.1c2.5,1.2,5.5,0.7,7.3-1.4c2.1-2.3,5.5-4.7,8.8,0c3.2-4.7,6.6-2.3,8.8,0c1.9,2.1,4.9,2.6,7.4,1.3
		c0.3-0.1,0.5-0.4,0.7-0.7s0-0.9-0.4-0.8c0,0-0.4,0-0.2,0.5"/>
	<path class="st0" d="M99.7,109.3L99.7,109.3"/>
	<path class="st0" d="M92.2,103.1c0,0-1.5,3.8,3.1,4.4c2.4,0.3,4-0.3,4.4,1.8"/>
	<path class="st0" d="M99.7,109.3L99.7,109.3"/>
	<path class="st0" d="M107.2,103.1c0,0,1.5,3.8-3,4.4c-2.4,0.3-4-0.3-4.4,1.8"/>
	<path class="st0" d="M115.9,83.7c0.7-0.1,1.3-0.1,2.1-0.1c2.6,0,4.8,0,6.7-0.1"/>
	<path class="st0" d="M107.4,88.1C107.4,88.1,107.4,88.2,107.4,88.1C107.4,88.2,107.4,88.1,107.4,88.1"/>
	<path class="st0" d="M107.4,88.1c0.1-0.2,1.1-1.6,8.6,1.2c4.6,1.8,9.8,0.8,13.4-2.6"/>
	<path class="st0" d="M115.9,83.7c-6.6,0.6-8.3,4.2-8.4,4.4"/>
	<path class="st0" d="M133.4,81c-1.7,1.8-4.4,2.4-8.7,2.6"/>
	<path class="st0" d="M115.9,83.7c-0.2,0.5-0.2,1-0.2,1.4c0.1,2.6,2.3,4.6,4.9,4.5c2.4-0.1,4.4-2,4.5-4.5c0-0.6-0.1-1.1-0.3-1.6"/>
	<path class="st0" d="M124.7,83.5L124.7,83.5"/>
	<path class="st0" d="M115.9,83.7L115.9,83.7"/>
	<path class="st0" d="M109.6,118.4c0,1.2-1.3,2.3-3.5,3.1c-1.1,0.4-2.4,0.7-3.8,0.8c-0.6,0.1-1.2,0.1-1.9,0.1c-0.3,0-0.5,0-0.8,0
		c-1,0-1.9-0.1-2.8-0.2c-0.7-0.1-1.4-0.2-2.1-0.4c-1.6-0.4-2.9-0.9-3.8-1.5v-0.1v0.1c-0.8-0.6-1.3-1.3-1.3-2"/>
</g>
</svg>
