<svg id="Layer_1" data-name="Layer 1" xmlns="http://www.w3.org/2000/svg" viewBox="0 0 344.74 344.74"><defs><style>.cls-1,.cls-2,.cls-3{fill:none;stroke:#fff;stroke-miterlimit:10;}.cls-1{stroke-width:0.7px;}.cls-2,.cls-3{stroke-width:0.68px;}.cls-3{stroke-dasharray:5.04 5.04;}</style></defs><circle class="cls-1" cx="172.75" cy="172.5" r="55.53"/><path class="cls-1" d="M136.46,157.15s13.19-10.12,23.95-.9,7.71,26.56,7.71,26.56"/><path class="cls-1" d="M184,203.89c0,2.69-5.33,4.87-11.91,4.87s-11.92-2.18-11.92-4.87"/><path class="cls-1" d="M168.3,186.7a5.94,5.94,0,0,0,7.39,0"/><path class="cls-1" d="M131.73,159c3,3.09,8.22,3.21,18.49,3.21s12.63,5.41,12.63,5.41-.77-2.19-10.36,1.4a15.3,15.3,0,0,1-16-3.08"/><path class="cls-1" d="M152.72,162.3a5.47,5.47,0,0,1,.29,1.77,5.6,5.6,0,0,1-11.19,0,5.51,5.51,0,0,1,.37-2"/><path class="cls-1" d="M207.77,157.15s-13.19-10.12-24-.9-7.7,26.56-7.7,26.56"/><path class="cls-1" d="M191.59,201c-.18-.51.24-.54.24-.54.43-.07.66.62.47,1a1.84,1.84,0,0,1-.83.78,7.32,7.32,0,0,1-8.87-1.59c-2.57-2.75-6.6-5.62-10.49,0h0c-3.89-5.62-7.93-2.75-10.49,0a7.32,7.32,0,0,1-8.87,1.59,1.92,1.92,0,0,1-.84-.78c-.19-.36,0-1.05.48-1,0,0,.41,0,.24.54"/><path class="cls-1" d="M163.14,185.48s-1.82,4.6,3.66,5.29c2.88.36,4.81-.39,5.33,2.17"/><path class="cls-1" d="M181.09,185.48s1.83,4.6-3.65,5.29c-2.88.36-4.82-.39-5.33,2.17"/><path class="cls-1" d="M212.5,159c-2.95,3.09-8.21,3.21-18.49,3.21s-12.63,5.41-12.63,5.41.78-2.19,10.36,1.4a15.3,15.3,0,0,0,16-3.08"/><path class="cls-1" d="M191.51,162.3a5.47,5.47,0,0,0-.29,1.77,5.6,5.6,0,0,0,11.19,0,5.51,5.51,0,0,0-.37-2"/><line class="cls-2" x1="185.86" y1="29.48" x2="178.1" y2="117.26"/><line class="cls-3" x1="186.62" y1="21.67" x2="188.84" y2="0.2"/><line class="cls-2" x1="158.88" y1="315.27" x2="166.65" y2="227.48"/><line class="cls-3" x1="158.13" y1="323.08" x2="155.91" y2="344.54"/><line class="cls-2" x1="315.27" y1="185.86" x2="227.48" y2="178.1"/><line class="cls-3" x1="323.08" y1="186.62" x2="344.54" y2="188.84"/><line class="cls-2" x1="29.48" y1="158.88" x2="117.26" y2="166.65"/><line class="cls-3" x1="21.67" y1="158.13" x2="0.2" y2="155.91"/><line class="cls-2" x1="282.95" y1="80.87" x2="215.39" y2="137.45"/><line class="cls-3" x1="289.01" y1="75.88" x2="305.76" y2="62.27"/><line class="cls-2" x1="61.79" y1="263.88" x2="129.35" y2="207.29"/><line class="cls-3" x1="55.73" y1="268.86" x2="38.99" y2="282.47"/><line class="cls-2" x1="263.88" y1="282.95" x2="207.29" y2="215.39"/><line class="cls-3" x1="268.86" y1="289.01" x2="282.47" y2="305.76"/><line class="cls-2" x1="80.87" y1="61.79" x2="137.45" y2="129.35"/><line class="cls-3" x1="75.88" y1="55.73" x2="62.27" y2="38.99"/><line class="cls-2" x1="240.68" y1="46.13" x2="199.2" y2="123.89"/><line class="cls-3" x1="244.43" y1="39.24" x2="254.86" y2="20.36"/><line class="cls-2" x1="104.07" y1="298.61" x2="145.55" y2="220.85"/><line class="cls-3" x1="100.32" y1="305.5" x2="89.88" y2="324.39"/><line class="cls-2" x1="298.61" y1="240.68" x2="220.85" y2="199.2"/><line class="cls-3" x1="305.5" y1="244.43" x2="324.39" y2="254.86"/><line class="cls-2" x1="46.13" y1="104.07" x2="123.89" y2="145.55"/><line class="cls-3" x1="39.24" y1="100.32" x2="20.36" y2="89.88"/><line class="cls-2" x1="309.93" y1="131.41" x2="225.62" y2="157.06"/><line class="cls-3" x1="317.46" y1="129.19" x2="338.19" y2="123.21"/><line class="cls-2" x1="34.81" y1="213.34" x2="119.12" y2="187.68"/><line class="cls-3" x1="27.29" y1="215.56" x2="6.55" y2="221.53"/><line class="cls-2" x1="213.34" y1="309.93" x2="187.68" y2="225.62"/><line class="cls-3" x1="215.56" y1="317.46" x2="221.53" y2="338.19"/><line class="cls-2" x1="131.41" y1="34.81" x2="157.06" y2="119.12"/><line class="cls-3" x1="129.19" y1="27.29" x2="123.21" y2="6.55"/><line class="cls-2" x1="214.58" y1="35.19" x2="189.16" y2="119.57"/><line class="cls-3" x1="216.9" y1="27.69" x2="223.43" y2="7.13"/><line class="cls-2" x1="130.17" y1="309.56" x2="155.58" y2="225.17"/><line class="cls-3" x1="127.84" y1="317.05" x2="121.32" y2="337.62"/><line class="cls-2" x1="309.56" y1="214.58" x2="225.17" y2="189.16"/><line class="cls-3" x1="317.05" y1="216.9" x2="337.62" y2="223.43"/><line class="cls-2" x1="35.19" y1="130.17" x2="119.57" y2="155.58"/><line class="cls-3" x1="27.69" y1="127.84" x2="7.13" y2="121.32"/><line class="cls-2" x1="299.22" y1="105.21" x2="221.58" y2="146.91"/><line class="cls-3" x1="306.16" y1="101.56" x2="325.32" y2="91.63"/><line class="cls-2" x1="45.52" y1="239.54" x2="123.16" y2="197.83"/><line class="cls-3" x1="38.58" y1="243.19" x2="19.42" y2="253.12"/><line class="cls-2" x1="239.54" y1="299.22" x2="197.83" y2="221.58"/><line class="cls-3" x1="243.19" y1="306.16" x2="253.12" y2="325.32"/><line class="cls-2" x1="105.21" y1="45.52" x2="146.91" y2="123.16"/><line class="cls-3" x1="101.56" y1="38.58" x2="91.63" y2="19.42"/><line class="cls-2" x1="264.87" y1="62.62" x2="208.48" y2="130.35"/><line class="cls-3" x1="269.94" y1="56.63" x2="283.99" y2="40.26"/><line class="cls-2" x1="79.87" y1="282.12" x2="136.27" y2="214.4"/><line class="cls-3" x1="74.8" y1="288.11" x2="60.75" y2="304.49"/><line class="cls-2" x1="282.12" y1="264.87" x2="214.4" y2="208.48"/><line class="cls-3" x1="288.11" y1="269.94" x2="304.49" y2="283.99"/><line class="cls-2" x1="62.62" y1="79.87" x2="130.35" y2="136.27"/><line class="cls-3" x1="56.63" y1="74.8" x2="40.26" y2="60.75"/><line class="cls-2" x1="315.38" y1="160.17" x2="227.62" y2="168.18"/><line class="cls-3" x1="323.2" y1="159.53" x2="344.72" y2="157.88"/><line class="cls-2" x1="29.36" y1="184.57" x2="117.13" y2="176.56"/><line class="cls-3" x1="21.54" y1="185.22" x2="0.03" y2="186.86"/><line class="cls-2" x1="184.57" y1="315.38" x2="176.56" y2="227.62"/><line class="cls-3" x1="185.22" y1="323.2" x2="186.86" y2="344.72"/><line class="cls-2" x1="160.17" y1="29.36" x2="168.18" y2="117.13"/><line class="cls-3" x1="159.53" y1="21.54" x2="157.88" y2="0.03"/><line class="cls-2" x1="185.86" y1="29.48" x2="178.1" y2="117.26"/><line class="cls-3" x1="186.62" y1="21.67" x2="188.84" y2="0.2"/><line class="cls-2" x1="158.88" y1="315.27" x2="166.65" y2="227.48"/><line class="cls-3" x1="158.13" y1="323.08" x2="155.91" y2="344.54"/><line class="cls-2" x1="315.27" y1="185.86" x2="227.48" y2="178.1"/><line class="cls-3" x1="323.08" y1="186.62" x2="344.54" y2="188.84"/><line class="cls-2" x1="29.48" y1="158.88" x2="117.26" y2="166.65"/><line class="cls-3" x1="21.67" y1="158.13" x2="0.2" y2="155.91"/><line class="cls-2" x1="282.95" y1="80.87" x2="215.39" y2="137.45"/><line class="cls-3" x1="289.01" y1="75.88" x2="305.76" y2="62.27"/><line class="cls-2" x1="61.79" y1="263.88" x2="129.35" y2="207.29"/><line class="cls-3" x1="55.73" y1="268.86" x2="38.99" y2="282.47"/><line class="cls-2" x1="263.88" y1="282.95" x2="207.29" y2="215.39"/><line class="cls-3" x1="268.86" y1="289.01" x2="282.47" y2="305.76"/><line class="cls-2" x1="80.87" y1="61.79" x2="137.45" y2="129.35"/><line class="cls-3" x1="75.88" y1="55.73" x2="62.27" y2="38.99"/><line class="cls-2" x1="240.68" y1="46.13" x2="199.2" y2="123.89"/><line class="cls-3" x1="244.43" y1="39.24" x2="254.86" y2="20.36"/><line class="cls-2" x1="104.07" y1="298.61" x2="145.55" y2="220.85"/><line class="cls-3" x1="100.32" y1="305.5" x2="89.88" y2="324.39"/><line class="cls-2" x1="298.61" y1="240.68" x2="220.85" y2="199.2"/><line class="cls-3" x1="305.5" y1="244.43" x2="324.39" y2="254.86"/><line class="cls-2" x1="46.13" y1="104.07" x2="123.89" y2="145.55"/><line class="cls-3" x1="39.24" y1="100.32" x2="20.36" y2="89.88"/><line class="cls-2" x1="309.93" y1="131.41" x2="225.62" y2="157.06"/><line class="cls-3" x1="317.46" y1="129.19" x2="338.19" y2="123.21"/><line class="cls-2" x1="34.81" y1="213.34" x2="119.12" y2="187.68"/><line class="cls-3" x1="27.29" y1="215.56" x2="6.55" y2="221.53"/><line class="cls-2" x1="213.34" y1="309.93" x2="187.68" y2="225.62"/><line class="cls-3" x1="215.56" y1="317.46" x2="221.53" y2="338.19"/><line class="cls-2" x1="131.41" y1="34.81" x2="157.06" y2="119.12"/><line class="cls-3" x1="129.19" y1="27.29" x2="123.21" y2="6.55"/><line class="cls-2" x1="214.58" y1="35.19" x2="189.16" y2="119.57"/><line class="cls-3" x1="216.9" y1="27.69" x2="223.43" y2="7.13"/><line class="cls-2" x1="130.17" y1="309.56" x2="155.58" y2="225.17"/><line class="cls-3" x1="127.84" y1="317.05" x2="121.32" y2="337.62"/><line class="cls-2" x1="309.56" y1="214.58" x2="225.17" y2="189.16"/><line class="cls-3" x1="317.05" y1="216.9" x2="337.62" y2="223.43"/><line class="cls-2" x1="35.19" y1="130.17" x2="119.57" y2="155.58"/><line class="cls-3" x1="27.69" y1="127.84" x2="7.13" y2="121.32"/><line class="cls-2" x1="299.22" y1="105.21" x2="221.58" y2="146.91"/><line class="cls-3" x1="306.16" y1="101.56" x2="325.32" y2="91.63"/><line class="cls-2" x1="45.52" y1="239.54" x2="123.16" y2="197.83"/><line class="cls-3" x1="38.58" y1="243.19" x2="19.42" y2="253.12"/><line class="cls-2" x1="239.54" y1="299.22" x2="197.83" y2="221.58"/><line class="cls-3" x1="243.19" y1="306.16" x2="253.12" y2="325.32"/><line class="cls-2" x1="105.21" y1="45.52" x2="146.91" y2="123.16"/><line class="cls-3" x1="101.56" y1="38.58" x2="91.63" y2="19.42"/><line class="cls-2" x1="264.87" y1="62.62" x2="208.48" y2="130.35"/><line class="cls-3" x1="269.94" y1="56.63" x2="283.99" y2="40.26"/><line class="cls-2" x1="79.87" y1="282.12" x2="136.27" y2="214.4"/><line class="cls-3" x1="74.8" y1="288.11" x2="60.75" y2="304.49"/><line class="cls-2" x1="282.12" y1="264.87" x2="214.4" y2="208.48"/><line class="cls-3" x1="288.11" y1="269.94" x2="304.49" y2="283.99"/><line class="cls-2" x1="62.62" y1="79.87" x2="130.35" y2="136.27"/><line class="cls-3" x1="56.63" y1="74.8" x2="40.26" y2="60.75"/><line class="cls-2" x1="315.38" y1="160.17" x2="227.62" y2="168.18"/><line class="cls-3" x1="323.2" y1="159.53" x2="344.72" y2="157.88"/><line class="cls-2" x1="29.36" y1="184.57" x2="117.13" y2="176.56"/><line class="cls-3" x1="21.54" y1="185.22" x2="0.03" y2="186.86"/><line class="cls-2" x1="184.57" y1="315.38" x2="176.56" y2="227.62"/><line class="cls-3" x1="185.22" y1="323.2" x2="186.86" y2="344.72"/><line class="cls-2" x1="160.17" y1="29.36" x2="168.18" y2="117.13"/><line class="cls-3" x1="159.53" y1="21.54" x2="157.88" y2="0.03"/><line class="cls-2" x1="173.15" y1="14.15" x2="172.88" y2="116.68"/><line class="cls-2" x1="173.15" y1="227.98" x2="172.88" y2="330.52"/><line class="cls-2" x1="331.2" y1="172.46" x2="228.67" y2="172.2"/><line class="cls-2" x1="117.36" y1="172.46" x2="14.83" y2="172.2"/><line class="cls-2" x1="173.15" y1="14.15" x2="172.88" y2="116.68"/><line class="cls-2" x1="173.15" y1="227.98" x2="172.88" y2="330.52"/><line class="cls-2" x1="284.96" y1="60.57" x2="212.27" y2="132.89"/><line class="cls-2" x1="133.76" y1="211.78" x2="61.07" y2="284.09"/><line class="cls-2" x1="284.78" y1="284.28" x2="212.46" y2="211.59"/><line class="cls-2" x1="133.57" y1="133.07" x2="61.25" y2="60.38"/><line class="cls-2" x1="284.96" y1="60.57" x2="212.27" y2="132.89"/><line class="cls-2" x1="133.76" y1="211.78" x2="61.07" y2="284.09"/><line class="cls-2" x1="202.51" y1="16.92" x2="183.22" y2="117.62"/><line class="cls-2" x1="162.81" y1="227.04" x2="143.52" y2="327.74"/><line class="cls-2" x1="328.43" y1="201.83" x2="227.72" y2="182.53"/><line class="cls-2" x1="118.31" y1="162.13" x2="17.6" y2="142.84"/><line class="cls-2" x1="202.51" y1="16.92" x2="183.22" y2="117.62"/><line class="cls-2" x1="162.81" y1="227.04" x2="143.52" y2="327.74"/><line class="cls-2" x1="303.76" y1="83.29" x2="218.91" y2="140.86"/><line class="cls-2" x1="127.12" y1="203.8" x2="42.27" y2="261.37"/><line class="cls-2" x1="262.05" y1="303.08" x2="204.49" y2="218.23"/><line class="cls-2" x1="141.54" y1="126.43" x2="83.98" y2="41.58"/><line class="cls-2" x1="303.76" y1="83.29" x2="218.91" y2="140.86"/><line class="cls-2" x1="127.12" y1="203.8" x2="42.27" y2="261.37"/><line class="cls-2" x1="233.97" y1="26.36" x2="194.29" y2="120.91"/><line class="cls-2" x1="151.73" y1="223.76" x2="112.06" y2="318.3"/><line class="cls-2" x1="318.98" y1="233.29" x2="224.44" y2="193.61"/><line class="cls-2" x1="121.59" y1="151.05" x2="27.04" y2="111.38"/><line class="cls-2" x1="233.97" y1="26.36" x2="194.29" y2="120.91"/><line class="cls-2" x1="151.73" y1="223.76" x2="112.06" y2="318.3"/><line class="cls-2" x1="319.33" y1="112.22" x2="224.42" y2="151.02"/><line class="cls-2" x1="121.61" y1="193.65" x2="26.7" y2="232.45"/><line class="cls-2" x1="233.13" y1="318.65" x2="194.33" y2="223.74"/><line class="cls-2" x1="151.7" y1="120.92" x2="112.9" y2="26.01"/><line class="cls-2" x1="319.33" y1="112.22" x2="224.42" y2="151.02"/><line class="cls-2" x1="121.61" y1="193.65" x2="26.7" y2="232.45"/><line class="cls-2" x1="261.53" y1="41.23" x2="204.01" y2="126.11"/><line class="cls-2" x1="142.02" y1="218.56" x2="84.5" y2="303.44"/><line class="cls-2" x1="304.12" y1="260.85" x2="219.24" y2="203.32"/><line class="cls-2" x1="126.79" y1="141.34" x2="41.91" y2="83.82"/><line class="cls-2" x1="261.53" y1="41.23" x2="204.01" y2="126.11"/><line class="cls-2" x1="142.02" y1="218.56" x2="84.5" y2="303.44"/><line class="cls-2" x1="328.31" y1="142.22" x2="227.61" y2="161.56"/><line class="cls-2" x1="118.41" y1="183.1" x2="17.72" y2="202.45"/><line class="cls-2" x1="203.13" y1="327.63" x2="183.79" y2="226.93"/><line class="cls-2" x1="162.24" y1="117.73" x2="142.9" y2="17.04"/><line class="cls-2" x1="328.31" y1="142.22" x2="227.61" y2="161.56"/><line class="cls-2" x1="118.41" y1="183.1" x2="17.72" y2="202.45"/></svg>