<?xml version="1.0" encoding="utf-8"?>
<!-- Generator: Adobe Illustrator 25.4.1, SVG Export Plug-In . SVG Version: 6.00 Build 0)  -->
<svg version="1.1" id="Layer_1" xmlns="http://www.w3.org/2000/svg" xmlns:xlink="http://www.w3.org/1999/xlink" x="0px" y="0px"
	 viewBox="0 0 437.3 165.3" style="enable-background:new 0 0 437.3 165.3;" xml:space="preserve">
<style type="text/css">
	.st0{fill:#113D62;}
	.st1{fill:#0E5782;}
	.st2{fill:#FFFFFF;}
	.st3{fill:#4C4C4C;}
</style>
<g>
	<g>
		<path class="st0" d="M82.7,165.3C37,165.3,0,128.3,0,82.7S37,0,82.7,0V165.3z"/>
	</g>
	<g>
		<path class="st1" d="M82.7,23.3v132.6c33-4,58.6-32.2,58.6-66.3C141.3,55.5,115.7,27.4,82.7,23.3z"/>
	</g>
	<g>
		<path class="st2" d="M46.2,34h40.2v2.9c0,0-12.4-1.4-12.4,7.9v58.7c0,0,0,12.4,12.4,12.4h13.4c0,0,12.8,1.5,17.5-21.6h3.1v25.3
			H46.2v-2.4c0,0,12.4,1.8,12.4-13.6V44.8c0,0,0-8-12.4-7.9C46.2,36.9,46.2,34,46.2,34z"/>
	</g>
	<g>
		<path class="st2" d="M55.5,27.8v-4.1c0,0-3.1-3.7-12.4-3.7s-22.4,8.5-22.4,22.4s7.7,20.1,16.2,24c12.6,5.7,18.5,10,18.5,13.5V60.3
			c0,0-20.9-7-25.5-17.8C25.6,32.1,40.8,14.6,55.5,27.8z"/>
	</g>
	<g>
		<path class="st2" d="M55.5,101.2v6.3c0,0-5.4,1.4-13.1,1.4c-5.1,0-7.7,0-13-2.3c-1.2-0.5-2.3-1.1-3.4-1.8
			c-1.3-0.9-3.7-1.6-6.8,2.5h-3.1V81.2h3c0,0,3.2,26.2,23.3,26.2C53.2,107.4,55.5,101.2,55.5,101.2z"/>
	</g>
	<g>
		<path class="st2" d="M74.1,73.4c0,0,3.1-3.9,12.4-3.9s15.5,4.6,18.5,6.2c3.1,1.5,5.1-1.5,4.8-3.1l2.9,0.2V97h-2.3
			c0,0-2.4-24.5-24-24.5c0,0-9.3,0.6-12.4,4.1L74.1,73.4L74.1,73.4z"/>
	</g>
	<g>
		<path class="st2" d="M47,121.3c1.5,0,14.1,0,14.1,0S65.2,145,85.6,146c24.7,1.2,24.8-20.1,24.8-20.1h2.3c0,0,0.9,23.2-27,23.2
			C50.1,149.1,47,121.3,47,121.3z"/>
	</g>
	<g>
		<g>
			<path class="st3" d="M211.6,93.6c-0.7,2.7-2.5,8.6-3.6,10.5c-1.8,0.4-7.2,1.6-12,1.6c-18,0-26-11.6-26-24
				c0-14.4,10.5-24.3,27-24.3c5.7,0,10.5,1.2,12.5,1.5c0.2,3.5,0.6,7.6,1,10.5l-1.2,0.3c-1.4-4.7-2.8-7.6-6.8-9.3
				c-2.1-0.9-4.6-1.2-7.4-1.2c-11.5,0-16.7,9.8-16.7,21.3c0,13.9,6.7,23.6,18.1,23.6c7.2,0,10.8-4.2,13.8-10.8L211.6,93.6z"/>
		</g>
		<g>
			<path class="st3" d="M237.5,104.7v-1c4.5-0.9,5-1.6,3.9-4.8c-0.9-2.7-2.3-7-4.1-11.8h-13.6c-1.4,3.8-2.6,7.2-3.5,10.1
				c-1.6,4.8-0.8,5.4,5,6.5v1H210v-1c4.4-0.8,5.4-1.5,8-8l14.7-37.9l1.5-0.2c4.4,12.7,9.1,25.4,13.8,38.2c2.4,6.5,3.1,7,7.5,7.9v1
				C255.5,104.7,237.5,104.7,237.5,104.7z M230.7,68c-2.2,6-4.1,11.4-6.2,16.9h12L230.7,68z"/>
		</g>
		<g>
			<path class="st3" d="M270.6,58.5c5.3,0,9.1,1,11.8,2.9c3.1,2.2,4.9,5.5,4.9,9.9c0,9.9-8.6,14.3-15.4,14.3c-0.5,0-1.1-0.1-1.6-0.2
				l-4.5-1v12.1c0,6,0.7,6.5,6.3,7.3v1h-19.4v-1c5.4-0.8,5.9-1.3,5.9-7.4V66.9c0-6.2-0.5-6.6-5.8-7.4v-1H270.6z M265.7,82.9
				c0.9,0.3,2.5,0.5,4.3,0.5c3.3,0,9.4-1.6,9.4-12.1c0-8.2-4.1-11.3-9.7-11.3c-1.6,0-2.8,0.3-3.3,0.6c-0.6,0.5-0.8,1.3-0.8,3.1v19.2
				H265.7z"/>
		</g>
		<g>
			<path class="st3" d="M322.5,94c-0.4,2.4-1.6,8.8-2.1,10.7h-33.7v-1c6.2-0.9,6.6-1.3,6.6-7.4V67.1c0-6.3-0.3-6.8-5.6-7.6v-1h20.9
				c6.6,0,9.1,0,10-0.1c0,2.6,0.3,7.4,0.6,10l-1.1,0.2c-0.5-1.8-1.5-4.4-2.7-6c-1.3-1.7-2.6-2.1-6.8-2.1h-6.4
				c-1.7,0-1.9,0.3-1.9,1.9v16.8h7.7c5.3,0,5.7-1.3,6.6-5.8h1v13.8h-1c-1.1-4.5-1.4-5.8-6.5-5.8h-7.8v15.9c0,4.9,1.4,5.5,5.7,5.5
				h5.4c3.9,0,4.9-0.6,6.6-2.9c1.2-1.5,2.2-3.6,3.2-6.1L322.5,94z"/>
		</g>
		<g>
			<path class="st3" d="M356.6,93.5c-0.5,2.7-2.2,9.5-2.8,11.2h-32.7v-1c6.3-0.9,6.6-1.5,6.6-7.5V66.9c0-6.1-0.6-6.5-6-7.4v-1h19v1
				c-5.3,1-5.8,1.4-5.8,7.4v30.8c0,4.7,1.1,5.1,5.1,5.1c1.3,0,3.4,0,4.5,0c4,0,5.3-0.4,7.1-2.5c1.4-1.6,2.7-4.2,3.9-7L356.6,93.5z"
				/>
		</g>
		<g>
			<path class="st3" d="M390.1,93.5c-0.5,2.7-2.2,9.5-2.8,11.2h-32.7v-1c6.3-0.9,6.6-1.5,6.6-7.5V66.9c0-6.1-0.6-6.5-6-7.4v-1h19v1
				c-5.3,1-5.8,1.4-5.8,7.4v30.8c0,4.7,1.1,5.1,5.1,5.1c1.3,0,3.4,0,4.5,0c4,0,5.3-0.4,7.1-2.5c1.4-1.6,2.7-4.2,3.9-7L390.1,93.5z"
				/>
		</g>
		<g>
			<path class="st3" d="M413.7,57.5c12.3,0,22.8,9.8,22.8,23.6c0,14.9-10.4,24.7-23.2,24.7c-13.2,0-23.1-10.5-23.1-23.7
				C390.2,69.6,399,57.5,413.7,57.5z M412.3,59.2c-7.5,0-13.7,7.2-13.7,21.1c0,13.6,6.2,23.8,16.1,23.8c7.7,0,13.4-7.2,13.4-21
				C428.1,68,421.7,59.2,412.3,59.2z"/>
		</g>
	</g>
	<g>
		<g>
			<path class="st3" d="M184.1,28c-0.7-2.9-2.2-5-5.5-5c-2.7,0-4,1.9-4,4.3c0,2.7,1.5,3.9,4.7,5.8c3.1,1.8,6.3,3.8,6.3,8
				s-3.5,7.4-8.3,7.4c-2.1,0-4.1-0.5-5.6-1c-0.2-0.9-0.8-4.8-0.9-5.5l0.6-0.1c0.7,2.8,2.7,5.8,6.5,5.8c3,0,4.3-2.3,4.3-4.9
				c0-2.7-1.8-4.4-4.5-6.1c-3.1-1.9-6.2-3.8-6.2-7.7c0-3.8,3-6.7,7.7-6.7c2.4,0,3.9,0.5,4.8,0.6c0.2,1.4,0.4,3.3,0.6,5.2L184.1,28z"
				/>
		</g>
		<g>
			<path class="st3" d="M208.1,28.2c-0.4-1.2-0.6-2-1.1-2.9c-0.7-1.2-1.2-1.7-3.4-1.7h-4.1v19.6c0,3.1,0.3,3.4,3.6,3.9v0.5h-10.6
				v-0.5c3.2-0.6,3.4-0.8,3.4-3.9V23.7h-4.3c-2,0-2.3,0.6-2.9,1.4c-0.6,0.9-0.9,1.9-1.3,3.1h-0.6c0.2-2.1,0.4-4.4,0.5-6.3h0.5
				c0.5,0.7,0.9,0.7,2.2,0.7h16c1.1,0,1.5-0.1,2-0.7h0.5c0,1.6,0.1,4.1,0.3,6.2L208.1,28.2z"/>
		</g>
		<g>
			<path class="st3" d="M235.2,23.2c-2.9,0.4-3,1.2-3.1,3.1c-0.1,1-0.2,2.3-0.2,5.6v4.9c0,3.8-0.4,6.8-2.6,9.1
				c-1.7,1.8-4.1,2.5-6.9,2.5c-2.4,0-4.8-0.6-6.4-1.9c-2.3-1.9-3-4.3-3-8.6V27.6c0-3.6-0.2-4-3.1-4.4v-0.5h9.8v0.5
				c-2.9,0.5-3.1,0.8-3.1,4.4v10.2c0,5.6,2.3,8.7,7.3,8.7c5.4,0,6.8-3.2,6.8-9.7v-5c0-3.2-0.1-4.5-0.1-5.7c-0.1-1.9-0.5-2.6-3.8-2.9
				v-0.5h8.4L235.2,23.2L235.2,23.2z"/>
		</g>
		<g>
			<path class="st3" d="M247.1,22.7c4.8,0,8.3,1.1,10.6,3.3c2.1,1.9,3.3,4.7,3.3,8.3c0,4.7-1.9,8.1-4.7,10.4
				c-2.8,2.2-6.1,3.1-9.9,3.1h-10.1v-0.5c3-0.5,3.2-0.8,3.2-4v-16c0-3.2-0.3-3.6-3.2-4v-0.5L247.1,22.7L247.1,22.7z M243.3,42.6
				c0,3.4,1.4,4.1,4.6,4.1c6.2,0,9.1-4.6,9.1-11.8c0-4.3-1.4-7.9-4.3-9.8c-1.7-1.2-3.6-1.6-6.1-1.6c-1.3,0-2.3,0.2-2.8,0.5
				s-0.6,0.7-0.6,2.2L243.3,42.6z"/>
		</g>
		<g>
			<path class="st3" d="M263.3,47.8v-0.5c3-0.5,3.2-0.8,3.2-4.1V27.3c0-3.4-0.3-3.6-3.2-4.1v-0.5h10.1v0.5c-3,0.5-3.3,0.7-3.3,4.1
				v15.9c0,3.3,0.3,3.5,3.3,4.1v0.5C273.4,47.8,263.3,47.8,263.3,47.8z"/>
		</g>
		<g>
			<path class="st3" d="M288.3,22.1c6.6,0,12.3,5.3,12.3,12.8c0,8.1-5.6,13.4-12.6,13.4c-7.1,0-12.5-5.7-12.5-12.8
				C275.6,28.7,280.4,22.1,288.3,22.1z M287.5,23c-4.2,0-7.7,3.9-7.7,11.5c0,7.4,3.5,12.9,9,12.9c4.3,0,7.6-3.9,7.6-11.4
				C296.4,27.8,292.8,23,287.5,23z"/>
		</g>
		<g>
			<path class="st3" d="M327.5,41.8c-0.3,1.4-1.1,5-1.5,6h-17.6v-0.5c3.4-0.5,3.6-0.8,3.6-4V27.2c0-3.3-0.3-3.5-3.3-4v-0.5h10v0.5
				c-2.9,0.5-3.1,0.7-3.1,4V44c0,2.6,0.5,2.8,2.9,2.8c0.7,0,1.9,0,2.5,0c2.2,0,3-0.2,4-1.4c0.7-0.9,1.4-2.2,2-3.7L327.5,41.8z"/>
		</g>
		<g>
			<path class="st3" d="M347.2,42.1c-0.2,1.3-0.9,4.7-1.2,5.7h-18.1v-0.5c3.4-0.5,3.6-0.7,3.6-4v-16c0-3.4-0.1-3.7-3-4.1v-0.5h11.3
				c3.5,0,4.8,0,5.4-0.1c0,1.4,0.2,4.1,0.3,5.4l-0.6,0.1c-0.3-1-0.8-2.4-1.4-3.2c-0.7-1-1.3-1.1-3.6-1.1h-3.7
				c-0.9,0-1.1,0.1-1.1,1.1V34h4.4c2.8,0,3.1-0.6,3.5-3.2h0.6v7.4H343c-0.6-2.5-0.8-3.2-3.5-3.2h-4.4v8.8c0,2.6,0.9,2.9,3.1,2.9h3.2
				c2,0,2.6-0.3,3.5-1.6c0.6-0.8,1.2-1.9,1.7-3.1L347.2,42.1z"/>
		</g>
		<g>
			<path class="st3" d="M373.7,37c-2.2,0.5-2.4,0.8-2.4,2.9v3.4c0,1.4,0.1,2.7,0.3,3.7c-2.3,0.5-5.9,1.4-8.8,1.4
				c-8.6,0-13.7-5.2-13.7-13c0-8.9,6.8-13.2,14.4-13.2c3.7,0,6.4,0.7,7.4,0.8c0.1,1.5,0.2,3.9,0.5,5.9l-0.6,0.1
				c-0.7-2.6-1.7-4.5-4.4-5.3c-1.1-0.3-2.4-0.5-3.9-0.5c-5.8,0-9.3,4.2-9.3,11.6c0,6.4,2.5,12.8,9.8,12.8c1.1,0,2.5-0.2,3.3-0.6
				c0.8-0.4,1.2-0.9,1.2-2.9v-3.5c0-2.6-0.3-2.9-3.5-3.4v-0.6h9.6V37H373.7z"/>
		</g>
		<g>
			<path class="st3" d="M389,47.8v-0.5c2.3-0.5,2.7-0.8,2.1-2.5c-0.5-1.5-1.3-4-2.3-6.8h-7.5c-0.8,2.2-1.5,4.1-2,5.7
				c-0.9,2.6-0.4,2.9,2.7,3.5v0.5h-8.2v-0.5c2.3-0.4,2.9-0.8,4.3-4.3l8-20.6l0.8-0.1c2.4,6.9,4.9,13.9,7.5,20.9
				c1.3,3.5,1.7,3.7,4.1,4.2v0.5H389z M385.2,27.5c-1.2,3.3-2.3,6.3-3.4,9.4h6.7L385.2,27.5z"/>
		</g>
		<g>
			<path class="st3" d="M417.2,41.8c-0.3,1.4-1.1,5-1.5,6h-17.6v-0.5c3.4-0.5,3.6-0.8,3.6-4V27.2c0-3.3-0.3-3.5-3.3-4v-0.5h10v0.5
				c-2.9,0.5-3.1,0.7-3.1,4V44c0,2.6,0.5,2.8,2.9,2.8c0.7,0,1.9,0,2.5,0c2.2,0,3-0.2,4-1.4c0.7-0.9,1.4-2.2,2-3.7L417.2,41.8z"/>
		</g>
		<g>
			<path class="st3" d="M436.9,42.1c-0.2,1.3-0.9,4.7-1.2,5.7h-18.1v-0.5c3.4-0.5,3.6-0.7,3.6-4v-16c0-3.4-0.1-3.7-3-4.1v-0.5h11.3
				c3.5,0,4.8,0,5.4-0.1c0,1.4,0.2,4.1,0.3,5.4l-0.6,0.1c-0.3-1-0.8-2.4-1.4-3.2c-0.7-1-1.3-1.1-3.6-1.1h-3.7
				c-0.9,0-1.1,0.1-1.1,1.1V34h4.4c2.8,0,3.1-0.6,3.5-3.2h0.6v7.4h-0.6c-0.6-2.5-0.8-3.2-3.5-3.2h-4.4v8.8c0,2.6,0.9,2.9,3.1,2.9
				h3.2c2,0,2.6-0.3,3.5-1.6c0.6-0.8,1.2-1.9,1.7-3.1L436.9,42.1z"/>
		</g>
	</g>
	<g>
		<g>
			<path class="st3" d="M183.1,145.7v-0.4c1.6-0.3,2.1-0.5,1.7-1.6c-0.4-1.3-1.1-3.4-2-5.8h-5.9c-0.6,1.9-1.2,3.4-1.6,4.8
				c-0.6,2-0.2,2.2,2,2.6v0.4h-6.1v-0.4c1.6-0.3,2.1-0.5,3.2-3.3l6.1-15.8l0.4-0.1c1.8,5.3,3.7,10.7,5.7,16.2c0.9,2.6,1.3,2.6,3.1,3
				v0.4H183.1z M180,129.6c-0.9,2.5-1.8,5-2.7,7.5h5.3L180,129.6z"/>
		</g>
		<g>
			<path class="st3" d="M196.9,136.4c-0.5-2.1-1.6-2.8-3-2.8c-1.3,0-1.9,0.8-1.9,2c0,1.4,1,2.1,2.4,2.8c2.1,1,3.3,2,3.3,3.8
				c0,2.4-2.1,3.8-4.3,3.8c-1.2,0-2.3-0.4-2.8-0.6c-0.1-0.5-0.5-2.3-0.6-3.1l0.4-0.1c0.5,1.7,1.6,3.1,3.5,3.1c1.4,0,2.2-0.9,2.2-2.1
				c0-1.4-0.9-2.1-2.3-2.9c-1.7-1-3.2-1.9-3.3-3.8c0-1.9,1.6-3.5,4-3.5c1.1,0,2,0.3,2.5,0.3c0,0.6,0.3,2.5,0.4,3L196.9,136.4z"/>
		</g>
		<g>
			<path class="st3" d="M205.6,136.4c-0.5-2.1-1.6-2.8-3-2.8c-1.3,0-1.9,0.8-1.9,2c0,1.4,1,2.1,2.4,2.8c2.1,1,3.3,2,3.3,3.8
				c0,2.4-2.1,3.8-4.3,3.8c-1.2,0-2.3-0.4-2.8-0.6c-0.1-0.5-0.5-2.3-0.6-3.1l0.4-0.1c0.5,1.7,1.6,3.1,3.5,3.1c1.4,0,2.2-0.9,2.2-2.1
				c0-1.4-0.9-2.1-2.3-2.9c-1.7-1-3.2-1.9-3.3-3.8c0-1.9,1.6-3.5,4-3.5c1.1,0,2,0.3,2.5,0.3c0,0.6,0.3,2.5,0.4,3L205.6,136.4z"/>
		</g>
		<g>
			<path class="st3" d="M213.7,133c3.5,0,5.9,2.8,5.9,6.3c0,4.4-3.2,6.7-6,6.7c-3.7,0-6-3.1-6-6.3C207.7,135.2,211.3,133,213.7,133z
				 M213.4,133.7c-2.1,0-3.5,2.2-3.5,5.2c0,3.9,1.8,6.5,4.2,6.5c1.9,0,3.3-1.4,3.3-5.5C217.4,136.7,216,133.7,213.4,133.7z"/>
		</g>
		<g>
			<path class="st3" d="M230.9,143.1c-1.2,1.6-3.1,2.9-4.6,2.9c-3.4,0-5.5-2.8-5.5-5.8c0-2.2,0.8-4.1,2.8-5.6c1.4-1.1,3.1-1.6,4-1.6
				c1.1,0,2.1,0.3,2.6,0.8c0.2,0.2,0.3,0.4,0.3,0.6c0,0.5-0.6,1.1-0.9,1.1c-0.1,0-0.2-0.1-0.5-0.3c-0.7-0.6-1.7-1-2.8-1
				c-2,0-3.7,1.2-3.7,4.6c0,4.2,2.9,5.5,4.5,5.5c1.3,0,2.3-0.3,3.5-1.6L230.9,143.1z"/>
		</g>
		<g>
			<path class="st3" d="M231.4,145.7v-0.4c1.8-0.3,1.9-0.4,1.9-2.6v-5.9c0-2-0.1-2.1-1.7-2.4v-0.3c1.2-0.2,2.5-0.6,3.6-1.1
				c0,0.6-0.1,2.3-0.1,3.6v6.1c0,2.2,0.2,2.3,1.9,2.6v0.4L231.4,145.7L231.4,145.7z M234.2,129.2c-0.6,0-1.2-0.6-1.2-1.2
				c0-0.8,0.6-1.3,1.3-1.3s1.2,0.5,1.2,1.3C235.4,128.7,234.9,129.2,234.2,129.2z"/>
		</g>
		<g>
			<path class="st3" d="M246.4,146c-0.4,0-0.9-0.2-1.3-0.6c-0.3-0.3-0.5-0.6-0.6-1.3c-1.1,0.8-2.6,1.9-3.3,1.9c-2,0-3.2-1.7-3.2-3.2
				c0-1.3,0.7-2.1,2.1-2.6c1.6-0.6,3.7-1.2,4.4-1.7v-0.9c0-2.1-1-3.5-2.6-3.5c-0.5,0-1,0.2-1.3,0.5c-0.3,0.4-0.6,1.1-0.8,1.8
				c-0.1,0.4-0.4,0.5-0.6,0.5c-0.4,0-1-0.4-1-1c0-0.2,0.2-0.5,0.7-0.9c0.8-0.6,2.8-1.8,4-2c0.8,0,1.6,0.3,2.1,0.7
				c1,0.9,1.3,1.9,1.3,3.6v5.3c0,1.4,0.5,1.9,1,1.9c0.4,0,0.6-0.1,0.9-0.3l0.2,0.4L246.4,146z M244.4,139c-0.5,0.3-2,0.9-2.8,1.3
				c-1,0.4-1.7,1-1.7,2.1c0,1.4,1.1,2.2,2.1,2.2c0.7,0,1.7-0.3,2.3-1C244.4,142.1,244.4,140.5,244.4,139z"/>
		</g>
		<g>
			<path class="st3" d="M258.7,142.2c-0.3,0.9-0.8,2.3-1.1,3.5h-9l-0.1-0.3c2.3-3.6,4.8-7.5,7.1-11.3c-0.7,0-2.4,0-2.9,0
				c-2.2,0-2.5,0.5-3.6,2.7l-0.4-0.1c0.2-0.8,0.6-2.6,0.8-3.9h0.3c0.1,0.4,0.4,0.6,1.5,0.6h6.5l0.1,0.2c-2.2,3.6-4.6,7.4-7,11.3h3.2
				c2.2,0,2.8-0.5,4.1-2.8L258.7,142.2z"/>
		</g>
		<g>
			<path class="st3" d="M258.7,145.7v-0.4c1.8-0.3,1.9-0.4,1.9-2.6v-5.9c0-2-0.1-2.1-1.7-2.4v-0.3c1.2-0.2,2.5-0.6,3.6-1.1
				c0,0.6-0.1,2.3-0.1,3.6v6.1c0,2.2,0.2,2.3,1.9,2.6v0.4L258.7,145.7L258.7,145.7z M261.5,129.2c-0.6,0-1.2-0.6-1.2-1.2
				c0-0.8,0.6-1.3,1.3-1.3c0.7,0,1.2,0.5,1.2,1.3C262.8,128.7,262.2,129.2,261.5,129.2z"/>
		</g>
		<g>
			<path class="st3" d="M271.1,133c3.5,0,5.9,2.8,5.9,6.3c0,4.4-3.2,6.7-6,6.7c-3.7,0-6-3.1-6-6.3C265.1,135.2,268.7,133,271.1,133z
				 M270.8,133.7c-2.1,0-3.5,2.2-3.5,5.2c0,3.9,1.8,6.5,4.2,6.5c1.9,0,3.3-1.4,3.3-5.5C274.8,136.7,273.5,133.7,270.8,133.7z"/>
		</g>
		<g>
			<path class="st3" d="M285.5,145.7v-0.4c1.8-0.2,1.9-0.4,1.9-2.7V138c0-1.8-0.6-3.5-2.6-3.5c-1.3,0-2.3,0.7-3.2,1.4v6.8
				c0,2.1,0.2,2.3,1.9,2.6v0.4h-5.7v-0.4c1.9-0.3,1.9-0.5,1.9-2.6v-5.9c0-1.8-0.1-2-1.5-2.4v-0.3c1.1-0.2,2.4-0.6,3.5-1.2
				c0,0.5-0.1,1.3-0.1,2.4c0.6-0.4,1.3-0.9,2-1.4c0.9-0.5,1.4-0.8,2.2-0.8c2.2,0,3.5,1.7,3.5,4.3v5.4c0,2.1,0.2,2.2,1.7,2.5v0.4
				H285.5z"/>
		</g>
		<g>
			<path class="st3" d="M301.7,143.2c-1.7,2.2-3.6,2.8-4.4,2.8c-3.5,0-5.5-2.9-5.5-6.1c0-1.9,0.6-3.5,1.8-4.8c1.1-1.2,2.7-2,4.1-2
				c2.5,0,4.1,2.1,4.1,3.9c0,0.4,0,0.7-0.1,0.7c-0.6,0.2-4,0.4-7.9,0.4c-0.1,4.7,2.5,6.3,4.6,6.3c1,0,2.1-0.4,3.2-1.5L301.7,143.2z
				 M296.9,133.8c-1.4,0-2.7,1.1-3.1,3.5c1.8,0.1,5.1,0,5.7-0.1c0.1,0,0.2-0.2,0.2-0.5C299.6,135.4,298.8,133.8,296.9,133.8z"/>
		</g>
		<g>
			<path class="st3" d="M313.9,126.6c2,0,3.6,0.4,4.7,1.2c1.1,0.9,1.9,2.2,1.9,4.1c0,3.9-3.3,5.8-6.1,5.8c-0.3,0-0.6-0.1-0.9-0.1
				l-2-0.5v5.4c0,2.3,0.3,2.5,2.6,2.8v0.4h-7.2v-0.4c2.3-0.3,2.6-0.6,2.6-2.9v-12.6c0-2.4-0.2-2.6-2.5-2.9v-0.4h6.9V126.6z
				 M311.5,136.5c0.4,0.2,1.2,0.3,2.1,0.3c2,0,4.5-0.9,4.5-4.9c0-3.3-2-4.7-4.6-4.7c-0.8,0-1.4,0.1-1.6,0.3
				c-0.2,0.2-0.4,0.6-0.4,1.8V136.5z"/>
		</g>
		<g>
			<path class="st3" d="M326.9,145.7h-6v-0.4c1.7-0.3,1.8-0.4,1.8-2.6v-5.9c0-1.9,0-2.1-1.5-2.4v-0.3c1.3-0.3,2.4-0.6,3.5-1.2
				c0,0.5,0,2.1-0.1,3.2c0.7-1.2,2.2-3.1,3.6-3.1c0.9,0,1.4,0.6,1.4,1.1s-0.3,1.1-0.7,1.4c-0.3,0.2-0.5,0.1-0.7,0
				c-0.4-0.4-0.8-0.7-1.3-0.7c-0.6,0-1.5,0.6-2.3,2.1v5.8c0,2.1,0.1,2.2,2.3,2.6L326.9,145.7L326.9,145.7z"/>
		</g>
		<g>
			<path class="st3" d="M335.7,133c3.5,0,5.9,2.8,5.9,6.3c0,4.4-3.2,6.7-6,6.7c-3.7,0-6-3.1-6-6.3C329.7,135.2,333.3,133,335.7,133z
				 M335.4,133.7c-2.1,0-3.5,2.2-3.5,5.2c0,3.9,1.8,6.5,4.2,6.5c1.9,0,3.3-1.4,3.3-5.5C339.4,136.7,338,133.7,335.4,133.7z"/>
		</g>
		<g>
			<path class="st3" d="M344.3,133.4v-0.5c0-2.7,0.6-5.3,2.8-7.1c1.1-0.8,2.2-1.2,3.1-1.3c1,0,1.8,0.4,2.1,0.9
				c0.3,0.3,0.3,0.7,0.1,1c-0.1,0.2-0.3,0.6-0.6,0.8c-0.3,0.1-0.4,0.2-0.7,0c-0.7-0.6-1.5-1.1-2.6-1.1c-2.3,0-2.4,2.9-2.4,6.5v1.1
				h2.8c0.1,0.1,0,0.6-0.2,0.8h-2.6v8.1c0,2.6,0.2,2.8,2.3,3v0.4h-6.2v-0.4c1.7-0.2,2-0.4,2-2.6v-8.5h-1.9l-0.1-0.1l0.3-0.6h1.8
				V133.4z"/>
		</g>
		<g>
			<path class="st3" d="M358.8,143.2c-1.7,2.2-3.6,2.8-4.4,2.8c-3.5,0-5.5-2.9-5.5-6.1c0-1.9,0.6-3.5,1.8-4.8c1.1-1.2,2.7-2,4.1-2
				c2.5,0,4.1,2.1,4.1,3.9c0,0.4,0,0.7-0.1,0.7c-0.6,0.2-4,0.4-7.9,0.4c-0.1,4.7,2.5,6.3,4.6,6.3c1,0,2.1-0.4,3.2-1.5L358.8,143.2z
				 M354,133.8c-1.4,0-2.7,1.1-3.1,3.5c1.8,0.1,5.1,0,5.7-0.1c0.1,0,0.2-0.2,0.2-0.5C356.8,135.4,355.9,133.8,354,133.8z"/>
		</g>
		<g>
			<path class="st3" d="M366.9,136.4c-0.5-2.1-1.6-2.8-3-2.8c-1.3,0-1.9,0.8-1.9,2c0,1.4,1,2.1,2.4,2.8c2.1,1,3.3,2,3.3,3.8
				c0,2.4-2.1,3.8-4.3,3.8c-1.2,0-2.3-0.4-2.8-0.6c-0.1-0.5-0.5-2.3-0.6-3.1l0.4-0.1c0.5,1.7,1.6,3.1,3.5,3.1c1.4,0,2.2-0.9,2.2-2.1
				c0-1.4-0.9-2.1-2.3-2.9c-1.7-1-3.2-1.9-3.3-3.8c0-1.9,1.6-3.5,4-3.5c1.1,0,2,0.3,2.5,0.3c0,0.6,0.3,2.5,0.4,3L366.9,136.4z"/>
		</g>
		<g>
			<path class="st3" d="M375.6,136.4c-0.5-2.1-1.6-2.8-3-2.8c-1.3,0-1.9,0.8-1.9,2c0,1.4,1,2.1,2.4,2.8c2.1,1,3.3,2,3.3,3.8
				c0,2.4-2.1,3.8-4.3,3.8c-1.2,0-2.3-0.4-2.8-0.6c-0.1-0.5-0.5-2.3-0.6-3.1l0.4-0.1c0.5,1.7,1.6,3.1,3.5,3.1c1.4,0,2.2-0.9,2.2-2.1
				c0-1.4-0.9-2.1-2.3-2.9c-1.7-1-3.2-1.9-3.3-3.8c0-1.9,1.6-3.5,4-3.5c1.1,0,2,0.3,2.5,0.3c0,0.6,0.3,2.5,0.4,3L375.6,136.4z"/>
		</g>
		<g>
			<path class="st3" d="M377.2,145.7v-0.4c1.8-0.3,1.9-0.4,1.9-2.6v-5.9c0-2-0.1-2.1-1.7-2.4v-0.3c1.2-0.2,2.5-0.6,3.6-1.1
				c0,0.6-0.1,2.3-0.1,3.6v6.1c0,2.2,0.2,2.3,1.9,2.6v0.4L377.2,145.7L377.2,145.7z M380,129.2c-0.6,0-1.2-0.6-1.2-1.2
				c0-0.8,0.6-1.3,1.3-1.3c0.7,0,1.2,0.5,1.2,1.3C381.2,128.7,380.7,129.2,380,129.2z"/>
		</g>
		<g>
			<path class="st3" d="M389.6,133c3.5,0,5.9,2.8,5.9,6.3c0,4.4-3.2,6.7-6,6.7c-3.7,0-6-3.1-6-6.3C383.5,135.2,387.1,133,389.6,133z
				 M389.2,133.7c-2.1,0-3.5,2.2-3.5,5.2c0,3.9,1.8,6.5,4.2,6.5c1.9,0,3.3-1.4,3.3-5.5C393.3,136.7,391.9,133.7,389.2,133.7z"/>
		</g>
		<g>
			<path class="st3" d="M403.9,145.7v-0.4c1.8-0.2,1.9-0.4,1.9-2.7V138c0-1.8-0.6-3.5-2.6-3.5c-1.3,0-2.3,0.7-3.2,1.4v6.8
				c0,2.1,0.2,2.3,1.9,2.6v0.4h-5.7v-0.4c1.9-0.3,1.9-0.5,1.9-2.6v-5.9c0-1.8-0.1-2-1.5-2.4v-0.3c1.1-0.2,2.4-0.6,3.5-1.2
				c0,0.5-0.1,1.3-0.1,2.4c0.6-0.4,1.3-0.9,2-1.4c0.9-0.5,1.4-0.8,2.2-0.8c2.2,0,3.5,1.7,3.5,4.3v5.4c0,2.1,0.2,2.2,1.7,2.5v0.4
				H403.9z"/>
		</g>
		<g>
			<path class="st3" d="M418.8,146c-0.4,0-0.9-0.2-1.3-0.6c-0.3-0.3-0.5-0.6-0.6-1.3c-1.1,0.8-2.6,1.9-3.3,1.9c-2,0-3.2-1.7-3.2-3.2
				c0-1.3,0.7-2.1,2.1-2.6c1.6-0.6,3.7-1.2,4.4-1.7v-0.9c0-2.1-1-3.5-2.6-3.5c-0.5,0-1,0.2-1.3,0.5c-0.3,0.4-0.6,1.1-0.8,1.8
				c-0.1,0.4-0.4,0.5-0.6,0.5c-0.4,0-1-0.4-1-1c0-0.2,0.2-0.5,0.7-0.9c0.8-0.6,2.8-1.8,4-2c0.8,0,1.6,0.3,2.1,0.7
				c1,0.9,1.3,1.9,1.3,3.6v5.3c0,1.4,0.5,1.9,1,1.9c0.4,0,0.6-0.1,0.9-0.3l0.2,0.4L418.8,146z M416.9,139c-0.5,0.3-2,0.9-2.8,1.3
				c-1,0.4-1.7,1-1.7,2.1c0,1.4,1.1,2.2,2.1,2.2c0.7,0,1.7-0.3,2.3-1C416.8,142.1,416.9,140.5,416.9,139z"/>
		</g>
		<g>
			<path class="st3" d="M420.8,145.7v-0.4c1.7-0.3,1.9-0.4,1.9-2.6v-14.1c0-2.3-0.1-2.5-1.9-2.8v-0.4c1.3-0.1,3.1-0.6,3.8-1
				c0,0.8-0.1,2.1-0.1,4.1v14.2c0,2.1,0.1,2.3,1.9,2.6v0.4L420.8,145.7L420.8,145.7z"/>
		</g>
		<g>
			<path class="st3" d="M436.9,143.2c-1.7,2.2-3.6,2.8-4.4,2.8c-3.5,0-5.5-2.9-5.5-6.1c0-1.9,0.6-3.5,1.8-4.8c1.1-1.2,2.7-2,4.1-2
				c2.5,0,4.1,2.1,4.1,3.9c0,0.4,0,0.7-0.1,0.7c-0.6,0.2-4,0.4-7.9,0.4c-0.1,4.7,2.5,6.3,4.6,6.3c1,0,2.1-0.4,3.2-1.5L436.9,143.2z
				 M432.1,133.8c-1.4,0-2.7,1.1-3.1,3.5c1.8,0.1,5.1,0,5.7-0.1c0.1,0,0.2-0.2,0.2-0.5C434.9,135.4,434,133.8,432.1,133.8z"/>
		</g>
	</g>
	<g>
		<g>
			<rect x="170.9" y="116.9" class="st3" width="266.3" height="1"/>
		</g>
	</g>
</g>
</svg>
